
    var notes = [
        {
          "name": "F#4",
          "midi": 66,
          "time": 0,
          "velocity": 0.7874015748031497,
          "duration": 2.0339
        },
        {
          "name": "D4",
          "midi": 62,
          "time": 0,
          "velocity": 0.7874015748031497,
          "duration": 2.0339
        },
        {
          "name": "A3",
          "midi": 57,
          "time": 0,
          "velocity": 0.7874015748031497,
          "duration": 2.0339
        },
        {
          "name": "D3",
          "midi": 50,
          "time": 0,
          "velocity": 0.7874015748031497,
          "duration": 2.0339
        },
        {
          "name": "A2",
          "midi": 45,
          "time": 0,
          "velocity": 0.7874015748031497,
          "duration": 2.0339
        },
        {
          "name": "D2",
          "midi": 38,
          "time": 0,
          "velocity": 0.7874015748031497,
          "duration": 2.0339
        },
        {
          "name": "F#4",
          "midi": 66,
          "time": 2.0339,
          "velocity": 0.7874015748031497,
          "duration": 2.0339
        },
        {
          "name": "D4",
          "midi": 62,
          "time": 2.0339,
          "velocity": 0.7874015748031497,
          "duration": 2.0339
        },
        {
          "name": "A3",
          "midi": 57,
          "time": 2.0339,
          "velocity": 0.7874015748031497,
          "duration": 2.0339
        },
        {
          "name": "D3",
          "midi": 50,
          "time": 2.0339,
          "velocity": 0.7874015748031497,
          "duration": 2.0339
        },
        {
          "name": "A2",
          "midi": 45,
          "time": 2.0339,
          "velocity": 0.7874015748031497,
          "duration": 2.0339
        },
        {
          "name": "D2",
          "midi": 38,
          "time": 2.0339,
          "velocity": 0.7874015748031497,
          "duration": 2.0339
        },
        {
          "name": "F#4",
          "midi": 66,
          "time": 4.0678,
          "velocity": 0.7874015748031497,
          "duration": 2.0339
        },
        {
          "name": "D4",
          "midi": 62,
          "time": 4.0678,
          "velocity": 0.7874015748031497,
          "duration": 2.0339
        },
        {
          "name": "A3",
          "midi": 57,
          "time": 4.0678,
          "velocity": 0.7874015748031497,
          "duration": 2.0339
        },
        {
          "name": "D3",
          "midi": 50,
          "time": 4.0678,
          "velocity": 0.7874015748031497,
          "duration": 2.0339
        },
        {
          "name": "A2",
          "midi": 45,
          "time": 4.0678,
          "velocity": 0.7874015748031497,
          "duration": 2.0339
        },
        {
          "name": "D2",
          "midi": 38,
          "time": 4.0678,
          "velocity": 0.7874015748031497,
          "duration": 2.0339
        },
        {
          "name": "F#4",
          "midi": 66,
          "time": 6.1017,
          "velocity": 0.7874015748031497,
          "duration": 2.0339
        },
        {
          "name": "D4",
          "midi": 62,
          "time": 6.1017,
          "velocity": 0.7874015748031497,
          "duration": 2.0339
        },
        {
          "name": "A3",
          "midi": 57,
          "time": 6.1017,
          "velocity": 0.7874015748031497,
          "duration": 2.0339
        },
        {
          "name": "D3",
          "midi": 50,
          "time": 6.1017,
          "velocity": 0.7874015748031497,
          "duration": 2.0339
        },
        {
          "name": "A2",
          "midi": 45,
          "time": 6.1017,
          "velocity": 0.7874015748031497,
          "duration": 2.0339
        },
        {
          "name": "D2",
          "midi": 38,
          "time": 6.1017,
          "velocity": 0.7874015748031497,
          "duration": 2.0339
        },
        {
          "name": "D#4",
          "midi": 63,
          "time": 11.694925000000001,
          "velocity": 0.7874015748031497,
          "duration": 4.576275000000052
        },
        {
          "name": "D2",
          "midi": 38,
          "time": 16.271200000000054,
          "velocity": 0.7874015748031497,
          "duration": 0.254237499999995
        },
        {
          "name": "D2",
          "midi": 38,
          "time": 16.65255625000005,
          "velocity": 0.7874015748031497,
          "duration": 0.25423749999999856
        },
        {
          "name": "D2",
          "midi": 38,
          "time": 17.03391250000005,
          "velocity": 0.7874015748031497,
          "duration": 0.25423749999999856
        },
        {
          "name": "C#4",
          "midi": 61,
          "time": 17.288150000000048,
          "velocity": 0.7874015748031497,
          "duration": 0.25423749999999856
        },
        {
          "name": "D4",
          "midi": 62,
          "time": 17.542387500000046,
          "velocity": 0.7874015748031497,
          "duration": 0.25423749999999856
        },
        {
          "name": "F#4",
          "midi": 66,
          "time": 17.796625000000045,
          "velocity": 0.7874015748031497,
          "duration": 0.25423749999999856
        },
        {
          "name": "G4",
          "midi": 67,
          "time": 18.050862500000044,
          "velocity": 0.7874015748031497,
          "duration": 0.25423749999999856
        },
        {
          "name": "D2",
          "midi": 38,
          "time": 18.305100000000042,
          "velocity": 0.7874015748031497,
          "duration": 0.25423749999999856
        },
        {
          "name": "D2",
          "midi": 38,
          "time": 18.68645625000004,
          "velocity": 0.7874015748031497,
          "duration": 0.25423749999999856
        },
        {
          "name": "D2",
          "midi": 38,
          "time": 19.06781250000004,
          "velocity": 0.7874015748031497,
          "duration": 0.25423749999999856
        },
        {
          "name": "C#4",
          "midi": 61,
          "time": 19.32205000000004,
          "velocity": 0.7874015748031497,
          "duration": 0.25423749999999856
        },
        {
          "name": "D4",
          "midi": 62,
          "time": 19.57628750000004,
          "velocity": 0.7874015748031497,
          "duration": 0.25423749999999856
        },
        {
          "name": "F#4",
          "midi": 66,
          "time": 19.830525000000037,
          "velocity": 0.7874015748031497,
          "duration": 0.25423749999999856
        },
        {
          "name": "G4",
          "midi": 67,
          "time": 20.084762500000036,
          "velocity": 0.7874015748031497,
          "duration": 0.25423749999999856
        },
        {
          "name": "D2",
          "midi": 38,
          "time": 20.339000000000034,
          "velocity": 0.7874015748031497,
          "duration": 0.25423749999999856
        },
        {
          "name": "D2",
          "midi": 38,
          "time": 20.720356250000034,
          "velocity": 0.7874015748031497,
          "duration": 0.25423749999999856
        },
        {
          "name": "D2",
          "midi": 38,
          "time": 21.101712500000033,
          "velocity": 0.7874015748031497,
          "duration": 0.25423749999999856
        },
        {
          "name": "C#4",
          "midi": 61,
          "time": 21.355950000000032,
          "velocity": 0.7874015748031497,
          "duration": 0.25423749999999856
        },
        {
          "name": "D4",
          "midi": 62,
          "time": 21.61018750000003,
          "velocity": 0.7874015748031497,
          "duration": 0.25423749999999856
        },
        {
          "name": "F#4",
          "midi": 66,
          "time": 21.86442500000003,
          "velocity": 0.7874015748031497,
          "duration": 0.25423749999999856
        },
        {
          "name": "G4",
          "midi": 67,
          "time": 22.118662500000028,
          "velocity": 0.7874015748031497,
          "duration": 0.25423749999999856
        },
        {
          "name": "D2",
          "midi": 38,
          "time": 22.372900000000026,
          "velocity": 0.7874015748031497,
          "duration": 0.25423749999999856
        },
        {
          "name": "D2",
          "midi": 38,
          "time": 22.754256250000026,
          "velocity": 0.7874015748031497,
          "duration": 0.25423749999999856
        },
        {
          "name": "D2",
          "midi": 38,
          "time": 23.135612500000025,
          "velocity": 0.7874015748031497,
          "duration": 0.25423749999999856
        },
        {
          "name": "C#4",
          "midi": 61,
          "time": 23.389850000000024,
          "velocity": 0.7874015748031497,
          "duration": 0.25423749999999856
        },
        {
          "name": "D4",
          "midi": 62,
          "time": 23.644087500000023,
          "velocity": 0.7874015748031497,
          "duration": 0.25423749999999856
        },
        {
          "name": "G4",
          "midi": 67,
          "time": 23.89832500000002,
          "velocity": 0.7874015748031497,
          "duration": 0.12711875000000106
        },
        {
          "name": "A4",
          "midi": 69,
          "time": 24.025443750000022,
          "velocity": 0.7874015748031497,
          "duration": 0.12711875000000106
        },
        {
          "name": "G4",
          "midi": 67,
          "time": 24.152562500000023,
          "velocity": 0.7874015748031497,
          "duration": 0.25423749999999856
        },
        {
          "name": "D2",
          "midi": 38,
          "time": 24.406800000000022,
          "velocity": 0.7874015748031497,
          "duration": 0.25423749999999856
        },
        {
          "name": "D2",
          "midi": 38,
          "time": 24.78815625000002,
          "velocity": 0.7874015748031497,
          "duration": 0.25423749999999856
        },
        {
          "name": "D2",
          "midi": 38,
          "time": 25.16951250000002,
          "velocity": 0.7874015748031497,
          "duration": 0.25423749999999856
        },
        {
          "name": "C#4",
          "midi": 61,
          "time": 25.42375000000002,
          "velocity": 0.7874015748031497,
          "duration": 0.25423749999999856
        },
        {
          "name": "D4",
          "midi": 62,
          "time": 25.677987500000018,
          "velocity": 0.7874015748031497,
          "duration": 0.25423749999999856
        },
        {
          "name": "F#4",
          "midi": 66,
          "time": 25.932225000000017,
          "velocity": 0.7874015748031497,
          "duration": 0.25423749999999856
        },
        {
          "name": "G4",
          "midi": 67,
          "time": 26.186462500000015,
          "velocity": 0.7874015748031497,
          "duration": 0.25423749999999856
        },
        {
          "name": "D2",
          "midi": 38,
          "time": 26.440700000000014,
          "velocity": 0.7874015748031497,
          "duration": 0.25423749999999856
        },
        {
          "name": "D2",
          "midi": 38,
          "time": 26.822056250000013,
          "velocity": 0.7874015748031497,
          "duration": 0.25423749999999856
        },
        {
          "name": "D2",
          "midi": 38,
          "time": 27.203412500000013,
          "velocity": 0.7874015748031497,
          "duration": 0.25423749999999856
        },
        {
          "name": "C#4",
          "midi": 61,
          "time": 27.45765000000001,
          "velocity": 0.7874015748031497,
          "duration": 0.25423749999999856
        },
        {
          "name": "D4",
          "midi": 62,
          "time": 27.71188750000001,
          "velocity": 0.7874015748031497,
          "duration": 0.25423749999999856
        },
        {
          "name": "F#4",
          "midi": 66,
          "time": 27.96612500000001,
          "velocity": 0.7874015748031497,
          "duration": 0.25423749999999856
        },
        {
          "name": "G4",
          "midi": 67,
          "time": 28.220362500000007,
          "velocity": 0.7874015748031497,
          "duration": 0.25423749999999856
        },
        {
          "name": "D2",
          "midi": 38,
          "time": 28.474600000000006,
          "velocity": 0.7874015748031497,
          "duration": 0.25423749999999856
        },
        {
          "name": "D2",
          "midi": 38,
          "time": 28.855956250000006,
          "velocity": 0.7874015748031497,
          "duration": 0.25423749999999856
        },
        {
          "name": "D2",
          "midi": 38,
          "time": 29.237312500000005,
          "velocity": 0.7874015748031497,
          "duration": 0.25423749999999856
        },
        {
          "name": "C#4",
          "midi": 61,
          "time": 29.491550000000004,
          "velocity": 0.7874015748031497,
          "duration": 0.25423749999999856
        },
        {
          "name": "D4",
          "midi": 62,
          "time": 29.745787500000002,
          "velocity": 0.7874015748031497,
          "duration": 0.25423749999999856
        },
        {
          "name": "F#4",
          "midi": 66,
          "time": 30.000025,
          "velocity": 0.7874015748031497,
          "duration": 0.25423749999999856
        },
        {
          "name": "G4",
          "midi": 67,
          "time": 30.2542625,
          "velocity": 0.7874015748031497,
          "duration": 0.25423749999999856
        },
        {
          "name": "D2",
          "midi": 38,
          "time": 30.508499999999998,
          "velocity": 0.7874015748031497,
          "duration": 0.25423749999999856
        },
        {
          "name": "D2",
          "midi": 38,
          "time": 30.889856249999998,
          "velocity": 0.7874015748031497,
          "duration": 0.25423749999999856
        },
        {
          "name": "D2",
          "midi": 38,
          "time": 31.271212499999997,
          "velocity": 0.7874015748031497,
          "duration": 0.25423749999999856
        },
        {
          "name": "C#4",
          "midi": 61,
          "time": 31.525449999999996,
          "velocity": 0.7874015748031497,
          "duration": 0.25423749999999856
        },
        {
          "name": "D4",
          "midi": 62,
          "time": 31.779687499999994,
          "velocity": 0.7874015748031497,
          "duration": 0.2542375000000021
        },
        {
          "name": "G4",
          "midi": 67,
          "time": 32.033924999999996,
          "velocity": 0.7874015748031497,
          "duration": 0.12711875000000106
        },
        {
          "name": "A4",
          "midi": 69,
          "time": 32.16104375,
          "velocity": 0.7874015748031497,
          "duration": 0.12711875000000106
        },
        {
          "name": "G4",
          "midi": 67,
          "time": 32.2881625,
          "velocity": 0.7874015748031497,
          "duration": 0.2542375000000021
        },
        {
          "name": "D2",
          "midi": 38,
          "time": 32.5424,
          "velocity": 0.7874015748031497,
          "duration": 0.3389833333333314
        },
        {
          "name": "D2",
          "midi": 38,
          "time": 32.88138333333333,
          "velocity": 0.7874015748031497,
          "duration": 0.3389833333333314
        },
        {
          "name": "D2",
          "midi": 38,
          "time": 33.22036666666666,
          "velocity": 0.7874015748031497,
          "duration": 0.3389833333333314
        },
        {
          "name": "D#3",
          "midi": 51,
          "time": 33.559349999999995,
          "velocity": 0.7874015748031497,
          "duration": 0.3389833333333314
        },
        {
          "name": "D#3",
          "midi": 51,
          "time": 33.898333333333326,
          "velocity": 0.7874015748031497,
          "duration": 0.3389833333333314
        },
        {
          "name": "D#3",
          "midi": 51,
          "time": 34.23731666666666,
          "velocity": 0.7874015748031497,
          "duration": 0.3389833333333314
        },
        {
          "name": "D2",
          "midi": 38,
          "time": 34.57629999999999,
          "velocity": 0.7874015748031497,
          "duration": 0.3389833333333314
        },
        {
          "name": "D2",
          "midi": 38,
          "time": 34.91528333333332,
          "velocity": 0.7874015748031497,
          "duration": 0.3389833333333314
        },
        {
          "name": "D2",
          "midi": 38,
          "time": 35.25426666666665,
          "velocity": 0.7874015748031497,
          "duration": 0.3389833333333314
        },
        {
          "name": "D#3",
          "midi": 51,
          "time": 35.59324999999998,
          "velocity": 0.7874015748031497,
          "duration": 0.3389833333333314
        },
        {
          "name": "D#3",
          "midi": 51,
          "time": 35.932233333333315,
          "velocity": 0.7874015748031497,
          "duration": 0.3389833333333314
        },
        {
          "name": "D#3",
          "midi": 51,
          "time": 36.271216666666646,
          "velocity": 0.7874015748031497,
          "duration": 0.3389833333333314
        },
        {
          "name": "D2",
          "midi": 38,
          "time": 36.61019999999998,
          "velocity": 0.7874015748031497,
          "duration": 0.3389833333333314
        },
        {
          "name": "D2",
          "midi": 38,
          "time": 36.94918333333331,
          "velocity": 0.7874015748031497,
          "duration": 0.3389833333333314
        },
        {
          "name": "D2",
          "midi": 38,
          "time": 37.28816666666664,
          "velocity": 0.7874015748031497,
          "duration": 0.3389833333333314
        },
        {
          "name": "D#4",
          "midi": 63,
          "time": 37.62714999999997,
          "velocity": 0.7874015748031497,
          "duration": 0.3389833333333314
        },
        {
          "name": "D#3",
          "midi": 51,
          "time": 37.62714999999997,
          "velocity": 0.7874015748031497,
          "duration": 0.3389833333333314
        },
        {
          "name": "D#4",
          "midi": 63,
          "time": 37.9661333333333,
          "velocity": 0.7874015748031497,
          "duration": 0.3389833333333314
        },
        {
          "name": "D#3",
          "midi": 51,
          "time": 37.9661333333333,
          "velocity": 0.7874015748031497,
          "duration": 0.3389833333333314
        },
        {
          "name": "D#4",
          "midi": 63,
          "time": 38.305116666666635,
          "velocity": 0.7874015748031497,
          "duration": 0.3389833333333314
        },
        {
          "name": "D#3",
          "midi": 51,
          "time": 38.305116666666635,
          "velocity": 0.7874015748031497,
          "duration": 0.3389833333333314
        },
        {
          "name": "D2",
          "midi": 38,
          "time": 38.644099999999966,
          "velocity": 0.7874015748031497,
          "duration": 0.3389833333333314
        },
        {
          "name": "D2",
          "midi": 38,
          "time": 38.9830833333333,
          "velocity": 0.7874015748031497,
          "duration": 0.3389833333333314
        },
        {
          "name": "D2",
          "midi": 38,
          "time": 39.32206666666663,
          "velocity": 0.7874015748031497,
          "duration": 0.3389833333333314
        },
        {
          "name": "D#5",
          "midi": 75,
          "time": 39.66104999999996,
          "velocity": 0.7874015748031497,
          "duration": 0.12711875000000106
        },
        {
          "name": "D#4",
          "midi": 63,
          "time": 39.66104999999996,
          "velocity": 0.7874015748031497,
          "duration": 0.12711875000000106
        },
        {
          "name": "D#5",
          "midi": 75,
          "time": 39.78816874999996,
          "velocity": 0.7874015748031497,
          "duration": 0.38135625000000317
        },
        {
          "name": "D#4",
          "midi": 63,
          "time": 39.78816874999996,
          "velocity": 0.7874015748031497,
          "duration": 0.38135625000000317
        },
        {
          "name": "D2",
          "midi": 38,
          "time": 97.62719999999996,
          "velocity": 0.7874015748031497,
          "duration": 0.12711874999999395
        },
        {
          "name": "D4",
          "midi": 62,
          "time": 97.62719999999996,
          "velocity": 0.7874015748031497,
          "duration": 0.12711874999999395
        },
        {
          "name": "D3",
          "midi": 50,
          "time": 97.62719999999996,
          "velocity": 0.7874015748031497,
          "duration": 0.12711874999999395
        },
        {
          "name": "D2",
          "midi": 38,
          "time": 97.75431874999995,
          "velocity": 0.7874015748031497,
          "duration": 0.12711874999999395
        },
        {
          "name": "D4",
          "midi": 62,
          "time": 97.75431874999995,
          "velocity": 0.7874015748031497,
          "duration": 0.12711874999999395
        },
        {
          "name": "D3",
          "midi": 50,
          "time": 97.75431874999995,
          "velocity": 0.7874015748031497,
          "duration": 0.12711874999999395
        },
        {
          "name": "D2",
          "midi": 38,
          "time": 98.00855624999994,
          "velocity": 0.7874015748031497,
          "duration": 0.12711874999999395
        },
        {
          "name": "D4",
          "midi": 62,
          "time": 98.00855624999994,
          "velocity": 0.7874015748031497,
          "duration": 0.12711874999999395
        },
        {
          "name": "D3",
          "midi": 50,
          "time": 98.00855624999994,
          "velocity": 0.7874015748031497,
          "duration": 0.12711874999999395
        },
        {
          "name": "D2",
          "midi": 38,
          "time": 98.13567499999994,
          "velocity": 0.7874015748031497,
          "duration": 0.12711874999999395
        },
        {
          "name": "D4",
          "midi": 62,
          "time": 98.13567499999994,
          "velocity": 0.7874015748031497,
          "duration": 0.12711874999999395
        },
        {
          "name": "D3",
          "midi": 50,
          "time": 98.13567499999994,
          "velocity": 0.7874015748031497,
          "duration": 0.12711874999999395
        },
        {
          "name": "D2",
          "midi": 38,
          "time": 98.51703124999993,
          "velocity": 0.7874015748031497,
          "duration": 0.0847458333333293
        },
        {
          "name": "D4",
          "midi": 62,
          "time": 98.51703124999993,
          "velocity": 0.7874015748031497,
          "duration": 0.0847458333333293
        },
        {
          "name": "D3",
          "midi": 50,
          "time": 98.51703124999993,
          "velocity": 0.7874015748031497,
          "duration": 0.0847458333333293
        },
        {
          "name": "F3",
          "midi": 53,
          "time": 98.77126874999993,
          "velocity": 0.7874015748031497,
          "duration": 0.12711874999999395
        },
        {
          "name": "C3",
          "midi": 48,
          "time": 98.77126874999993,
          "velocity": 0.7874015748031497,
          "duration": 0.12711874999999395
        },
        {
          "name": "F2",
          "midi": 41,
          "time": 98.77126874999993,
          "velocity": 0.7874015748031497,
          "duration": 0.12711874999999395
        },
        {
          "name": "F3",
          "midi": 53,
          "time": 98.89838749999993,
          "velocity": 0.7874015748031497,
          "duration": 0.2542375000000021
        },
        {
          "name": "C3",
          "midi": 48,
          "time": 98.89838749999993,
          "velocity": 0.7874015748031497,
          "duration": 0.2542375000000021
        },
        {
          "name": "F2",
          "midi": 41,
          "time": 98.89838749999993,
          "velocity": 0.7874015748031497,
          "duration": 0.2542375000000021
        },
        {
          "name": "G3",
          "midi": 55,
          "time": 99.15262499999993,
          "velocity": 0.7874015748031497,
          "duration": 0.2542375000000021
        },
        {
          "name": "D3",
          "midi": 50,
          "time": 99.15262499999993,
          "velocity": 0.7874015748031497,
          "duration": 0.2542375000000021
        },
        {
          "name": "G2",
          "midi": 43,
          "time": 99.15262499999993,
          "velocity": 0.7874015748031497,
          "duration": 0.2542375000000021
        },
        {
          "name": "F3",
          "midi": 53,
          "time": 99.40686249999993,
          "velocity": 0.7874015748031497,
          "duration": 0.2542375000000021
        },
        {
          "name": "C3",
          "midi": 48,
          "time": 99.40686249999993,
          "velocity": 0.7874015748031497,
          "duration": 0.2542375000000021
        },
        {
          "name": "D2",
          "midi": 38,
          "time": 99.66109999999993,
          "velocity": 0.7874015748031497,
          "duration": 0.12711874999999395
        },
        {
          "name": "D4",
          "midi": 62,
          "time": 99.66109999999993,
          "velocity": 0.7874015748031497,
          "duration": 0.12711874999999395
        },
        {
          "name": "D3",
          "midi": 50,
          "time": 99.66109999999993,
          "velocity": 0.7874015748031497,
          "duration": 0.12711874999999395
        },
        {
          "name": "D2",
          "midi": 38,
          "time": 99.78821874999993,
          "velocity": 0.7874015748031497,
          "duration": 0.12711874999999395
        },
        {
          "name": "D4",
          "midi": 62,
          "time": 99.78821874999993,
          "velocity": 0.7874015748031497,
          "duration": 0.12711874999999395
        },
        {
          "name": "D3",
          "midi": 50,
          "time": 99.78821874999993,
          "velocity": 0.7874015748031497,
          "duration": 0.12711874999999395
        },
        {
          "name": "D2",
          "midi": 38,
          "time": 100.04245624999992,
          "velocity": 0.7874015748031497,
          "duration": 0.12711874999999395
        },
        {
          "name": "D4",
          "midi": 62,
          "time": 100.04245624999992,
          "velocity": 0.7874015748031497,
          "duration": 0.12711874999999395
        },
        {
          "name": "D3",
          "midi": 50,
          "time": 100.04245624999992,
          "velocity": 0.7874015748031497,
          "duration": 0.12711874999999395
        },
        {
          "name": "D2",
          "midi": 38,
          "time": 100.16957499999991,
          "velocity": 0.7874015748031497,
          "duration": 0.12711874999999395
        },
        {
          "name": "D4",
          "midi": 62,
          "time": 100.16957499999991,
          "velocity": 0.7874015748031497,
          "duration": 0.12711874999999395
        },
        {
          "name": "D3",
          "midi": 50,
          "time": 100.16957499999991,
          "velocity": 0.7874015748031497,
          "duration": 0.12711874999999395
        },
        {
          "name": "D2",
          "midi": 38,
          "time": 100.5509312499999,
          "velocity": 0.7874015748031497,
          "duration": 0.0847458333333293
        },
        {
          "name": "D4",
          "midi": 62,
          "time": 100.5509312499999,
          "velocity": 0.7874015748031497,
          "duration": 0.0847458333333293
        },
        {
          "name": "D3",
          "midi": 50,
          "time": 100.5509312499999,
          "velocity": 0.7874015748031497,
          "duration": 0.0847458333333293
        },
        {
          "name": "F3",
          "midi": 53,
          "time": 100.80516874999991,
          "velocity": 0.7874015748031497,
          "duration": 0.12711874999999395
        },
        {
          "name": "C3",
          "midi": 48,
          "time": 100.80516874999991,
          "velocity": 0.7874015748031497,
          "duration": 0.12711874999999395
        },
        {
          "name": "F2",
          "midi": 41,
          "time": 100.80516874999991,
          "velocity": 0.7874015748031497,
          "duration": 0.12711874999999395
        },
        {
          "name": "F3",
          "midi": 53,
          "time": 100.9322874999999,
          "velocity": 0.7874015748031497,
          "duration": 0.2542375000000021
        },
        {
          "name": "C3",
          "midi": 48,
          "time": 100.9322874999999,
          "velocity": 0.7874015748031497,
          "duration": 0.2542375000000021
        },
        {
          "name": "F2",
          "midi": 41,
          "time": 100.9322874999999,
          "velocity": 0.7874015748031497,
          "duration": 0.2542375000000021
        },
        {
          "name": "G3",
          "midi": 55,
          "time": 101.1865249999999,
          "velocity": 0.7874015748031497,
          "duration": 0.2542375000000021
        },
        {
          "name": "D3",
          "midi": 50,
          "time": 101.1865249999999,
          "velocity": 0.7874015748031497,
          "duration": 0.2542375000000021
        },
        {
          "name": "G2",
          "midi": 43,
          "time": 101.1865249999999,
          "velocity": 0.7874015748031497,
          "duration": 0.2542375000000021
        },
        {
          "name": "F3",
          "midi": 53,
          "time": 101.4407624999999,
          "velocity": 0.7874015748031497,
          "duration": 0.2542375000000021
        },
        {
          "name": "C3",
          "midi": 48,
          "time": 101.4407624999999,
          "velocity": 0.7874015748031497,
          "duration": 0.2542375000000021
        },
        {
          "name": "D2",
          "midi": 38,
          "time": 101.69499999999991,
          "velocity": 0.7874015748031497,
          "duration": 0.12711874999999395
        },
        {
          "name": "D4",
          "midi": 62,
          "time": 101.69499999999991,
          "velocity": 0.7874015748031497,
          "duration": 0.12711874999999395
        },
        {
          "name": "D3",
          "midi": 50,
          "time": 101.69499999999991,
          "velocity": 0.7874015748031497,
          "duration": 0.12711874999999395
        },
        {
          "name": "D2",
          "midi": 38,
          "time": 101.8221187499999,
          "velocity": 0.7874015748031497,
          "duration": 0.12711874999999395
        },
        {
          "name": "D4",
          "midi": 62,
          "time": 101.8221187499999,
          "velocity": 0.7874015748031497,
          "duration": 0.12711874999999395
        },
        {
          "name": "D3",
          "midi": 50,
          "time": 101.8221187499999,
          "velocity": 0.7874015748031497,
          "duration": 0.12711874999999395
        },
        {
          "name": "D2",
          "midi": 38,
          "time": 102.07635624999989,
          "velocity": 0.7874015748031497,
          "duration": 0.12711874999999395
        },
        {
          "name": "D4",
          "midi": 62,
          "time": 102.07635624999989,
          "velocity": 0.7874015748031497,
          "duration": 0.12711874999999395
        },
        {
          "name": "D3",
          "midi": 50,
          "time": 102.07635624999989,
          "velocity": 0.7874015748031497,
          "duration": 0.12711874999999395
        },
        {
          "name": "D2",
          "midi": 38,
          "time": 102.20347499999988,
          "velocity": 0.7874015748031497,
          "duration": 0.12711874999999395
        },
        {
          "name": "D4",
          "midi": 62,
          "time": 102.20347499999988,
          "velocity": 0.7874015748031497,
          "duration": 0.12711874999999395
        },
        {
          "name": "D3",
          "midi": 50,
          "time": 102.20347499999988,
          "velocity": 0.7874015748031497,
          "duration": 0.12711874999999395
        },
        {
          "name": "D2",
          "midi": 38,
          "time": 102.58483124999988,
          "velocity": 0.7874015748031497,
          "duration": 0.0847458333333293
        },
        {
          "name": "D4",
          "midi": 62,
          "time": 102.58483124999988,
          "velocity": 0.7874015748031497,
          "duration": 0.0847458333333293
        },
        {
          "name": "D3",
          "midi": 50,
          "time": 102.58483124999988,
          "velocity": 0.7874015748031497,
          "duration": 0.0847458333333293
        },
        {
          "name": "F3",
          "midi": 53,
          "time": 102.83906874999988,
          "velocity": 0.7874015748031497,
          "duration": 0.12711874999999395
        },
        {
          "name": "C3",
          "midi": 48,
          "time": 102.83906874999988,
          "velocity": 0.7874015748031497,
          "duration": 0.12711874999999395
        },
        {
          "name": "F2",
          "midi": 41,
          "time": 102.83906874999988,
          "velocity": 0.7874015748031497,
          "duration": 0.12711874999999395
        },
        {
          "name": "F3",
          "midi": 53,
          "time": 102.96618749999988,
          "velocity": 0.7874015748031497,
          "duration": 0.2542375000000021
        },
        {
          "name": "C3",
          "midi": 48,
          "time": 102.96618749999988,
          "velocity": 0.7874015748031497,
          "duration": 0.2542375000000021
        },
        {
          "name": "F2",
          "midi": 41,
          "time": 102.96618749999988,
          "velocity": 0.7874015748031497,
          "duration": 0.2542375000000021
        },
        {
          "name": "G3",
          "midi": 55,
          "time": 103.22042499999988,
          "velocity": 0.7874015748031497,
          "duration": 0.2542375000000021
        },
        {
          "name": "D3",
          "midi": 50,
          "time": 103.22042499999988,
          "velocity": 0.7874015748031497,
          "duration": 0.2542375000000021
        },
        {
          "name": "G2",
          "midi": 43,
          "time": 103.22042499999988,
          "velocity": 0.7874015748031497,
          "duration": 0.2542375000000021
        },
        {
          "name": "F3",
          "midi": 53,
          "time": 103.47466249999988,
          "velocity": 0.7874015748031497,
          "duration": 0.2542375000000021
        },
        {
          "name": "C3",
          "midi": 48,
          "time": 103.47466249999988,
          "velocity": 0.7874015748031497,
          "duration": 0.2542375000000021
        },
        {
          "name": "D2",
          "midi": 38,
          "time": 103.72889999999988,
          "velocity": 0.7874015748031497,
          "duration": 0.12711874999999395
        },
        {
          "name": "D4",
          "midi": 62,
          "time": 103.72889999999988,
          "velocity": 0.7874015748031497,
          "duration": 0.12711874999999395
        },
        {
          "name": "D3",
          "midi": 50,
          "time": 103.72889999999988,
          "velocity": 0.7874015748031497,
          "duration": 0.12711874999999395
        },
        {
          "name": "D2",
          "midi": 38,
          "time": 103.85601874999988,
          "velocity": 0.7874015748031497,
          "duration": 0.12711874999999395
        },
        {
          "name": "D4",
          "midi": 62,
          "time": 103.85601874999988,
          "velocity": 0.7874015748031497,
          "duration": 0.12711874999999395
        },
        {
          "name": "D3",
          "midi": 50,
          "time": 103.85601874999988,
          "velocity": 0.7874015748031497,
          "duration": 0.12711874999999395
        },
        {
          "name": "D2",
          "midi": 38,
          "time": 104.11025624999986,
          "velocity": 0.7874015748031497,
          "duration": 0.12711874999999395
        },
        {
          "name": "D4",
          "midi": 62,
          "time": 104.11025624999986,
          "velocity": 0.7874015748031497,
          "duration": 0.12711874999999395
        },
        {
          "name": "D3",
          "midi": 50,
          "time": 104.11025624999986,
          "velocity": 0.7874015748031497,
          "duration": 0.12711874999999395
        },
        {
          "name": "D2",
          "midi": 38,
          "time": 104.23737499999986,
          "velocity": 0.7874015748031497,
          "duration": 0.12711874999999395
        },
        {
          "name": "D4",
          "midi": 62,
          "time": 104.23737499999986,
          "velocity": 0.7874015748031497,
          "duration": 0.12711874999999395
        },
        {
          "name": "D3",
          "midi": 50,
          "time": 104.23737499999986,
          "velocity": 0.7874015748031497,
          "duration": 0.12711874999999395
        },
        {
          "name": "D2",
          "midi": 38,
          "time": 104.61873124999985,
          "velocity": 0.7874015748031497,
          "duration": 0.0847458333333293
        },
        {
          "name": "D4",
          "midi": 62,
          "time": 104.61873124999985,
          "velocity": 0.7874015748031497,
          "duration": 0.0847458333333293
        },
        {
          "name": "D3",
          "midi": 50,
          "time": 104.61873124999985,
          "velocity": 0.7874015748031497,
          "duration": 0.0847458333333293
        },
        {
          "name": "F3",
          "midi": 53,
          "time": 104.87296874999986,
          "velocity": 0.7874015748031497,
          "duration": 0.12711874999999395
        },
        {
          "name": "C3",
          "midi": 48,
          "time": 104.87296874999986,
          "velocity": 0.7874015748031497,
          "duration": 0.12711874999999395
        },
        {
          "name": "F2",
          "midi": 41,
          "time": 104.87296874999986,
          "velocity": 0.7874015748031497,
          "duration": 0.12711874999999395
        },
        {
          "name": "F3",
          "midi": 53,
          "time": 105.00008749999985,
          "velocity": 0.7874015748031497,
          "duration": 0.2542375000000021
        },
        {
          "name": "C3",
          "midi": 48,
          "time": 105.00008749999985,
          "velocity": 0.7874015748031497,
          "duration": 0.2542375000000021
        },
        {
          "name": "F2",
          "midi": 41,
          "time": 105.00008749999985,
          "velocity": 0.7874015748031497,
          "duration": 0.2542375000000021
        },
        {
          "name": "G3",
          "midi": 55,
          "time": 105.25432499999985,
          "velocity": 0.7874015748031497,
          "duration": 0.2542375000000021
        },
        {
          "name": "D3",
          "midi": 50,
          "time": 105.25432499999985,
          "velocity": 0.7874015748031497,
          "duration": 0.2542375000000021
        },
        {
          "name": "G2",
          "midi": 43,
          "time": 105.25432499999985,
          "velocity": 0.7874015748031497,
          "duration": 0.2542375000000021
        },
        {
          "name": "F3",
          "midi": 53,
          "time": 105.50856249999985,
          "velocity": 0.7874015748031497,
          "duration": 0.2542375000000021
        },
        {
          "name": "C3",
          "midi": 48,
          "time": 105.50856249999985,
          "velocity": 0.7874015748031497,
          "duration": 0.2542375000000021
        },
        {
          "name": "D2",
          "midi": 38,
          "time": 105.76279999999986,
          "velocity": 0.7874015748031497,
          "duration": 0.12711874999999395
        },
        {
          "name": "D4",
          "midi": 62,
          "time": 105.76279999999986,
          "velocity": 0.7874015748031497,
          "duration": 0.12711874999999395
        },
        {
          "name": "D3",
          "midi": 50,
          "time": 105.76279999999986,
          "velocity": 0.7874015748031497,
          "duration": 0.12711874999999395
        },
        {
          "name": "D2",
          "midi": 38,
          "time": 105.88991874999985,
          "velocity": 0.7874015748031497,
          "duration": 0.12711874999999395
        },
        {
          "name": "D4",
          "midi": 62,
          "time": 105.88991874999985,
          "velocity": 0.7874015748031497,
          "duration": 0.12711874999999395
        },
        {
          "name": "D3",
          "midi": 50,
          "time": 105.88991874999985,
          "velocity": 0.7874015748031497,
          "duration": 0.12711874999999395
        },
        {
          "name": "D2",
          "midi": 38,
          "time": 106.14415624999984,
          "velocity": 0.7874015748031497,
          "duration": 0.12711874999999395
        },
        {
          "name": "D4",
          "midi": 62,
          "time": 106.14415624999984,
          "velocity": 0.7874015748031497,
          "duration": 0.12711874999999395
        },
        {
          "name": "D3",
          "midi": 50,
          "time": 106.14415624999984,
          "velocity": 0.7874015748031497,
          "duration": 0.12711874999999395
        },
        {
          "name": "D2",
          "midi": 38,
          "time": 106.27127499999983,
          "velocity": 0.7874015748031497,
          "duration": 0.12711874999999395
        },
        {
          "name": "D4",
          "midi": 62,
          "time": 106.27127499999983,
          "velocity": 0.7874015748031497,
          "duration": 0.12711874999999395
        },
        {
          "name": "D3",
          "midi": 50,
          "time": 106.27127499999983,
          "velocity": 0.7874015748031497,
          "duration": 0.12711874999999395
        },
        {
          "name": "D2",
          "midi": 38,
          "time": 106.65263124999983,
          "velocity": 0.7874015748031497,
          "duration": 0.0847458333333293
        },
        {
          "name": "D4",
          "midi": 62,
          "time": 106.65263124999983,
          "velocity": 0.7874015748031497,
          "duration": 0.0847458333333293
        },
        {
          "name": "D3",
          "midi": 50,
          "time": 106.65263124999983,
          "velocity": 0.7874015748031497,
          "duration": 0.0847458333333293
        },
        {
          "name": "F3",
          "midi": 53,
          "time": 106.90686874999983,
          "velocity": 0.7874015748031497,
          "duration": 0.12711874999999395
        },
        {
          "name": "C3",
          "midi": 48,
          "time": 106.90686874999983,
          "velocity": 0.7874015748031497,
          "duration": 0.12711874999999395
        },
        {
          "name": "F2",
          "midi": 41,
          "time": 106.90686874999983,
          "velocity": 0.7874015748031497,
          "duration": 0.12711874999999395
        },
        {
          "name": "F3",
          "midi": 53,
          "time": 107.03398749999982,
          "velocity": 0.7874015748031497,
          "duration": 0.2542375000000021
        },
        {
          "name": "C3",
          "midi": 48,
          "time": 107.03398749999982,
          "velocity": 0.7874015748031497,
          "duration": 0.2542375000000021
        },
        {
          "name": "F2",
          "midi": 41,
          "time": 107.03398749999982,
          "velocity": 0.7874015748031497,
          "duration": 0.2542375000000021
        },
        {
          "name": "G3",
          "midi": 55,
          "time": 107.28822499999983,
          "velocity": 0.7874015748031497,
          "duration": 0.2542375000000021
        },
        {
          "name": "D3",
          "midi": 50,
          "time": 107.28822499999983,
          "velocity": 0.7874015748031497,
          "duration": 0.2542375000000021
        },
        {
          "name": "G2",
          "midi": 43,
          "time": 107.28822499999983,
          "velocity": 0.7874015748031497,
          "duration": 0.2542375000000021
        },
        {
          "name": "F3",
          "midi": 53,
          "time": 107.54246249999983,
          "velocity": 0.7874015748031497,
          "duration": 0.2542375000000021
        },
        {
          "name": "C3",
          "midi": 48,
          "time": 107.54246249999983,
          "velocity": 0.7874015748031497,
          "duration": 0.2542375000000021
        },
        {
          "name": "D2",
          "midi": 38,
          "time": 107.79669999999983,
          "velocity": 0.7874015748031497,
          "duration": 0.12711874999999395
        },
        {
          "name": "D4",
          "midi": 62,
          "time": 107.79669999999983,
          "velocity": 0.7874015748031497,
          "duration": 0.12711874999999395
        },
        {
          "name": "D3",
          "midi": 50,
          "time": 107.79669999999983,
          "velocity": 0.7874015748031497,
          "duration": 0.12711874999999395
        },
        {
          "name": "D2",
          "midi": 38,
          "time": 107.92381874999982,
          "velocity": 0.7874015748031497,
          "duration": 0.12711874999999395
        },
        {
          "name": "D4",
          "midi": 62,
          "time": 107.92381874999982,
          "velocity": 0.7874015748031497,
          "duration": 0.12711874999999395
        },
        {
          "name": "D3",
          "midi": 50,
          "time": 107.92381874999982,
          "velocity": 0.7874015748031497,
          "duration": 0.12711874999999395
        },
        {
          "name": "D2",
          "midi": 38,
          "time": 108.17805624999981,
          "velocity": 0.7874015748031497,
          "duration": 0.12711874999999395
        },
        {
          "name": "D4",
          "midi": 62,
          "time": 108.17805624999981,
          "velocity": 0.7874015748031497,
          "duration": 0.12711874999999395
        },
        {
          "name": "D3",
          "midi": 50,
          "time": 108.17805624999981,
          "velocity": 0.7874015748031497,
          "duration": 0.12711874999999395
        },
        {
          "name": "D2",
          "midi": 38,
          "time": 108.3051749999998,
          "velocity": 0.7874015748031497,
          "duration": 0.12711874999999395
        },
        {
          "name": "D4",
          "midi": 62,
          "time": 108.3051749999998,
          "velocity": 0.7874015748031497,
          "duration": 0.12711874999999395
        },
        {
          "name": "D3",
          "midi": 50,
          "time": 108.3051749999998,
          "velocity": 0.7874015748031497,
          "duration": 0.12711874999999395
        },
        {
          "name": "D2",
          "midi": 38,
          "time": 108.6865312499998,
          "velocity": 0.7874015748031497,
          "duration": 0.0847458333333293
        },
        {
          "name": "D4",
          "midi": 62,
          "time": 108.6865312499998,
          "velocity": 0.7874015748031497,
          "duration": 0.0847458333333293
        },
        {
          "name": "D3",
          "midi": 50,
          "time": 108.6865312499998,
          "velocity": 0.7874015748031497,
          "duration": 0.0847458333333293
        },
        {
          "name": "F3",
          "midi": 53,
          "time": 108.9407687499998,
          "velocity": 0.7874015748031497,
          "duration": 0.12711874999999395
        },
        {
          "name": "C3",
          "midi": 48,
          "time": 108.9407687499998,
          "velocity": 0.7874015748031497,
          "duration": 0.12711874999999395
        },
        {
          "name": "F2",
          "midi": 41,
          "time": 108.9407687499998,
          "velocity": 0.7874015748031497,
          "duration": 0.12711874999999395
        },
        {
          "name": "F3",
          "midi": 53,
          "time": 109.0678874999998,
          "velocity": 0.7874015748031497,
          "duration": 0.2542375000000021
        },
        {
          "name": "C3",
          "midi": 48,
          "time": 109.0678874999998,
          "velocity": 0.7874015748031497,
          "duration": 0.2542375000000021
        },
        {
          "name": "F2",
          "midi": 41,
          "time": 109.0678874999998,
          "velocity": 0.7874015748031497,
          "duration": 0.2542375000000021
        },
        {
          "name": "G3",
          "midi": 55,
          "time": 109.3221249999998,
          "velocity": 0.7874015748031497,
          "duration": 0.2542375000000021
        },
        {
          "name": "D3",
          "midi": 50,
          "time": 109.3221249999998,
          "velocity": 0.7874015748031497,
          "duration": 0.2542375000000021
        },
        {
          "name": "G2",
          "midi": 43,
          "time": 109.3221249999998,
          "velocity": 0.7874015748031497,
          "duration": 0.2542375000000021
        },
        {
          "name": "F3",
          "midi": 53,
          "time": 109.5763624999998,
          "velocity": 0.7874015748031497,
          "duration": 0.2542375000000021
        },
        {
          "name": "C3",
          "midi": 48,
          "time": 109.5763624999998,
          "velocity": 0.7874015748031497,
          "duration": 0.2542375000000021
        },
        {
          "name": "D2",
          "midi": 38,
          "time": 109.8305999999998,
          "velocity": 0.7874015748031497,
          "duration": 0.12711874999999395
        },
        {
          "name": "D4",
          "midi": 62,
          "time": 109.8305999999998,
          "velocity": 0.7874015748031497,
          "duration": 0.12711874999999395
        },
        {
          "name": "D3",
          "midi": 50,
          "time": 109.8305999999998,
          "velocity": 0.7874015748031497,
          "duration": 0.12711874999999395
        },
        {
          "name": "D2",
          "midi": 38,
          "time": 109.9577187499998,
          "velocity": 0.7874015748031497,
          "duration": 0.12711874999999395
        },
        {
          "name": "D4",
          "midi": 62,
          "time": 109.9577187499998,
          "velocity": 0.7874015748031497,
          "duration": 0.12711874999999395
        },
        {
          "name": "D3",
          "midi": 50,
          "time": 109.9577187499998,
          "velocity": 0.7874015748031497,
          "duration": 0.12711874999999395
        },
        {
          "name": "D2",
          "midi": 38,
          "time": 110.21195624999979,
          "velocity": 0.7874015748031497,
          "duration": 0.12711874999999395
        },
        {
          "name": "D4",
          "midi": 62,
          "time": 110.21195624999979,
          "velocity": 0.7874015748031497,
          "duration": 0.12711874999999395
        },
        {
          "name": "D3",
          "midi": 50,
          "time": 110.21195624999979,
          "velocity": 0.7874015748031497,
          "duration": 0.12711874999999395
        },
        {
          "name": "D2",
          "midi": 38,
          "time": 110.33907499999978,
          "velocity": 0.7874015748031497,
          "duration": 0.12711874999999395
        },
        {
          "name": "D4",
          "midi": 62,
          "time": 110.33907499999978,
          "velocity": 0.7874015748031497,
          "duration": 0.12711874999999395
        },
        {
          "name": "D3",
          "midi": 50,
          "time": 110.33907499999978,
          "velocity": 0.7874015748031497,
          "duration": 0.12711874999999395
        },
        {
          "name": "D2",
          "midi": 38,
          "time": 110.72043124999978,
          "velocity": 0.7874015748031497,
          "duration": 0.0847458333333293
        },
        {
          "name": "D4",
          "midi": 62,
          "time": 110.72043124999978,
          "velocity": 0.7874015748031497,
          "duration": 0.0847458333333293
        },
        {
          "name": "D3",
          "midi": 50,
          "time": 110.72043124999978,
          "velocity": 0.7874015748031497,
          "duration": 0.0847458333333293
        },
        {
          "name": "F3",
          "midi": 53,
          "time": 110.97466874999978,
          "velocity": 0.7874015748031497,
          "duration": 0.12711874999999395
        },
        {
          "name": "C3",
          "midi": 48,
          "time": 110.97466874999978,
          "velocity": 0.7874015748031497,
          "duration": 0.12711874999999395
        },
        {
          "name": "F2",
          "midi": 41,
          "time": 110.97466874999978,
          "velocity": 0.7874015748031497,
          "duration": 0.12711874999999395
        },
        {
          "name": "F3",
          "midi": 53,
          "time": 111.10178749999977,
          "velocity": 0.7874015748031497,
          "duration": 0.2542375000000021
        },
        {
          "name": "C3",
          "midi": 48,
          "time": 111.10178749999977,
          "velocity": 0.7874015748031497,
          "duration": 0.2542375000000021
        },
        {
          "name": "F2",
          "midi": 41,
          "time": 111.10178749999977,
          "velocity": 0.7874015748031497,
          "duration": 0.2542375000000021
        },
        {
          "name": "G3",
          "midi": 55,
          "time": 111.35602499999978,
          "velocity": 0.7874015748031497,
          "duration": 0.2542375000000021
        },
        {
          "name": "D3",
          "midi": 50,
          "time": 111.35602499999978,
          "velocity": 0.7874015748031497,
          "duration": 0.2542375000000021
        },
        {
          "name": "G2",
          "midi": 43,
          "time": 111.35602499999978,
          "velocity": 0.7874015748031497,
          "duration": 0.2542375000000021
        },
        {
          "name": "F3",
          "midi": 53,
          "time": 111.61026249999978,
          "velocity": 0.7874015748031497,
          "duration": 0.2542375000000021
        },
        {
          "name": "C3",
          "midi": 48,
          "time": 111.61026249999978,
          "velocity": 0.7874015748031497,
          "duration": 0.2542375000000021
        },
        {
          "name": "D2",
          "midi": 38,
          "time": 111.86449999999978,
          "velocity": 0.7874015748031497,
          "duration": 0.12711874999999395
        },
        {
          "name": "D4",
          "midi": 62,
          "time": 111.86449999999978,
          "velocity": 0.7874015748031497,
          "duration": 0.12711874999999395
        },
        {
          "name": "D3",
          "midi": 50,
          "time": 111.86449999999978,
          "velocity": 0.7874015748031497,
          "duration": 0.12711874999999395
        },
        {
          "name": "D2",
          "midi": 38,
          "time": 111.99161874999977,
          "velocity": 0.7874015748031497,
          "duration": 0.12711874999999395
        },
        {
          "name": "D4",
          "midi": 62,
          "time": 111.99161874999977,
          "velocity": 0.7874015748031497,
          "duration": 0.12711874999999395
        },
        {
          "name": "D3",
          "midi": 50,
          "time": 111.99161874999977,
          "velocity": 0.7874015748031497,
          "duration": 0.12711874999999395
        },
        {
          "name": "D2",
          "midi": 38,
          "time": 112.24585624999976,
          "velocity": 0.7874015748031497,
          "duration": 0.12711874999999395
        },
        {
          "name": "D4",
          "midi": 62,
          "time": 112.24585624999976,
          "velocity": 0.7874015748031497,
          "duration": 0.12711874999999395
        },
        {
          "name": "D3",
          "midi": 50,
          "time": 112.24585624999976,
          "velocity": 0.7874015748031497,
          "duration": 0.12711874999999395
        },
        {
          "name": "D2",
          "midi": 38,
          "time": 112.37297499999976,
          "velocity": 0.7874015748031497,
          "duration": 0.12711874999999395
        },
        {
          "name": "D4",
          "midi": 62,
          "time": 112.37297499999976,
          "velocity": 0.7874015748031497,
          "duration": 0.12711874999999395
        },
        {
          "name": "D3",
          "midi": 50,
          "time": 112.37297499999976,
          "velocity": 0.7874015748031497,
          "duration": 0.12711874999999395
        },
        {
          "name": "D2",
          "midi": 38,
          "time": 112.75433124999975,
          "velocity": 0.7874015748031497,
          "duration": 0.0847458333333293
        },
        {
          "name": "D4",
          "midi": 62,
          "time": 112.75433124999975,
          "velocity": 0.7874015748031497,
          "duration": 0.0847458333333293
        },
        {
          "name": "D3",
          "midi": 50,
          "time": 112.75433124999975,
          "velocity": 0.7874015748031497,
          "duration": 0.0847458333333293
        },
        {
          "name": "F3",
          "midi": 53,
          "time": 113.00856874999975,
          "velocity": 0.7874015748031497,
          "duration": 0.12711874999999395
        },
        {
          "name": "C3",
          "midi": 48,
          "time": 113.00856874999975,
          "velocity": 0.7874015748031497,
          "duration": 0.12711874999999395
        },
        {
          "name": "F2",
          "midi": 41,
          "time": 113.00856874999975,
          "velocity": 0.7874015748031497,
          "duration": 0.12711874999999395
        },
        {
          "name": "F3",
          "midi": 53,
          "time": 113.13568749999975,
          "velocity": 0.7874015748031497,
          "duration": 0.2542375000000021
        },
        {
          "name": "C3",
          "midi": 48,
          "time": 113.13568749999975,
          "velocity": 0.7874015748031497,
          "duration": 0.2542375000000021
        },
        {
          "name": "F2",
          "midi": 41,
          "time": 113.13568749999975,
          "velocity": 0.7874015748031497,
          "duration": 0.2542375000000021
        },
        {
          "name": "G3",
          "midi": 55,
          "time": 113.38992499999975,
          "velocity": 0.7874015748031497,
          "duration": 0.2542375000000021
        },
        {
          "name": "D3",
          "midi": 50,
          "time": 113.38992499999975,
          "velocity": 0.7874015748031497,
          "duration": 0.2542375000000021
        },
        {
          "name": "G2",
          "midi": 43,
          "time": 113.38992499999975,
          "velocity": 0.7874015748031497,
          "duration": 0.2542375000000021
        },
        {
          "name": "F3",
          "midi": 53,
          "time": 113.64416249999975,
          "velocity": 0.7874015748031497,
          "duration": 0.2542375000000021
        },
        {
          "name": "C3",
          "midi": 48,
          "time": 113.64416249999975,
          "velocity": 0.7874015748031497,
          "duration": 0.2542375000000021
        },
        {
          "name": "D2",
          "midi": 38,
          "time": 162.71199999999976,
          "velocity": 0.7874015748031497,
          "duration": 0.12711874999999395
        },
        {
          "name": "D4",
          "midi": 62,
          "time": 162.71199999999976,
          "velocity": 0.7874015748031497,
          "duration": 0.12711874999999395
        },
        {
          "name": "D3",
          "midi": 50,
          "time": 162.71199999999976,
          "velocity": 0.7874015748031497,
          "duration": 0.12711874999999395
        },
        {
          "name": "D2",
          "midi": 38,
          "time": 162.83911874999976,
          "velocity": 0.7874015748031497,
          "duration": 0.12711874999999395
        },
        {
          "name": "D4",
          "midi": 62,
          "time": 162.83911874999976,
          "velocity": 0.7874015748031497,
          "duration": 0.12711874999999395
        },
        {
          "name": "D3",
          "midi": 50,
          "time": 162.83911874999976,
          "velocity": 0.7874015748031497,
          "duration": 0.12711874999999395
        },
        {
          "name": "D2",
          "midi": 38,
          "time": 163.09335624999974,
          "velocity": 0.7874015748031497,
          "duration": 0.12711874999999395
        },
        {
          "name": "D4",
          "midi": 62,
          "time": 163.09335624999974,
          "velocity": 0.7874015748031497,
          "duration": 0.12711874999999395
        },
        {
          "name": "D3",
          "midi": 50,
          "time": 163.09335624999974,
          "velocity": 0.7874015748031497,
          "duration": 0.12711874999999395
        },
        {
          "name": "D2",
          "midi": 38,
          "time": 163.22047499999974,
          "velocity": 0.7874015748031497,
          "duration": 0.12711874999999395
        },
        {
          "name": "D4",
          "midi": 62,
          "time": 163.22047499999974,
          "velocity": 0.7874015748031497,
          "duration": 0.12711874999999395
        },
        {
          "name": "D3",
          "midi": 50,
          "time": 163.22047499999974,
          "velocity": 0.7874015748031497,
          "duration": 0.12711874999999395
        },
        {
          "name": "D2",
          "midi": 38,
          "time": 163.60183124999972,
          "velocity": 0.7874015748031497,
          "duration": 0.0847458333333293
        },
        {
          "name": "D4",
          "midi": 62,
          "time": 163.60183124999972,
          "velocity": 0.7874015748031497,
          "duration": 0.0847458333333293
        },
        {
          "name": "D3",
          "midi": 50,
          "time": 163.60183124999972,
          "velocity": 0.7874015748031497,
          "duration": 0.0847458333333293
        },
        {
          "name": "F3",
          "midi": 53,
          "time": 163.8560687499997,
          "velocity": 0.7874015748031497,
          "duration": 0.12711874999999395
        },
        {
          "name": "C3",
          "midi": 48,
          "time": 163.8560687499997,
          "velocity": 0.7874015748031497,
          "duration": 0.12711874999999395
        },
        {
          "name": "F2",
          "midi": 41,
          "time": 163.8560687499997,
          "velocity": 0.7874015748031497,
          "duration": 0.12711874999999395
        },
        {
          "name": "F3",
          "midi": 53,
          "time": 163.9831874999997,
          "velocity": 0.7874015748031497,
          "duration": 0.2542374999999879
        },
        {
          "name": "C3",
          "midi": 48,
          "time": 163.9831874999997,
          "velocity": 0.7874015748031497,
          "duration": 0.2542374999999879
        },
        {
          "name": "F2",
          "midi": 41,
          "time": 163.9831874999997,
          "velocity": 0.7874015748031497,
          "duration": 0.2542374999999879
        },
        {
          "name": "G3",
          "midi": 55,
          "time": 164.2374249999997,
          "velocity": 0.7874015748031497,
          "duration": 0.2542374999999879
        },
        {
          "name": "D3",
          "midi": 50,
          "time": 164.2374249999997,
          "velocity": 0.7874015748031497,
          "duration": 0.2542374999999879
        },
        {
          "name": "G2",
          "midi": 43,
          "time": 164.2374249999997,
          "velocity": 0.7874015748031497,
          "duration": 0.2542374999999879
        },
        {
          "name": "F3",
          "midi": 53,
          "time": 164.49166249999968,
          "velocity": 0.7874015748031497,
          "duration": 0.2542374999999879
        },
        {
          "name": "C3",
          "midi": 48,
          "time": 164.49166249999968,
          "velocity": 0.7874015748031497,
          "duration": 0.2542374999999879
        },
        {
          "name": "D2",
          "midi": 38,
          "time": 164.74589999999966,
          "velocity": 0.7874015748031497,
          "duration": 0.12711874999999395
        },
        {
          "name": "D4",
          "midi": 62,
          "time": 164.74589999999966,
          "velocity": 0.7874015748031497,
          "duration": 0.12711874999999395
        },
        {
          "name": "D3",
          "midi": 50,
          "time": 164.74589999999966,
          "velocity": 0.7874015748031497,
          "duration": 0.12711874999999395
        },
        {
          "name": "D2",
          "midi": 38,
          "time": 164.87301874999966,
          "velocity": 0.7874015748031497,
          "duration": 0.12711874999999395
        },
        {
          "name": "D4",
          "midi": 62,
          "time": 164.87301874999966,
          "velocity": 0.7874015748031497,
          "duration": 0.12711874999999395
        },
        {
          "name": "D3",
          "midi": 50,
          "time": 164.87301874999966,
          "velocity": 0.7874015748031497,
          "duration": 0.12711874999999395
        },
        {
          "name": "D2",
          "midi": 38,
          "time": 165.12725624999965,
          "velocity": 0.7874015748031497,
          "duration": 0.12711874999999395
        },
        {
          "name": "D4",
          "midi": 62,
          "time": 165.12725624999965,
          "velocity": 0.7874015748031497,
          "duration": 0.12711874999999395
        },
        {
          "name": "D3",
          "midi": 50,
          "time": 165.12725624999965,
          "velocity": 0.7874015748031497,
          "duration": 0.12711874999999395
        },
        {
          "name": "D2",
          "midi": 38,
          "time": 165.25437499999964,
          "velocity": 0.7874015748031497,
          "duration": 0.12711874999999395
        },
        {
          "name": "D4",
          "midi": 62,
          "time": 165.25437499999964,
          "velocity": 0.7874015748031497,
          "duration": 0.12711874999999395
        },
        {
          "name": "D3",
          "midi": 50,
          "time": 165.25437499999964,
          "velocity": 0.7874015748031497,
          "duration": 0.12711874999999395
        },
        {
          "name": "D2",
          "midi": 38,
          "time": 165.63573124999962,
          "velocity": 0.7874015748031497,
          "duration": 0.0847458333333293
        },
        {
          "name": "D4",
          "midi": 62,
          "time": 165.63573124999962,
          "velocity": 0.7874015748031497,
          "duration": 0.0847458333333293
        },
        {
          "name": "D3",
          "midi": 50,
          "time": 165.63573124999962,
          "velocity": 0.7874015748031497,
          "duration": 0.0847458333333293
        },
        {
          "name": "F3",
          "midi": 53,
          "time": 165.8899687499996,
          "velocity": 0.7874015748031497,
          "duration": 0.12711874999999395
        },
        {
          "name": "C3",
          "midi": 48,
          "time": 165.8899687499996,
          "velocity": 0.7874015748031497,
          "duration": 0.12711874999999395
        },
        {
          "name": "F2",
          "midi": 41,
          "time": 165.8899687499996,
          "velocity": 0.7874015748031497,
          "duration": 0.12711874999999395
        },
        {
          "name": "F3",
          "midi": 53,
          "time": 166.0170874999996,
          "velocity": 0.7874015748031497,
          "duration": 0.2542374999999879
        },
        {
          "name": "C3",
          "midi": 48,
          "time": 166.0170874999996,
          "velocity": 0.7874015748031497,
          "duration": 0.2542374999999879
        },
        {
          "name": "F2",
          "midi": 41,
          "time": 166.0170874999996,
          "velocity": 0.7874015748031497,
          "duration": 0.2542374999999879
        },
        {
          "name": "G3",
          "midi": 55,
          "time": 166.2713249999996,
          "velocity": 0.7874015748031497,
          "duration": 0.2542374999999879
        },
        {
          "name": "D3",
          "midi": 50,
          "time": 166.2713249999996,
          "velocity": 0.7874015748031497,
          "duration": 0.2542374999999879
        },
        {
          "name": "G2",
          "midi": 43,
          "time": 166.2713249999996,
          "velocity": 0.7874015748031497,
          "duration": 0.2542374999999879
        },
        {
          "name": "F3",
          "midi": 53,
          "time": 166.52556249999958,
          "velocity": 0.7874015748031497,
          "duration": 0.2542374999999879
        },
        {
          "name": "C3",
          "midi": 48,
          "time": 166.52556249999958,
          "velocity": 0.7874015748031497,
          "duration": 0.2542374999999879
        },
        {
          "name": "D2",
          "midi": 38,
          "time": 166.77979999999957,
          "velocity": 0.7874015748031497,
          "duration": 0.12711874999999395
        },
        {
          "name": "D4",
          "midi": 62,
          "time": 166.77979999999957,
          "velocity": 0.7874015748031497,
          "duration": 0.12711874999999395
        },
        {
          "name": "D3",
          "midi": 50,
          "time": 166.77979999999957,
          "velocity": 0.7874015748031497,
          "duration": 0.12711874999999395
        },
        {
          "name": "D2",
          "midi": 38,
          "time": 166.90691874999956,
          "velocity": 0.7874015748031497,
          "duration": 0.12711874999999395
        },
        {
          "name": "D4",
          "midi": 62,
          "time": 166.90691874999956,
          "velocity": 0.7874015748031497,
          "duration": 0.12711874999999395
        },
        {
          "name": "D3",
          "midi": 50,
          "time": 166.90691874999956,
          "velocity": 0.7874015748031497,
          "duration": 0.12711874999999395
        },
        {
          "name": "D2",
          "midi": 38,
          "time": 167.16115624999955,
          "velocity": 0.7874015748031497,
          "duration": 0.12711874999999395
        },
        {
          "name": "D4",
          "midi": 62,
          "time": 167.16115624999955,
          "velocity": 0.7874015748031497,
          "duration": 0.12711874999999395
        },
        {
          "name": "D3",
          "midi": 50,
          "time": 167.16115624999955,
          "velocity": 0.7874015748031497,
          "duration": 0.12711874999999395
        },
        {
          "name": "D2",
          "midi": 38,
          "time": 167.28827499999954,
          "velocity": 0.7874015748031497,
          "duration": 0.12711874999999395
        },
        {
          "name": "D4",
          "midi": 62,
          "time": 167.28827499999954,
          "velocity": 0.7874015748031497,
          "duration": 0.12711874999999395
        },
        {
          "name": "D3",
          "midi": 50,
          "time": 167.28827499999954,
          "velocity": 0.7874015748031497,
          "duration": 0.12711874999999395
        },
        {
          "name": "D2",
          "midi": 38,
          "time": 167.66963124999953,
          "velocity": 0.7874015748031497,
          "duration": 0.0847458333333293
        },
        {
          "name": "D4",
          "midi": 62,
          "time": 167.66963124999953,
          "velocity": 0.7874015748031497,
          "duration": 0.0847458333333293
        },
        {
          "name": "D3",
          "midi": 50,
          "time": 167.66963124999953,
          "velocity": 0.7874015748031497,
          "duration": 0.0847458333333293
        },
        {
          "name": "F3",
          "midi": 53,
          "time": 167.9238687499995,
          "velocity": 0.7874015748031497,
          "duration": 0.12711874999999395
        },
        {
          "name": "C3",
          "midi": 48,
          "time": 167.9238687499995,
          "velocity": 0.7874015748031497,
          "duration": 0.12711874999999395
        },
        {
          "name": "F2",
          "midi": 41,
          "time": 167.9238687499995,
          "velocity": 0.7874015748031497,
          "duration": 0.12711874999999395
        },
        {
          "name": "F3",
          "midi": 53,
          "time": 168.0509874999995,
          "velocity": 0.7874015748031497,
          "duration": 0.2542374999999879
        },
        {
          "name": "C3",
          "midi": 48,
          "time": 168.0509874999995,
          "velocity": 0.7874015748031497,
          "duration": 0.2542374999999879
        },
        {
          "name": "F2",
          "midi": 41,
          "time": 168.0509874999995,
          "velocity": 0.7874015748031497,
          "duration": 0.2542374999999879
        },
        {
          "name": "G3",
          "midi": 55,
          "time": 168.3052249999995,
          "velocity": 0.7874015748031497,
          "duration": 0.2542374999999879
        },
        {
          "name": "D3",
          "midi": 50,
          "time": 168.3052249999995,
          "velocity": 0.7874015748031497,
          "duration": 0.2542374999999879
        },
        {
          "name": "G2",
          "midi": 43,
          "time": 168.3052249999995,
          "velocity": 0.7874015748031497,
          "duration": 0.2542374999999879
        },
        {
          "name": "F3",
          "midi": 53,
          "time": 168.55946249999948,
          "velocity": 0.7874015748031497,
          "duration": 0.2542374999999879
        },
        {
          "name": "C3",
          "midi": 48,
          "time": 168.55946249999948,
          "velocity": 0.7874015748031497,
          "duration": 0.2542374999999879
        },
        {
          "name": "D2",
          "midi": 38,
          "time": 168.81369999999947,
          "velocity": 0.7874015748031497,
          "duration": 0.12711874999999395
        },
        {
          "name": "D4",
          "midi": 62,
          "time": 168.81369999999947,
          "velocity": 0.7874015748031497,
          "duration": 0.12711874999999395
        },
        {
          "name": "D3",
          "midi": 50,
          "time": 168.81369999999947,
          "velocity": 0.7874015748031497,
          "duration": 0.12711874999999395
        },
        {
          "name": "D2",
          "midi": 38,
          "time": 168.94081874999947,
          "velocity": 0.7874015748031497,
          "duration": 0.12711874999999395
        },
        {
          "name": "D4",
          "midi": 62,
          "time": 168.94081874999947,
          "velocity": 0.7874015748031497,
          "duration": 0.12711874999999395
        },
        {
          "name": "D3",
          "midi": 50,
          "time": 168.94081874999947,
          "velocity": 0.7874015748031497,
          "duration": 0.12711874999999395
        },
        {
          "name": "D2",
          "midi": 38,
          "time": 169.19505624999945,
          "velocity": 0.7874015748031497,
          "duration": 0.12711874999999395
        },
        {
          "name": "D4",
          "midi": 62,
          "time": 169.19505624999945,
          "velocity": 0.7874015748031497,
          "duration": 0.12711874999999395
        },
        {
          "name": "D3",
          "midi": 50,
          "time": 169.19505624999945,
          "velocity": 0.7874015748031497,
          "duration": 0.12711874999999395
        },
        {
          "name": "D2",
          "midi": 38,
          "time": 169.32217499999945,
          "velocity": 0.7874015748031497,
          "duration": 0.12711874999999395
        },
        {
          "name": "D4",
          "midi": 62,
          "time": 169.32217499999945,
          "velocity": 0.7874015748031497,
          "duration": 0.12711874999999395
        },
        {
          "name": "D3",
          "midi": 50,
          "time": 169.32217499999945,
          "velocity": 0.7874015748031497,
          "duration": 0.12711874999999395
        },
        {
          "name": "D2",
          "midi": 38,
          "time": 169.70353124999943,
          "velocity": 0.7874015748031497,
          "duration": 0.0847458333333293
        },
        {
          "name": "D4",
          "midi": 62,
          "time": 169.70353124999943,
          "velocity": 0.7874015748031497,
          "duration": 0.0847458333333293
        },
        {
          "name": "D3",
          "midi": 50,
          "time": 169.70353124999943,
          "velocity": 0.7874015748031497,
          "duration": 0.0847458333333293
        },
        {
          "name": "F3",
          "midi": 53,
          "time": 169.95776874999942,
          "velocity": 0.7874015748031497,
          "duration": 0.12711874999999395
        },
        {
          "name": "C3",
          "midi": 48,
          "time": 169.95776874999942,
          "velocity": 0.7874015748031497,
          "duration": 0.12711874999999395
        },
        {
          "name": "F2",
          "midi": 41,
          "time": 169.95776874999942,
          "velocity": 0.7874015748031497,
          "duration": 0.12711874999999395
        },
        {
          "name": "F3",
          "midi": 53,
          "time": 170.0848874999994,
          "velocity": 0.7874015748031497,
          "duration": 0.2542374999999879
        },
        {
          "name": "C3",
          "midi": 48,
          "time": 170.0848874999994,
          "velocity": 0.7874015748031497,
          "duration": 0.2542374999999879
        },
        {
          "name": "F2",
          "midi": 41,
          "time": 170.0848874999994,
          "velocity": 0.7874015748031497,
          "duration": 0.2542374999999879
        },
        {
          "name": "G3",
          "midi": 55,
          "time": 170.3391249999994,
          "velocity": 0.7874015748031497,
          "duration": 0.2542374999999879
        },
        {
          "name": "D3",
          "midi": 50,
          "time": 170.3391249999994,
          "velocity": 0.7874015748031497,
          "duration": 0.2542374999999879
        },
        {
          "name": "G2",
          "midi": 43,
          "time": 170.3391249999994,
          "velocity": 0.7874015748031497,
          "duration": 0.2542374999999879
        },
        {
          "name": "F3",
          "midi": 53,
          "time": 170.5933624999994,
          "velocity": 0.7874015748031497,
          "duration": 0.2542374999999879
        },
        {
          "name": "C3",
          "midi": 48,
          "time": 170.5933624999994,
          "velocity": 0.7874015748031497,
          "duration": 0.2542374999999879
        },
        {
          "name": "D2",
          "midi": 38,
          "time": 170.84759999999937,
          "velocity": 0.7874015748031497,
          "duration": 0.12711874999999395
        },
        {
          "name": "D4",
          "midi": 62,
          "time": 170.84759999999937,
          "velocity": 0.7874015748031497,
          "duration": 0.12711874999999395
        },
        {
          "name": "D3",
          "midi": 50,
          "time": 170.84759999999937,
          "velocity": 0.7874015748031497,
          "duration": 0.12711874999999395
        },
        {
          "name": "D2",
          "midi": 38,
          "time": 170.97471874999937,
          "velocity": 0.7874015748031497,
          "duration": 0.12711874999999395
        },
        {
          "name": "D4",
          "midi": 62,
          "time": 170.97471874999937,
          "velocity": 0.7874015748031497,
          "duration": 0.12711874999999395
        },
        {
          "name": "D3",
          "midi": 50,
          "time": 170.97471874999937,
          "velocity": 0.7874015748031497,
          "duration": 0.12711874999999395
        },
        {
          "name": "D2",
          "midi": 38,
          "time": 171.22895624999936,
          "velocity": 0.7874015748031497,
          "duration": 0.12711874999999395
        },
        {
          "name": "D4",
          "midi": 62,
          "time": 171.22895624999936,
          "velocity": 0.7874015748031497,
          "duration": 0.12711874999999395
        },
        {
          "name": "D3",
          "midi": 50,
          "time": 171.22895624999936,
          "velocity": 0.7874015748031497,
          "duration": 0.12711874999999395
        },
        {
          "name": "D2",
          "midi": 38,
          "time": 171.35607499999935,
          "velocity": 0.7874015748031497,
          "duration": 0.12711874999999395
        },
        {
          "name": "D4",
          "midi": 62,
          "time": 171.35607499999935,
          "velocity": 0.7874015748031497,
          "duration": 0.12711874999999395
        },
        {
          "name": "D3",
          "midi": 50,
          "time": 171.35607499999935,
          "velocity": 0.7874015748031497,
          "duration": 0.12711874999999395
        },
        {
          "name": "D2",
          "midi": 38,
          "time": 171.73743124999933,
          "velocity": 0.7874015748031497,
          "duration": 0.0847458333333293
        },
        {
          "name": "D4",
          "midi": 62,
          "time": 171.73743124999933,
          "velocity": 0.7874015748031497,
          "duration": 0.0847458333333293
        },
        {
          "name": "D3",
          "midi": 50,
          "time": 171.73743124999933,
          "velocity": 0.7874015748031497,
          "duration": 0.0847458333333293
        },
        {
          "name": "F3",
          "midi": 53,
          "time": 171.99166874999932,
          "velocity": 0.7874015748031497,
          "duration": 0.12711874999999395
        },
        {
          "name": "C3",
          "midi": 48,
          "time": 171.99166874999932,
          "velocity": 0.7874015748031497,
          "duration": 0.12711874999999395
        },
        {
          "name": "F2",
          "midi": 41,
          "time": 171.99166874999932,
          "velocity": 0.7874015748031497,
          "duration": 0.12711874999999395
        },
        {
          "name": "F3",
          "midi": 53,
          "time": 172.1187874999993,
          "velocity": 0.7874015748031497,
          "duration": 0.2542374999999879
        },
        {
          "name": "C3",
          "midi": 48,
          "time": 172.1187874999993,
          "velocity": 0.7874015748031497,
          "duration": 0.2542374999999879
        },
        {
          "name": "F2",
          "midi": 41,
          "time": 172.1187874999993,
          "velocity": 0.7874015748031497,
          "duration": 0.2542374999999879
        },
        {
          "name": "G3",
          "midi": 55,
          "time": 172.3730249999993,
          "velocity": 0.7874015748031497,
          "duration": 0.2542374999999879
        },
        {
          "name": "D3",
          "midi": 50,
          "time": 172.3730249999993,
          "velocity": 0.7874015748031497,
          "duration": 0.2542374999999879
        },
        {
          "name": "G2",
          "midi": 43,
          "time": 172.3730249999993,
          "velocity": 0.7874015748031497,
          "duration": 0.2542374999999879
        },
        {
          "name": "F3",
          "midi": 53,
          "time": 172.6272624999993,
          "velocity": 0.7874015748031497,
          "duration": 0.2542374999999879
        },
        {
          "name": "C3",
          "midi": 48,
          "time": 172.6272624999993,
          "velocity": 0.7874015748031497,
          "duration": 0.2542374999999879
        },
        {
          "name": "D2",
          "midi": 38,
          "time": 172.88149999999928,
          "velocity": 0.7874015748031497,
          "duration": 0.12711874999999395
        },
        {
          "name": "D4",
          "midi": 62,
          "time": 172.88149999999928,
          "velocity": 0.7874015748031497,
          "duration": 0.12711874999999395
        },
        {
          "name": "D3",
          "midi": 50,
          "time": 172.88149999999928,
          "velocity": 0.7874015748031497,
          "duration": 0.12711874999999395
        },
        {
          "name": "D2",
          "midi": 38,
          "time": 173.00861874999927,
          "velocity": 0.7874015748031497,
          "duration": 0.12711874999999395
        },
        {
          "name": "D4",
          "midi": 62,
          "time": 173.00861874999927,
          "velocity": 0.7874015748031497,
          "duration": 0.12711874999999395
        },
        {
          "name": "D3",
          "midi": 50,
          "time": 173.00861874999927,
          "velocity": 0.7874015748031497,
          "duration": 0.12711874999999395
        },
        {
          "name": "D2",
          "midi": 38,
          "time": 173.26285624999926,
          "velocity": 0.7874015748031497,
          "duration": 0.12711874999999395
        },
        {
          "name": "D4",
          "midi": 62,
          "time": 173.26285624999926,
          "velocity": 0.7874015748031497,
          "duration": 0.12711874999999395
        },
        {
          "name": "D3",
          "midi": 50,
          "time": 173.26285624999926,
          "velocity": 0.7874015748031497,
          "duration": 0.12711874999999395
        },
        {
          "name": "D2",
          "midi": 38,
          "time": 173.38997499999925,
          "velocity": 0.7874015748031497,
          "duration": 0.12711874999999395
        },
        {
          "name": "D4",
          "midi": 62,
          "time": 173.38997499999925,
          "velocity": 0.7874015748031497,
          "duration": 0.12711874999999395
        },
        {
          "name": "D3",
          "midi": 50,
          "time": 173.38997499999925,
          "velocity": 0.7874015748031497,
          "duration": 0.12711874999999395
        },
        {
          "name": "D2",
          "midi": 38,
          "time": 173.77133124999924,
          "velocity": 0.7874015748031497,
          "duration": 0.0847458333333293
        },
        {
          "name": "D4",
          "midi": 62,
          "time": 173.77133124999924,
          "velocity": 0.7874015748031497,
          "duration": 0.0847458333333293
        },
        {
          "name": "D3",
          "midi": 50,
          "time": 173.77133124999924,
          "velocity": 0.7874015748031497,
          "duration": 0.0847458333333293
        },
        {
          "name": "F3",
          "midi": 53,
          "time": 174.02556874999922,
          "velocity": 0.7874015748031497,
          "duration": 0.12711874999999395
        },
        {
          "name": "C3",
          "midi": 48,
          "time": 174.02556874999922,
          "velocity": 0.7874015748031497,
          "duration": 0.12711874999999395
        },
        {
          "name": "F2",
          "midi": 41,
          "time": 174.02556874999922,
          "velocity": 0.7874015748031497,
          "duration": 0.12711874999999395
        },
        {
          "name": "F3",
          "midi": 53,
          "time": 174.15268749999922,
          "velocity": 0.7874015748031497,
          "duration": 0.2542374999999879
        },
        {
          "name": "C3",
          "midi": 48,
          "time": 174.15268749999922,
          "velocity": 0.7874015748031497,
          "duration": 0.2542374999999879
        },
        {
          "name": "F2",
          "midi": 41,
          "time": 174.15268749999922,
          "velocity": 0.7874015748031497,
          "duration": 0.2542374999999879
        },
        {
          "name": "G3",
          "midi": 55,
          "time": 174.4069249999992,
          "velocity": 0.7874015748031497,
          "duration": 0.2542374999999879
        },
        {
          "name": "D3",
          "midi": 50,
          "time": 174.4069249999992,
          "velocity": 0.7874015748031497,
          "duration": 0.2542374999999879
        },
        {
          "name": "G2",
          "midi": 43,
          "time": 174.4069249999992,
          "velocity": 0.7874015748031497,
          "duration": 0.2542374999999879
        },
        {
          "name": "F3",
          "midi": 53,
          "time": 174.6611624999992,
          "velocity": 0.7874015748031497,
          "duration": 0.2542374999999879
        },
        {
          "name": "C3",
          "midi": 48,
          "time": 174.6611624999992,
          "velocity": 0.7874015748031497,
          "duration": 0.2542374999999879
        },
        {
          "name": "D2",
          "midi": 38,
          "time": 174.91539999999918,
          "velocity": 0.7874015748031497,
          "duration": 0.12711874999999395
        },
        {
          "name": "D4",
          "midi": 62,
          "time": 174.91539999999918,
          "velocity": 0.7874015748031497,
          "duration": 0.12711874999999395
        },
        {
          "name": "D3",
          "midi": 50,
          "time": 174.91539999999918,
          "velocity": 0.7874015748031497,
          "duration": 0.12711874999999395
        },
        {
          "name": "D2",
          "midi": 38,
          "time": 175.04251874999918,
          "velocity": 0.7874015748031497,
          "duration": 0.12711874999999395
        },
        {
          "name": "D4",
          "midi": 62,
          "time": 175.04251874999918,
          "velocity": 0.7874015748031497,
          "duration": 0.12711874999999395
        },
        {
          "name": "D3",
          "midi": 50,
          "time": 175.04251874999918,
          "velocity": 0.7874015748031497,
          "duration": 0.12711874999999395
        },
        {
          "name": "D2",
          "midi": 38,
          "time": 175.29675624999916,
          "velocity": 0.7874015748031497,
          "duration": 0.12711874999999395
        },
        {
          "name": "D4",
          "midi": 62,
          "time": 175.29675624999916,
          "velocity": 0.7874015748031497,
          "duration": 0.12711874999999395
        },
        {
          "name": "D3",
          "midi": 50,
          "time": 175.29675624999916,
          "velocity": 0.7874015748031497,
          "duration": 0.12711874999999395
        },
        {
          "name": "D2",
          "midi": 38,
          "time": 175.42387499999916,
          "velocity": 0.7874015748031497,
          "duration": 0.12711874999999395
        },
        {
          "name": "D4",
          "midi": 62,
          "time": 175.42387499999916,
          "velocity": 0.7874015748031497,
          "duration": 0.12711874999999395
        },
        {
          "name": "D3",
          "midi": 50,
          "time": 175.42387499999916,
          "velocity": 0.7874015748031497,
          "duration": 0.12711874999999395
        },
        {
          "name": "D2",
          "midi": 38,
          "time": 175.80523124999914,
          "velocity": 0.7874015748031497,
          "duration": 0.0847458333333293
        },
        {
          "name": "D4",
          "midi": 62,
          "time": 175.80523124999914,
          "velocity": 0.7874015748031497,
          "duration": 0.0847458333333293
        },
        {
          "name": "D3",
          "midi": 50,
          "time": 175.80523124999914,
          "velocity": 0.7874015748031497,
          "duration": 0.0847458333333293
        },
        {
          "name": "F3",
          "midi": 53,
          "time": 176.05946874999913,
          "velocity": 0.7874015748031497,
          "duration": 0.12711874999999395
        },
        {
          "name": "C3",
          "midi": 48,
          "time": 176.05946874999913,
          "velocity": 0.7874015748031497,
          "duration": 0.12711874999999395
        },
        {
          "name": "F2",
          "midi": 41,
          "time": 176.05946874999913,
          "velocity": 0.7874015748031497,
          "duration": 0.12711874999999395
        },
        {
          "name": "F3",
          "midi": 53,
          "time": 176.18658749999912,
          "velocity": 0.7874015748031497,
          "duration": 0.2542374999999879
        },
        {
          "name": "C3",
          "midi": 48,
          "time": 176.18658749999912,
          "velocity": 0.7874015748031497,
          "duration": 0.2542374999999879
        },
        {
          "name": "F2",
          "midi": 41,
          "time": 176.18658749999912,
          "velocity": 0.7874015748031497,
          "duration": 0.2542374999999879
        },
        {
          "name": "G3",
          "midi": 55,
          "time": 176.4408249999991,
          "velocity": 0.7874015748031497,
          "duration": 0.2542374999999879
        },
        {
          "name": "D3",
          "midi": 50,
          "time": 176.4408249999991,
          "velocity": 0.7874015748031497,
          "duration": 0.2542374999999879
        },
        {
          "name": "G2",
          "midi": 43,
          "time": 176.4408249999991,
          "velocity": 0.7874015748031497,
          "duration": 0.2542374999999879
        },
        {
          "name": "F3",
          "midi": 53,
          "time": 176.6950624999991,
          "velocity": 0.7874015748031497,
          "duration": 0.2542374999999879
        },
        {
          "name": "C3",
          "midi": 48,
          "time": 176.6950624999991,
          "velocity": 0.7874015748031497,
          "duration": 0.2542374999999879
        },
        {
          "name": "D2",
          "midi": 38,
          "time": 176.94929999999908,
          "velocity": 0.7874015748031497,
          "duration": 0.12711874999999395
        },
        {
          "name": "D4",
          "midi": 62,
          "time": 176.94929999999908,
          "velocity": 0.7874015748031497,
          "duration": 0.12711874999999395
        },
        {
          "name": "D3",
          "midi": 50,
          "time": 176.94929999999908,
          "velocity": 0.7874015748031497,
          "duration": 0.12711874999999395
        },
        {
          "name": "D2",
          "midi": 38,
          "time": 177.07641874999908,
          "velocity": 0.7874015748031497,
          "duration": 0.12711874999999395
        },
        {
          "name": "D4",
          "midi": 62,
          "time": 177.07641874999908,
          "velocity": 0.7874015748031497,
          "duration": 0.12711874999999395
        },
        {
          "name": "D3",
          "midi": 50,
          "time": 177.07641874999908,
          "velocity": 0.7874015748031497,
          "duration": 0.12711874999999395
        },
        {
          "name": "D2",
          "midi": 38,
          "time": 177.33065624999907,
          "velocity": 0.7874015748031497,
          "duration": 0.12711874999999395
        },
        {
          "name": "D4",
          "midi": 62,
          "time": 177.33065624999907,
          "velocity": 0.7874015748031497,
          "duration": 0.12711874999999395
        },
        {
          "name": "D3",
          "midi": 50,
          "time": 177.33065624999907,
          "velocity": 0.7874015748031497,
          "duration": 0.12711874999999395
        },
        {
          "name": "D2",
          "midi": 38,
          "time": 177.45777499999906,
          "velocity": 0.7874015748031497,
          "duration": 0.12711874999999395
        },
        {
          "name": "D4",
          "midi": 62,
          "time": 177.45777499999906,
          "velocity": 0.7874015748031497,
          "duration": 0.12711874999999395
        },
        {
          "name": "D3",
          "midi": 50,
          "time": 177.45777499999906,
          "velocity": 0.7874015748031497,
          "duration": 0.12711874999999395
        },
        {
          "name": "D2",
          "midi": 38,
          "time": 177.83913124999904,
          "velocity": 0.7874015748031497,
          "duration": 0.0847458333333293
        },
        {
          "name": "D4",
          "midi": 62,
          "time": 177.83913124999904,
          "velocity": 0.7874015748031497,
          "duration": 0.0847458333333293
        },
        {
          "name": "D3",
          "midi": 50,
          "time": 177.83913124999904,
          "velocity": 0.7874015748031497,
          "duration": 0.0847458333333293
        },
        {
          "name": "F3",
          "midi": 53,
          "time": 178.09336874999903,
          "velocity": 0.7874015748031497,
          "duration": 0.12711874999999395
        },
        {
          "name": "C3",
          "midi": 48,
          "time": 178.09336874999903,
          "velocity": 0.7874015748031497,
          "duration": 0.12711874999999395
        },
        {
          "name": "F2",
          "midi": 41,
          "time": 178.09336874999903,
          "velocity": 0.7874015748031497,
          "duration": 0.12711874999999395
        },
        {
          "name": "F3",
          "midi": 53,
          "time": 178.22048749999902,
          "velocity": 0.7874015748031497,
          "duration": 0.2542374999999879
        },
        {
          "name": "C3",
          "midi": 48,
          "time": 178.22048749999902,
          "velocity": 0.7874015748031497,
          "duration": 0.2542374999999879
        },
        {
          "name": "F2",
          "midi": 41,
          "time": 178.22048749999902,
          "velocity": 0.7874015748031497,
          "duration": 0.2542374999999879
        },
        {
          "name": "G3",
          "midi": 55,
          "time": 178.474724999999,
          "velocity": 0.7874015748031497,
          "duration": 0.2542374999999879
        },
        {
          "name": "D3",
          "midi": 50,
          "time": 178.474724999999,
          "velocity": 0.7874015748031497,
          "duration": 0.2542374999999879
        },
        {
          "name": "G2",
          "midi": 43,
          "time": 178.474724999999,
          "velocity": 0.7874015748031497,
          "duration": 0.2542374999999879
        },
        {
          "name": "F3",
          "midi": 53,
          "time": 178.728962499999,
          "velocity": 0.7874015748031497,
          "duration": 0.2542374999999879
        },
        {
          "name": "C3",
          "midi": 48,
          "time": 178.728962499999,
          "velocity": 0.7874015748031497,
          "duration": 0.2542374999999879
        },
        {
          "name": "D2",
          "midi": 38,
          "time": 178.983199999999,
          "velocity": 0.7874015748031497,
          "duration": 0.12711874999999395
        },
        {
          "name": "D4",
          "midi": 62,
          "time": 178.983199999999,
          "velocity": 0.7874015748031497,
          "duration": 0.12711874999999395
        },
        {
          "name": "D3",
          "midi": 50,
          "time": 178.983199999999,
          "velocity": 0.7874015748031497,
          "duration": 0.12711874999999395
        },
        {
          "name": "D2",
          "midi": 38,
          "time": 179.11031874999898,
          "velocity": 0.7874015748031497,
          "duration": 0.12711874999999395
        },
        {
          "name": "D4",
          "midi": 62,
          "time": 179.11031874999898,
          "velocity": 0.7874015748031497,
          "duration": 0.12711874999999395
        },
        {
          "name": "D3",
          "midi": 50,
          "time": 179.11031874999898,
          "velocity": 0.7874015748031497,
          "duration": 0.12711874999999395
        },
        {
          "name": "D2",
          "midi": 38,
          "time": 179.36455624999897,
          "velocity": 0.7874015748031497,
          "duration": 0.12711874999999395
        },
        {
          "name": "D4",
          "midi": 62,
          "time": 179.36455624999897,
          "velocity": 0.7874015748031497,
          "duration": 0.12711874999999395
        },
        {
          "name": "D3",
          "midi": 50,
          "time": 179.36455624999897,
          "velocity": 0.7874015748031497,
          "duration": 0.12711874999999395
        },
        {
          "name": "D2",
          "midi": 38,
          "time": 179.49167499999896,
          "velocity": 0.7874015748031497,
          "duration": 0.12711874999999395
        },
        {
          "name": "D4",
          "midi": 62,
          "time": 179.49167499999896,
          "velocity": 0.7874015748031497,
          "duration": 0.12711874999999395
        },
        {
          "name": "D3",
          "midi": 50,
          "time": 179.49167499999896,
          "velocity": 0.7874015748031497,
          "duration": 0.12711874999999395
        },
        {
          "name": "D2",
          "midi": 38,
          "time": 179.87303124999895,
          "velocity": 0.7874015748031497,
          "duration": 0.0847458333333293
        },
        {
          "name": "D4",
          "midi": 62,
          "time": 179.87303124999895,
          "velocity": 0.7874015748031497,
          "duration": 0.0847458333333293
        },
        {
          "name": "D3",
          "midi": 50,
          "time": 179.87303124999895,
          "velocity": 0.7874015748031497,
          "duration": 0.0847458333333293
        },
        {
          "name": "F3",
          "midi": 53,
          "time": 180.12726874999893,
          "velocity": 0.7874015748031497,
          "duration": 0.12711874999999395
        },
        {
          "name": "C3",
          "midi": 48,
          "time": 180.12726874999893,
          "velocity": 0.7874015748031497,
          "duration": 0.12711874999999395
        },
        {
          "name": "F2",
          "midi": 41,
          "time": 180.12726874999893,
          "velocity": 0.7874015748031497,
          "duration": 0.12711874999999395
        },
        {
          "name": "F3",
          "midi": 53,
          "time": 180.25438749999893,
          "velocity": 0.7874015748031497,
          "duration": 0.2542374999999879
        },
        {
          "name": "C3",
          "midi": 48,
          "time": 180.25438749999893,
          "velocity": 0.7874015748031497,
          "duration": 0.2542374999999879
        },
        {
          "name": "F2",
          "midi": 41,
          "time": 180.25438749999893,
          "velocity": 0.7874015748031497,
          "duration": 0.2542374999999879
        },
        {
          "name": "G3",
          "midi": 55,
          "time": 180.50862499999891,
          "velocity": 0.7874015748031497,
          "duration": 0.2542374999999879
        },
        {
          "name": "D3",
          "midi": 50,
          "time": 180.50862499999891,
          "velocity": 0.7874015748031497,
          "duration": 0.2542374999999879
        },
        {
          "name": "G2",
          "midi": 43,
          "time": 180.50862499999891,
          "velocity": 0.7874015748031497,
          "duration": 0.2542374999999879
        },
        {
          "name": "F3",
          "midi": 53,
          "time": 180.7628624999989,
          "velocity": 0.7874015748031497,
          "duration": 0.2542374999999879
        },
        {
          "name": "C3",
          "midi": 48,
          "time": 180.7628624999989,
          "velocity": 0.7874015748031497,
          "duration": 0.2542374999999879
        },
        {
          "name": "D2",
          "midi": 38,
          "time": 181.0170999999989,
          "velocity": 0.7874015748031497,
          "duration": 0.12711874999999395
        },
        {
          "name": "D4",
          "midi": 62,
          "time": 181.0170999999989,
          "velocity": 0.7874015748031497,
          "duration": 0.12711874999999395
        },
        {
          "name": "D3",
          "midi": 50,
          "time": 181.0170999999989,
          "velocity": 0.7874015748031497,
          "duration": 0.12711874999999395
        },
        {
          "name": "D2",
          "midi": 38,
          "time": 181.14421874999888,
          "velocity": 0.7874015748031497,
          "duration": 0.12711874999999395
        },
        {
          "name": "D4",
          "midi": 62,
          "time": 181.14421874999888,
          "velocity": 0.7874015748031497,
          "duration": 0.12711874999999395
        },
        {
          "name": "D3",
          "midi": 50,
          "time": 181.14421874999888,
          "velocity": 0.7874015748031497,
          "duration": 0.12711874999999395
        },
        {
          "name": "D2",
          "midi": 38,
          "time": 181.39845624999887,
          "velocity": 0.7874015748031497,
          "duration": 0.12711874999999395
        },
        {
          "name": "D4",
          "midi": 62,
          "time": 181.39845624999887,
          "velocity": 0.7874015748031497,
          "duration": 0.12711874999999395
        },
        {
          "name": "D3",
          "midi": 50,
          "time": 181.39845624999887,
          "velocity": 0.7874015748031497,
          "duration": 0.12711874999999395
        },
        {
          "name": "D2",
          "midi": 38,
          "time": 181.52557499999887,
          "velocity": 0.7874015748031497,
          "duration": 0.12711874999999395
        },
        {
          "name": "D4",
          "midi": 62,
          "time": 181.52557499999887,
          "velocity": 0.7874015748031497,
          "duration": 0.12711874999999395
        },
        {
          "name": "D3",
          "midi": 50,
          "time": 181.52557499999887,
          "velocity": 0.7874015748031497,
          "duration": 0.12711874999999395
        },
        {
          "name": "D2",
          "midi": 38,
          "time": 181.90693124999885,
          "velocity": 0.7874015748031497,
          "duration": 0.0847458333333293
        },
        {
          "name": "D4",
          "midi": 62,
          "time": 181.90693124999885,
          "velocity": 0.7874015748031497,
          "duration": 0.0847458333333293
        },
        {
          "name": "D3",
          "midi": 50,
          "time": 181.90693124999885,
          "velocity": 0.7874015748031497,
          "duration": 0.0847458333333293
        },
        {
          "name": "F3",
          "midi": 53,
          "time": 182.16116874999884,
          "velocity": 0.7874015748031497,
          "duration": 0.12711874999999395
        },
        {
          "name": "C3",
          "midi": 48,
          "time": 182.16116874999884,
          "velocity": 0.7874015748031497,
          "duration": 0.12711874999999395
        },
        {
          "name": "F2",
          "midi": 41,
          "time": 182.16116874999884,
          "velocity": 0.7874015748031497,
          "duration": 0.12711874999999395
        },
        {
          "name": "F3",
          "midi": 53,
          "time": 182.28828749999883,
          "velocity": 0.7874015748031497,
          "duration": 0.2542374999999879
        },
        {
          "name": "C3",
          "midi": 48,
          "time": 182.28828749999883,
          "velocity": 0.7874015748031497,
          "duration": 0.2542374999999879
        },
        {
          "name": "F2",
          "midi": 41,
          "time": 182.28828749999883,
          "velocity": 0.7874015748031497,
          "duration": 0.2542374999999879
        },
        {
          "name": "G3",
          "midi": 55,
          "time": 182.54252499999882,
          "velocity": 0.7874015748031497,
          "duration": 0.2542374999999879
        },
        {
          "name": "D3",
          "midi": 50,
          "time": 182.54252499999882,
          "velocity": 0.7874015748031497,
          "duration": 0.2542374999999879
        },
        {
          "name": "G2",
          "midi": 43,
          "time": 182.54252499999882,
          "velocity": 0.7874015748031497,
          "duration": 0.2542374999999879
        },
        {
          "name": "F3",
          "midi": 53,
          "time": 182.7967624999988,
          "velocity": 0.7874015748031497,
          "duration": 0.2542374999999879
        },
        {
          "name": "C3",
          "midi": 48,
          "time": 182.7967624999988,
          "velocity": 0.7874015748031497,
          "duration": 0.2542374999999879
        },
        {
          "name": "D2",
          "midi": 38,
          "time": 183.0509999999988,
          "velocity": 0.7874015748031497,
          "duration": 0.12711874999999395
        },
        {
          "name": "D4",
          "midi": 62,
          "time": 183.0509999999988,
          "velocity": 0.7874015748031497,
          "duration": 0.12711874999999395
        },
        {
          "name": "D3",
          "midi": 50,
          "time": 183.0509999999988,
          "velocity": 0.7874015748031497,
          "duration": 0.12711874999999395
        },
        {
          "name": "D2",
          "midi": 38,
          "time": 183.1781187499988,
          "velocity": 0.7874015748031497,
          "duration": 0.12711874999999395
        },
        {
          "name": "D4",
          "midi": 62,
          "time": 183.1781187499988,
          "velocity": 0.7874015748031497,
          "duration": 0.12711874999999395
        },
        {
          "name": "D3",
          "midi": 50,
          "time": 183.1781187499988,
          "velocity": 0.7874015748031497,
          "duration": 0.12711874999999395
        },
        {
          "name": "D2",
          "midi": 38,
          "time": 183.43235624999878,
          "velocity": 0.7874015748031497,
          "duration": 0.12711874999999395
        },
        {
          "name": "D4",
          "midi": 62,
          "time": 183.43235624999878,
          "velocity": 0.7874015748031497,
          "duration": 0.12711874999999395
        },
        {
          "name": "D3",
          "midi": 50,
          "time": 183.43235624999878,
          "velocity": 0.7874015748031497,
          "duration": 0.12711874999999395
        },
        {
          "name": "D2",
          "midi": 38,
          "time": 183.55947499999877,
          "velocity": 0.7874015748031497,
          "duration": 0.12711874999999395
        },
        {
          "name": "D4",
          "midi": 62,
          "time": 183.55947499999877,
          "velocity": 0.7874015748031497,
          "duration": 0.12711874999999395
        },
        {
          "name": "D3",
          "midi": 50,
          "time": 183.55947499999877,
          "velocity": 0.7874015748031497,
          "duration": 0.12711874999999395
        },
        {
          "name": "D2",
          "midi": 38,
          "time": 183.94083124999875,
          "velocity": 0.7874015748031497,
          "duration": 0.0847458333333293
        },
        {
          "name": "D4",
          "midi": 62,
          "time": 183.94083124999875,
          "velocity": 0.7874015748031497,
          "duration": 0.0847458333333293
        },
        {
          "name": "D3",
          "midi": 50,
          "time": 183.94083124999875,
          "velocity": 0.7874015748031497,
          "duration": 0.0847458333333293
        },
        {
          "name": "F3",
          "midi": 53,
          "time": 184.19506874999874,
          "velocity": 0.7874015748031497,
          "duration": 0.12711874999999395
        },
        {
          "name": "C3",
          "midi": 48,
          "time": 184.19506874999874,
          "velocity": 0.7874015748031497,
          "duration": 0.12711874999999395
        },
        {
          "name": "F2",
          "midi": 41,
          "time": 184.19506874999874,
          "velocity": 0.7874015748031497,
          "duration": 0.12711874999999395
        },
        {
          "name": "F3",
          "midi": 53,
          "time": 184.32218749999873,
          "velocity": 0.7874015748031497,
          "duration": 0.2542374999999879
        },
        {
          "name": "C3",
          "midi": 48,
          "time": 184.32218749999873,
          "velocity": 0.7874015748031497,
          "duration": 0.2542374999999879
        },
        {
          "name": "F2",
          "midi": 41,
          "time": 184.32218749999873,
          "velocity": 0.7874015748031497,
          "duration": 0.2542374999999879
        },
        {
          "name": "G3",
          "midi": 55,
          "time": 184.57642499999872,
          "velocity": 0.7874015748031497,
          "duration": 0.2542374999999879
        },
        {
          "name": "D3",
          "midi": 50,
          "time": 184.57642499999872,
          "velocity": 0.7874015748031497,
          "duration": 0.2542374999999879
        },
        {
          "name": "G2",
          "midi": 43,
          "time": 184.57642499999872,
          "velocity": 0.7874015748031497,
          "duration": 0.2542374999999879
        },
        {
          "name": "F3",
          "midi": 53,
          "time": 184.8306624999987,
          "velocity": 0.7874015748031497,
          "duration": 0.2542374999999879
        },
        {
          "name": "C3",
          "midi": 48,
          "time": 184.8306624999987,
          "velocity": 0.7874015748031497,
          "duration": 0.2542374999999879
        },
        {
          "name": "D2",
          "midi": 38,
          "time": 185.0848999999987,
          "velocity": 0.7874015748031497,
          "duration": 0.12711874999999395
        },
        {
          "name": "D4",
          "midi": 62,
          "time": 185.0848999999987,
          "velocity": 0.7874015748031497,
          "duration": 0.12711874999999395
        },
        {
          "name": "D3",
          "midi": 50,
          "time": 185.0848999999987,
          "velocity": 0.7874015748031497,
          "duration": 0.12711874999999395
        },
        {
          "name": "D2",
          "midi": 38,
          "time": 185.2120187499987,
          "velocity": 0.7874015748031497,
          "duration": 0.12711874999999395
        },
        {
          "name": "D4",
          "midi": 62,
          "time": 185.2120187499987,
          "velocity": 0.7874015748031497,
          "duration": 0.12711874999999395
        },
        {
          "name": "D3",
          "midi": 50,
          "time": 185.2120187499987,
          "velocity": 0.7874015748031497,
          "duration": 0.12711874999999395
        },
        {
          "name": "D2",
          "midi": 38,
          "time": 185.46625624999868,
          "velocity": 0.7874015748031497,
          "duration": 0.12711874999999395
        },
        {
          "name": "D4",
          "midi": 62,
          "time": 185.46625624999868,
          "velocity": 0.7874015748031497,
          "duration": 0.12711874999999395
        },
        {
          "name": "D3",
          "midi": 50,
          "time": 185.46625624999868,
          "velocity": 0.7874015748031497,
          "duration": 0.12711874999999395
        },
        {
          "name": "D2",
          "midi": 38,
          "time": 185.59337499999867,
          "velocity": 0.7874015748031497,
          "duration": 0.12711874999999395
        },
        {
          "name": "D4",
          "midi": 62,
          "time": 185.59337499999867,
          "velocity": 0.7874015748031497,
          "duration": 0.12711874999999395
        },
        {
          "name": "D3",
          "midi": 50,
          "time": 185.59337499999867,
          "velocity": 0.7874015748031497,
          "duration": 0.12711874999999395
        },
        {
          "name": "D2",
          "midi": 38,
          "time": 185.97473124999865,
          "velocity": 0.7874015748031497,
          "duration": 0.0847458333333293
        },
        {
          "name": "D4",
          "midi": 62,
          "time": 185.97473124999865,
          "velocity": 0.7874015748031497,
          "duration": 0.0847458333333293
        },
        {
          "name": "D3",
          "midi": 50,
          "time": 185.97473124999865,
          "velocity": 0.7874015748031497,
          "duration": 0.0847458333333293
        },
        {
          "name": "F3",
          "midi": 53,
          "time": 186.22896874999864,
          "velocity": 0.7874015748031497,
          "duration": 0.12711874999999395
        },
        {
          "name": "C3",
          "midi": 48,
          "time": 186.22896874999864,
          "velocity": 0.7874015748031497,
          "duration": 0.12711874999999395
        },
        {
          "name": "F2",
          "midi": 41,
          "time": 186.22896874999864,
          "velocity": 0.7874015748031497,
          "duration": 0.12711874999999395
        },
        {
          "name": "F3",
          "midi": 53,
          "time": 186.35608749999864,
          "velocity": 0.7874015748031497,
          "duration": 0.2542374999999879
        },
        {
          "name": "C3",
          "midi": 48,
          "time": 186.35608749999864,
          "velocity": 0.7874015748031497,
          "duration": 0.2542374999999879
        },
        {
          "name": "F2",
          "midi": 41,
          "time": 186.35608749999864,
          "velocity": 0.7874015748031497,
          "duration": 0.2542374999999879
        },
        {
          "name": "G3",
          "midi": 55,
          "time": 186.61032499999862,
          "velocity": 0.7874015748031497,
          "duration": 0.2542374999999879
        },
        {
          "name": "D3",
          "midi": 50,
          "time": 186.61032499999862,
          "velocity": 0.7874015748031497,
          "duration": 0.2542374999999879
        },
        {
          "name": "G2",
          "midi": 43,
          "time": 186.61032499999862,
          "velocity": 0.7874015748031497,
          "duration": 0.2542374999999879
        },
        {
          "name": "F3",
          "midi": 53,
          "time": 186.8645624999986,
          "velocity": 0.7874015748031497,
          "duration": 0.2542374999999879
        },
        {
          "name": "C3",
          "midi": 48,
          "time": 186.8645624999986,
          "velocity": 0.7874015748031497,
          "duration": 0.2542374999999879
        },
        {
          "name": "D2",
          "midi": 38,
          "time": 187.1187999999986,
          "velocity": 0.7874015748031497,
          "duration": 0.12711874999999395
        },
        {
          "name": "D4",
          "midi": 62,
          "time": 187.1187999999986,
          "velocity": 0.7874015748031497,
          "duration": 0.12711874999999395
        },
        {
          "name": "D3",
          "midi": 50,
          "time": 187.1187999999986,
          "velocity": 0.7874015748031497,
          "duration": 0.12711874999999395
        },
        {
          "name": "D2",
          "midi": 38,
          "time": 187.2459187499986,
          "velocity": 0.7874015748031497,
          "duration": 0.12711874999999395
        },
        {
          "name": "D4",
          "midi": 62,
          "time": 187.2459187499986,
          "velocity": 0.7874015748031497,
          "duration": 0.12711874999999395
        },
        {
          "name": "D3",
          "midi": 50,
          "time": 187.2459187499986,
          "velocity": 0.7874015748031497,
          "duration": 0.12711874999999395
        },
        {
          "name": "D2",
          "midi": 38,
          "time": 187.50015624999858,
          "velocity": 0.7874015748031497,
          "duration": 0.12711874999999395
        },
        {
          "name": "D4",
          "midi": 62,
          "time": 187.50015624999858,
          "velocity": 0.7874015748031497,
          "duration": 0.12711874999999395
        },
        {
          "name": "D3",
          "midi": 50,
          "time": 187.50015624999858,
          "velocity": 0.7874015748031497,
          "duration": 0.12711874999999395
        },
        {
          "name": "D2",
          "midi": 38,
          "time": 187.62727499999858,
          "velocity": 0.7874015748031497,
          "duration": 0.12711874999999395
        },
        {
          "name": "D4",
          "midi": 62,
          "time": 187.62727499999858,
          "velocity": 0.7874015748031497,
          "duration": 0.12711874999999395
        },
        {
          "name": "D3",
          "midi": 50,
          "time": 187.62727499999858,
          "velocity": 0.7874015748031497,
          "duration": 0.12711874999999395
        },
        {
          "name": "D2",
          "midi": 38,
          "time": 188.00863124999856,
          "velocity": 0.7874015748031497,
          "duration": 0.0847458333333293
        },
        {
          "name": "D4",
          "midi": 62,
          "time": 188.00863124999856,
          "velocity": 0.7874015748031497,
          "duration": 0.0847458333333293
        },
        {
          "name": "D3",
          "midi": 50,
          "time": 188.00863124999856,
          "velocity": 0.7874015748031497,
          "duration": 0.0847458333333293
        },
        {
          "name": "F3",
          "midi": 53,
          "time": 188.26286874999855,
          "velocity": 0.7874015748031497,
          "duration": 0.12711874999999395
        },
        {
          "name": "C3",
          "midi": 48,
          "time": 188.26286874999855,
          "velocity": 0.7874015748031497,
          "duration": 0.12711874999999395
        },
        {
          "name": "F2",
          "midi": 41,
          "time": 188.26286874999855,
          "velocity": 0.7874015748031497,
          "duration": 0.12711874999999395
        },
        {
          "name": "F3",
          "midi": 53,
          "time": 188.38998749999854,
          "velocity": 0.7874015748031497,
          "duration": 0.2542374999999879
        },
        {
          "name": "C3",
          "midi": 48,
          "time": 188.38998749999854,
          "velocity": 0.7874015748031497,
          "duration": 0.2542374999999879
        },
        {
          "name": "F2",
          "midi": 41,
          "time": 188.38998749999854,
          "velocity": 0.7874015748031497,
          "duration": 0.2542374999999879
        },
        {
          "name": "G3",
          "midi": 55,
          "time": 188.64422499999853,
          "velocity": 0.7874015748031497,
          "duration": 0.2542374999999879
        },
        {
          "name": "D3",
          "midi": 50,
          "time": 188.64422499999853,
          "velocity": 0.7874015748031497,
          "duration": 0.2542374999999879
        },
        {
          "name": "G2",
          "midi": 43,
          "time": 188.64422499999853,
          "velocity": 0.7874015748031497,
          "duration": 0.2542374999999879
        },
        {
          "name": "F3",
          "midi": 53,
          "time": 188.89846249999852,
          "velocity": 0.7874015748031497,
          "duration": 0.2542374999999879
        },
        {
          "name": "C3",
          "midi": 48,
          "time": 188.89846249999852,
          "velocity": 0.7874015748031497,
          "duration": 0.2542374999999879
        },
        {
          "name": "D2",
          "midi": 38,
          "time": 189.1526999999985,
          "velocity": 0.7874015748031497,
          "duration": 0.12711874999999395
        },
        {
          "name": "D4",
          "midi": 62,
          "time": 189.1526999999985,
          "velocity": 0.7874015748031497,
          "duration": 0.12711874999999395
        },
        {
          "name": "D3",
          "midi": 50,
          "time": 189.1526999999985,
          "velocity": 0.7874015748031497,
          "duration": 0.12711874999999395
        },
        {
          "name": "D2",
          "midi": 38,
          "time": 189.2798187499985,
          "velocity": 0.7874015748031497,
          "duration": 0.12711874999999395
        },
        {
          "name": "D4",
          "midi": 62,
          "time": 189.2798187499985,
          "velocity": 0.7874015748031497,
          "duration": 0.12711874999999395
        },
        {
          "name": "D3",
          "midi": 50,
          "time": 189.2798187499985,
          "velocity": 0.7874015748031497,
          "duration": 0.12711874999999395
        },
        {
          "name": "D2",
          "midi": 38,
          "time": 189.53405624999849,
          "velocity": 0.7874015748031497,
          "duration": 0.12711874999999395
        },
        {
          "name": "D4",
          "midi": 62,
          "time": 189.53405624999849,
          "velocity": 0.7874015748031497,
          "duration": 0.12711874999999395
        },
        {
          "name": "D3",
          "midi": 50,
          "time": 189.53405624999849,
          "velocity": 0.7874015748031497,
          "duration": 0.12711874999999395
        },
        {
          "name": "D2",
          "midi": 38,
          "time": 189.66117499999848,
          "velocity": 0.7874015748031497,
          "duration": 0.12711874999999395
        },
        {
          "name": "D4",
          "midi": 62,
          "time": 189.66117499999848,
          "velocity": 0.7874015748031497,
          "duration": 0.12711874999999395
        },
        {
          "name": "D3",
          "midi": 50,
          "time": 189.66117499999848,
          "velocity": 0.7874015748031497,
          "duration": 0.12711874999999395
        },
        {
          "name": "D2",
          "midi": 38,
          "time": 190.04253124999846,
          "velocity": 0.7874015748031497,
          "duration": 0.0847458333333293
        },
        {
          "name": "D4",
          "midi": 62,
          "time": 190.04253124999846,
          "velocity": 0.7874015748031497,
          "duration": 0.0847458333333293
        },
        {
          "name": "D3",
          "midi": 50,
          "time": 190.04253124999846,
          "velocity": 0.7874015748031497,
          "duration": 0.0847458333333293
        },
        {
          "name": "F3",
          "midi": 53,
          "time": 190.29676874999845,
          "velocity": 0.7874015748031497,
          "duration": 0.12711874999999395
        },
        {
          "name": "C3",
          "midi": 48,
          "time": 190.29676874999845,
          "velocity": 0.7874015748031497,
          "duration": 0.12711874999999395
        },
        {
          "name": "F2",
          "midi": 41,
          "time": 190.29676874999845,
          "velocity": 0.7874015748031497,
          "duration": 0.12711874999999395
        },
        {
          "name": "F3",
          "midi": 53,
          "time": 190.42388749999844,
          "velocity": 0.7874015748031497,
          "duration": 0.2542374999999879
        },
        {
          "name": "C3",
          "midi": 48,
          "time": 190.42388749999844,
          "velocity": 0.7874015748031497,
          "duration": 0.2542374999999879
        },
        {
          "name": "F2",
          "midi": 41,
          "time": 190.42388749999844,
          "velocity": 0.7874015748031497,
          "duration": 0.2542374999999879
        },
        {
          "name": "G3",
          "midi": 55,
          "time": 190.67812499999843,
          "velocity": 0.7874015748031497,
          "duration": 0.2542374999999879
        },
        {
          "name": "D3",
          "midi": 50,
          "time": 190.67812499999843,
          "velocity": 0.7874015748031497,
          "duration": 0.2542374999999879
        },
        {
          "name": "G2",
          "midi": 43,
          "time": 190.67812499999843,
          "velocity": 0.7874015748031497,
          "duration": 0.2542374999999879
        },
        {
          "name": "F3",
          "midi": 53,
          "time": 190.93236249999842,
          "velocity": 0.7874015748031497,
          "duration": 0.2542374999999879
        },
        {
          "name": "C3",
          "midi": 48,
          "time": 190.93236249999842,
          "velocity": 0.7874015748031497,
          "duration": 0.2542374999999879
        },
        {
          "name": "D2",
          "midi": 38,
          "time": 191.1865999999984,
          "velocity": 0.7874015748031497,
          "duration": 0.12711874999999395
        },
        {
          "name": "D4",
          "midi": 62,
          "time": 191.1865999999984,
          "velocity": 0.7874015748031497,
          "duration": 0.12711874999999395
        },
        {
          "name": "D3",
          "midi": 50,
          "time": 191.1865999999984,
          "velocity": 0.7874015748031497,
          "duration": 0.12711874999999395
        },
        {
          "name": "D2",
          "midi": 38,
          "time": 191.3137187499984,
          "velocity": 0.7874015748031497,
          "duration": 0.12711874999999395
        },
        {
          "name": "D4",
          "midi": 62,
          "time": 191.3137187499984,
          "velocity": 0.7874015748031497,
          "duration": 0.12711874999999395
        },
        {
          "name": "D3",
          "midi": 50,
          "time": 191.3137187499984,
          "velocity": 0.7874015748031497,
          "duration": 0.12711874999999395
        },
        {
          "name": "D2",
          "midi": 38,
          "time": 191.5679562499984,
          "velocity": 0.7874015748031497,
          "duration": 0.12711874999999395
        },
        {
          "name": "D4",
          "midi": 62,
          "time": 191.5679562499984,
          "velocity": 0.7874015748031497,
          "duration": 0.12711874999999395
        },
        {
          "name": "D3",
          "midi": 50,
          "time": 191.5679562499984,
          "velocity": 0.7874015748031497,
          "duration": 0.12711874999999395
        },
        {
          "name": "D2",
          "midi": 38,
          "time": 191.69507499999838,
          "velocity": 0.7874015748031497,
          "duration": 0.12711874999999395
        },
        {
          "name": "D4",
          "midi": 62,
          "time": 191.69507499999838,
          "velocity": 0.7874015748031497,
          "duration": 0.12711874999999395
        },
        {
          "name": "D3",
          "midi": 50,
          "time": 191.69507499999838,
          "velocity": 0.7874015748031497,
          "duration": 0.12711874999999395
        },
        {
          "name": "D2",
          "midi": 38,
          "time": 192.07643124999836,
          "velocity": 0.7874015748031497,
          "duration": 0.0847458333333293
        },
        {
          "name": "D4",
          "midi": 62,
          "time": 192.07643124999836,
          "velocity": 0.7874015748031497,
          "duration": 0.0847458333333293
        },
        {
          "name": "D3",
          "midi": 50,
          "time": 192.07643124999836,
          "velocity": 0.7874015748031497,
          "duration": 0.0847458333333293
        },
        {
          "name": "F3",
          "midi": 53,
          "time": 192.33066874999835,
          "velocity": 0.7874015748031497,
          "duration": 0.12711874999999395
        },
        {
          "name": "C3",
          "midi": 48,
          "time": 192.33066874999835,
          "velocity": 0.7874015748031497,
          "duration": 0.12711874999999395
        },
        {
          "name": "F2",
          "midi": 41,
          "time": 192.33066874999835,
          "velocity": 0.7874015748031497,
          "duration": 0.12711874999999395
        },
        {
          "name": "F3",
          "midi": 53,
          "time": 192.45778749999835,
          "velocity": 0.7874015748031497,
          "duration": 0.2542374999999879
        },
        {
          "name": "C3",
          "midi": 48,
          "time": 192.45778749999835,
          "velocity": 0.7874015748031497,
          "duration": 0.2542374999999879
        },
        {
          "name": "F2",
          "midi": 41,
          "time": 192.45778749999835,
          "velocity": 0.7874015748031497,
          "duration": 0.2542374999999879
        },
        {
          "name": "G3",
          "midi": 55,
          "time": 192.71202499999833,
          "velocity": 0.7874015748031497,
          "duration": 0.2542374999999879
        },
        {
          "name": "D3",
          "midi": 50,
          "time": 192.71202499999833,
          "velocity": 0.7874015748031497,
          "duration": 0.2542374999999879
        },
        {
          "name": "G2",
          "midi": 43,
          "time": 192.71202499999833,
          "velocity": 0.7874015748031497,
          "duration": 0.2542374999999879
        },
        {
          "name": "F3",
          "midi": 53,
          "time": 192.96626249999832,
          "velocity": 0.7874015748031497,
          "duration": 0.2542374999999879
        },
        {
          "name": "C3",
          "midi": 48,
          "time": 192.96626249999832,
          "velocity": 0.7874015748031497,
          "duration": 0.2542374999999879
        },
        {
          "name": "D2",
          "midi": 38,
          "time": 193.2204999999983,
          "velocity": 0.7874015748031497,
          "duration": 0.12711874999999395
        },
        {
          "name": "D4",
          "midi": 62,
          "time": 193.2204999999983,
          "velocity": 0.7874015748031497,
          "duration": 0.12711874999999395
        },
        {
          "name": "D3",
          "midi": 50,
          "time": 193.2204999999983,
          "velocity": 0.7874015748031497,
          "duration": 0.12711874999999395
        },
        {
          "name": "D2",
          "midi": 38,
          "time": 193.3476187499983,
          "velocity": 0.7874015748031497,
          "duration": 0.12711874999999395
        },
        {
          "name": "D4",
          "midi": 62,
          "time": 193.3476187499983,
          "velocity": 0.7874015748031497,
          "duration": 0.12711874999999395
        },
        {
          "name": "D3",
          "midi": 50,
          "time": 193.3476187499983,
          "velocity": 0.7874015748031497,
          "duration": 0.12711874999999395
        },
        {
          "name": "D2",
          "midi": 38,
          "time": 193.6018562499983,
          "velocity": 0.7874015748031497,
          "duration": 0.12711874999999395
        },
        {
          "name": "D4",
          "midi": 62,
          "time": 193.6018562499983,
          "velocity": 0.7874015748031497,
          "duration": 0.12711874999999395
        },
        {
          "name": "D3",
          "midi": 50,
          "time": 193.6018562499983,
          "velocity": 0.7874015748031497,
          "duration": 0.12711874999999395
        },
        {
          "name": "D2",
          "midi": 38,
          "time": 193.7289749999983,
          "velocity": 0.7874015748031497,
          "duration": 0.12711874999999395
        },
        {
          "name": "D4",
          "midi": 62,
          "time": 193.7289749999983,
          "velocity": 0.7874015748031497,
          "duration": 0.12711874999999395
        },
        {
          "name": "D3",
          "midi": 50,
          "time": 193.7289749999983,
          "velocity": 0.7874015748031497,
          "duration": 0.12711874999999395
        },
        {
          "name": "D2",
          "midi": 38,
          "time": 194.11033124999827,
          "velocity": 0.7874015748031497,
          "duration": 0.0847458333333293
        },
        {
          "name": "D4",
          "midi": 62,
          "time": 194.11033124999827,
          "velocity": 0.7874015748031497,
          "duration": 0.0847458333333293
        },
        {
          "name": "D3",
          "midi": 50,
          "time": 194.11033124999827,
          "velocity": 0.7874015748031497,
          "duration": 0.0847458333333293
        },
        {
          "name": "F3",
          "midi": 53,
          "time": 194.36456874999826,
          "velocity": 0.7874015748031497,
          "duration": 0.12711874999999395
        },
        {
          "name": "C3",
          "midi": 48,
          "time": 194.36456874999826,
          "velocity": 0.7874015748031497,
          "duration": 0.12711874999999395
        },
        {
          "name": "F2",
          "midi": 41,
          "time": 194.36456874999826,
          "velocity": 0.7874015748031497,
          "duration": 0.12711874999999395
        },
        {
          "name": "F3",
          "midi": 53,
          "time": 194.49168749999825,
          "velocity": 0.7874015748031497,
          "duration": 0.2542374999999879
        },
        {
          "name": "C3",
          "midi": 48,
          "time": 194.49168749999825,
          "velocity": 0.7874015748031497,
          "duration": 0.2542374999999879
        },
        {
          "name": "F2",
          "midi": 41,
          "time": 194.49168749999825,
          "velocity": 0.7874015748031497,
          "duration": 0.2542374999999879
        },
        {
          "name": "G3",
          "midi": 55,
          "time": 194.74592499999824,
          "velocity": 0.7874015748031497,
          "duration": 0.2542374999999879
        },
        {
          "name": "D3",
          "midi": 50,
          "time": 194.74592499999824,
          "velocity": 0.7874015748031497,
          "duration": 0.2542374999999879
        },
        {
          "name": "G2",
          "midi": 43,
          "time": 194.74592499999824,
          "velocity": 0.7874015748031497,
          "duration": 0.2542374999999879
        },
        {
          "name": "F3",
          "midi": 53,
          "time": 195.00016249999823,
          "velocity": 0.7874015748031497,
          "duration": 0.2542374999999879
        },
        {
          "name": "C3",
          "midi": 48,
          "time": 195.00016249999823,
          "velocity": 0.7874015748031497,
          "duration": 0.2542374999999879
        },
        {
          "name": "D2",
          "midi": 38,
          "time": 211.5255999999982,
          "velocity": 0.7874015748031497,
          "duration": 0.12711874999999395
        },
        {
          "name": "D4",
          "midi": 62,
          "time": 211.5255999999982,
          "velocity": 0.7874015748031497,
          "duration": 0.12711874999999395
        },
        {
          "name": "D3",
          "midi": 50,
          "time": 211.5255999999982,
          "velocity": 0.7874015748031497,
          "duration": 0.12711874999999395
        },
        {
          "name": "D2",
          "midi": 38,
          "time": 211.6527187499982,
          "velocity": 0.7874015748031497,
          "duration": 0.12711874999999395
        },
        {
          "name": "D4",
          "midi": 62,
          "time": 211.6527187499982,
          "velocity": 0.7874015748031497,
          "duration": 0.12711874999999395
        },
        {
          "name": "D3",
          "midi": 50,
          "time": 211.6527187499982,
          "velocity": 0.7874015748031497,
          "duration": 0.12711874999999395
        },
        {
          "name": "D2",
          "midi": 38,
          "time": 211.9069562499982,
          "velocity": 0.7874015748031497,
          "duration": 0.12711874999999395
        },
        {
          "name": "D4",
          "midi": 62,
          "time": 211.9069562499982,
          "velocity": 0.7874015748031497,
          "duration": 0.12711874999999395
        },
        {
          "name": "D3",
          "midi": 50,
          "time": 211.9069562499982,
          "velocity": 0.7874015748031497,
          "duration": 0.12711874999999395
        },
        {
          "name": "D2",
          "midi": 38,
          "time": 212.03407499999818,
          "velocity": 0.7874015748031497,
          "duration": 0.12711874999999395
        },
        {
          "name": "D4",
          "midi": 62,
          "time": 212.03407499999818,
          "velocity": 0.7874015748031497,
          "duration": 0.12711874999999395
        },
        {
          "name": "D3",
          "midi": 50,
          "time": 212.03407499999818,
          "velocity": 0.7874015748031497,
          "duration": 0.12711874999999395
        },
        {
          "name": "D2",
          "midi": 38,
          "time": 212.41543124999816,
          "velocity": 0.7874015748031497,
          "duration": 0.0847458333333293
        },
        {
          "name": "D4",
          "midi": 62,
          "time": 212.41543124999816,
          "velocity": 0.7874015748031497,
          "duration": 0.0847458333333293
        },
        {
          "name": "D3",
          "midi": 50,
          "time": 212.41543124999816,
          "velocity": 0.7874015748031497,
          "duration": 0.0847458333333293
        },
        {
          "name": "F3",
          "midi": 53,
          "time": 212.66966874999815,
          "velocity": 0.7874015748031497,
          "duration": 0.12711874999999395
        },
        {
          "name": "C3",
          "midi": 48,
          "time": 212.66966874999815,
          "velocity": 0.7874015748031497,
          "duration": 0.12711874999999395
        },
        {
          "name": "F2",
          "midi": 41,
          "time": 212.66966874999815,
          "velocity": 0.7874015748031497,
          "duration": 0.12711874999999395
        },
        {
          "name": "F3",
          "midi": 53,
          "time": 212.79678749999815,
          "velocity": 0.7874015748031497,
          "duration": 0.2542374999999879
        },
        {
          "name": "C3",
          "midi": 48,
          "time": 212.79678749999815,
          "velocity": 0.7874015748031497,
          "duration": 0.2542374999999879
        },
        {
          "name": "F2",
          "midi": 41,
          "time": 212.79678749999815,
          "velocity": 0.7874015748031497,
          "duration": 0.2542374999999879
        },
        {
          "name": "G3",
          "midi": 55,
          "time": 213.05102499999813,
          "velocity": 0.7874015748031497,
          "duration": 0.2542374999999879
        },
        {
          "name": "D3",
          "midi": 50,
          "time": 213.05102499999813,
          "velocity": 0.7874015748031497,
          "duration": 0.2542374999999879
        },
        {
          "name": "G2",
          "midi": 43,
          "time": 213.05102499999813,
          "velocity": 0.7874015748031497,
          "duration": 0.2542374999999879
        },
        {
          "name": "F3",
          "midi": 53,
          "time": 213.30526249999812,
          "velocity": 0.7874015748031497,
          "duration": 0.2542374999999879
        },
        {
          "name": "C3",
          "midi": 48,
          "time": 213.30526249999812,
          "velocity": 0.7874015748031497,
          "duration": 0.2542374999999879
        },
        {
          "name": "D2",
          "midi": 38,
          "time": 213.5594999999981,
          "velocity": 0.7874015748031497,
          "duration": 0.12711874999999395
        },
        {
          "name": "D4",
          "midi": 62,
          "time": 213.5594999999981,
          "velocity": 0.7874015748031497,
          "duration": 0.12711874999999395
        },
        {
          "name": "D3",
          "midi": 50,
          "time": 213.5594999999981,
          "velocity": 0.7874015748031497,
          "duration": 0.12711874999999395
        },
        {
          "name": "D2",
          "midi": 38,
          "time": 213.6866187499981,
          "velocity": 0.7874015748031497,
          "duration": 0.12711874999999395
        },
        {
          "name": "D4",
          "midi": 62,
          "time": 213.6866187499981,
          "velocity": 0.7874015748031497,
          "duration": 0.12711874999999395
        },
        {
          "name": "D3",
          "midi": 50,
          "time": 213.6866187499981,
          "velocity": 0.7874015748031497,
          "duration": 0.12711874999999395
        },
        {
          "name": "D2",
          "midi": 38,
          "time": 213.9408562499981,
          "velocity": 0.7874015748031497,
          "duration": 0.12711874999999395
        },
        {
          "name": "D4",
          "midi": 62,
          "time": 213.9408562499981,
          "velocity": 0.7874015748031497,
          "duration": 0.12711874999999395
        },
        {
          "name": "D3",
          "midi": 50,
          "time": 213.9408562499981,
          "velocity": 0.7874015748031497,
          "duration": 0.12711874999999395
        },
        {
          "name": "D2",
          "midi": 38,
          "time": 214.06797499999809,
          "velocity": 0.7874015748031497,
          "duration": 0.12711874999999395
        },
        {
          "name": "D4",
          "midi": 62,
          "time": 214.06797499999809,
          "velocity": 0.7874015748031497,
          "duration": 0.12711874999999395
        },
        {
          "name": "D3",
          "midi": 50,
          "time": 214.06797499999809,
          "velocity": 0.7874015748031497,
          "duration": 0.12711874999999395
        },
        {
          "name": "D2",
          "midi": 38,
          "time": 214.44933124999807,
          "velocity": 0.7874015748031497,
          "duration": 0.0847458333333293
        },
        {
          "name": "D4",
          "midi": 62,
          "time": 214.44933124999807,
          "velocity": 0.7874015748031497,
          "duration": 0.0847458333333293
        },
        {
          "name": "D3",
          "midi": 50,
          "time": 214.44933124999807,
          "velocity": 0.7874015748031497,
          "duration": 0.0847458333333293
        },
        {
          "name": "F3",
          "midi": 53,
          "time": 214.70356874999806,
          "velocity": 0.7874015748031497,
          "duration": 0.12711874999999395
        },
        {
          "name": "C3",
          "midi": 48,
          "time": 214.70356874999806,
          "velocity": 0.7874015748031497,
          "duration": 0.12711874999999395
        },
        {
          "name": "F2",
          "midi": 41,
          "time": 214.70356874999806,
          "velocity": 0.7874015748031497,
          "duration": 0.12711874999999395
        },
        {
          "name": "F3",
          "midi": 53,
          "time": 214.83068749999805,
          "velocity": 0.7874015748031497,
          "duration": 0.2542374999999879
        },
        {
          "name": "C3",
          "midi": 48,
          "time": 214.83068749999805,
          "velocity": 0.7874015748031497,
          "duration": 0.2542374999999879
        },
        {
          "name": "F2",
          "midi": 41,
          "time": 214.83068749999805,
          "velocity": 0.7874015748031497,
          "duration": 0.2542374999999879
        },
        {
          "name": "G3",
          "midi": 55,
          "time": 215.08492499999804,
          "velocity": 0.7874015748031497,
          "duration": 0.2542374999999879
        },
        {
          "name": "D3",
          "midi": 50,
          "time": 215.08492499999804,
          "velocity": 0.7874015748031497,
          "duration": 0.2542374999999879
        },
        {
          "name": "G2",
          "midi": 43,
          "time": 215.08492499999804,
          "velocity": 0.7874015748031497,
          "duration": 0.2542374999999879
        },
        {
          "name": "F3",
          "midi": 53,
          "time": 215.33916249999803,
          "velocity": 0.7874015748031497,
          "duration": 0.2542374999999879
        },
        {
          "name": "C3",
          "midi": 48,
          "time": 215.33916249999803,
          "velocity": 0.7874015748031497,
          "duration": 0.2542374999999879
        },
        {
          "name": "D2",
          "midi": 38,
          "time": 215.593399999998,
          "velocity": 0.7874015748031497,
          "duration": 0.12711874999999395
        },
        {
          "name": "D4",
          "midi": 62,
          "time": 215.593399999998,
          "velocity": 0.7874015748031497,
          "duration": 0.12711874999999395
        },
        {
          "name": "D3",
          "midi": 50,
          "time": 215.593399999998,
          "velocity": 0.7874015748031497,
          "duration": 0.12711874999999395
        },
        {
          "name": "D2",
          "midi": 38,
          "time": 215.720518749998,
          "velocity": 0.7874015748031497,
          "duration": 0.12711874999999395
        },
        {
          "name": "D4",
          "midi": 62,
          "time": 215.720518749998,
          "velocity": 0.7874015748031497,
          "duration": 0.12711874999999395
        },
        {
          "name": "D3",
          "midi": 50,
          "time": 215.720518749998,
          "velocity": 0.7874015748031497,
          "duration": 0.12711874999999395
        },
        {
          "name": "D2",
          "midi": 38,
          "time": 215.974756249998,
          "velocity": 0.7874015748031497,
          "duration": 0.12711874999999395
        },
        {
          "name": "D4",
          "midi": 62,
          "time": 215.974756249998,
          "velocity": 0.7874015748031497,
          "duration": 0.12711874999999395
        },
        {
          "name": "D3",
          "midi": 50,
          "time": 215.974756249998,
          "velocity": 0.7874015748031497,
          "duration": 0.12711874999999395
        },
        {
          "name": "D2",
          "midi": 38,
          "time": 216.101874999998,
          "velocity": 0.7874015748031497,
          "duration": 0.12711874999999395
        },
        {
          "name": "D4",
          "midi": 62,
          "time": 216.101874999998,
          "velocity": 0.7874015748031497,
          "duration": 0.12711874999999395
        },
        {
          "name": "D3",
          "midi": 50,
          "time": 216.101874999998,
          "velocity": 0.7874015748031497,
          "duration": 0.12711874999999395
        },
        {
          "name": "D2",
          "midi": 38,
          "time": 216.48323124999797,
          "velocity": 0.7874015748031497,
          "duration": 0.0847458333333293
        },
        {
          "name": "D4",
          "midi": 62,
          "time": 216.48323124999797,
          "velocity": 0.7874015748031497,
          "duration": 0.0847458333333293
        },
        {
          "name": "D3",
          "midi": 50,
          "time": 216.48323124999797,
          "velocity": 0.7874015748031497,
          "duration": 0.0847458333333293
        },
        {
          "name": "F3",
          "midi": 53,
          "time": 216.73746874999796,
          "velocity": 0.7874015748031497,
          "duration": 0.12711874999999395
        },
        {
          "name": "C3",
          "midi": 48,
          "time": 216.73746874999796,
          "velocity": 0.7874015748031497,
          "duration": 0.12711874999999395
        },
        {
          "name": "F2",
          "midi": 41,
          "time": 216.73746874999796,
          "velocity": 0.7874015748031497,
          "duration": 0.12711874999999395
        },
        {
          "name": "F3",
          "midi": 53,
          "time": 216.86458749999795,
          "velocity": 0.7874015748031497,
          "duration": 0.2542374999999879
        },
        {
          "name": "C3",
          "midi": 48,
          "time": 216.86458749999795,
          "velocity": 0.7874015748031497,
          "duration": 0.2542374999999879
        },
        {
          "name": "F2",
          "midi": 41,
          "time": 216.86458749999795,
          "velocity": 0.7874015748031497,
          "duration": 0.2542374999999879
        },
        {
          "name": "G3",
          "midi": 55,
          "time": 217.11882499999794,
          "velocity": 0.7874015748031497,
          "duration": 0.2542374999999879
        },
        {
          "name": "D3",
          "midi": 50,
          "time": 217.11882499999794,
          "velocity": 0.7874015748031497,
          "duration": 0.2542374999999879
        },
        {
          "name": "G2",
          "midi": 43,
          "time": 217.11882499999794,
          "velocity": 0.7874015748031497,
          "duration": 0.2542374999999879
        },
        {
          "name": "F3",
          "midi": 53,
          "time": 217.37306249999793,
          "velocity": 0.7874015748031497,
          "duration": 0.2542374999999879
        },
        {
          "name": "C3",
          "midi": 48,
          "time": 217.37306249999793,
          "velocity": 0.7874015748031497,
          "duration": 0.2542374999999879
        },
        {
          "name": "D2",
          "midi": 38,
          "time": 217.62729999999792,
          "velocity": 0.7874015748031497,
          "duration": 0.12711874999999395
        },
        {
          "name": "D4",
          "midi": 62,
          "time": 217.62729999999792,
          "velocity": 0.7874015748031497,
          "duration": 0.12711874999999395
        },
        {
          "name": "D3",
          "midi": 50,
          "time": 217.62729999999792,
          "velocity": 0.7874015748031497,
          "duration": 0.12711874999999395
        },
        {
          "name": "D2",
          "midi": 38,
          "time": 217.7544187499979,
          "velocity": 0.7874015748031497,
          "duration": 0.12711874999999395
        },
        {
          "name": "D4",
          "midi": 62,
          "time": 217.7544187499979,
          "velocity": 0.7874015748031497,
          "duration": 0.12711874999999395
        },
        {
          "name": "D3",
          "midi": 50,
          "time": 217.7544187499979,
          "velocity": 0.7874015748031497,
          "duration": 0.12711874999999395
        },
        {
          "name": "D2",
          "midi": 38,
          "time": 218.0086562499979,
          "velocity": 0.7874015748031497,
          "duration": 0.12711874999999395
        },
        {
          "name": "D4",
          "midi": 62,
          "time": 218.0086562499979,
          "velocity": 0.7874015748031497,
          "duration": 0.12711874999999395
        },
        {
          "name": "D3",
          "midi": 50,
          "time": 218.0086562499979,
          "velocity": 0.7874015748031497,
          "duration": 0.12711874999999395
        },
        {
          "name": "D2",
          "midi": 38,
          "time": 218.1357749999979,
          "velocity": 0.7874015748031497,
          "duration": 0.12711874999999395
        },
        {
          "name": "D4",
          "midi": 62,
          "time": 218.1357749999979,
          "velocity": 0.7874015748031497,
          "duration": 0.12711874999999395
        },
        {
          "name": "D3",
          "midi": 50,
          "time": 218.1357749999979,
          "velocity": 0.7874015748031497,
          "duration": 0.12711874999999395
        },
        {
          "name": "D2",
          "midi": 38,
          "time": 218.51713124999787,
          "velocity": 0.7874015748031497,
          "duration": 0.0847458333333293
        },
        {
          "name": "D4",
          "midi": 62,
          "time": 218.51713124999787,
          "velocity": 0.7874015748031497,
          "duration": 0.0847458333333293
        },
        {
          "name": "D3",
          "midi": 50,
          "time": 218.51713124999787,
          "velocity": 0.7874015748031497,
          "duration": 0.0847458333333293
        },
        {
          "name": "F3",
          "midi": 53,
          "time": 218.77136874999786,
          "velocity": 0.7874015748031497,
          "duration": 0.12711874999999395
        },
        {
          "name": "C3",
          "midi": 48,
          "time": 218.77136874999786,
          "velocity": 0.7874015748031497,
          "duration": 0.12711874999999395
        },
        {
          "name": "F2",
          "midi": 41,
          "time": 218.77136874999786,
          "velocity": 0.7874015748031497,
          "duration": 0.12711874999999395
        },
        {
          "name": "F3",
          "midi": 53,
          "time": 218.89848749999786,
          "velocity": 0.7874015748031497,
          "duration": 0.2542374999999879
        },
        {
          "name": "C3",
          "midi": 48,
          "time": 218.89848749999786,
          "velocity": 0.7874015748031497,
          "duration": 0.2542374999999879
        },
        {
          "name": "F2",
          "midi": 41,
          "time": 218.89848749999786,
          "velocity": 0.7874015748031497,
          "duration": 0.2542374999999879
        },
        {
          "name": "G3",
          "midi": 55,
          "time": 219.15272499999784,
          "velocity": 0.7874015748031497,
          "duration": 0.2542374999999879
        },
        {
          "name": "D3",
          "midi": 50,
          "time": 219.15272499999784,
          "velocity": 0.7874015748031497,
          "duration": 0.2542374999999879
        },
        {
          "name": "G2",
          "midi": 43,
          "time": 219.15272499999784,
          "velocity": 0.7874015748031497,
          "duration": 0.2542374999999879
        },
        {
          "name": "F3",
          "midi": 53,
          "time": 219.40696249999783,
          "velocity": 0.7874015748031497,
          "duration": 0.2542374999999879
        },
        {
          "name": "C3",
          "midi": 48,
          "time": 219.40696249999783,
          "velocity": 0.7874015748031497,
          "duration": 0.2542374999999879
        },
        {
          "name": "D2",
          "midi": 38,
          "time": 219.66119999999782,
          "velocity": 0.7874015748031497,
          "duration": 0.12711874999999395
        },
        {
          "name": "D4",
          "midi": 62,
          "time": 219.66119999999782,
          "velocity": 0.7874015748031497,
          "duration": 0.12711874999999395
        },
        {
          "name": "D3",
          "midi": 50,
          "time": 219.66119999999782,
          "velocity": 0.7874015748031497,
          "duration": 0.12711874999999395
        },
        {
          "name": "D2",
          "midi": 38,
          "time": 219.7883187499978,
          "velocity": 0.7874015748031497,
          "duration": 0.12711874999999395
        },
        {
          "name": "D4",
          "midi": 62,
          "time": 219.7883187499978,
          "velocity": 0.7874015748031497,
          "duration": 0.12711874999999395
        },
        {
          "name": "D3",
          "midi": 50,
          "time": 219.7883187499978,
          "velocity": 0.7874015748031497,
          "duration": 0.12711874999999395
        },
        {
          "name": "D2",
          "midi": 38,
          "time": 220.0425562499978,
          "velocity": 0.7874015748031497,
          "duration": 0.12711874999999395
        },
        {
          "name": "D4",
          "midi": 62,
          "time": 220.0425562499978,
          "velocity": 0.7874015748031497,
          "duration": 0.12711874999999395
        },
        {
          "name": "D3",
          "midi": 50,
          "time": 220.0425562499978,
          "velocity": 0.7874015748031497,
          "duration": 0.12711874999999395
        },
        {
          "name": "D2",
          "midi": 38,
          "time": 220.1696749999978,
          "velocity": 0.7874015748031497,
          "duration": 0.12711874999999395
        },
        {
          "name": "D4",
          "midi": 62,
          "time": 220.1696749999978,
          "velocity": 0.7874015748031497,
          "duration": 0.12711874999999395
        },
        {
          "name": "D3",
          "midi": 50,
          "time": 220.1696749999978,
          "velocity": 0.7874015748031497,
          "duration": 0.12711874999999395
        },
        {
          "name": "D2",
          "midi": 38,
          "time": 220.55103124999778,
          "velocity": 0.7874015748031497,
          "duration": 0.0847458333333293
        },
        {
          "name": "D4",
          "midi": 62,
          "time": 220.55103124999778,
          "velocity": 0.7874015748031497,
          "duration": 0.0847458333333293
        },
        {
          "name": "D3",
          "midi": 50,
          "time": 220.55103124999778,
          "velocity": 0.7874015748031497,
          "duration": 0.0847458333333293
        },
        {
          "name": "F3",
          "midi": 53,
          "time": 220.80526874999777,
          "velocity": 0.7874015748031497,
          "duration": 0.12711874999999395
        },
        {
          "name": "C3",
          "midi": 48,
          "time": 220.80526874999777,
          "velocity": 0.7874015748031497,
          "duration": 0.12711874999999395
        },
        {
          "name": "F2",
          "midi": 41,
          "time": 220.80526874999777,
          "velocity": 0.7874015748031497,
          "duration": 0.12711874999999395
        },
        {
          "name": "F3",
          "midi": 53,
          "time": 220.93238749999776,
          "velocity": 0.7874015748031497,
          "duration": 0.2542374999999879
        },
        {
          "name": "C3",
          "midi": 48,
          "time": 220.93238749999776,
          "velocity": 0.7874015748031497,
          "duration": 0.2542374999999879
        },
        {
          "name": "F2",
          "midi": 41,
          "time": 220.93238749999776,
          "velocity": 0.7874015748031497,
          "duration": 0.2542374999999879
        },
        {
          "name": "G3",
          "midi": 55,
          "time": 221.18662499999775,
          "velocity": 0.7874015748031497,
          "duration": 0.2542374999999879
        },
        {
          "name": "D3",
          "midi": 50,
          "time": 221.18662499999775,
          "velocity": 0.7874015748031497,
          "duration": 0.2542374999999879
        },
        {
          "name": "G2",
          "midi": 43,
          "time": 221.18662499999775,
          "velocity": 0.7874015748031497,
          "duration": 0.2542374999999879
        },
        {
          "name": "F3",
          "midi": 53,
          "time": 221.44086249999773,
          "velocity": 0.7874015748031497,
          "duration": 0.2542374999999879
        },
        {
          "name": "C3",
          "midi": 48,
          "time": 221.44086249999773,
          "velocity": 0.7874015748031497,
          "duration": 0.2542374999999879
        },
        {
          "name": "D2",
          "midi": 38,
          "time": 221.69509999999772,
          "velocity": 0.7874015748031497,
          "duration": 0.12711874999999395
        },
        {
          "name": "D4",
          "midi": 62,
          "time": 221.69509999999772,
          "velocity": 0.7874015748031497,
          "duration": 0.12711874999999395
        },
        {
          "name": "D3",
          "midi": 50,
          "time": 221.69509999999772,
          "velocity": 0.7874015748031497,
          "duration": 0.12711874999999395
        },
        {
          "name": "D2",
          "midi": 38,
          "time": 221.82221874999772,
          "velocity": 0.7874015748031497,
          "duration": 0.12711874999999395
        },
        {
          "name": "D4",
          "midi": 62,
          "time": 221.82221874999772,
          "velocity": 0.7874015748031497,
          "duration": 0.12711874999999395
        },
        {
          "name": "D3",
          "midi": 50,
          "time": 221.82221874999772,
          "velocity": 0.7874015748031497,
          "duration": 0.12711874999999395
        },
        {
          "name": "D2",
          "midi": 38,
          "time": 222.0764562499977,
          "velocity": 0.7874015748031497,
          "duration": 0.12711874999999395
        },
        {
          "name": "D4",
          "midi": 62,
          "time": 222.0764562499977,
          "velocity": 0.7874015748031497,
          "duration": 0.12711874999999395
        },
        {
          "name": "D3",
          "midi": 50,
          "time": 222.0764562499977,
          "velocity": 0.7874015748031497,
          "duration": 0.12711874999999395
        },
        {
          "name": "D2",
          "midi": 38,
          "time": 222.2035749999977,
          "velocity": 0.7874015748031497,
          "duration": 0.12711874999999395
        },
        {
          "name": "D4",
          "midi": 62,
          "time": 222.2035749999977,
          "velocity": 0.7874015748031497,
          "duration": 0.12711874999999395
        },
        {
          "name": "D3",
          "midi": 50,
          "time": 222.2035749999977,
          "velocity": 0.7874015748031497,
          "duration": 0.12711874999999395
        },
        {
          "name": "D2",
          "midi": 38,
          "time": 222.58493124999768,
          "velocity": 0.7874015748031497,
          "duration": 0.0847458333333293
        },
        {
          "name": "D4",
          "midi": 62,
          "time": 222.58493124999768,
          "velocity": 0.7874015748031497,
          "duration": 0.0847458333333293
        },
        {
          "name": "D3",
          "midi": 50,
          "time": 222.58493124999768,
          "velocity": 0.7874015748031497,
          "duration": 0.0847458333333293
        },
        {
          "name": "F3",
          "midi": 53,
          "time": 222.83916874999767,
          "velocity": 0.7874015748031497,
          "duration": 0.12711874999999395
        },
        {
          "name": "C3",
          "midi": 48,
          "time": 222.83916874999767,
          "velocity": 0.7874015748031497,
          "duration": 0.12711874999999395
        },
        {
          "name": "F2",
          "midi": 41,
          "time": 222.83916874999767,
          "velocity": 0.7874015748031497,
          "duration": 0.12711874999999395
        },
        {
          "name": "F3",
          "midi": 53,
          "time": 222.96628749999766,
          "velocity": 0.7874015748031497,
          "duration": 0.2542374999999879
        },
        {
          "name": "C3",
          "midi": 48,
          "time": 222.96628749999766,
          "velocity": 0.7874015748031497,
          "duration": 0.2542374999999879
        },
        {
          "name": "F2",
          "midi": 41,
          "time": 222.96628749999766,
          "velocity": 0.7874015748031497,
          "duration": 0.2542374999999879
        },
        {
          "name": "G3",
          "midi": 55,
          "time": 223.22052499999765,
          "velocity": 0.7874015748031497,
          "duration": 0.2542374999999879
        },
        {
          "name": "D3",
          "midi": 50,
          "time": 223.22052499999765,
          "velocity": 0.7874015748031497,
          "duration": 0.2542374999999879
        },
        {
          "name": "G2",
          "midi": 43,
          "time": 223.22052499999765,
          "velocity": 0.7874015748031497,
          "duration": 0.2542374999999879
        },
        {
          "name": "F3",
          "midi": 53,
          "time": 223.47476249999764,
          "velocity": 0.7874015748031497,
          "duration": 0.2542374999999879
        },
        {
          "name": "C3",
          "midi": 48,
          "time": 223.47476249999764,
          "velocity": 0.7874015748031497,
          "duration": 0.2542374999999879
        },
        {
          "name": "D2",
          "midi": 38,
          "time": 223.72899999999763,
          "velocity": 0.7874015748031497,
          "duration": 0.12711874999999395
        },
        {
          "name": "D4",
          "midi": 62,
          "time": 223.72899999999763,
          "velocity": 0.7874015748031497,
          "duration": 0.12711874999999395
        },
        {
          "name": "D3",
          "midi": 50,
          "time": 223.72899999999763,
          "velocity": 0.7874015748031497,
          "duration": 0.12711874999999395
        },
        {
          "name": "D2",
          "midi": 38,
          "time": 223.85611874999762,
          "velocity": 0.7874015748031497,
          "duration": 0.12711874999999395
        },
        {
          "name": "D4",
          "midi": 62,
          "time": 223.85611874999762,
          "velocity": 0.7874015748031497,
          "duration": 0.12711874999999395
        },
        {
          "name": "D3",
          "midi": 50,
          "time": 223.85611874999762,
          "velocity": 0.7874015748031497,
          "duration": 0.12711874999999395
        },
        {
          "name": "D2",
          "midi": 38,
          "time": 224.1103562499976,
          "velocity": 0.7874015748031497,
          "duration": 0.12711874999999395
        },
        {
          "name": "D4",
          "midi": 62,
          "time": 224.1103562499976,
          "velocity": 0.7874015748031497,
          "duration": 0.12711874999999395
        },
        {
          "name": "D3",
          "midi": 50,
          "time": 224.1103562499976,
          "velocity": 0.7874015748031497,
          "duration": 0.12711874999999395
        },
        {
          "name": "D2",
          "midi": 38,
          "time": 224.2374749999976,
          "velocity": 0.7874015748031497,
          "duration": 0.12711874999999395
        },
        {
          "name": "D4",
          "midi": 62,
          "time": 224.2374749999976,
          "velocity": 0.7874015748031497,
          "duration": 0.12711874999999395
        },
        {
          "name": "D3",
          "midi": 50,
          "time": 224.2374749999976,
          "velocity": 0.7874015748031497,
          "duration": 0.12711874999999395
        },
        {
          "name": "D2",
          "midi": 38,
          "time": 224.61883124999758,
          "velocity": 0.7874015748031497,
          "duration": 0.0847458333333293
        },
        {
          "name": "D4",
          "midi": 62,
          "time": 224.61883124999758,
          "velocity": 0.7874015748031497,
          "duration": 0.0847458333333293
        },
        {
          "name": "D3",
          "midi": 50,
          "time": 224.61883124999758,
          "velocity": 0.7874015748031497,
          "duration": 0.0847458333333293
        },
        {
          "name": "F3",
          "midi": 53,
          "time": 224.87306874999757,
          "velocity": 0.7874015748031497,
          "duration": 0.12711874999999395
        },
        {
          "name": "C3",
          "midi": 48,
          "time": 224.87306874999757,
          "velocity": 0.7874015748031497,
          "duration": 0.12711874999999395
        },
        {
          "name": "F2",
          "midi": 41,
          "time": 224.87306874999757,
          "velocity": 0.7874015748031497,
          "duration": 0.12711874999999395
        },
        {
          "name": "F3",
          "midi": 53,
          "time": 225.00018749999757,
          "velocity": 0.7874015748031497,
          "duration": 0.2542374999999879
        },
        {
          "name": "C3",
          "midi": 48,
          "time": 225.00018749999757,
          "velocity": 0.7874015748031497,
          "duration": 0.2542374999999879
        },
        {
          "name": "F2",
          "midi": 41,
          "time": 225.00018749999757,
          "velocity": 0.7874015748031497,
          "duration": 0.2542374999999879
        },
        {
          "name": "G3",
          "midi": 55,
          "time": 225.25442499999755,
          "velocity": 0.7874015748031497,
          "duration": 0.2542374999999879
        },
        {
          "name": "D3",
          "midi": 50,
          "time": 225.25442499999755,
          "velocity": 0.7874015748031497,
          "duration": 0.2542374999999879
        },
        {
          "name": "G2",
          "midi": 43,
          "time": 225.25442499999755,
          "velocity": 0.7874015748031497,
          "duration": 0.2542374999999879
        },
        {
          "name": "F3",
          "midi": 53,
          "time": 225.50866249999754,
          "velocity": 0.7874015748031497,
          "duration": 0.2542374999999879
        },
        {
          "name": "C3",
          "midi": 48,
          "time": 225.50866249999754,
          "velocity": 0.7874015748031497,
          "duration": 0.2542374999999879
        },
        {
          "name": "D2",
          "midi": 38,
          "time": 225.76289999999753,
          "velocity": 0.7874015748031497,
          "duration": 0.12711874999999395
        },
        {
          "name": "D4",
          "midi": 62,
          "time": 225.76289999999753,
          "velocity": 0.7874015748031497,
          "duration": 0.12711874999999395
        },
        {
          "name": "D3",
          "midi": 50,
          "time": 225.76289999999753,
          "velocity": 0.7874015748031497,
          "duration": 0.12711874999999395
        },
        {
          "name": "D2",
          "midi": 38,
          "time": 225.89001874999752,
          "velocity": 0.7874015748031497,
          "duration": 0.12711874999999395
        },
        {
          "name": "D4",
          "midi": 62,
          "time": 225.89001874999752,
          "velocity": 0.7874015748031497,
          "duration": 0.12711874999999395
        },
        {
          "name": "D3",
          "midi": 50,
          "time": 225.89001874999752,
          "velocity": 0.7874015748031497,
          "duration": 0.12711874999999395
        },
        {
          "name": "D2",
          "midi": 38,
          "time": 226.1442562499975,
          "velocity": 0.7874015748031497,
          "duration": 0.12711874999999395
        },
        {
          "name": "D4",
          "midi": 62,
          "time": 226.1442562499975,
          "velocity": 0.7874015748031497,
          "duration": 0.12711874999999395
        },
        {
          "name": "D3",
          "midi": 50,
          "time": 226.1442562499975,
          "velocity": 0.7874015748031497,
          "duration": 0.12711874999999395
        },
        {
          "name": "D2",
          "midi": 38,
          "time": 226.2713749999975,
          "velocity": 0.7874015748031497,
          "duration": 0.12711874999999395
        },
        {
          "name": "D4",
          "midi": 62,
          "time": 226.2713749999975,
          "velocity": 0.7874015748031497,
          "duration": 0.12711874999999395
        },
        {
          "name": "D3",
          "midi": 50,
          "time": 226.2713749999975,
          "velocity": 0.7874015748031497,
          "duration": 0.12711874999999395
        },
        {
          "name": "D2",
          "midi": 38,
          "time": 226.6527312499975,
          "velocity": 0.7874015748031497,
          "duration": 0.0847458333333293
        },
        {
          "name": "D4",
          "midi": 62,
          "time": 226.6527312499975,
          "velocity": 0.7874015748031497,
          "duration": 0.0847458333333293
        },
        {
          "name": "D3",
          "midi": 50,
          "time": 226.6527312499975,
          "velocity": 0.7874015748031497,
          "duration": 0.0847458333333293
        },
        {
          "name": "F3",
          "midi": 53,
          "time": 226.90696874999747,
          "velocity": 0.7874015748031497,
          "duration": 0.12711874999999395
        },
        {
          "name": "C3",
          "midi": 48,
          "time": 226.90696874999747,
          "velocity": 0.7874015748031497,
          "duration": 0.12711874999999395
        },
        {
          "name": "F2",
          "midi": 41,
          "time": 226.90696874999747,
          "velocity": 0.7874015748031497,
          "duration": 0.12711874999999395
        },
        {
          "name": "F3",
          "midi": 53,
          "time": 227.03408749999747,
          "velocity": 0.7874015748031497,
          "duration": 0.2542374999999879
        },
        {
          "name": "C3",
          "midi": 48,
          "time": 227.03408749999747,
          "velocity": 0.7874015748031497,
          "duration": 0.2542374999999879
        },
        {
          "name": "F2",
          "midi": 41,
          "time": 227.03408749999747,
          "velocity": 0.7874015748031497,
          "duration": 0.2542374999999879
        },
        {
          "name": "G3",
          "midi": 55,
          "time": 227.28832499999746,
          "velocity": 0.7874015748031497,
          "duration": 0.2542374999999879
        },
        {
          "name": "D3",
          "midi": 50,
          "time": 227.28832499999746,
          "velocity": 0.7874015748031497,
          "duration": 0.2542374999999879
        },
        {
          "name": "G2",
          "midi": 43,
          "time": 227.28832499999746,
          "velocity": 0.7874015748031497,
          "duration": 0.2542374999999879
        },
        {
          "name": "F3",
          "midi": 53,
          "time": 227.54256249999744,
          "velocity": 0.7874015748031497,
          "duration": 0.2542374999999879
        },
        {
          "name": "C3",
          "midi": 48,
          "time": 227.54256249999744,
          "velocity": 0.7874015748031497,
          "duration": 0.2542374999999879
        },
        {
          "name": "D2",
          "midi": 38,
          "time": 227.79679999999743,
          "velocity": 0.7874015748031497,
          "duration": 0.12711874999999395
        },
        {
          "name": "D4",
          "midi": 62,
          "time": 227.79679999999743,
          "velocity": 0.7874015748031497,
          "duration": 0.12711874999999395
        },
        {
          "name": "D3",
          "midi": 50,
          "time": 227.79679999999743,
          "velocity": 0.7874015748031497,
          "duration": 0.12711874999999395
        },
        {
          "name": "D2",
          "midi": 38,
          "time": 227.92391874999743,
          "velocity": 0.7874015748031497,
          "duration": 0.12711874999999395
        },
        {
          "name": "D4",
          "midi": 62,
          "time": 227.92391874999743,
          "velocity": 0.7874015748031497,
          "duration": 0.12711874999999395
        },
        {
          "name": "D3",
          "midi": 50,
          "time": 227.92391874999743,
          "velocity": 0.7874015748031497,
          "duration": 0.12711874999999395
        },
        {
          "name": "D2",
          "midi": 38,
          "time": 228.17815624999741,
          "velocity": 0.7874015748031497,
          "duration": 0.12711874999999395
        },
        {
          "name": "D4",
          "midi": 62,
          "time": 228.17815624999741,
          "velocity": 0.7874015748031497,
          "duration": 0.12711874999999395
        },
        {
          "name": "D3",
          "midi": 50,
          "time": 228.17815624999741,
          "velocity": 0.7874015748031497,
          "duration": 0.12711874999999395
        },
        {
          "name": "D2",
          "midi": 38,
          "time": 228.3052749999974,
          "velocity": 0.7874015748031497,
          "duration": 0.12711874999999395
        },
        {
          "name": "D4",
          "midi": 62,
          "time": 228.3052749999974,
          "velocity": 0.7874015748031497,
          "duration": 0.12711874999999395
        },
        {
          "name": "D3",
          "midi": 50,
          "time": 228.3052749999974,
          "velocity": 0.7874015748031497,
          "duration": 0.12711874999999395
        },
        {
          "name": "D2",
          "midi": 38,
          "time": 228.6866312499974,
          "velocity": 0.7874015748031497,
          "duration": 0.0847458333333293
        },
        {
          "name": "D4",
          "midi": 62,
          "time": 228.6866312499974,
          "velocity": 0.7874015748031497,
          "duration": 0.0847458333333293
        },
        {
          "name": "D3",
          "midi": 50,
          "time": 228.6866312499974,
          "velocity": 0.7874015748031497,
          "duration": 0.0847458333333293
        },
        {
          "name": "F3",
          "midi": 53,
          "time": 228.94086874999738,
          "velocity": 0.7874015748031497,
          "duration": 0.12711874999999395
        },
        {
          "name": "C3",
          "midi": 48,
          "time": 228.94086874999738,
          "velocity": 0.7874015748031497,
          "duration": 0.12711874999999395
        },
        {
          "name": "F2",
          "midi": 41,
          "time": 228.94086874999738,
          "velocity": 0.7874015748031497,
          "duration": 0.12711874999999395
        },
        {
          "name": "F3",
          "midi": 53,
          "time": 229.06798749999737,
          "velocity": 0.7874015748031497,
          "duration": 0.2542374999999879
        },
        {
          "name": "C3",
          "midi": 48,
          "time": 229.06798749999737,
          "velocity": 0.7874015748031497,
          "duration": 0.2542374999999879
        },
        {
          "name": "F2",
          "midi": 41,
          "time": 229.06798749999737,
          "velocity": 0.7874015748031497,
          "duration": 0.2542374999999879
        },
        {
          "name": "G3",
          "midi": 55,
          "time": 229.32222499999736,
          "velocity": 0.7874015748031497,
          "duration": 0.2542374999999879
        },
        {
          "name": "D3",
          "midi": 50,
          "time": 229.32222499999736,
          "velocity": 0.7874015748031497,
          "duration": 0.2542374999999879
        },
        {
          "name": "G2",
          "midi": 43,
          "time": 229.32222499999736,
          "velocity": 0.7874015748031497,
          "duration": 0.2542374999999879
        },
        {
          "name": "F3",
          "midi": 53,
          "time": 229.57646249999735,
          "velocity": 0.7874015748031497,
          "duration": 0.2542374999999879
        },
        {
          "name": "C3",
          "midi": 48,
          "time": 229.57646249999735,
          "velocity": 0.7874015748031497,
          "duration": 0.2542374999999879
        },
        {
          "name": "D2",
          "midi": 38,
          "time": 229.83069999999734,
          "velocity": 0.7874015748031497,
          "duration": 0.12711874999999395
        },
        {
          "name": "D4",
          "midi": 62,
          "time": 229.83069999999734,
          "velocity": 0.7874015748031497,
          "duration": 0.12711874999999395
        },
        {
          "name": "D3",
          "midi": 50,
          "time": 229.83069999999734,
          "velocity": 0.7874015748031497,
          "duration": 0.12711874999999395
        },
        {
          "name": "D2",
          "midi": 38,
          "time": 229.95781874999733,
          "velocity": 0.7874015748031497,
          "duration": 0.12711874999999395
        },
        {
          "name": "D4",
          "midi": 62,
          "time": 229.95781874999733,
          "velocity": 0.7874015748031497,
          "duration": 0.12711874999999395
        },
        {
          "name": "D3",
          "midi": 50,
          "time": 229.95781874999733,
          "velocity": 0.7874015748031497,
          "duration": 0.12711874999999395
        },
        {
          "name": "D2",
          "midi": 38,
          "time": 230.21205624999732,
          "velocity": 0.7874015748031497,
          "duration": 0.12711874999999395
        },
        {
          "name": "D4",
          "midi": 62,
          "time": 230.21205624999732,
          "velocity": 0.7874015748031497,
          "duration": 0.12711874999999395
        },
        {
          "name": "D3",
          "midi": 50,
          "time": 230.21205624999732,
          "velocity": 0.7874015748031497,
          "duration": 0.12711874999999395
        },
        {
          "name": "D2",
          "midi": 38,
          "time": 230.3391749999973,
          "velocity": 0.7874015748031497,
          "duration": 0.12711874999999395
        },
        {
          "name": "D4",
          "midi": 62,
          "time": 230.3391749999973,
          "velocity": 0.7874015748031497,
          "duration": 0.12711874999999395
        },
        {
          "name": "D3",
          "midi": 50,
          "time": 230.3391749999973,
          "velocity": 0.7874015748031497,
          "duration": 0.12711874999999395
        },
        {
          "name": "D2",
          "midi": 38,
          "time": 230.7205312499973,
          "velocity": 0.7874015748031497,
          "duration": 0.0847458333333293
        },
        {
          "name": "D4",
          "midi": 62,
          "time": 230.7205312499973,
          "velocity": 0.7874015748031497,
          "duration": 0.0847458333333293
        },
        {
          "name": "D3",
          "midi": 50,
          "time": 230.7205312499973,
          "velocity": 0.7874015748031497,
          "duration": 0.0847458333333293
        },
        {
          "name": "F3",
          "midi": 53,
          "time": 230.97476874999728,
          "velocity": 0.7874015748031497,
          "duration": 0.12711874999999395
        },
        {
          "name": "C3",
          "midi": 48,
          "time": 230.97476874999728,
          "velocity": 0.7874015748031497,
          "duration": 0.12711874999999395
        },
        {
          "name": "F2",
          "midi": 41,
          "time": 230.97476874999728,
          "velocity": 0.7874015748031497,
          "duration": 0.12711874999999395
        },
        {
          "name": "F3",
          "midi": 53,
          "time": 231.10188749999728,
          "velocity": 0.7874015748031497,
          "duration": 0.2542374999999879
        },
        {
          "name": "C3",
          "midi": 48,
          "time": 231.10188749999728,
          "velocity": 0.7874015748031497,
          "duration": 0.2542374999999879
        },
        {
          "name": "F2",
          "midi": 41,
          "time": 231.10188749999728,
          "velocity": 0.7874015748031497,
          "duration": 0.2542374999999879
        },
        {
          "name": "G3",
          "midi": 55,
          "time": 231.35612499999726,
          "velocity": 0.7874015748031497,
          "duration": 0.2542374999999879
        },
        {
          "name": "D3",
          "midi": 50,
          "time": 231.35612499999726,
          "velocity": 0.7874015748031497,
          "duration": 0.2542374999999879
        },
        {
          "name": "G2",
          "midi": 43,
          "time": 231.35612499999726,
          "velocity": 0.7874015748031497,
          "duration": 0.2542374999999879
        },
        {
          "name": "F3",
          "midi": 53,
          "time": 231.61036249999725,
          "velocity": 0.7874015748031497,
          "duration": 0.2542374999999879
        },
        {
          "name": "C3",
          "midi": 48,
          "time": 231.61036249999725,
          "velocity": 0.7874015748031497,
          "duration": 0.2542374999999879
        },
        {
          "name": "D2",
          "midi": 38,
          "time": 231.86459999999724,
          "velocity": 0.7874015748031497,
          "duration": 0.12711874999999395
        },
        {
          "name": "D4",
          "midi": 62,
          "time": 231.86459999999724,
          "velocity": 0.7874015748031497,
          "duration": 0.12711874999999395
        },
        {
          "name": "D3",
          "midi": 50,
          "time": 231.86459999999724,
          "velocity": 0.7874015748031497,
          "duration": 0.12711874999999395
        },
        {
          "name": "D2",
          "midi": 38,
          "time": 231.99171874999723,
          "velocity": 0.7874015748031497,
          "duration": 0.12711874999999395
        },
        {
          "name": "D4",
          "midi": 62,
          "time": 231.99171874999723,
          "velocity": 0.7874015748031497,
          "duration": 0.12711874999999395
        },
        {
          "name": "D3",
          "midi": 50,
          "time": 231.99171874999723,
          "velocity": 0.7874015748031497,
          "duration": 0.12711874999999395
        },
        {
          "name": "D2",
          "midi": 38,
          "time": 232.24595624999722,
          "velocity": 0.7874015748031497,
          "duration": 0.12711874999999395
        },
        {
          "name": "D4",
          "midi": 62,
          "time": 232.24595624999722,
          "velocity": 0.7874015748031497,
          "duration": 0.12711874999999395
        },
        {
          "name": "D3",
          "midi": 50,
          "time": 232.24595624999722,
          "velocity": 0.7874015748031497,
          "duration": 0.12711874999999395
        },
        {
          "name": "D2",
          "midi": 38,
          "time": 232.37307499999721,
          "velocity": 0.7874015748031497,
          "duration": 0.12711874999999395
        },
        {
          "name": "D4",
          "midi": 62,
          "time": 232.37307499999721,
          "velocity": 0.7874015748031497,
          "duration": 0.12711874999999395
        },
        {
          "name": "D3",
          "midi": 50,
          "time": 232.37307499999721,
          "velocity": 0.7874015748031497,
          "duration": 0.12711874999999395
        },
        {
          "name": "D2",
          "midi": 38,
          "time": 232.7544312499972,
          "velocity": 0.7874015748031497,
          "duration": 0.0847458333333293
        },
        {
          "name": "D4",
          "midi": 62,
          "time": 232.7544312499972,
          "velocity": 0.7874015748031497,
          "duration": 0.0847458333333293
        },
        {
          "name": "D3",
          "midi": 50,
          "time": 232.7544312499972,
          "velocity": 0.7874015748031497,
          "duration": 0.0847458333333293
        },
        {
          "name": "F3",
          "midi": 53,
          "time": 233.00866874999718,
          "velocity": 0.7874015748031497,
          "duration": 0.12711874999999395
        },
        {
          "name": "C3",
          "midi": 48,
          "time": 233.00866874999718,
          "velocity": 0.7874015748031497,
          "duration": 0.12711874999999395
        },
        {
          "name": "F2",
          "midi": 41,
          "time": 233.00866874999718,
          "velocity": 0.7874015748031497,
          "duration": 0.12711874999999395
        },
        {
          "name": "F3",
          "midi": 53,
          "time": 233.13578749999718,
          "velocity": 0.7874015748031497,
          "duration": 0.2542374999999879
        },
        {
          "name": "C3",
          "midi": 48,
          "time": 233.13578749999718,
          "velocity": 0.7874015748031497,
          "duration": 0.2542374999999879
        },
        {
          "name": "F2",
          "midi": 41,
          "time": 233.13578749999718,
          "velocity": 0.7874015748031497,
          "duration": 0.2542374999999879
        },
        {
          "name": "G3",
          "midi": 55,
          "time": 233.39002499999717,
          "velocity": 0.7874015748031497,
          "duration": 0.2542374999999879
        },
        {
          "name": "D3",
          "midi": 50,
          "time": 233.39002499999717,
          "velocity": 0.7874015748031497,
          "duration": 0.2542374999999879
        },
        {
          "name": "G2",
          "midi": 43,
          "time": 233.39002499999717,
          "velocity": 0.7874015748031497,
          "duration": 0.2542374999999879
        },
        {
          "name": "F3",
          "midi": 53,
          "time": 233.64426249999715,
          "velocity": 0.7874015748031497,
          "duration": 0.2542374999999879
        },
        {
          "name": "C3",
          "midi": 48,
          "time": 233.64426249999715,
          "velocity": 0.7874015748031497,
          "duration": 0.2542374999999879
        },
        {
          "name": "D2",
          "midi": 38,
          "time": 233.89849999999714,
          "velocity": 0.7874015748031497,
          "duration": 0.12711874999999395
        },
        {
          "name": "D4",
          "midi": 62,
          "time": 233.89849999999714,
          "velocity": 0.7874015748031497,
          "duration": 0.12711874999999395
        },
        {
          "name": "D3",
          "midi": 50,
          "time": 233.89849999999714,
          "velocity": 0.7874015748031497,
          "duration": 0.12711874999999395
        },
        {
          "name": "D2",
          "midi": 38,
          "time": 234.02561874999714,
          "velocity": 0.7874015748031497,
          "duration": 0.12711874999999395
        },
        {
          "name": "D4",
          "midi": 62,
          "time": 234.02561874999714,
          "velocity": 0.7874015748031497,
          "duration": 0.12711874999999395
        },
        {
          "name": "D3",
          "midi": 50,
          "time": 234.02561874999714,
          "velocity": 0.7874015748031497,
          "duration": 0.12711874999999395
        },
        {
          "name": "D2",
          "midi": 38,
          "time": 234.27985624999712,
          "velocity": 0.7874015748031497,
          "duration": 0.12711874999999395
        },
        {
          "name": "D4",
          "midi": 62,
          "time": 234.27985624999712,
          "velocity": 0.7874015748031497,
          "duration": 0.12711874999999395
        },
        {
          "name": "D3",
          "midi": 50,
          "time": 234.27985624999712,
          "velocity": 0.7874015748031497,
          "duration": 0.12711874999999395
        },
        {
          "name": "D2",
          "midi": 38,
          "time": 234.40697499999712,
          "velocity": 0.7874015748031497,
          "duration": 0.12711874999999395
        },
        {
          "name": "D4",
          "midi": 62,
          "time": 234.40697499999712,
          "velocity": 0.7874015748031497,
          "duration": 0.12711874999999395
        },
        {
          "name": "D3",
          "midi": 50,
          "time": 234.40697499999712,
          "velocity": 0.7874015748031497,
          "duration": 0.12711874999999395
        },
        {
          "name": "D2",
          "midi": 38,
          "time": 234.7883312499971,
          "velocity": 0.7874015748031497,
          "duration": 0.0847458333333293
        },
        {
          "name": "D4",
          "midi": 62,
          "time": 234.7883312499971,
          "velocity": 0.7874015748031497,
          "duration": 0.0847458333333293
        },
        {
          "name": "D3",
          "midi": 50,
          "time": 234.7883312499971,
          "velocity": 0.7874015748031497,
          "duration": 0.0847458333333293
        },
        {
          "name": "F3",
          "midi": 53,
          "time": 235.0425687499971,
          "velocity": 0.7874015748031497,
          "duration": 0.12711874999999395
        },
        {
          "name": "C3",
          "midi": 48,
          "time": 235.0425687499971,
          "velocity": 0.7874015748031497,
          "duration": 0.12711874999999395
        },
        {
          "name": "F2",
          "midi": 41,
          "time": 235.0425687499971,
          "velocity": 0.7874015748031497,
          "duration": 0.12711874999999395
        },
        {
          "name": "F3",
          "midi": 53,
          "time": 235.16968749999708,
          "velocity": 0.7874015748031497,
          "duration": 0.2542374999999879
        },
        {
          "name": "C3",
          "midi": 48,
          "time": 235.16968749999708,
          "velocity": 0.7874015748031497,
          "duration": 0.2542374999999879
        },
        {
          "name": "F2",
          "midi": 41,
          "time": 235.16968749999708,
          "velocity": 0.7874015748031497,
          "duration": 0.2542374999999879
        },
        {
          "name": "G3",
          "midi": 55,
          "time": 235.42392499999707,
          "velocity": 0.7874015748031497,
          "duration": 0.2542374999999879
        },
        {
          "name": "D3",
          "midi": 50,
          "time": 235.42392499999707,
          "velocity": 0.7874015748031497,
          "duration": 0.2542374999999879
        },
        {
          "name": "G2",
          "midi": 43,
          "time": 235.42392499999707,
          "velocity": 0.7874015748031497,
          "duration": 0.2542374999999879
        },
        {
          "name": "F3",
          "midi": 53,
          "time": 235.67816249999706,
          "velocity": 0.7874015748031497,
          "duration": 0.2542374999999879
        },
        {
          "name": "C3",
          "midi": 48,
          "time": 235.67816249999706,
          "velocity": 0.7874015748031497,
          "duration": 0.2542374999999879
        },
        {
          "name": "D2",
          "midi": 38,
          "time": 237.96629999999703,
          "velocity": 0.7874015748031497,
          "duration": 0.2542374999999879
        },
        {
          "name": "D2",
          "midi": 38,
          "time": 238.22053749999702,
          "velocity": 0.7874015748031497,
          "duration": 0.2542374999999879
        },
        {
          "name": "D2",
          "midi": 38,
          "time": 238.474774999997,
          "velocity": 0.7874015748031497,
          "duration": 0.2542374999999879
        },
        {
          "name": "D#3",
          "midi": 51,
          "time": 238.729012499997,
          "velocity": 0.7874015748031497,
          "duration": 0.2542374999999879
        },
        {
          "name": "D#3",
          "midi": 51,
          "time": 238.98324999999699,
          "velocity": 0.7874015748031497,
          "duration": 0.2542374999999879
        },
        {
          "name": "D#3",
          "midi": 51,
          "time": 239.23748749999697,
          "velocity": 0.7874015748031497,
          "duration": 0.2542374999999879
        }
      ]
