    var notes = [
        {
          "name": "A2",
          "midi": 45,
          "time": 5,
          "velocity": 0.6692913385826772,
          "duration": 1.4062500000000009
        },
        {
          "name": "E3",
          "midi": 52,
          "time": 5.3125,
          "velocity": 0.6062992125984252,
          "duration": 0.7552083333333339
        },
        {
          "name": "B3",
          "midi": 59,
          "time": 5.625,
          "velocity": 0.6692913385826772,
          "duration": 0.33854166666666696
        },
        {
          "name": "C4",
          "midi": 60,
          "time": 5.9375,
          "velocity": 0.6692913385826772,
          "duration": 0.4687500000000009
        },
        {
          "name": "F2",
          "midi": 41,
          "time": 7.500000000000001,
          "velocity": 0.6062992125984252,
          "duration": 0.950520833333333
        },
        {
          "name": "C3",
          "midi": 48,
          "time": 7.812500000000001,
          "velocity": 0.5826771653543307,
          "duration": 0.5924479166666652
        },
        {
          "name": "G3",
          "midi": 55,
          "time": 8.125,
          "velocity": 0.7086614173228346,
          "duration": 0.2799479166666661
        },
        {
          "name": "A3",
          "midi": 57,
          "time": 8.4375,
          "velocity": 0.6692913385826772,
          "duration": 0.6315104166666679
        },
        {
          "name": "D3",
          "midi": 50,
          "time": 8.4375,
          "velocity": 0.6929133858267716,
          "duration": 0.5989583333333339
        },
        {
          "name": "A2",
          "midi": 45,
          "time": 10.000000000000002,
          "velocity": 0.6692913385826772,
          "duration": 1.4062499999999982
        },
        {
          "name": "E3",
          "midi": 52,
          "time": 10.312500000000002,
          "velocity": 0.6062992125984252,
          "duration": 0.7552083333333321
        },
        {
          "name": "B3",
          "midi": 59,
          "time": 10.625000000000002,
          "velocity": 0.6692913385826772,
          "duration": 0.3385416666666661
        },
        {
          "name": "C4",
          "midi": 60,
          "time": 10.937500000000002,
          "velocity": 0.6692913385826772,
          "duration": 0.4687499999999982
        },
        {
          "name": "F2",
          "midi": 41,
          "time": 12.5,
          "velocity": 0.6062992125984252,
          "duration": 0.9505208333333339
        },
        {
          "name": "C3",
          "midi": 48,
          "time": 12.8125,
          "velocity": 0.5826771653543307,
          "duration": 0.5924479166666661
        },
        {
          "name": "G3",
          "midi": 55,
          "time": 13.125,
          "velocity": 0.7086614173228346,
          "duration": 0.2799479166666661
        },
        {
          "name": "A3",
          "midi": 57,
          "time": 13.4375,
          "velocity": 0.6692913385826772,
          "duration": 0.6315104166666679
        },
        {
          "name": "E3",
          "midi": 52,
          "time": 13.4375,
          "velocity": 0.6929133858267716,
          "duration": 0.5989583333333339
        },
        {
          "name": "A2",
          "midi": 45,
          "time": 15.000000000000002,
          "velocity": 0.6692913385826772,
          "duration": 1.4062500000000018
        },
        {
          "name": "E3",
          "midi": 52,
          "time": 15.312500000000002,
          "velocity": 0.6062992125984252,
          "duration": 0.7552083333333339
        },
        {
          "name": "B3",
          "midi": 59,
          "time": 15.625000000000002,
          "velocity": 0.6692913385826772,
          "duration": 0.3385416666666661
        },
        {
          "name": "C4",
          "midi": 60,
          "time": 15.937500000000002,
          "velocity": 0.6692913385826772,
          "duration": 0.4687500000000018
        },
        {
          "name": "F2",
          "midi": 41,
          "time": 17.500000000000004,
          "velocity": 0.6062992125984252,
          "duration": 0.9505208333333321
        },
        {
          "name": "C3",
          "midi": 48,
          "time": 17.812500000000004,
          "velocity": 0.5826771653543307,
          "duration": 0.5924479166666679
        },
        {
          "name": "G3",
          "midi": 55,
          "time": 18.125000000000004,
          "velocity": 0.7086614173228346,
          "duration": 0.27994791666666785
        },
        {
          "name": "A3",
          "midi": 57,
          "time": 18.437500000000004,
          "velocity": 0.6692913385826772,
          "duration": 0.6315104166666643
        },
        {
          "name": "D3",
          "midi": 50,
          "time": 18.437500000000004,
          "velocity": 0.6929133858267716,
          "duration": 0.5989583333333321
        },
        {
          "name": "A2",
          "midi": 45,
          "time": 20,
          "velocity": 0.6692913385826772,
          "duration": 1.4062500000000036
        },
        {
          "name": "E3",
          "midi": 52,
          "time": 20.3125,
          "velocity": 0.6062992125984252,
          "duration": 0.7552083333333357
        },
        {
          "name": "B3",
          "midi": 59,
          "time": 20.625,
          "velocity": 0.6692913385826772,
          "duration": 0.33854166666666785
        },
        {
          "name": "C4",
          "midi": 60,
          "time": 20.9375,
          "velocity": 0.6692913385826772,
          "duration": 0.46875000000000355
        },
        {
          "name": "F2",
          "midi": 41,
          "time": 22.500000000000004,
          "velocity": 0.6062992125984252,
          "duration": 0.9505208333333321
        },
        {
          "name": "C3",
          "midi": 48,
          "time": 22.812500000000004,
          "velocity": 0.5826771653543307,
          "duration": 0.5924479166666679
        },
        {
          "name": "G3",
          "midi": 55,
          "time": 23.125000000000004,
          "velocity": 0.7086614173228346,
          "duration": 0.27994791666666785
        },
        {
          "name": "A3",
          "midi": 57,
          "time": 23.437500000000004,
          "velocity": 0.6692913385826772,
          "duration": 0.6315104166666643
        },
        {
          "name": "E3",
          "midi": 52,
          "time": 23.437500000000004,
          "velocity": 0.6929133858267716,
          "duration": 0.5989583333333321
        },
        {
          "name": "A2",
          "midi": 45,
          "time": 25,
          "velocity": 0.6692913385826772,
          "duration": 1.4062500000000036
        },
        {
          "name": "E3",
          "midi": 52,
          "time": 25.3125,
          "velocity": 0.6062992125984252,
          "duration": 0.7552083333333357
        },
        {
          "name": "B3",
          "midi": 59,
          "time": 25.625,
          "velocity": 0.6692913385826772,
          "duration": 0.33854166666666785
        },
        {
          "name": "C4",
          "midi": 60,
          "time": 25.9375,
          "velocity": 0.6692913385826772,
          "duration": 0.46875000000000355
        },
        {
          "name": "F2",
          "midi": 41,
          "time": 27.500000000000004,
          "velocity": 0.6062992125984252,
          "duration": 0.9505208333333321
        },
        {
          "name": "C3",
          "midi": 48,
          "time": 27.812500000000004,
          "velocity": 0.5826771653543307,
          "duration": 0.5924479166666679
        },
        {
          "name": "G3",
          "midi": 55,
          "time": 28.125000000000004,
          "velocity": 0.7086614173228346,
          "duration": 0.27994791666666785
        },
        {
          "name": "A3",
          "midi": 57,
          "time": 28.437500000000004,
          "velocity": 0.6692913385826772,
          "duration": 0.6315104166666643
        },
        {
          "name": "D3",
          "midi": 50,
          "time": 28.437500000000004,
          "velocity": 0.6929133858267716,
          "duration": 0.5989583333333321
        },
        {
          "name": "A2",
          "midi": 45,
          "time": 30,
          "velocity": 0.6692913385826772,
          "duration": 1.4062500000000036
        },
        {
          "name": "E3",
          "midi": 52,
          "time": 30.3125,
          "velocity": 0.6062992125984252,
          "duration": 0.7552083333333357
        },
        {
          "name": "B3",
          "midi": 59,
          "time": 30.625,
          "velocity": 0.6692913385826772,
          "duration": 0.33854166666666785
        },
        {
          "name": "C4",
          "midi": 60,
          "time": 30.9375,
          "velocity": 0.6692913385826772,
          "duration": 0.46875000000000355
        },
        {
          "name": "F2",
          "midi": 41,
          "time": 32.5,
          "velocity": 0.6062992125984252,
          "duration": 0.9505208333333357
        },
        {
          "name": "C3",
          "midi": 48,
          "time": 32.8125,
          "velocity": 0.5826771653543307,
          "duration": 0.5924479166666643
        },
        {
          "name": "G3",
          "midi": 55,
          "time": 33.125,
          "velocity": 0.7086614173228346,
          "duration": 0.2799479166666643
        },
        {
          "name": "A3",
          "midi": 57,
          "time": 33.4375,
          "velocity": 0.6692913385826772,
          "duration": 0.6315104166666714
        },
        {
          "name": "E3",
          "midi": 52,
          "time": 33.4375,
          "velocity": 0.6929133858267716,
          "duration": 0.5989583333333357
        },
        {
          "name": "E3",
          "midi": 52,
          "time": 35.00000000000001,
          "velocity": 0.5826771653543307,
          "duration": 0.3059895833333357
        },
        {
          "name": "C3",
          "midi": 48,
          "time": 35.00000000000001,
          "velocity": 0.6456692913385826,
          "duration": 0.3059895833333357
        },
        {
          "name": "G3",
          "midi": 55,
          "time": 35.31250000000001,
          "velocity": 0.6062992125984252,
          "duration": 0.3059895833333357
        },
        {
          "name": "C4",
          "midi": 60,
          "time": 35.62500000000001,
          "velocity": 0.5275590551181102,
          "duration": 0.3059895833333357
        },
        {
          "name": "G3",
          "midi": 55,
          "time": 35.93750000000001,
          "velocity": 0.3700787401574803,
          "duration": 0.3059895833333357
        },
        {
          "name": "G2",
          "midi": 43,
          "time": 36.25000000000001,
          "velocity": 0.6456692913385826,
          "duration": 0.3059895833333357
        },
        {
          "name": "B2",
          "midi": 47,
          "time": 36.56250000000001,
          "velocity": 0.5826771653543307,
          "duration": 0.3059895833333357
        },
        {
          "name": "G3",
          "midi": 55,
          "time": 36.87500000000001,
          "velocity": 0.6929133858267716,
          "duration": 0.3059895833333357
        },
        {
          "name": "D4",
          "midi": 62,
          "time": 36.87500000000001,
          "velocity": 0.7086614173228346,
          "duration": 0.3059895833333357
        },
        {
          "name": "G3",
          "midi": 55,
          "time": 37.18750000000001,
          "velocity": 0.4566929133858268,
          "duration": 0.3059895833333357
        },
        {
          "name": "C3",
          "midi": 48,
          "time": 37.50000000000001,
          "velocity": 0.6692913385826772,
          "duration": 0.3059895833333357
        },
        {
          "name": "F3",
          "midi": 53,
          "time": 37.50000000000001,
          "velocity": 0.6692913385826772,
          "duration": 0.3059895833333357
        },
        {
          "name": "A3",
          "midi": 57,
          "time": 37.81250000000001,
          "velocity": 0.5590551181102362,
          "duration": 0.3059895833333357
        },
        {
          "name": "C4",
          "midi": 60,
          "time": 38.12500000000001,
          "velocity": 0.7322834645669292,
          "duration": 0.3059895833333357
        },
        {
          "name": "F4",
          "midi": 65,
          "time": 38.12500000000001,
          "velocity": 0.6692913385826772,
          "duration": 0.3059895833333357
        },
        {
          "name": "A3",
          "midi": 57,
          "time": 38.43750000000001,
          "velocity": 0.6141732283464567,
          "duration": 0.3059895833333357
        },
        {
          "name": "D3",
          "midi": 50,
          "time": 38.75000000000001,
          "velocity": 0.7086614173228346,
          "duration": 0.3059895833333357
        },
        {
          "name": "A3",
          "midi": 57,
          "time": 39.06250000000001,
          "velocity": 0.6062992125984252,
          "duration": 0.3059895833333357
        },
        {
          "name": "D4",
          "midi": 62,
          "time": 39.37500000000001,
          "velocity": 0.6692913385826772,
          "duration": 0.3059895833333357
        },
        {
          "name": "F4",
          "midi": 65,
          "time": 39.37500000000001,
          "velocity": 0.6141732283464567,
          "duration": 0.3059895833333357
        },
        {
          "name": "A2",
          "midi": 45,
          "time": 40.00000000000001,
          "velocity": 0.6692913385826772,
          "duration": 1.406249999999993
        },
        {
          "name": "E3",
          "midi": 52,
          "time": 40.31250000000001,
          "velocity": 0.6062992125984252,
          "duration": 0.7552083333333286
        },
        {
          "name": "B3",
          "midi": 59,
          "time": 40.62500000000001,
          "velocity": 0.6692913385826772,
          "duration": 0.3385416666666643
        },
        {
          "name": "C4",
          "midi": 60,
          "time": 40.93750000000001,
          "velocity": 0.6692913385826772,
          "duration": 0.4687499999999929
        },
        {
          "name": "F2",
          "midi": 41,
          "time": 42.5,
          "velocity": 0.6062992125984252,
          "duration": 0.9505208333333357
        },
        {
          "name": "C3",
          "midi": 48,
          "time": 42.8125,
          "velocity": 0.5826771653543307,
          "duration": 0.5924479166666643
        },
        {
          "name": "G3",
          "midi": 55,
          "time": 43.125,
          "velocity": 0.7086614173228346,
          "duration": 0.2799479166666643
        },
        {
          "name": "A3",
          "midi": 57,
          "time": 43.4375,
          "velocity": 0.6692913385826772,
          "duration": 0.6315104166666714
        },
        {
          "name": "D3",
          "midi": 50,
          "time": 43.4375,
          "velocity": 0.6929133858267716,
          "duration": 0.5989583333333357
        },
        {
          "name": "A2",
          "midi": 45,
          "time": 45.00000000000001,
          "velocity": 0.6692913385826772,
          "duration": 1.406249999999993
        },
        {
          "name": "E3",
          "midi": 52,
          "time": 45.31250000000001,
          "velocity": 0.6062992125984252,
          "duration": 0.7552083333333286
        },
        {
          "name": "B3",
          "midi": 59,
          "time": 45.62500000000001,
          "velocity": 0.6692913385826772,
          "duration": 0.3385416666666643
        },
        {
          "name": "C4",
          "midi": 60,
          "time": 45.93750000000001,
          "velocity": 0.6692913385826772,
          "duration": 0.4687499999999929
        },
        {
          "name": "F2",
          "midi": 41,
          "time": 47.5,
          "velocity": 0.6062992125984252,
          "duration": 0.9505208333333357
        },
        {
          "name": "C3",
          "midi": 48,
          "time": 47.8125,
          "velocity": 0.5826771653543307,
          "duration": 0.5924479166666643
        },
        {
          "name": "G3",
          "midi": 55,
          "time": 48.125,
          "velocity": 0.7086614173228346,
          "duration": 0.2799479166666643
        },
        {
          "name": "A3",
          "midi": 57,
          "time": 48.4375,
          "velocity": 0.6692913385826772,
          "duration": 0.6315104166666714
        },
        {
          "name": "E3",
          "midi": 52,
          "time": 48.4375,
          "velocity": 0.6929133858267716,
          "duration": 0.5989583333333357
        },
        {
          "name": "A2",
          "midi": 45,
          "time": 50.00000000000001,
          "velocity": 0.6692913385826772,
          "duration": 1.406249999999993
        },
        {
          "name": "E3",
          "midi": 52,
          "time": 50.31250000000001,
          "velocity": 0.6062992125984252,
          "duration": 0.7552083333333286
        },
        {
          "name": "B3",
          "midi": 59,
          "time": 50.62500000000001,
          "velocity": 0.6692913385826772,
          "duration": 0.3385416666666643
        },
        {
          "name": "C4",
          "midi": 60,
          "time": 50.93750000000001,
          "velocity": 0.6692913385826772,
          "duration": 0.4687499999999929
        },
        {
          "name": "F2",
          "midi": 41,
          "time": 52.5,
          "velocity": 0.6062992125984252,
          "duration": 0.9505208333333357
        },
        {
          "name": "C3",
          "midi": 48,
          "time": 52.8125,
          "velocity": 0.5826771653543307,
          "duration": 0.5924479166666643
        },
        {
          "name": "G3",
          "midi": 55,
          "time": 53.125,
          "velocity": 0.7086614173228346,
          "duration": 0.2799479166666643
        },
        {
          "name": "A3",
          "midi": 57,
          "time": 53.4375,
          "velocity": 0.6692913385826772,
          "duration": 0.6315104166666714
        },
        {
          "name": "D3",
          "midi": 50,
          "time": 53.4375,
          "velocity": 0.6929133858267716,
          "duration": 0.5989583333333357
        },
        {
          "name": "A2",
          "midi": 45,
          "time": 55.00000000000001,
          "velocity": 0.6692913385826772,
          "duration": 1.406249999999993
        },
        {
          "name": "E3",
          "midi": 52,
          "time": 55.31250000000001,
          "velocity": 0.6062992125984252,
          "duration": 0.7552083333333286
        },
        {
          "name": "B3",
          "midi": 59,
          "time": 55.62500000000001,
          "velocity": 0.6692913385826772,
          "duration": 0.3385416666666643
        },
        {
          "name": "C4",
          "midi": 60,
          "time": 55.93750000000001,
          "velocity": 0.6692913385826772,
          "duration": 0.4687499999999929
        },
        {
          "name": "F2",
          "midi": 41,
          "time": 57.5,
          "velocity": 0.6062992125984252,
          "duration": 0.9505208333333357
        },
        {
          "name": "C3",
          "midi": 48,
          "time": 57.8125,
          "velocity": 0.5826771653543307,
          "duration": 0.5924479166666643
        },
        {
          "name": "G3",
          "midi": 55,
          "time": 58.125,
          "velocity": 0.7086614173228346,
          "duration": 0.2799479166666643
        },
        {
          "name": "A3",
          "midi": 57,
          "time": 58.4375,
          "velocity": 0.6692913385826772,
          "duration": 0.6315104166666714
        },
        {
          "name": "E3",
          "midi": 52,
          "time": 58.4375,
          "velocity": 0.6929133858267716,
          "duration": 0.5989583333333357
        },
        {
          "name": "E3",
          "midi": 52,
          "time": 60.00000000000001,
          "velocity": 0.5826771653543307,
          "duration": 0.3059895833333357
        },
        {
          "name": "C3",
          "midi": 48,
          "time": 60.00000000000001,
          "velocity": 0.6456692913385826,
          "duration": 0.3059895833333357
        },
        {
          "name": "G3",
          "midi": 55,
          "time": 60.31250000000001,
          "velocity": 0.6062992125984252,
          "duration": 0.3059895833333357
        },
        {
          "name": "C4",
          "midi": 60,
          "time": 60.62500000000001,
          "velocity": 0.5275590551181102,
          "duration": 0.3059895833333357
        },
        {
          "name": "G3",
          "midi": 55,
          "time": 60.93750000000001,
          "velocity": 0.3700787401574803,
          "duration": 0.3059895833333357
        },
        {
          "name": "G2",
          "midi": 43,
          "time": 61.25000000000001,
          "velocity": 0.6456692913385826,
          "duration": 0.3059895833333357
        },
        {
          "name": "B2",
          "midi": 47,
          "time": 61.56250000000001,
          "velocity": 0.5826771653543307,
          "duration": 0.3059895833333357
        },
        {
          "name": "G3",
          "midi": 55,
          "time": 61.87500000000001,
          "velocity": 0.6929133858267716,
          "duration": 0.3059895833333357
        },
        {
          "name": "D4",
          "midi": 62,
          "time": 61.87500000000001,
          "velocity": 0.7086614173228346,
          "duration": 0.3059895833333357
        },
        {
          "name": "G3",
          "midi": 55,
          "time": 62.18750000000001,
          "velocity": 0.4566929133858268,
          "duration": 0.3059895833333357
        },
        {
          "name": "F3",
          "midi": 53,
          "time": 62.50000000000001,
          "velocity": 0.6692913385826772,
          "duration": 0.3059895833333357
        },
        {
          "name": "C3",
          "midi": 48,
          "time": 62.50000000000001,
          "velocity": 0.6692913385826772,
          "duration": 0.3059895833333357
        },
        {
          "name": "A3",
          "midi": 57,
          "time": 62.81250000000001,
          "velocity": 0.4881889763779528,
          "duration": 0.3059895833333357
        },
        {
          "name": "C4",
          "midi": 60,
          "time": 63.12500000000001,
          "velocity": 0.6377952755905512,
          "duration": 0.3059895833333357
        },
        {
          "name": "F4",
          "midi": 65,
          "time": 63.12500000000001,
          "velocity": 0.5826771653543307,
          "duration": 0.3059895833333357
        },
        {
          "name": "A3",
          "midi": 57,
          "time": 63.43750000000001,
          "velocity": 0.5354330708661418,
          "duration": 0.3059895833333357
        },
        {
          "name": "D3",
          "midi": 50,
          "time": 63.75000000000001,
          "velocity": 0.6220472440944882,
          "duration": 0.3059895833333357
        },
        {
          "name": "A3",
          "midi": 57,
          "time": 64.06250000000001,
          "velocity": 0.5275590551181102,
          "duration": 0.3059895833333286
        },
        {
          "name": "D4",
          "midi": 62,
          "time": 64.37500000000001,
          "velocity": 0.5826771653543307,
          "duration": 0.3059895833333286
        },
        {
          "name": "F4",
          "midi": 65,
          "time": 64.37500000000001,
          "velocity": 0.5354330708661418,
          "duration": 0.3059895833333286
        },
        {
          "name": "A2",
          "midi": 45,
          "time": 65.00000000000001,
          "velocity": 0.7874015748031497,
          "duration": 0.3059895833333286
        },
        {
          "name": "E3",
          "midi": 52,
          "time": 65.00000000000001,
          "velocity": 0.7874015748031497,
          "duration": 0.3059895833333286
        },
        {
          "name": "A3",
          "midi": 57,
          "time": 65.00000000000001,
          "velocity": 0.7874015748031497,
          "duration": 0.3059895833333286
        },
        {
          "name": "C4",
          "midi": 60,
          "time": 65.00000000000001,
          "velocity": 0.7874015748031497,
          "duration": 0.3059895833333286
        },
        {
          "name": "E4",
          "midi": 64,
          "time": 65.00000000000001,
          "velocity": 0.7874015748031497,
          "duration": 0.3059895833333286
        },
        {
          "name": "A4",
          "midi": 69,
          "time": 65.00000000000001,
          "velocity": 0.7874015748031497,
          "duration": 0.3059895833333286
        },
        {
          "name": "A4",
          "midi": 69,
          "time": 65.31250000000001,
          "velocity": 0.5511811023622047,
          "duration": 0.1497395833333286
        },
        {
          "name": "E4",
          "midi": 64,
          "time": 65.31250000000001,
          "velocity": 0.5511811023622047,
          "duration": 0.1497395833333286
        },
        {
          "name": "C4",
          "midi": 60,
          "time": 65.31250000000001,
          "velocity": 0.5511811023622047,
          "duration": 0.1497395833333286
        },
        {
          "name": "A3",
          "midi": 57,
          "time": 65.31250000000001,
          "velocity": 0.5511811023622047,
          "duration": 0.1497395833333286
        },
        {
          "name": "E3",
          "midi": 52,
          "time": 65.46875000000001,
          "velocity": 0.6299212598425197,
          "duration": 0.3059895833333286
        },
        {
          "name": "A3",
          "midi": 57,
          "time": 65.46875000000001,
          "velocity": 0.6299212598425197,
          "duration": 0.3059895833333286
        },
        {
          "name": "C4",
          "midi": 60,
          "time": 65.46875000000001,
          "velocity": 0.6299212598425197,
          "duration": 0.3059895833333286
        },
        {
          "name": "E4",
          "midi": 64,
          "time": 65.46875000000001,
          "velocity": 0.6299212598425197,
          "duration": 0.3059895833333286
        },
        {
          "name": "A4",
          "midi": 69,
          "time": 65.46875000000001,
          "velocity": 0.6299212598425197,
          "duration": 0.3059895833333286
        },
        {
          "name": "A2",
          "midi": 45,
          "time": 65.62500000000001,
          "velocity": 0.6299212598425197,
          "duration": 0.3059895833333286
        },
        {
          "name": "E3",
          "midi": 52,
          "time": 65.62500000000001,
          "velocity": 0.6299212598425197,
          "duration": 0.3059895833333286
        },
        {
          "name": "A3",
          "midi": 57,
          "time": 65.62500000000001,
          "velocity": 0.6299212598425197,
          "duration": 0.3059895833333286
        },
        {
          "name": "C4",
          "midi": 60,
          "time": 65.62500000000001,
          "velocity": 0.6299212598425197,
          "duration": 0.3059895833333286
        },
        {
          "name": "E4",
          "midi": 64,
          "time": 65.62500000000001,
          "velocity": 0.6299212598425197,
          "duration": 0.3059895833333286
        },
        {
          "name": "A4",
          "midi": 69,
          "time": 65.62500000000001,
          "velocity": 0.6299212598425197,
          "duration": 0.3059895833333286
        },
        {
          "name": "A2",
          "midi": 45,
          "time": 65.93750000000001,
          "velocity": 0.7874015748031497,
          "duration": 0.3059895833333286
        },
        {
          "name": "E3",
          "midi": 52,
          "time": 65.93750000000001,
          "velocity": 0.7874015748031497,
          "duration": 0.3059895833333286
        },
        {
          "name": "A3",
          "midi": 57,
          "time": 65.93750000000001,
          "velocity": 0.7874015748031497,
          "duration": 0.3059895833333286
        },
        {
          "name": "C4",
          "midi": 60,
          "time": 65.93750000000001,
          "velocity": 0.7874015748031497,
          "duration": 0.3059895833333286
        },
        {
          "name": "E4",
          "midi": 64,
          "time": 65.93750000000001,
          "velocity": 0.7874015748031497,
          "duration": 0.3059895833333286
        },
        {
          "name": "A4",
          "midi": 69,
          "time": 65.93750000000001,
          "velocity": 0.7874015748031497,
          "duration": 0.3059895833333286
        },
        {
          "name": "A4",
          "midi": 69,
          "time": 66.25000000000001,
          "velocity": 0.5511811023622047,
          "duration": 0.1497395833333286
        },
        {
          "name": "E4",
          "midi": 64,
          "time": 66.25000000000001,
          "velocity": 0.5511811023622047,
          "duration": 0.1497395833333286
        },
        {
          "name": "C4",
          "midi": 60,
          "time": 66.25000000000001,
          "velocity": 0.5511811023622047,
          "duration": 0.1497395833333286
        },
        {
          "name": "A3",
          "midi": 57,
          "time": 66.25000000000001,
          "velocity": 0.5511811023622047,
          "duration": 0.1497395833333286
        },
        {
          "name": "E3",
          "midi": 52,
          "time": 66.40625000000001,
          "velocity": 0.6299212598425197,
          "duration": 0.3059895833333286
        },
        {
          "name": "A3",
          "midi": 57,
          "time": 66.40625000000001,
          "velocity": 0.6299212598425197,
          "duration": 0.3059895833333286
        },
        {
          "name": "C4",
          "midi": 60,
          "time": 66.40625000000001,
          "velocity": 0.6299212598425197,
          "duration": 0.3059895833333286
        },
        {
          "name": "E4",
          "midi": 64,
          "time": 66.40625000000001,
          "velocity": 0.6299212598425197,
          "duration": 0.3059895833333286
        },
        {
          "name": "A4",
          "midi": 69,
          "time": 66.40625000000001,
          "velocity": 0.6299212598425197,
          "duration": 0.3059895833333286
        },
        {
          "name": "A2",
          "midi": 45,
          "time": 66.56250000000001,
          "velocity": 0.6299212598425197,
          "duration": 0.3059895833333286
        },
        {
          "name": "E3",
          "midi": 52,
          "time": 66.56250000000001,
          "velocity": 0.6299212598425197,
          "duration": 0.3059895833333286
        },
        {
          "name": "A3",
          "midi": 57,
          "time": 66.56250000000001,
          "velocity": 0.6299212598425197,
          "duration": 0.3059895833333286
        },
        {
          "name": "C4",
          "midi": 60,
          "time": 66.56250000000001,
          "velocity": 0.6299212598425197,
          "duration": 0.3059895833333286
        },
        {
          "name": "E4",
          "midi": 64,
          "time": 66.56250000000001,
          "velocity": 0.6299212598425197,
          "duration": 0.3059895833333286
        },
        {
          "name": "A4",
          "midi": 69,
          "time": 66.56250000000001,
          "velocity": 0.6299212598425197,
          "duration": 0.3059895833333286
        },
        {
          "name": "A2",
          "midi": 45,
          "time": 66.87500000000001,
          "velocity": 0.7874015748031497,
          "duration": 0.3059895833333286
        },
        {
          "name": "E3",
          "midi": 52,
          "time": 66.87500000000001,
          "velocity": 0.7874015748031497,
          "duration": 0.3059895833333286
        },
        {
          "name": "A3",
          "midi": 57,
          "time": 66.87500000000001,
          "velocity": 0.7874015748031497,
          "duration": 0.3059895833333286
        },
        {
          "name": "C4",
          "midi": 60,
          "time": 66.87500000000001,
          "velocity": 0.7874015748031497,
          "duration": 0.3059895833333286
        },
        {
          "name": "E4",
          "midi": 64,
          "time": 66.87500000000001,
          "velocity": 0.7874015748031497,
          "duration": 0.3059895833333286
        },
        {
          "name": "A4",
          "midi": 69,
          "time": 66.87500000000001,
          "velocity": 0.7874015748031497,
          "duration": 0.3059895833333286
        },
        {
          "name": "A4",
          "midi": 69,
          "time": 67.18750000000001,
          "velocity": 0.5511811023622047,
          "duration": 0.1497395833333286
        },
        {
          "name": "E4",
          "midi": 64,
          "time": 67.18750000000001,
          "velocity": 0.5511811023622047,
          "duration": 0.1497395833333286
        },
        {
          "name": "C4",
          "midi": 60,
          "time": 67.18750000000001,
          "velocity": 0.5511811023622047,
          "duration": 0.1497395833333286
        },
        {
          "name": "A4",
          "midi": 69,
          "time": 67.34375000000001,
          "velocity": 0.5511811023622047,
          "duration": 0.1497395833333286
        },
        {
          "name": "E4",
          "midi": 64,
          "time": 67.34375000000001,
          "velocity": 0.5511811023622047,
          "duration": 0.1497395833333286
        },
        {
          "name": "C4",
          "midi": 60,
          "time": 67.34375000000001,
          "velocity": 0.5511811023622047,
          "duration": 0.1497395833333286
        },
        {
          "name": "A3",
          "midi": 57,
          "time": 67.34375000000001,
          "velocity": 0.5511811023622047,
          "duration": 0.1497395833333286
        },
        {
          "name": "F2",
          "midi": 41,
          "time": 67.50000000000001,
          "velocity": 0.7874015748031497,
          "duration": 0.3059895833333286
        },
        {
          "name": "C3",
          "midi": 48,
          "time": 67.50000000000001,
          "velocity": 0.7874015748031497,
          "duration": 0.3059895833333286
        },
        {
          "name": "F3",
          "midi": 53,
          "time": 67.50000000000001,
          "velocity": 0.7874015748031497,
          "duration": 0.3059895833333286
        },
        {
          "name": "A3",
          "midi": 57,
          "time": 67.50000000000001,
          "velocity": 0.7874015748031497,
          "duration": 0.3059895833333286
        },
        {
          "name": "C4",
          "midi": 60,
          "time": 67.50000000000001,
          "velocity": 0.7874015748031497,
          "duration": 0.3059895833333286
        },
        {
          "name": "F4",
          "midi": 65,
          "time": 67.50000000000001,
          "velocity": 0.7874015748031497,
          "duration": 0.3059895833333286
        },
        {
          "name": "F4",
          "midi": 65,
          "time": 67.81250000000001,
          "velocity": 0.5511811023622047,
          "duration": 0.1497395833333286
        },
        {
          "name": "C4",
          "midi": 60,
          "time": 67.81250000000001,
          "velocity": 0.5511811023622047,
          "duration": 0.1497395833333286
        },
        {
          "name": "A3",
          "midi": 57,
          "time": 67.81250000000001,
          "velocity": 0.5511811023622047,
          "duration": 0.1497395833333286
        },
        {
          "name": "F3",
          "midi": 53,
          "time": 67.81250000000001,
          "velocity": 0.5511811023622047,
          "duration": 0.1497395833333286
        },
        {
          "name": "C3",
          "midi": 48,
          "time": 67.96875000000001,
          "velocity": 0.6299212598425197,
          "duration": 0.3059895833333286
        },
        {
          "name": "F3",
          "midi": 53,
          "time": 67.96875000000001,
          "velocity": 0.6299212598425197,
          "duration": 0.3059895833333286
        },
        {
          "name": "A3",
          "midi": 57,
          "time": 67.96875000000001,
          "velocity": 0.6299212598425197,
          "duration": 0.3059895833333286
        },
        {
          "name": "C4",
          "midi": 60,
          "time": 67.96875000000001,
          "velocity": 0.6299212598425197,
          "duration": 0.3059895833333286
        },
        {
          "name": "F4",
          "midi": 65,
          "time": 67.96875000000001,
          "velocity": 0.6299212598425197,
          "duration": 0.3059895833333286
        },
        {
          "name": "F2",
          "midi": 41,
          "time": 68.12500000000001,
          "velocity": 0.6299212598425197,
          "duration": 0.3059895833333286
        },
        {
          "name": "C3",
          "midi": 48,
          "time": 68.12500000000001,
          "velocity": 0.6299212598425197,
          "duration": 0.3059895833333286
        },
        {
          "name": "F3",
          "midi": 53,
          "time": 68.12500000000001,
          "velocity": 0.6299212598425197,
          "duration": 0.3059895833333286
        },
        {
          "name": "A3",
          "midi": 57,
          "time": 68.12500000000001,
          "velocity": 0.6299212598425197,
          "duration": 0.3059895833333286
        },
        {
          "name": "C4",
          "midi": 60,
          "time": 68.12500000000001,
          "velocity": 0.6299212598425197,
          "duration": 0.3059895833333286
        },
        {
          "name": "F4",
          "midi": 65,
          "time": 68.12500000000001,
          "velocity": 0.6299212598425197,
          "duration": 0.3059895833333286
        },
        {
          "name": "F2",
          "midi": 41,
          "time": 68.43750000000001,
          "velocity": 0.7874015748031497,
          "duration": 0.3059895833333286
        },
        {
          "name": "C3",
          "midi": 48,
          "time": 68.43750000000001,
          "velocity": 0.7874015748031497,
          "duration": 0.3059895833333286
        },
        {
          "name": "F3",
          "midi": 53,
          "time": 68.43750000000001,
          "velocity": 0.7874015748031497,
          "duration": 0.3059895833333286
        },
        {
          "name": "A3",
          "midi": 57,
          "time": 68.43750000000001,
          "velocity": 0.7874015748031497,
          "duration": 0.3059895833333286
        },
        {
          "name": "C4",
          "midi": 60,
          "time": 68.43750000000001,
          "velocity": 0.7874015748031497,
          "duration": 0.3059895833333286
        },
        {
          "name": "F4",
          "midi": 65,
          "time": 68.43750000000001,
          "velocity": 0.7874015748031497,
          "duration": 0.3059895833333286
        },
        {
          "name": "F4",
          "midi": 65,
          "time": 68.75000000000001,
          "velocity": 0.5511811023622047,
          "duration": 0.1497395833333286
        },
        {
          "name": "C4",
          "midi": 60,
          "time": 68.75000000000001,
          "velocity": 0.5511811023622047,
          "duration": 0.1497395833333286
        },
        {
          "name": "A3",
          "midi": 57,
          "time": 68.75000000000001,
          "velocity": 0.5511811023622047,
          "duration": 0.1497395833333286
        },
        {
          "name": "F3",
          "midi": 53,
          "time": 68.75000000000001,
          "velocity": 0.5511811023622047,
          "duration": 0.1497395833333286
        },
        {
          "name": "C3",
          "midi": 48,
          "time": 68.90625000000001,
          "velocity": 0.6299212598425197,
          "duration": 0.3059895833333286
        },
        {
          "name": "F3",
          "midi": 53,
          "time": 68.90625000000001,
          "velocity": 0.6299212598425197,
          "duration": 0.3059895833333286
        },
        {
          "name": "A3",
          "midi": 57,
          "time": 68.90625000000001,
          "velocity": 0.6299212598425197,
          "duration": 0.3059895833333286
        },
        {
          "name": "C4",
          "midi": 60,
          "time": 68.90625000000001,
          "velocity": 0.6299212598425197,
          "duration": 0.3059895833333286
        },
        {
          "name": "F4",
          "midi": 65,
          "time": 68.90625000000001,
          "velocity": 0.6299212598425197,
          "duration": 0.3059895833333286
        },
        {
          "name": "F2",
          "midi": 41,
          "time": 69.06250000000001,
          "velocity": 0.6299212598425197,
          "duration": 0.3059895833333286
        },
        {
          "name": "C3",
          "midi": 48,
          "time": 69.06250000000001,
          "velocity": 0.6299212598425197,
          "duration": 0.3059895833333286
        },
        {
          "name": "F3",
          "midi": 53,
          "time": 69.06250000000001,
          "velocity": 0.6299212598425197,
          "duration": 0.3059895833333286
        },
        {
          "name": "A3",
          "midi": 57,
          "time": 69.06250000000001,
          "velocity": 0.6299212598425197,
          "duration": 0.3059895833333286
        },
        {
          "name": "C4",
          "midi": 60,
          "time": 69.06250000000001,
          "velocity": 0.6299212598425197,
          "duration": 0.3059895833333286
        },
        {
          "name": "F4",
          "midi": 65,
          "time": 69.06250000000001,
          "velocity": 0.6299212598425197,
          "duration": 0.3059895833333286
        },
        {
          "name": "F2",
          "midi": 41,
          "time": 69.37500000000001,
          "velocity": 0.7874015748031497,
          "duration": 0.3059895833333286
        },
        {
          "name": "C3",
          "midi": 48,
          "time": 69.37500000000001,
          "velocity": 0.7874015748031497,
          "duration": 0.3059895833333286
        },
        {
          "name": "F3",
          "midi": 53,
          "time": 69.37500000000001,
          "velocity": 0.7874015748031497,
          "duration": 0.3059895833333286
        },
        {
          "name": "A3",
          "midi": 57,
          "time": 69.37500000000001,
          "velocity": 0.7874015748031497,
          "duration": 0.3059895833333286
        },
        {
          "name": "C4",
          "midi": 60,
          "time": 69.37500000000001,
          "velocity": 0.7874015748031497,
          "duration": 0.3059895833333286
        },
        {
          "name": "F4",
          "midi": 65,
          "time": 69.37500000000001,
          "velocity": 0.7874015748031497,
          "duration": 0.3059895833333286
        },
        {
          "name": "F3",
          "midi": 53,
          "time": 69.53125000000001,
          "velocity": 0.5039370078740157,
          "duration": 0.3059895833333286
        },
        {
          "name": "A3",
          "midi": 57,
          "time": 69.53125000000001,
          "velocity": 0.5039370078740157,
          "duration": 0.3059895833333286
        },
        {
          "name": "C4",
          "midi": 60,
          "time": 69.53125000000001,
          "velocity": 0.5039370078740157,
          "duration": 0.3059895833333286
        },
        {
          "name": "F4",
          "midi": 65,
          "time": 69.53125000000001,
          "velocity": 0.5039370078740157,
          "duration": 0.3059895833333286
        },
        {
          "name": "F4",
          "midi": 65,
          "time": 69.68750000000001,
          "velocity": 0.4409448818897638,
          "duration": 0.1497395833333286
        },
        {
          "name": "C4",
          "midi": 60,
          "time": 69.68750000000001,
          "velocity": 0.4409448818897638,
          "duration": 0.1497395833333286
        },
        {
          "name": "A3",
          "midi": 57,
          "time": 69.68750000000001,
          "velocity": 0.4409448818897638,
          "duration": 0.1497395833333286
        },
        {
          "name": "F4",
          "midi": 65,
          "time": 69.84375000000001,
          "velocity": 0.5511811023622047,
          "duration": 0.1497395833333286
        },
        {
          "name": "C4",
          "midi": 60,
          "time": 69.84375000000001,
          "velocity": 0.5511811023622047,
          "duration": 0.1497395833333286
        },
        {
          "name": "A3",
          "midi": 57,
          "time": 69.84375000000001,
          "velocity": 0.5511811023622047,
          "duration": 0.1497395833333286
        },
        {
          "name": "F3",
          "midi": 53,
          "time": 69.84375000000001,
          "velocity": 0.5511811023622047,
          "duration": 0.1497395833333286
        },
        {
          "name": "A2",
          "midi": 45,
          "time": 70.00000000000001,
          "velocity": 0.7874015748031497,
          "duration": 0.3059895833333286
        },
        {
          "name": "E3",
          "midi": 52,
          "time": 70.00000000000001,
          "velocity": 0.7874015748031497,
          "duration": 0.3059895833333286
        },
        {
          "name": "A3",
          "midi": 57,
          "time": 70.00000000000001,
          "velocity": 0.7874015748031497,
          "duration": 0.3059895833333286
        },
        {
          "name": "C4",
          "midi": 60,
          "time": 70.00000000000001,
          "velocity": 0.7874015748031497,
          "duration": 0.3059895833333286
        },
        {
          "name": "E4",
          "midi": 64,
          "time": 70.00000000000001,
          "velocity": 0.7874015748031497,
          "duration": 0.3059895833333286
        },
        {
          "name": "A4",
          "midi": 69,
          "time": 70.00000000000001,
          "velocity": 0.7874015748031497,
          "duration": 0.3059895833333286
        },
        {
          "name": "A4",
          "midi": 69,
          "time": 70.31250000000001,
          "velocity": 0.5511811023622047,
          "duration": 0.1497395833333286
        },
        {
          "name": "E4",
          "midi": 64,
          "time": 70.31250000000001,
          "velocity": 0.5511811023622047,
          "duration": 0.1497395833333286
        },
        {
          "name": "C4",
          "midi": 60,
          "time": 70.31250000000001,
          "velocity": 0.5511811023622047,
          "duration": 0.1497395833333286
        },
        {
          "name": "A3",
          "midi": 57,
          "time": 70.31250000000001,
          "velocity": 0.5511811023622047,
          "duration": 0.1497395833333286
        },
        {
          "name": "E3",
          "midi": 52,
          "time": 70.46875000000001,
          "velocity": 0.6299212598425197,
          "duration": 0.3059895833333286
        },
        {
          "name": "A3",
          "midi": 57,
          "time": 70.46875000000001,
          "velocity": 0.6299212598425197,
          "duration": 0.3059895833333286
        },
        {
          "name": "C4",
          "midi": 60,
          "time": 70.46875000000001,
          "velocity": 0.6299212598425197,
          "duration": 0.3059895833333286
        },
        {
          "name": "E4",
          "midi": 64,
          "time": 70.46875000000001,
          "velocity": 0.6299212598425197,
          "duration": 0.3059895833333286
        },
        {
          "name": "A4",
          "midi": 69,
          "time": 70.46875000000001,
          "velocity": 0.6299212598425197,
          "duration": 0.3059895833333286
        },
        {
          "name": "A2",
          "midi": 45,
          "time": 70.62500000000001,
          "velocity": 0.6299212598425197,
          "duration": 0.3059895833333286
        },
        {
          "name": "E3",
          "midi": 52,
          "time": 70.62500000000001,
          "velocity": 0.6299212598425197,
          "duration": 0.3059895833333286
        },
        {
          "name": "A3",
          "midi": 57,
          "time": 70.62500000000001,
          "velocity": 0.6299212598425197,
          "duration": 0.3059895833333286
        },
        {
          "name": "C4",
          "midi": 60,
          "time": 70.62500000000001,
          "velocity": 0.6299212598425197,
          "duration": 0.3059895833333286
        },
        {
          "name": "E4",
          "midi": 64,
          "time": 70.62500000000001,
          "velocity": 0.6299212598425197,
          "duration": 0.3059895833333286
        },
        {
          "name": "A4",
          "midi": 69,
          "time": 70.62500000000001,
          "velocity": 0.6299212598425197,
          "duration": 0.3059895833333286
        },
        {
          "name": "A2",
          "midi": 45,
          "time": 70.93750000000001,
          "velocity": 0.7874015748031497,
          "duration": 0.3059895833333286
        },
        {
          "name": "E3",
          "midi": 52,
          "time": 70.93750000000001,
          "velocity": 0.7874015748031497,
          "duration": 0.3059895833333286
        },
        {
          "name": "A3",
          "midi": 57,
          "time": 70.93750000000001,
          "velocity": 0.7874015748031497,
          "duration": 0.3059895833333286
        },
        {
          "name": "C4",
          "midi": 60,
          "time": 70.93750000000001,
          "velocity": 0.7874015748031497,
          "duration": 0.3059895833333286
        },
        {
          "name": "E4",
          "midi": 64,
          "time": 70.93750000000001,
          "velocity": 0.7874015748031497,
          "duration": 0.3059895833333286
        },
        {
          "name": "A4",
          "midi": 69,
          "time": 70.93750000000001,
          "velocity": 0.7874015748031497,
          "duration": 0.3059895833333286
        },
        {
          "name": "A4",
          "midi": 69,
          "time": 71.25000000000001,
          "velocity": 0.5511811023622047,
          "duration": 0.1497395833333286
        },
        {
          "name": "E4",
          "midi": 64,
          "time": 71.25000000000001,
          "velocity": 0.5511811023622047,
          "duration": 0.1497395833333286
        },
        {
          "name": "C4",
          "midi": 60,
          "time": 71.25000000000001,
          "velocity": 0.5511811023622047,
          "duration": 0.1497395833333286
        },
        {
          "name": "A3",
          "midi": 57,
          "time": 71.25000000000001,
          "velocity": 0.5511811023622047,
          "duration": 0.1497395833333286
        },
        {
          "name": "E3",
          "midi": 52,
          "time": 71.40625000000001,
          "velocity": 0.6299212598425197,
          "duration": 0.3059895833333286
        },
        {
          "name": "A3",
          "midi": 57,
          "time": 71.40625000000001,
          "velocity": 0.6299212598425197,
          "duration": 0.3059895833333286
        },
        {
          "name": "C4",
          "midi": 60,
          "time": 71.40625000000001,
          "velocity": 0.6299212598425197,
          "duration": 0.3059895833333286
        },
        {
          "name": "E4",
          "midi": 64,
          "time": 71.40625000000001,
          "velocity": 0.6299212598425197,
          "duration": 0.3059895833333286
        },
        {
          "name": "A4",
          "midi": 69,
          "time": 71.40625000000001,
          "velocity": 0.8188976377952756,
          "duration": 0.3059895833333286
        },
        {
          "name": "A2",
          "midi": 45,
          "time": 71.56250000000001,
          "velocity": 0.6299212598425197,
          "duration": 0.3059895833333286
        },
        {
          "name": "E3",
          "midi": 52,
          "time": 71.56250000000001,
          "velocity": 0.6299212598425197,
          "duration": 0.3059895833333286
        },
        {
          "name": "A3",
          "midi": 57,
          "time": 71.56250000000001,
          "velocity": 0.6299212598425197,
          "duration": 0.3059895833333286
        },
        {
          "name": "C4",
          "midi": 60,
          "time": 71.56250000000001,
          "velocity": 0.6299212598425197,
          "duration": 0.3059895833333286
        },
        {
          "name": "E4",
          "midi": 64,
          "time": 71.56250000000001,
          "velocity": 0.6299212598425197,
          "duration": 0.3059895833333286
        },
        {
          "name": "A4",
          "midi": 69,
          "time": 71.56250000000001,
          "velocity": 0.6299212598425197,
          "duration": 0.3059895833333286
        },
        {
          "name": "A2",
          "midi": 45,
          "time": 71.87500000000001,
          "velocity": 0.7874015748031497,
          "duration": 0.3059895833333286
        },
        {
          "name": "E3",
          "midi": 52,
          "time": 71.87500000000001,
          "velocity": 0.7874015748031497,
          "duration": 0.3059895833333286
        },
        {
          "name": "A3",
          "midi": 57,
          "time": 71.87500000000001,
          "velocity": 0.7874015748031497,
          "duration": 0.3059895833333286
        },
        {
          "name": "C4",
          "midi": 60,
          "time": 71.87500000000001,
          "velocity": 0.7874015748031497,
          "duration": 0.3059895833333286
        },
        {
          "name": "E4",
          "midi": 64,
          "time": 71.87500000000001,
          "velocity": 0.7874015748031497,
          "duration": 0.3059895833333286
        },
        {
          "name": "A4",
          "midi": 69,
          "time": 71.87500000000001,
          "velocity": 0.7874015748031497,
          "duration": 0.3059895833333286
        },
        {
          "name": "A4",
          "midi": 69,
          "time": 72.18750000000001,
          "velocity": 0.5511811023622047,
          "duration": 0.1497395833333286
        },
        {
          "name": "E4",
          "midi": 64,
          "time": 72.18750000000001,
          "velocity": 0.5511811023622047,
          "duration": 0.1497395833333286
        },
        {
          "name": "C4",
          "midi": 60,
          "time": 72.18750000000001,
          "velocity": 0.5511811023622047,
          "duration": 0.1497395833333286
        },
        {
          "name": "A4",
          "midi": 69,
          "time": 72.34375000000001,
          "velocity": 0.5511811023622047,
          "duration": 0.1497395833333286
        },
        {
          "name": "E4",
          "midi": 64,
          "time": 72.34375000000001,
          "velocity": 0.5511811023622047,
          "duration": 0.1497395833333286
        },
        {
          "name": "C4",
          "midi": 60,
          "time": 72.34375000000001,
          "velocity": 0.5511811023622047,
          "duration": 0.1497395833333286
        },
        {
          "name": "A3",
          "midi": 57,
          "time": 72.34375000000001,
          "velocity": 0.5511811023622047,
          "duration": 0.1497395833333286
        },
        {
          "name": "F2",
          "midi": 41,
          "time": 72.50000000000001,
          "velocity": 0.7874015748031497,
          "duration": 0.3059895833333286
        },
        {
          "name": "C3",
          "midi": 48,
          "time": 72.50000000000001,
          "velocity": 0.7874015748031497,
          "duration": 0.3059895833333286
        },
        {
          "name": "F3",
          "midi": 53,
          "time": 72.50000000000001,
          "velocity": 0.7874015748031497,
          "duration": 0.3059895833333286
        },
        {
          "name": "A3",
          "midi": 57,
          "time": 72.50000000000001,
          "velocity": 0.7874015748031497,
          "duration": 0.3059895833333286
        },
        {
          "name": "C4",
          "midi": 60,
          "time": 72.50000000000001,
          "velocity": 0.7874015748031497,
          "duration": 0.3059895833333286
        },
        {
          "name": "F4",
          "midi": 65,
          "time": 72.50000000000001,
          "velocity": 0.7874015748031497,
          "duration": 0.3059895833333286
        },
        {
          "name": "F4",
          "midi": 65,
          "time": 72.81250000000001,
          "velocity": 0.5511811023622047,
          "duration": 0.1497395833333286
        },
        {
          "name": "C4",
          "midi": 60,
          "time": 72.81250000000001,
          "velocity": 0.5511811023622047,
          "duration": 0.1497395833333286
        },
        {
          "name": "A3",
          "midi": 57,
          "time": 72.81250000000001,
          "velocity": 0.5511811023622047,
          "duration": 0.1497395833333286
        },
        {
          "name": "F3",
          "midi": 53,
          "time": 72.81250000000001,
          "velocity": 0.5511811023622047,
          "duration": 0.1497395833333286
        },
        {
          "name": "C3",
          "midi": 48,
          "time": 72.96875000000001,
          "velocity": 0.6299212598425197,
          "duration": 0.3059895833333286
        },
        {
          "name": "F3",
          "midi": 53,
          "time": 72.96875000000001,
          "velocity": 0.6299212598425197,
          "duration": 0.3059895833333286
        },
        {
          "name": "A3",
          "midi": 57,
          "time": 72.96875000000001,
          "velocity": 0.6299212598425197,
          "duration": 0.3059895833333286
        },
        {
          "name": "C4",
          "midi": 60,
          "time": 72.96875000000001,
          "velocity": 0.6299212598425197,
          "duration": 0.3059895833333286
        },
        {
          "name": "F4",
          "midi": 65,
          "time": 72.96875000000001,
          "velocity": 0.7401574803149606,
          "duration": 0.3059895833333286
        },
        {
          "name": "F2",
          "midi": 41,
          "time": 73.12500000000001,
          "velocity": 0.6614173228346457,
          "duration": 0.3059895833333286
        },
        {
          "name": "C3",
          "midi": 48,
          "time": 73.12500000000001,
          "velocity": 0.6299212598425197,
          "duration": 0.3059895833333286
        },
        {
          "name": "F3",
          "midi": 53,
          "time": 73.12500000000001,
          "velocity": 0.6299212598425197,
          "duration": 0.3059895833333286
        },
        {
          "name": "A3",
          "midi": 57,
          "time": 73.12500000000001,
          "velocity": 0.6299212598425197,
          "duration": 0.3059895833333286
        },
        {
          "name": "C4",
          "midi": 60,
          "time": 73.12500000000001,
          "velocity": 0.6299212598425197,
          "duration": 0.3059895833333286
        },
        {
          "name": "F4",
          "midi": 65,
          "time": 73.12500000000001,
          "velocity": 0.6771653543307087,
          "duration": 0.3059895833333286
        },
        {
          "name": "F2",
          "midi": 41,
          "time": 73.43750000000001,
          "velocity": 0.7874015748031497,
          "duration": 0.3059895833333286
        },
        {
          "name": "C3",
          "midi": 48,
          "time": 73.43750000000001,
          "velocity": 0.7874015748031497,
          "duration": 0.3059895833333286
        },
        {
          "name": "F3",
          "midi": 53,
          "time": 73.43750000000001,
          "velocity": 0.7874015748031497,
          "duration": 0.3059895833333286
        },
        {
          "name": "A3",
          "midi": 57,
          "time": 73.43750000000001,
          "velocity": 0.7874015748031497,
          "duration": 0.3059895833333286
        },
        {
          "name": "C4",
          "midi": 60,
          "time": 73.43750000000001,
          "velocity": 0.7874015748031497,
          "duration": 0.3059895833333286
        },
        {
          "name": "F4",
          "midi": 65,
          "time": 73.43750000000001,
          "velocity": 0.7874015748031497,
          "duration": 0.3059895833333286
        },
        {
          "name": "F4",
          "midi": 65,
          "time": 73.75000000000001,
          "velocity": 0.5511811023622047,
          "duration": 0.1497395833333286
        },
        {
          "name": "C4",
          "midi": 60,
          "time": 73.75000000000001,
          "velocity": 0.5511811023622047,
          "duration": 0.1497395833333286
        },
        {
          "name": "A3",
          "midi": 57,
          "time": 73.75000000000001,
          "velocity": 0.5511811023622047,
          "duration": 0.1497395833333286
        },
        {
          "name": "F3",
          "midi": 53,
          "time": 73.75000000000001,
          "velocity": 0.5511811023622047,
          "duration": 0.1497395833333286
        },
        {
          "name": "C3",
          "midi": 48,
          "time": 73.90625000000001,
          "velocity": 0.6299212598425197,
          "duration": 0.3059895833333286
        },
        {
          "name": "F3",
          "midi": 53,
          "time": 73.90625000000001,
          "velocity": 0.6299212598425197,
          "duration": 0.3059895833333286
        },
        {
          "name": "A3",
          "midi": 57,
          "time": 73.90625000000001,
          "velocity": 0.6299212598425197,
          "duration": 0.3059895833333286
        },
        {
          "name": "C4",
          "midi": 60,
          "time": 73.90625000000001,
          "velocity": 0.6299212598425197,
          "duration": 0.3059895833333286
        },
        {
          "name": "F4",
          "midi": 65,
          "time": 73.90625000000001,
          "velocity": 0.7637795275590551,
          "duration": 0.3059895833333286
        },
        {
          "name": "F2",
          "midi": 41,
          "time": 74.06250000000001,
          "velocity": 0.6299212598425197,
          "duration": 0.3059895833333286
        },
        {
          "name": "C3",
          "midi": 48,
          "time": 74.06250000000001,
          "velocity": 0.6299212598425197,
          "duration": 0.3059895833333286
        },
        {
          "name": "F3",
          "midi": 53,
          "time": 74.06250000000001,
          "velocity": 0.6299212598425197,
          "duration": 0.3059895833333286
        },
        {
          "name": "A3",
          "midi": 57,
          "time": 74.06250000000001,
          "velocity": 0.6299212598425197,
          "duration": 0.3059895833333286
        },
        {
          "name": "C4",
          "midi": 60,
          "time": 74.06250000000001,
          "velocity": 0.6299212598425197,
          "duration": 0.3059895833333286
        },
        {
          "name": "F4",
          "midi": 65,
          "time": 74.06250000000001,
          "velocity": 0.6299212598425197,
          "duration": 0.3059895833333286
        },
        {
          "name": "F2",
          "midi": 41,
          "time": 74.37500000000001,
          "velocity": 0.7874015748031497,
          "duration": 0.3059895833333286
        },
        {
          "name": "C3",
          "midi": 48,
          "time": 74.37500000000001,
          "velocity": 0.7874015748031497,
          "duration": 0.3059895833333286
        },
        {
          "name": "F3",
          "midi": 53,
          "time": 74.37500000000001,
          "velocity": 0.7874015748031497,
          "duration": 0.3059895833333286
        },
        {
          "name": "A3",
          "midi": 57,
          "time": 74.37500000000001,
          "velocity": 0.7874015748031497,
          "duration": 0.3059895833333286
        },
        {
          "name": "C4",
          "midi": 60,
          "time": 74.37500000000001,
          "velocity": 0.7874015748031497,
          "duration": 0.3059895833333286
        },
        {
          "name": "F4",
          "midi": 65,
          "time": 74.37500000000001,
          "velocity": 0.7874015748031497,
          "duration": 0.3059895833333286
        },
        {
          "name": "F3",
          "midi": 53,
          "time": 74.53125000000001,
          "velocity": 0.5039370078740157,
          "duration": 0.3059895833333286
        },
        {
          "name": "A3",
          "midi": 57,
          "time": 74.53125000000001,
          "velocity": 0.5039370078740157,
          "duration": 0.3059895833333286
        },
        {
          "name": "C4",
          "midi": 60,
          "time": 74.53125000000001,
          "velocity": 0.5039370078740157,
          "duration": 0.3059895833333286
        },
        {
          "name": "F4",
          "midi": 65,
          "time": 74.53125000000001,
          "velocity": 0.5039370078740157,
          "duration": 0.3059895833333286
        },
        {
          "name": "F4",
          "midi": 65,
          "time": 74.68750000000001,
          "velocity": 0.4409448818897638,
          "duration": 0.1497395833333286
        },
        {
          "name": "C4",
          "midi": 60,
          "time": 74.68750000000001,
          "velocity": 0.4409448818897638,
          "duration": 0.1497395833333286
        },
        {
          "name": "A3",
          "midi": 57,
          "time": 74.68750000000001,
          "velocity": 0.4409448818897638,
          "duration": 0.1497395833333286
        },
        {
          "name": "F4",
          "midi": 65,
          "time": 74.84375000000001,
          "velocity": 0.5511811023622047,
          "duration": 0.1497395833333286
        },
        {
          "name": "C4",
          "midi": 60,
          "time": 74.84375000000001,
          "velocity": 0.5511811023622047,
          "duration": 0.1497395833333286
        },
        {
          "name": "A3",
          "midi": 57,
          "time": 74.84375000000001,
          "velocity": 0.5511811023622047,
          "duration": 0.1497395833333286
        },
        {
          "name": "F3",
          "midi": 53,
          "time": 74.84375000000001,
          "velocity": 0.5511811023622047,
          "duration": 0.1497395833333286
        },
        {
          "name": "A2",
          "midi": 45,
          "time": 75.00000000000001,
          "velocity": 0.7874015748031497,
          "duration": 0.3059895833333286
        },
        {
          "name": "E3",
          "midi": 52,
          "time": 75.00000000000001,
          "velocity": 0.7874015748031497,
          "duration": 0.3059895833333286
        },
        {
          "name": "A3",
          "midi": 57,
          "time": 75.00000000000001,
          "velocity": 0.7874015748031497,
          "duration": 0.3059895833333286
        },
        {
          "name": "C4",
          "midi": 60,
          "time": 75.00000000000001,
          "velocity": 0.7874015748031497,
          "duration": 0.3059895833333286
        },
        {
          "name": "E4",
          "midi": 64,
          "time": 75.00000000000001,
          "velocity": 0.7874015748031497,
          "duration": 0.3059895833333286
        },
        {
          "name": "A4",
          "midi": 69,
          "time": 75.00000000000001,
          "velocity": 0.7874015748031497,
          "duration": 0.3059895833333286
        },
        {
          "name": "A4",
          "midi": 69,
          "time": 75.31250000000001,
          "velocity": 0.5511811023622047,
          "duration": 0.1497395833333286
        },
        {
          "name": "E4",
          "midi": 64,
          "time": 75.31250000000001,
          "velocity": 0.5511811023622047,
          "duration": 0.1497395833333286
        },
        {
          "name": "C4",
          "midi": 60,
          "time": 75.31250000000001,
          "velocity": 0.5511811023622047,
          "duration": 0.1497395833333286
        },
        {
          "name": "A3",
          "midi": 57,
          "time": 75.31250000000001,
          "velocity": 0.5511811023622047,
          "duration": 0.1497395833333286
        },
        {
          "name": "E3",
          "midi": 52,
          "time": 75.46875000000001,
          "velocity": 0.6299212598425197,
          "duration": 0.3059895833333286
        },
        {
          "name": "A3",
          "midi": 57,
          "time": 75.46875000000001,
          "velocity": 0.6299212598425197,
          "duration": 0.3059895833333286
        },
        {
          "name": "C4",
          "midi": 60,
          "time": 75.46875000000001,
          "velocity": 0.6299212598425197,
          "duration": 0.3059895833333286
        },
        {
          "name": "E4",
          "midi": 64,
          "time": 75.46875000000001,
          "velocity": 0.6299212598425197,
          "duration": 0.3059895833333286
        },
        {
          "name": "A4",
          "midi": 69,
          "time": 75.46875000000001,
          "velocity": 0.6299212598425197,
          "duration": 0.3059895833333286
        },
        {
          "name": "A2",
          "midi": 45,
          "time": 75.62500000000001,
          "velocity": 0.6299212598425197,
          "duration": 0.3059895833333286
        },
        {
          "name": "E3",
          "midi": 52,
          "time": 75.62500000000001,
          "velocity": 0.6299212598425197,
          "duration": 0.3059895833333286
        },
        {
          "name": "A3",
          "midi": 57,
          "time": 75.62500000000001,
          "velocity": 0.6299212598425197,
          "duration": 0.3059895833333286
        },
        {
          "name": "C4",
          "midi": 60,
          "time": 75.62500000000001,
          "velocity": 0.6299212598425197,
          "duration": 0.3059895833333286
        },
        {
          "name": "E4",
          "midi": 64,
          "time": 75.62500000000001,
          "velocity": 0.6299212598425197,
          "duration": 0.3059895833333286
        },
        {
          "name": "A4",
          "midi": 69,
          "time": 75.62500000000001,
          "velocity": 0.6299212598425197,
          "duration": 0.3059895833333286
        },
        {
          "name": "A2",
          "midi": 45,
          "time": 75.93750000000001,
          "velocity": 0.7874015748031497,
          "duration": 0.3059895833333286
        },
        {
          "name": "E3",
          "midi": 52,
          "time": 75.93750000000001,
          "velocity": 0.7874015748031497,
          "duration": 0.3059895833333286
        },
        {
          "name": "A3",
          "midi": 57,
          "time": 75.93750000000001,
          "velocity": 0.7874015748031497,
          "duration": 0.3059895833333286
        },
        {
          "name": "C4",
          "midi": 60,
          "time": 75.93750000000001,
          "velocity": 0.7874015748031497,
          "duration": 0.3059895833333286
        },
        {
          "name": "E4",
          "midi": 64,
          "time": 75.93750000000001,
          "velocity": 0.7874015748031497,
          "duration": 0.3059895833333286
        },
        {
          "name": "A4",
          "midi": 69,
          "time": 75.93750000000001,
          "velocity": 0.7874015748031497,
          "duration": 0.3059895833333286
        },
        {
          "name": "A4",
          "midi": 69,
          "time": 76.25000000000001,
          "velocity": 0.5511811023622047,
          "duration": 0.1497395833333286
        },
        {
          "name": "E4",
          "midi": 64,
          "time": 76.25000000000001,
          "velocity": 0.5511811023622047,
          "duration": 0.1497395833333286
        },
        {
          "name": "C4",
          "midi": 60,
          "time": 76.25000000000001,
          "velocity": 0.5511811023622047,
          "duration": 0.1497395833333286
        },
        {
          "name": "A3",
          "midi": 57,
          "time": 76.25000000000001,
          "velocity": 0.5511811023622047,
          "duration": 0.1497395833333286
        },
        {
          "name": "E3",
          "midi": 52,
          "time": 76.40625000000001,
          "velocity": 0.6299212598425197,
          "duration": 0.3059895833333286
        },
        {
          "name": "A3",
          "midi": 57,
          "time": 76.40625000000001,
          "velocity": 0.6299212598425197,
          "duration": 0.3059895833333286
        },
        {
          "name": "C4",
          "midi": 60,
          "time": 76.40625000000001,
          "velocity": 0.6299212598425197,
          "duration": 0.3059895833333286
        },
        {
          "name": "E4",
          "midi": 64,
          "time": 76.40625000000001,
          "velocity": 0.6299212598425197,
          "duration": 0.3059895833333286
        },
        {
          "name": "A4",
          "midi": 69,
          "time": 76.40625000000001,
          "velocity": 0.6299212598425197,
          "duration": 0.3059895833333286
        },
        {
          "name": "A2",
          "midi": 45,
          "time": 76.56250000000001,
          "velocity": 0.6299212598425197,
          "duration": 0.3059895833333286
        },
        {
          "name": "E3",
          "midi": 52,
          "time": 76.56250000000001,
          "velocity": 0.6299212598425197,
          "duration": 0.3059895833333286
        },
        {
          "name": "A3",
          "midi": 57,
          "time": 76.56250000000001,
          "velocity": 0.6299212598425197,
          "duration": 0.3059895833333286
        },
        {
          "name": "C4",
          "midi": 60,
          "time": 76.56250000000001,
          "velocity": 0.6299212598425197,
          "duration": 0.3059895833333286
        },
        {
          "name": "E4",
          "midi": 64,
          "time": 76.56250000000001,
          "velocity": 0.6299212598425197,
          "duration": 0.3059895833333286
        },
        {
          "name": "A4",
          "midi": 69,
          "time": 76.56250000000001,
          "velocity": 0.6299212598425197,
          "duration": 0.3059895833333286
        },
        {
          "name": "A2",
          "midi": 45,
          "time": 76.87500000000001,
          "velocity": 0.7874015748031497,
          "duration": 0.3059895833333286
        },
        {
          "name": "E3",
          "midi": 52,
          "time": 76.87500000000001,
          "velocity": 0.7874015748031497,
          "duration": 0.3059895833333286
        },
        {
          "name": "A3",
          "midi": 57,
          "time": 76.87500000000001,
          "velocity": 0.7874015748031497,
          "duration": 0.3059895833333286
        },
        {
          "name": "C4",
          "midi": 60,
          "time": 76.87500000000001,
          "velocity": 0.7874015748031497,
          "duration": 0.3059895833333286
        },
        {
          "name": "E4",
          "midi": 64,
          "time": 76.87500000000001,
          "velocity": 0.7874015748031497,
          "duration": 0.3059895833333286
        },
        {
          "name": "A4",
          "midi": 69,
          "time": 76.87500000000001,
          "velocity": 0.7874015748031497,
          "duration": 0.3059895833333286
        },
        {
          "name": "A4",
          "midi": 69,
          "time": 77.18750000000001,
          "velocity": 0.5511811023622047,
          "duration": 0.1497395833333286
        },
        {
          "name": "E4",
          "midi": 64,
          "time": 77.18750000000001,
          "velocity": 0.5511811023622047,
          "duration": 0.1497395833333286
        },
        {
          "name": "C4",
          "midi": 60,
          "time": 77.18750000000001,
          "velocity": 0.5511811023622047,
          "duration": 0.1497395833333286
        },
        {
          "name": "A4",
          "midi": 69,
          "time": 77.34375000000001,
          "velocity": 0.5511811023622047,
          "duration": 0.1497395833333286
        },
        {
          "name": "E4",
          "midi": 64,
          "time": 77.34375000000001,
          "velocity": 0.5511811023622047,
          "duration": 0.1497395833333286
        },
        {
          "name": "C4",
          "midi": 60,
          "time": 77.34375000000001,
          "velocity": 0.5511811023622047,
          "duration": 0.1497395833333286
        },
        {
          "name": "A3",
          "midi": 57,
          "time": 77.34375000000001,
          "velocity": 0.5511811023622047,
          "duration": 0.1497395833333286
        },
        {
          "name": "F2",
          "midi": 41,
          "time": 77.50000000000001,
          "velocity": 0.7874015748031497,
          "duration": 0.3059895833333286
        },
        {
          "name": "C3",
          "midi": 48,
          "time": 77.50000000000001,
          "velocity": 0.7874015748031497,
          "duration": 0.3059895833333286
        },
        {
          "name": "F3",
          "midi": 53,
          "time": 77.50000000000001,
          "velocity": 0.7874015748031497,
          "duration": 0.3059895833333286
        },
        {
          "name": "A3",
          "midi": 57,
          "time": 77.50000000000001,
          "velocity": 0.7874015748031497,
          "duration": 0.3059895833333286
        },
        {
          "name": "C4",
          "midi": 60,
          "time": 77.50000000000001,
          "velocity": 0.7874015748031497,
          "duration": 0.3059895833333286
        },
        {
          "name": "F4",
          "midi": 65,
          "time": 77.50000000000001,
          "velocity": 0.7874015748031497,
          "duration": 0.3059895833333286
        },
        {
          "name": "F4",
          "midi": 65,
          "time": 77.81250000000001,
          "velocity": 0.5511811023622047,
          "duration": 0.1497395833333286
        },
        {
          "name": "C4",
          "midi": 60,
          "time": 77.81250000000001,
          "velocity": 0.5511811023622047,
          "duration": 0.1497395833333286
        },
        {
          "name": "A3",
          "midi": 57,
          "time": 77.81250000000001,
          "velocity": 0.5511811023622047,
          "duration": 0.1497395833333286
        },
        {
          "name": "F3",
          "midi": 53,
          "time": 77.81250000000001,
          "velocity": 0.5511811023622047,
          "duration": 0.1497395833333286
        },
        {
          "name": "C3",
          "midi": 48,
          "time": 77.96875000000001,
          "velocity": 0.6299212598425197,
          "duration": 0.3059895833333286
        },
        {
          "name": "F3",
          "midi": 53,
          "time": 77.96875000000001,
          "velocity": 0.6299212598425197,
          "duration": 0.3059895833333286
        },
        {
          "name": "A3",
          "midi": 57,
          "time": 77.96875000000001,
          "velocity": 0.6299212598425197,
          "duration": 0.3059895833333286
        },
        {
          "name": "C4",
          "midi": 60,
          "time": 77.96875000000001,
          "velocity": 0.6299212598425197,
          "duration": 0.3059895833333286
        },
        {
          "name": "F4",
          "midi": 65,
          "time": 77.96875000000001,
          "velocity": 0.6299212598425197,
          "duration": 0.3059895833333286
        },
        {
          "name": "F2",
          "midi": 41,
          "time": 78.12500000000001,
          "velocity": 0.6299212598425197,
          "duration": 0.3059895833333286
        },
        {
          "name": "C3",
          "midi": 48,
          "time": 78.12500000000001,
          "velocity": 0.6299212598425197,
          "duration": 0.3059895833333286
        },
        {
          "name": "F3",
          "midi": 53,
          "time": 78.12500000000001,
          "velocity": 0.6299212598425197,
          "duration": 0.3059895833333286
        },
        {
          "name": "A3",
          "midi": 57,
          "time": 78.12500000000001,
          "velocity": 0.6299212598425197,
          "duration": 0.3059895833333286
        },
        {
          "name": "C4",
          "midi": 60,
          "time": 78.12500000000001,
          "velocity": 0.6299212598425197,
          "duration": 0.3059895833333286
        },
        {
          "name": "F4",
          "midi": 65,
          "time": 78.12500000000001,
          "velocity": 0.6299212598425197,
          "duration": 0.3059895833333286
        },
        {
          "name": "F2",
          "midi": 41,
          "time": 78.43750000000001,
          "velocity": 0.7874015748031497,
          "duration": 0.3059895833333286
        },
        {
          "name": "C3",
          "midi": 48,
          "time": 78.43750000000001,
          "velocity": 0.7874015748031497,
          "duration": 0.3059895833333286
        },
        {
          "name": "F3",
          "midi": 53,
          "time": 78.43750000000001,
          "velocity": 0.7874015748031497,
          "duration": 0.3059895833333286
        },
        {
          "name": "A3",
          "midi": 57,
          "time": 78.43750000000001,
          "velocity": 0.7874015748031497,
          "duration": 0.3059895833333286
        },
        {
          "name": "C4",
          "midi": 60,
          "time": 78.43750000000001,
          "velocity": 0.7874015748031497,
          "duration": 0.3059895833333286
        },
        {
          "name": "F4",
          "midi": 65,
          "time": 78.43750000000001,
          "velocity": 0.7874015748031497,
          "duration": 0.3059895833333286
        },
        {
          "name": "F4",
          "midi": 65,
          "time": 78.75000000000001,
          "velocity": 0.5511811023622047,
          "duration": 0.1497395833333286
        },
        {
          "name": "C4",
          "midi": 60,
          "time": 78.75000000000001,
          "velocity": 0.5511811023622047,
          "duration": 0.1497395833333286
        },
        {
          "name": "A3",
          "midi": 57,
          "time": 78.75000000000001,
          "velocity": 0.5511811023622047,
          "duration": 0.1497395833333286
        },
        {
          "name": "F3",
          "midi": 53,
          "time": 78.75000000000001,
          "velocity": 0.5511811023622047,
          "duration": 0.1497395833333286
        },
        {
          "name": "C3",
          "midi": 48,
          "time": 78.90625000000001,
          "velocity": 0.6299212598425197,
          "duration": 0.3059895833333286
        },
        {
          "name": "F3",
          "midi": 53,
          "time": 78.90625000000001,
          "velocity": 0.6299212598425197,
          "duration": 0.3059895833333286
        },
        {
          "name": "A3",
          "midi": 57,
          "time": 78.90625000000001,
          "velocity": 0.6299212598425197,
          "duration": 0.3059895833333286
        },
        {
          "name": "C4",
          "midi": 60,
          "time": 78.90625000000001,
          "velocity": 0.6299212598425197,
          "duration": 0.3059895833333286
        },
        {
          "name": "F4",
          "midi": 65,
          "time": 78.90625000000001,
          "velocity": 0.6299212598425197,
          "duration": 0.3059895833333286
        },
        {
          "name": "F2",
          "midi": 41,
          "time": 79.06250000000001,
          "velocity": 0.6299212598425197,
          "duration": 0.3059895833333286
        },
        {
          "name": "C3",
          "midi": 48,
          "time": 79.06250000000001,
          "velocity": 0.6299212598425197,
          "duration": 0.3059895833333286
        },
        {
          "name": "F3",
          "midi": 53,
          "time": 79.06250000000001,
          "velocity": 0.6299212598425197,
          "duration": 0.3059895833333286
        },
        {
          "name": "A3",
          "midi": 57,
          "time": 79.06250000000001,
          "velocity": 0.6299212598425197,
          "duration": 0.3059895833333286
        },
        {
          "name": "C4",
          "midi": 60,
          "time": 79.06250000000001,
          "velocity": 0.6299212598425197,
          "duration": 0.3059895833333286
        },
        {
          "name": "F4",
          "midi": 65,
          "time": 79.06250000000001,
          "velocity": 0.6299212598425197,
          "duration": 0.3059895833333286
        },
        {
          "name": "F2",
          "midi": 41,
          "time": 79.37500000000001,
          "velocity": 0.7874015748031497,
          "duration": 0.3059895833333286
        },
        {
          "name": "C3",
          "midi": 48,
          "time": 79.37500000000001,
          "velocity": 0.7874015748031497,
          "duration": 0.3059895833333286
        },
        {
          "name": "F3",
          "midi": 53,
          "time": 79.37500000000001,
          "velocity": 0.7874015748031497,
          "duration": 0.3059895833333286
        },
        {
          "name": "A3",
          "midi": 57,
          "time": 79.37500000000001,
          "velocity": 0.7874015748031497,
          "duration": 0.3059895833333286
        },
        {
          "name": "C4",
          "midi": 60,
          "time": 79.37500000000001,
          "velocity": 0.7874015748031497,
          "duration": 0.3059895833333286
        },
        {
          "name": "F4",
          "midi": 65,
          "time": 79.37500000000001,
          "velocity": 0.7874015748031497,
          "duration": 0.3059895833333286
        },
        {
          "name": "F3",
          "midi": 53,
          "time": 79.53125000000001,
          "velocity": 0.5039370078740157,
          "duration": 0.3059895833333286
        },
        {
          "name": "A3",
          "midi": 57,
          "time": 79.53125000000001,
          "velocity": 0.5039370078740157,
          "duration": 0.3059895833333286
        },
        {
          "name": "C4",
          "midi": 60,
          "time": 79.53125000000001,
          "velocity": 0.5039370078740157,
          "duration": 0.3059895833333286
        },
        {
          "name": "F4",
          "midi": 65,
          "time": 79.53125000000001,
          "velocity": 0.5039370078740157,
          "duration": 0.3059895833333286
        },
        {
          "name": "F4",
          "midi": 65,
          "time": 79.68750000000001,
          "velocity": 0.4409448818897638,
          "duration": 0.1497395833333286
        },
        {
          "name": "C4",
          "midi": 60,
          "time": 79.68750000000001,
          "velocity": 0.4409448818897638,
          "duration": 0.1497395833333286
        },
        {
          "name": "A3",
          "midi": 57,
          "time": 79.68750000000001,
          "velocity": 0.4409448818897638,
          "duration": 0.1497395833333286
        },
        {
          "name": "F4",
          "midi": 65,
          "time": 79.84375000000001,
          "velocity": 0.5511811023622047,
          "duration": 0.1497395833333286
        },
        {
          "name": "C4",
          "midi": 60,
          "time": 79.84375000000001,
          "velocity": 0.5511811023622047,
          "duration": 0.1497395833333286
        },
        {
          "name": "A3",
          "midi": 57,
          "time": 79.84375000000001,
          "velocity": 0.5511811023622047,
          "duration": 0.1497395833333286
        },
        {
          "name": "F3",
          "midi": 53,
          "time": 79.84375000000001,
          "velocity": 0.5511811023622047,
          "duration": 0.1497395833333286
        },
        {
          "name": "A2",
          "midi": 45,
          "time": 80.00000000000001,
          "velocity": 0.7874015748031497,
          "duration": 0.3059895833333286
        },
        {
          "name": "E3",
          "midi": 52,
          "time": 80.00000000000001,
          "velocity": 0.7874015748031497,
          "duration": 0.3059895833333286
        },
        {
          "name": "A3",
          "midi": 57,
          "time": 80.00000000000001,
          "velocity": 0.7874015748031497,
          "duration": 0.3059895833333286
        },
        {
          "name": "C4",
          "midi": 60,
          "time": 80.00000000000001,
          "velocity": 0.7874015748031497,
          "duration": 0.3059895833333286
        },
        {
          "name": "E4",
          "midi": 64,
          "time": 80.00000000000001,
          "velocity": 0.7874015748031497,
          "duration": 0.3059895833333286
        },
        {
          "name": "A4",
          "midi": 69,
          "time": 80.00000000000001,
          "velocity": 0.7874015748031497,
          "duration": 0.3059895833333286
        },
        {
          "name": "A4",
          "midi": 69,
          "time": 80.31250000000001,
          "velocity": 0.5511811023622047,
          "duration": 0.1497395833333286
        },
        {
          "name": "E4",
          "midi": 64,
          "time": 80.31250000000001,
          "velocity": 0.5511811023622047,
          "duration": 0.1497395833333286
        },
        {
          "name": "C4",
          "midi": 60,
          "time": 80.31250000000001,
          "velocity": 0.5511811023622047,
          "duration": 0.1497395833333286
        },
        {
          "name": "A3",
          "midi": 57,
          "time": 80.31250000000001,
          "velocity": 0.5511811023622047,
          "duration": 0.1497395833333286
        },
        {
          "name": "E3",
          "midi": 52,
          "time": 80.46875000000001,
          "velocity": 0.6299212598425197,
          "duration": 0.3059895833333286
        },
        {
          "name": "A3",
          "midi": 57,
          "time": 80.46875000000001,
          "velocity": 0.6299212598425197,
          "duration": 0.3059895833333286
        },
        {
          "name": "C4",
          "midi": 60,
          "time": 80.46875000000001,
          "velocity": 0.6299212598425197,
          "duration": 0.3059895833333286
        },
        {
          "name": "E4",
          "midi": 64,
          "time": 80.46875000000001,
          "velocity": 0.6299212598425197,
          "duration": 0.3059895833333286
        },
        {
          "name": "A4",
          "midi": 69,
          "time": 80.46875000000001,
          "velocity": 0.6299212598425197,
          "duration": 0.3059895833333286
        },
        {
          "name": "A2",
          "midi": 45,
          "time": 80.62500000000001,
          "velocity": 0.6299212598425197,
          "duration": 0.3059895833333286
        },
        {
          "name": "E3",
          "midi": 52,
          "time": 80.62500000000001,
          "velocity": 0.6299212598425197,
          "duration": 0.3059895833333286
        },
        {
          "name": "A3",
          "midi": 57,
          "time": 80.62500000000001,
          "velocity": 0.6299212598425197,
          "duration": 0.3059895833333286
        },
        {
          "name": "C4",
          "midi": 60,
          "time": 80.62500000000001,
          "velocity": 0.6299212598425197,
          "duration": 0.3059895833333286
        },
        {
          "name": "E4",
          "midi": 64,
          "time": 80.62500000000001,
          "velocity": 0.6299212598425197,
          "duration": 0.3059895833333286
        },
        {
          "name": "A4",
          "midi": 69,
          "time": 80.62500000000001,
          "velocity": 0.6299212598425197,
          "duration": 0.3059895833333286
        },
        {
          "name": "A2",
          "midi": 45,
          "time": 80.93750000000001,
          "velocity": 0.7874015748031497,
          "duration": 0.3059895833333286
        },
        {
          "name": "E3",
          "midi": 52,
          "time": 80.93750000000001,
          "velocity": 0.7874015748031497,
          "duration": 0.3059895833333286
        },
        {
          "name": "A3",
          "midi": 57,
          "time": 80.93750000000001,
          "velocity": 0.7874015748031497,
          "duration": 0.3059895833333286
        },
        {
          "name": "C4",
          "midi": 60,
          "time": 80.93750000000001,
          "velocity": 0.7874015748031497,
          "duration": 0.3059895833333286
        },
        {
          "name": "E4",
          "midi": 64,
          "time": 80.93750000000001,
          "velocity": 0.7874015748031497,
          "duration": 0.3059895833333286
        },
        {
          "name": "A4",
          "midi": 69,
          "time": 80.93750000000001,
          "velocity": 0.7874015748031497,
          "duration": 0.3059895833333286
        },
        {
          "name": "A4",
          "midi": 69,
          "time": 81.25000000000001,
          "velocity": 0.5511811023622047,
          "duration": 0.1497395833333286
        },
        {
          "name": "E4",
          "midi": 64,
          "time": 81.25000000000001,
          "velocity": 0.5511811023622047,
          "duration": 0.1497395833333286
        },
        {
          "name": "C4",
          "midi": 60,
          "time": 81.25000000000001,
          "velocity": 0.5511811023622047,
          "duration": 0.1497395833333286
        },
        {
          "name": "A3",
          "midi": 57,
          "time": 81.25000000000001,
          "velocity": 0.5511811023622047,
          "duration": 0.1497395833333286
        },
        {
          "name": "E3",
          "midi": 52,
          "time": 81.40625000000001,
          "velocity": 0.6299212598425197,
          "duration": 0.3059895833333286
        },
        {
          "name": "A3",
          "midi": 57,
          "time": 81.40625000000001,
          "velocity": 0.6299212598425197,
          "duration": 0.3059895833333286
        },
        {
          "name": "C4",
          "midi": 60,
          "time": 81.40625000000001,
          "velocity": 0.6299212598425197,
          "duration": 0.3059895833333286
        },
        {
          "name": "E4",
          "midi": 64,
          "time": 81.40625000000001,
          "velocity": 0.6299212598425197,
          "duration": 0.3059895833333286
        },
        {
          "name": "A4",
          "midi": 69,
          "time": 81.40625000000001,
          "velocity": 0.8188976377952756,
          "duration": 0.3059895833333286
        },
        {
          "name": "A2",
          "midi": 45,
          "time": 81.56250000000001,
          "velocity": 0.6299212598425197,
          "duration": 0.3059895833333286
        },
        {
          "name": "E3",
          "midi": 52,
          "time": 81.56250000000001,
          "velocity": 0.6299212598425197,
          "duration": 0.3059895833333286
        },
        {
          "name": "A3",
          "midi": 57,
          "time": 81.56250000000001,
          "velocity": 0.6299212598425197,
          "duration": 0.3059895833333286
        },
        {
          "name": "C4",
          "midi": 60,
          "time": 81.56250000000001,
          "velocity": 0.6299212598425197,
          "duration": 0.3059895833333286
        },
        {
          "name": "E4",
          "midi": 64,
          "time": 81.56250000000001,
          "velocity": 0.6299212598425197,
          "duration": 0.3059895833333286
        },
        {
          "name": "A4",
          "midi": 69,
          "time": 81.56250000000001,
          "velocity": 0.6299212598425197,
          "duration": 0.3059895833333286
        },
        {
          "name": "A2",
          "midi": 45,
          "time": 81.87500000000001,
          "velocity": 0.7874015748031497,
          "duration": 0.3059895833333286
        },
        {
          "name": "E3",
          "midi": 52,
          "time": 81.87500000000001,
          "velocity": 0.7874015748031497,
          "duration": 0.3059895833333286
        },
        {
          "name": "A3",
          "midi": 57,
          "time": 81.87500000000001,
          "velocity": 0.7874015748031497,
          "duration": 0.3059895833333286
        },
        {
          "name": "C4",
          "midi": 60,
          "time": 81.87500000000001,
          "velocity": 0.7874015748031497,
          "duration": 0.3059895833333286
        },
        {
          "name": "E4",
          "midi": 64,
          "time": 81.87500000000001,
          "velocity": 0.7874015748031497,
          "duration": 0.3059895833333286
        },
        {
          "name": "A4",
          "midi": 69,
          "time": 81.87500000000001,
          "velocity": 0.7874015748031497,
          "duration": 0.3059895833333286
        },
        {
          "name": "A4",
          "midi": 69,
          "time": 82.18750000000001,
          "velocity": 0.5511811023622047,
          "duration": 0.1497395833333286
        },
        {
          "name": "E4",
          "midi": 64,
          "time": 82.18750000000001,
          "velocity": 0.5511811023622047,
          "duration": 0.1497395833333286
        },
        {
          "name": "C4",
          "midi": 60,
          "time": 82.18750000000001,
          "velocity": 0.5511811023622047,
          "duration": 0.1497395833333286
        },
        {
          "name": "A4",
          "midi": 69,
          "time": 82.34375000000001,
          "velocity": 0.5511811023622047,
          "duration": 0.1497395833333286
        },
        {
          "name": "E4",
          "midi": 64,
          "time": 82.34375000000001,
          "velocity": 0.5511811023622047,
          "duration": 0.1497395833333286
        },
        {
          "name": "C4",
          "midi": 60,
          "time": 82.34375000000001,
          "velocity": 0.5511811023622047,
          "duration": 0.1497395833333286
        },
        {
          "name": "A3",
          "midi": 57,
          "time": 82.34375000000001,
          "velocity": 0.5511811023622047,
          "duration": 0.1497395833333286
        },
        {
          "name": "F2",
          "midi": 41,
          "time": 82.50000000000001,
          "velocity": 0.7874015748031497,
          "duration": 0.3059895833333286
        },
        {
          "name": "C3",
          "midi": 48,
          "time": 82.50000000000001,
          "velocity": 0.7874015748031497,
          "duration": 0.3059895833333286
        },
        {
          "name": "F3",
          "midi": 53,
          "time": 82.50000000000001,
          "velocity": 0.7874015748031497,
          "duration": 0.3059895833333286
        },
        {
          "name": "A3",
          "midi": 57,
          "time": 82.50000000000001,
          "velocity": 0.7874015748031497,
          "duration": 0.3059895833333286
        },
        {
          "name": "C4",
          "midi": 60,
          "time": 82.50000000000001,
          "velocity": 0.7874015748031497,
          "duration": 0.3059895833333286
        },
        {
          "name": "F4",
          "midi": 65,
          "time": 82.50000000000001,
          "velocity": 0.7874015748031497,
          "duration": 0.3059895833333286
        },
        {
          "name": "F4",
          "midi": 65,
          "time": 82.81250000000001,
          "velocity": 0.5511811023622047,
          "duration": 0.1497395833333286
        },
        {
          "name": "C4",
          "midi": 60,
          "time": 82.81250000000001,
          "velocity": 0.5511811023622047,
          "duration": 0.1497395833333286
        },
        {
          "name": "A3",
          "midi": 57,
          "time": 82.81250000000001,
          "velocity": 0.5511811023622047,
          "duration": 0.1497395833333286
        },
        {
          "name": "F3",
          "midi": 53,
          "time": 82.81250000000001,
          "velocity": 0.5511811023622047,
          "duration": 0.1497395833333286
        },
        {
          "name": "C3",
          "midi": 48,
          "time": 82.96875000000001,
          "velocity": 0.6299212598425197,
          "duration": 0.3059895833333286
        },
        {
          "name": "F3",
          "midi": 53,
          "time": 82.96875000000001,
          "velocity": 0.6299212598425197,
          "duration": 0.3059895833333286
        },
        {
          "name": "A3",
          "midi": 57,
          "time": 82.96875000000001,
          "velocity": 0.6299212598425197,
          "duration": 0.3059895833333286
        },
        {
          "name": "C4",
          "midi": 60,
          "time": 82.96875000000001,
          "velocity": 0.6299212598425197,
          "duration": 0.3059895833333286
        },
        {
          "name": "F4",
          "midi": 65,
          "time": 82.96875000000001,
          "velocity": 0.7401574803149606,
          "duration": 0.3059895833333286
        },
        {
          "name": "F2",
          "midi": 41,
          "time": 83.12500000000001,
          "velocity": 0.6614173228346457,
          "duration": 0.3059895833333286
        },
        {
          "name": "C3",
          "midi": 48,
          "time": 83.12500000000001,
          "velocity": 0.6299212598425197,
          "duration": 0.3059895833333286
        },
        {
          "name": "F3",
          "midi": 53,
          "time": 83.12500000000001,
          "velocity": 0.6299212598425197,
          "duration": 0.3059895833333286
        },
        {
          "name": "A3",
          "midi": 57,
          "time": 83.12500000000001,
          "velocity": 0.6299212598425197,
          "duration": 0.3059895833333286
        },
        {
          "name": "C4",
          "midi": 60,
          "time": 83.12500000000001,
          "velocity": 0.6299212598425197,
          "duration": 0.3059895833333286
        },
        {
          "name": "F4",
          "midi": 65,
          "time": 83.12500000000001,
          "velocity": 0.6771653543307087,
          "duration": 0.3059895833333286
        },
        {
          "name": "F2",
          "midi": 41,
          "time": 83.43750000000001,
          "velocity": 0.7874015748031497,
          "duration": 0.3059895833333286
        },
        {
          "name": "C3",
          "midi": 48,
          "time": 83.43750000000001,
          "velocity": 0.7874015748031497,
          "duration": 0.3059895833333286
        },
        {
          "name": "F3",
          "midi": 53,
          "time": 83.43750000000001,
          "velocity": 0.7874015748031497,
          "duration": 0.3059895833333286
        },
        {
          "name": "A3",
          "midi": 57,
          "time": 83.43750000000001,
          "velocity": 0.7874015748031497,
          "duration": 0.3059895833333286
        },
        {
          "name": "C4",
          "midi": 60,
          "time": 83.43750000000001,
          "velocity": 0.7874015748031497,
          "duration": 0.3059895833333286
        },
        {
          "name": "F4",
          "midi": 65,
          "time": 83.43750000000001,
          "velocity": 0.7874015748031497,
          "duration": 0.3059895833333286
        },
        {
          "name": "F4",
          "midi": 65,
          "time": 83.75000000000001,
          "velocity": 0.5511811023622047,
          "duration": 0.1497395833333286
        },
        {
          "name": "C4",
          "midi": 60,
          "time": 83.75000000000001,
          "velocity": 0.5511811023622047,
          "duration": 0.1497395833333286
        },
        {
          "name": "A3",
          "midi": 57,
          "time": 83.75000000000001,
          "velocity": 0.5511811023622047,
          "duration": 0.1497395833333286
        },
        {
          "name": "F3",
          "midi": 53,
          "time": 83.75000000000001,
          "velocity": 0.5511811023622047,
          "duration": 0.1497395833333286
        },
        {
          "name": "C3",
          "midi": 48,
          "time": 83.90625000000001,
          "velocity": 0.6299212598425197,
          "duration": 0.3059895833333286
        },
        {
          "name": "F3",
          "midi": 53,
          "time": 83.90625000000001,
          "velocity": 0.6299212598425197,
          "duration": 0.3059895833333286
        },
        {
          "name": "A3",
          "midi": 57,
          "time": 83.90625000000001,
          "velocity": 0.6299212598425197,
          "duration": 0.3059895833333286
        },
        {
          "name": "C4",
          "midi": 60,
          "time": 83.90625000000001,
          "velocity": 0.6299212598425197,
          "duration": 0.3059895833333286
        },
        {
          "name": "F4",
          "midi": 65,
          "time": 83.90625000000001,
          "velocity": 0.7637795275590551,
          "duration": 0.3059895833333286
        },
        {
          "name": "F2",
          "midi": 41,
          "time": 84.06250000000001,
          "velocity": 0.6299212598425197,
          "duration": 0.3059895833333286
        },
        {
          "name": "C3",
          "midi": 48,
          "time": 84.06250000000001,
          "velocity": 0.6299212598425197,
          "duration": 0.3059895833333286
        },
        {
          "name": "F3",
          "midi": 53,
          "time": 84.06250000000001,
          "velocity": 0.6299212598425197,
          "duration": 0.3059895833333286
        },
        {
          "name": "A3",
          "midi": 57,
          "time": 84.06250000000001,
          "velocity": 0.6299212598425197,
          "duration": 0.3059895833333286
        },
        {
          "name": "C4",
          "midi": 60,
          "time": 84.06250000000001,
          "velocity": 0.6299212598425197,
          "duration": 0.3059895833333286
        },
        {
          "name": "F4",
          "midi": 65,
          "time": 84.06250000000001,
          "velocity": 0.6299212598425197,
          "duration": 0.3059895833333286
        },
        {
          "name": "F2",
          "midi": 41,
          "time": 84.37500000000001,
          "velocity": 0.7874015748031497,
          "duration": 0.3059895833333286
        },
        {
          "name": "C3",
          "midi": 48,
          "time": 84.37500000000001,
          "velocity": 0.7874015748031497,
          "duration": 0.3059895833333286
        },
        {
          "name": "F3",
          "midi": 53,
          "time": 84.37500000000001,
          "velocity": 0.7874015748031497,
          "duration": 0.3059895833333286
        },
        {
          "name": "A3",
          "midi": 57,
          "time": 84.37500000000001,
          "velocity": 0.7874015748031497,
          "duration": 0.3059895833333286
        },
        {
          "name": "C4",
          "midi": 60,
          "time": 84.37500000000001,
          "velocity": 0.7874015748031497,
          "duration": 0.3059895833333286
        },
        {
          "name": "F4",
          "midi": 65,
          "time": 84.37500000000001,
          "velocity": 0.7874015748031497,
          "duration": 0.3059895833333286
        },
        {
          "name": "F3",
          "midi": 53,
          "time": 84.53125000000001,
          "velocity": 0.5039370078740157,
          "duration": 0.3059895833333286
        },
        {
          "name": "A3",
          "midi": 57,
          "time": 84.53125000000001,
          "velocity": 0.5039370078740157,
          "duration": 0.3059895833333286
        },
        {
          "name": "C4",
          "midi": 60,
          "time": 84.53125000000001,
          "velocity": 0.5039370078740157,
          "duration": 0.3059895833333286
        },
        {
          "name": "F4",
          "midi": 65,
          "time": 84.53125000000001,
          "velocity": 0.5039370078740157,
          "duration": 0.3059895833333286
        },
        {
          "name": "F4",
          "midi": 65,
          "time": 84.68750000000001,
          "velocity": 0.4409448818897638,
          "duration": 0.1497395833333286
        },
        {
          "name": "C4",
          "midi": 60,
          "time": 84.68750000000001,
          "velocity": 0.4409448818897638,
          "duration": 0.1497395833333286
        },
        {
          "name": "A3",
          "midi": 57,
          "time": 84.68750000000001,
          "velocity": 0.4409448818897638,
          "duration": 0.1497395833333286
        },
        {
          "name": "F4",
          "midi": 65,
          "time": 84.84375000000001,
          "velocity": 0.5511811023622047,
          "duration": 0.1497395833333286
        },
        {
          "name": "C4",
          "midi": 60,
          "time": 84.84375000000001,
          "velocity": 0.5511811023622047,
          "duration": 0.1497395833333286
        },
        {
          "name": "A3",
          "midi": 57,
          "time": 84.84375000000001,
          "velocity": 0.5511811023622047,
          "duration": 0.1497395833333286
        },
        {
          "name": "F3",
          "midi": 53,
          "time": 84.84375000000001,
          "velocity": 0.5511811023622047,
          "duration": 0.1497395833333286
        },
        {
          "name": "A2",
          "midi": 45,
          "time": 85.00000000000001,
          "velocity": 0.7874015748031497,
          "duration": 0.3059895833333286
        },
        {
          "name": "E3",
          "midi": 52,
          "time": 85.00000000000001,
          "velocity": 0.7874015748031497,
          "duration": 0.3059895833333286
        },
        {
          "name": "A3",
          "midi": 57,
          "time": 85.00000000000001,
          "velocity": 0.7874015748031497,
          "duration": 0.3059895833333286
        },
        {
          "name": "C4",
          "midi": 60,
          "time": 85.00000000000001,
          "velocity": 0.7874015748031497,
          "duration": 0.3059895833333286
        },
        {
          "name": "E4",
          "midi": 64,
          "time": 85.00000000000001,
          "velocity": 0.7874015748031497,
          "duration": 0.3059895833333286
        },
        {
          "name": "A4",
          "midi": 69,
          "time": 85.00000000000001,
          "velocity": 0.7874015748031497,
          "duration": 0.3059895833333286
        },
        {
          "name": "A4",
          "midi": 69,
          "time": 85.31250000000001,
          "velocity": 0.5511811023622047,
          "duration": 0.1497395833333286
        },
        {
          "name": "E4",
          "midi": 64,
          "time": 85.31250000000001,
          "velocity": 0.5511811023622047,
          "duration": 0.1497395833333286
        },
        {
          "name": "C4",
          "midi": 60,
          "time": 85.31250000000001,
          "velocity": 0.5511811023622047,
          "duration": 0.1497395833333286
        },
        {
          "name": "A3",
          "midi": 57,
          "time": 85.31250000000001,
          "velocity": 0.5511811023622047,
          "duration": 0.1497395833333286
        },
        {
          "name": "E3",
          "midi": 52,
          "time": 85.46875000000001,
          "velocity": 0.6299212598425197,
          "duration": 0.3059895833333286
        },
        {
          "name": "A3",
          "midi": 57,
          "time": 85.46875000000001,
          "velocity": 0.6299212598425197,
          "duration": 0.3059895833333286
        },
        {
          "name": "C4",
          "midi": 60,
          "time": 85.46875000000001,
          "velocity": 0.6299212598425197,
          "duration": 0.3059895833333286
        },
        {
          "name": "E4",
          "midi": 64,
          "time": 85.46875000000001,
          "velocity": 0.6299212598425197,
          "duration": 0.3059895833333286
        },
        {
          "name": "A4",
          "midi": 69,
          "time": 85.46875000000001,
          "velocity": 0.6299212598425197,
          "duration": 0.3059895833333286
        },
        {
          "name": "A2",
          "midi": 45,
          "time": 85.62500000000001,
          "velocity": 0.6299212598425197,
          "duration": 0.3059895833333286
        },
        {
          "name": "E3",
          "midi": 52,
          "time": 85.62500000000001,
          "velocity": 0.6299212598425197,
          "duration": 0.3059895833333286
        },
        {
          "name": "A3",
          "midi": 57,
          "time": 85.62500000000001,
          "velocity": 0.6299212598425197,
          "duration": 0.3059895833333286
        },
        {
          "name": "C4",
          "midi": 60,
          "time": 85.62500000000001,
          "velocity": 0.6299212598425197,
          "duration": 0.3059895833333286
        },
        {
          "name": "E4",
          "midi": 64,
          "time": 85.62500000000001,
          "velocity": 0.6299212598425197,
          "duration": 0.3059895833333286
        },
        {
          "name": "A4",
          "midi": 69,
          "time": 85.62500000000001,
          "velocity": 0.6299212598425197,
          "duration": 0.3059895833333286
        },
        {
          "name": "A2",
          "midi": 45,
          "time": 85.93750000000001,
          "velocity": 0.7874015748031497,
          "duration": 0.3059895833333286
        },
        {
          "name": "E3",
          "midi": 52,
          "time": 85.93750000000001,
          "velocity": 0.7874015748031497,
          "duration": 0.3059895833333286
        },
        {
          "name": "A3",
          "midi": 57,
          "time": 85.93750000000001,
          "velocity": 0.7874015748031497,
          "duration": 0.3059895833333286
        },
        {
          "name": "C4",
          "midi": 60,
          "time": 85.93750000000001,
          "velocity": 0.7874015748031497,
          "duration": 0.3059895833333286
        },
        {
          "name": "E4",
          "midi": 64,
          "time": 85.93750000000001,
          "velocity": 0.7874015748031497,
          "duration": 0.3059895833333286
        },
        {
          "name": "A4",
          "midi": 69,
          "time": 85.93750000000001,
          "velocity": 0.7874015748031497,
          "duration": 0.3059895833333286
        },
        {
          "name": "A4",
          "midi": 69,
          "time": 86.25000000000001,
          "velocity": 0.5511811023622047,
          "duration": 0.1497395833333286
        },
        {
          "name": "E4",
          "midi": 64,
          "time": 86.25000000000001,
          "velocity": 0.5511811023622047,
          "duration": 0.1497395833333286
        },
        {
          "name": "C4",
          "midi": 60,
          "time": 86.25000000000001,
          "velocity": 0.5511811023622047,
          "duration": 0.1497395833333286
        },
        {
          "name": "A3",
          "midi": 57,
          "time": 86.25000000000001,
          "velocity": 0.5511811023622047,
          "duration": 0.1497395833333286
        },
        {
          "name": "E3",
          "midi": 52,
          "time": 86.40625000000001,
          "velocity": 0.6299212598425197,
          "duration": 0.3059895833333286
        },
        {
          "name": "A3",
          "midi": 57,
          "time": 86.40625000000001,
          "velocity": 0.6299212598425197,
          "duration": 0.3059895833333286
        },
        {
          "name": "C4",
          "midi": 60,
          "time": 86.40625000000001,
          "velocity": 0.6299212598425197,
          "duration": 0.3059895833333286
        },
        {
          "name": "E4",
          "midi": 64,
          "time": 86.40625000000001,
          "velocity": 0.6299212598425197,
          "duration": 0.3059895833333286
        },
        {
          "name": "A4",
          "midi": 69,
          "time": 86.40625000000001,
          "velocity": 0.6299212598425197,
          "duration": 0.3059895833333286
        },
        {
          "name": "A2",
          "midi": 45,
          "time": 86.56250000000001,
          "velocity": 0.6299212598425197,
          "duration": 0.3059895833333286
        },
        {
          "name": "E3",
          "midi": 52,
          "time": 86.56250000000001,
          "velocity": 0.6299212598425197,
          "duration": 0.3059895833333286
        },
        {
          "name": "A3",
          "midi": 57,
          "time": 86.56250000000001,
          "velocity": 0.6299212598425197,
          "duration": 0.3059895833333286
        },
        {
          "name": "C4",
          "midi": 60,
          "time": 86.56250000000001,
          "velocity": 0.6299212598425197,
          "duration": 0.3059895833333286
        },
        {
          "name": "E4",
          "midi": 64,
          "time": 86.56250000000001,
          "velocity": 0.6299212598425197,
          "duration": 0.3059895833333286
        },
        {
          "name": "A4",
          "midi": 69,
          "time": 86.56250000000001,
          "velocity": 0.6299212598425197,
          "duration": 0.3059895833333286
        },
        {
          "name": "A2",
          "midi": 45,
          "time": 86.87500000000001,
          "velocity": 0.7874015748031497,
          "duration": 0.3059895833333286
        },
        {
          "name": "E3",
          "midi": 52,
          "time": 86.87500000000001,
          "velocity": 0.7874015748031497,
          "duration": 0.3059895833333286
        },
        {
          "name": "A3",
          "midi": 57,
          "time": 86.87500000000001,
          "velocity": 0.7874015748031497,
          "duration": 0.3059895833333286
        },
        {
          "name": "C4",
          "midi": 60,
          "time": 86.87500000000001,
          "velocity": 0.7874015748031497,
          "duration": 0.3059895833333286
        },
        {
          "name": "E4",
          "midi": 64,
          "time": 86.87500000000001,
          "velocity": 0.7874015748031497,
          "duration": 0.3059895833333286
        },
        {
          "name": "A4",
          "midi": 69,
          "time": 86.87500000000001,
          "velocity": 0.7874015748031497,
          "duration": 0.3059895833333286
        },
        {
          "name": "A4",
          "midi": 69,
          "time": 87.18750000000001,
          "velocity": 0.5511811023622047,
          "duration": 0.1497395833333286
        },
        {
          "name": "E4",
          "midi": 64,
          "time": 87.18750000000001,
          "velocity": 0.5511811023622047,
          "duration": 0.1497395833333286
        },
        {
          "name": "C4",
          "midi": 60,
          "time": 87.18750000000001,
          "velocity": 0.5511811023622047,
          "duration": 0.1497395833333286
        },
        {
          "name": "A4",
          "midi": 69,
          "time": 87.34375000000001,
          "velocity": 0.5511811023622047,
          "duration": 0.1497395833333286
        },
        {
          "name": "E4",
          "midi": 64,
          "time": 87.34375000000001,
          "velocity": 0.5511811023622047,
          "duration": 0.1497395833333286
        },
        {
          "name": "C4",
          "midi": 60,
          "time": 87.34375000000001,
          "velocity": 0.5511811023622047,
          "duration": 0.1497395833333286
        },
        {
          "name": "A3",
          "midi": 57,
          "time": 87.34375000000001,
          "velocity": 0.5511811023622047,
          "duration": 0.1497395833333286
        },
        {
          "name": "F2",
          "midi": 41,
          "time": 87.50000000000001,
          "velocity": 0.7874015748031497,
          "duration": 0.3059895833333286
        },
        {
          "name": "C3",
          "midi": 48,
          "time": 87.50000000000001,
          "velocity": 0.7874015748031497,
          "duration": 0.3059895833333286
        },
        {
          "name": "F3",
          "midi": 53,
          "time": 87.50000000000001,
          "velocity": 0.7874015748031497,
          "duration": 0.3059895833333286
        },
        {
          "name": "A3",
          "midi": 57,
          "time": 87.50000000000001,
          "velocity": 0.7874015748031497,
          "duration": 0.3059895833333286
        },
        {
          "name": "C4",
          "midi": 60,
          "time": 87.50000000000001,
          "velocity": 0.7874015748031497,
          "duration": 0.3059895833333286
        },
        {
          "name": "F4",
          "midi": 65,
          "time": 87.50000000000001,
          "velocity": 0.7874015748031497,
          "duration": 0.3059895833333286
        },
        {
          "name": "F4",
          "midi": 65,
          "time": 87.81250000000001,
          "velocity": 0.5511811023622047,
          "duration": 0.1497395833333286
        },
        {
          "name": "C4",
          "midi": 60,
          "time": 87.81250000000001,
          "velocity": 0.5511811023622047,
          "duration": 0.1497395833333286
        },
        {
          "name": "A3",
          "midi": 57,
          "time": 87.81250000000001,
          "velocity": 0.5511811023622047,
          "duration": 0.1497395833333286
        },
        {
          "name": "F3",
          "midi": 53,
          "time": 87.81250000000001,
          "velocity": 0.5511811023622047,
          "duration": 0.1497395833333286
        },
        {
          "name": "C3",
          "midi": 48,
          "time": 87.96875000000001,
          "velocity": 0.6299212598425197,
          "duration": 0.3059895833333286
        },
        {
          "name": "F3",
          "midi": 53,
          "time": 87.96875000000001,
          "velocity": 0.6299212598425197,
          "duration": 0.3059895833333286
        },
        {
          "name": "A3",
          "midi": 57,
          "time": 87.96875000000001,
          "velocity": 0.6299212598425197,
          "duration": 0.3059895833333286
        },
        {
          "name": "C4",
          "midi": 60,
          "time": 87.96875000000001,
          "velocity": 0.6299212598425197,
          "duration": 0.3059895833333286
        },
        {
          "name": "F4",
          "midi": 65,
          "time": 87.96875000000001,
          "velocity": 0.6299212598425197,
          "duration": 0.3059895833333286
        },
        {
          "name": "F2",
          "midi": 41,
          "time": 88.12500000000001,
          "velocity": 0.6299212598425197,
          "duration": 0.3059895833333286
        },
        {
          "name": "C3",
          "midi": 48,
          "time": 88.12500000000001,
          "velocity": 0.6299212598425197,
          "duration": 0.3059895833333286
        },
        {
          "name": "F3",
          "midi": 53,
          "time": 88.12500000000001,
          "velocity": 0.6299212598425197,
          "duration": 0.3059895833333286
        },
        {
          "name": "A3",
          "midi": 57,
          "time": 88.12500000000001,
          "velocity": 0.6299212598425197,
          "duration": 0.3059895833333286
        },
        {
          "name": "C4",
          "midi": 60,
          "time": 88.12500000000001,
          "velocity": 0.6299212598425197,
          "duration": 0.3059895833333286
        },
        {
          "name": "F4",
          "midi": 65,
          "time": 88.12500000000001,
          "velocity": 0.6299212598425197,
          "duration": 0.3059895833333286
        },
        {
          "name": "F2",
          "midi": 41,
          "time": 88.43750000000001,
          "velocity": 0.7874015748031497,
          "duration": 0.3059895833333286
        },
        {
          "name": "C3",
          "midi": 48,
          "time": 88.43750000000001,
          "velocity": 0.7874015748031497,
          "duration": 0.3059895833333286
        },
        {
          "name": "F3",
          "midi": 53,
          "time": 88.43750000000001,
          "velocity": 0.7874015748031497,
          "duration": 0.3059895833333286
        },
        {
          "name": "A3",
          "midi": 57,
          "time": 88.43750000000001,
          "velocity": 0.7874015748031497,
          "duration": 0.3059895833333286
        },
        {
          "name": "C4",
          "midi": 60,
          "time": 88.43750000000001,
          "velocity": 0.7874015748031497,
          "duration": 0.3059895833333286
        },
        {
          "name": "F4",
          "midi": 65,
          "time": 88.43750000000001,
          "velocity": 0.7874015748031497,
          "duration": 0.3059895833333286
        },
        {
          "name": "F4",
          "midi": 65,
          "time": 88.75000000000001,
          "velocity": 0.5511811023622047,
          "duration": 0.1497395833333286
        },
        {
          "name": "C4",
          "midi": 60,
          "time": 88.75000000000001,
          "velocity": 0.5511811023622047,
          "duration": 0.1497395833333286
        },
        {
          "name": "A3",
          "midi": 57,
          "time": 88.75000000000001,
          "velocity": 0.5511811023622047,
          "duration": 0.1497395833333286
        },
        {
          "name": "F3",
          "midi": 53,
          "time": 88.75000000000001,
          "velocity": 0.5511811023622047,
          "duration": 0.1497395833333286
        },
        {
          "name": "C3",
          "midi": 48,
          "time": 88.90625000000001,
          "velocity": 0.6299212598425197,
          "duration": 0.3059895833333286
        },
        {
          "name": "F3",
          "midi": 53,
          "time": 88.90625000000001,
          "velocity": 0.6299212598425197,
          "duration": 0.3059895833333286
        },
        {
          "name": "A3",
          "midi": 57,
          "time": 88.90625000000001,
          "velocity": 0.6299212598425197,
          "duration": 0.3059895833333286
        },
        {
          "name": "C4",
          "midi": 60,
          "time": 88.90625000000001,
          "velocity": 0.6299212598425197,
          "duration": 0.3059895833333286
        },
        {
          "name": "F4",
          "midi": 65,
          "time": 88.90625000000001,
          "velocity": 0.6299212598425197,
          "duration": 0.3059895833333286
        },
        {
          "name": "F2",
          "midi": 41,
          "time": 89.06250000000001,
          "velocity": 0.6299212598425197,
          "duration": 0.3059895833333286
        },
        {
          "name": "C3",
          "midi": 48,
          "time": 89.06250000000001,
          "velocity": 0.6299212598425197,
          "duration": 0.3059895833333286
        },
        {
          "name": "F3",
          "midi": 53,
          "time": 89.06250000000001,
          "velocity": 0.6299212598425197,
          "duration": 0.3059895833333286
        },
        {
          "name": "A3",
          "midi": 57,
          "time": 89.06250000000001,
          "velocity": 0.6299212598425197,
          "duration": 0.3059895833333286
        },
        {
          "name": "C4",
          "midi": 60,
          "time": 89.06250000000001,
          "velocity": 0.6299212598425197,
          "duration": 0.3059895833333286
        },
        {
          "name": "F4",
          "midi": 65,
          "time": 89.06250000000001,
          "velocity": 0.6299212598425197,
          "duration": 0.3059895833333286
        },
        {
          "name": "F2",
          "midi": 41,
          "time": 89.37500000000001,
          "velocity": 0.7874015748031497,
          "duration": 0.3059895833333286
        },
        {
          "name": "C3",
          "midi": 48,
          "time": 89.37500000000001,
          "velocity": 0.7874015748031497,
          "duration": 0.3059895833333286
        },
        {
          "name": "F3",
          "midi": 53,
          "time": 89.37500000000001,
          "velocity": 0.7874015748031497,
          "duration": 0.3059895833333286
        },
        {
          "name": "A3",
          "midi": 57,
          "time": 89.37500000000001,
          "velocity": 0.7874015748031497,
          "duration": 0.3059895833333286
        },
        {
          "name": "C4",
          "midi": 60,
          "time": 89.37500000000001,
          "velocity": 0.7874015748031497,
          "duration": 0.3059895833333286
        },
        {
          "name": "F4",
          "midi": 65,
          "time": 89.37500000000001,
          "velocity": 0.7874015748031497,
          "duration": 0.3059895833333286
        },
        {
          "name": "F3",
          "midi": 53,
          "time": 89.53125000000001,
          "velocity": 0.5039370078740157,
          "duration": 0.3059895833333286
        },
        {
          "name": "A3",
          "midi": 57,
          "time": 89.53125000000001,
          "velocity": 0.5039370078740157,
          "duration": 0.3059895833333286
        },
        {
          "name": "C4",
          "midi": 60,
          "time": 89.53125000000001,
          "velocity": 0.5039370078740157,
          "duration": 0.3059895833333286
        },
        {
          "name": "F4",
          "midi": 65,
          "time": 89.53125000000001,
          "velocity": 0.5039370078740157,
          "duration": 0.3059895833333286
        },
        {
          "name": "F4",
          "midi": 65,
          "time": 89.68750000000001,
          "velocity": 0.4409448818897638,
          "duration": 0.1497395833333286
        },
        {
          "name": "C4",
          "midi": 60,
          "time": 89.68750000000001,
          "velocity": 0.4409448818897638,
          "duration": 0.1497395833333286
        },
        {
          "name": "A3",
          "midi": 57,
          "time": 89.68750000000001,
          "velocity": 0.4409448818897638,
          "duration": 0.1497395833333286
        },
        {
          "name": "F4",
          "midi": 65,
          "time": 89.84375000000001,
          "velocity": 0.5511811023622047,
          "duration": 0.1497395833333286
        },
        {
          "name": "C4",
          "midi": 60,
          "time": 89.84375000000001,
          "velocity": 0.5511811023622047,
          "duration": 0.1497395833333286
        },
        {
          "name": "A3",
          "midi": 57,
          "time": 89.84375000000001,
          "velocity": 0.5511811023622047,
          "duration": 0.1497395833333286
        },
        {
          "name": "F3",
          "midi": 53,
          "time": 89.84375000000001,
          "velocity": 0.5511811023622047,
          "duration": 0.1497395833333286
        },
        {
          "name": "A2",
          "midi": 45,
          "time": 90.00000000000001,
          "velocity": 0.7874015748031497,
          "duration": 0.3059895833333286
        },
        {
          "name": "E3",
          "midi": 52,
          "time": 90.00000000000001,
          "velocity": 0.7874015748031497,
          "duration": 0.3059895833333286
        },
        {
          "name": "A3",
          "midi": 57,
          "time": 90.00000000000001,
          "velocity": 0.7874015748031497,
          "duration": 0.3059895833333286
        },
        {
          "name": "C4",
          "midi": 60,
          "time": 90.00000000000001,
          "velocity": 0.7874015748031497,
          "duration": 0.3059895833333286
        },
        {
          "name": "E4",
          "midi": 64,
          "time": 90.00000000000001,
          "velocity": 0.7874015748031497,
          "duration": 0.3059895833333286
        },
        {
          "name": "A4",
          "midi": 69,
          "time": 90.00000000000001,
          "velocity": 0.7874015748031497,
          "duration": 0.3059895833333286
        },
        {
          "name": "A4",
          "midi": 69,
          "time": 90.31250000000001,
          "velocity": 0.5511811023622047,
          "duration": 0.1497395833333286
        },
        {
          "name": "E4",
          "midi": 64,
          "time": 90.31250000000001,
          "velocity": 0.5511811023622047,
          "duration": 0.1497395833333286
        },
        {
          "name": "C4",
          "midi": 60,
          "time": 90.31250000000001,
          "velocity": 0.5511811023622047,
          "duration": 0.1497395833333286
        },
        {
          "name": "A3",
          "midi": 57,
          "time": 90.31250000000001,
          "velocity": 0.5511811023622047,
          "duration": 0.1497395833333286
        },
        {
          "name": "E3",
          "midi": 52,
          "time": 90.46875000000001,
          "velocity": 0.6299212598425197,
          "duration": 0.3059895833333286
        },
        {
          "name": "A3",
          "midi": 57,
          "time": 90.46875000000001,
          "velocity": 0.6299212598425197,
          "duration": 0.3059895833333286
        },
        {
          "name": "C4",
          "midi": 60,
          "time": 90.46875000000001,
          "velocity": 0.6299212598425197,
          "duration": 0.3059895833333286
        },
        {
          "name": "E4",
          "midi": 64,
          "time": 90.46875000000001,
          "velocity": 0.6299212598425197,
          "duration": 0.3059895833333286
        },
        {
          "name": "A4",
          "midi": 69,
          "time": 90.46875000000001,
          "velocity": 0.6299212598425197,
          "duration": 0.3059895833333286
        },
        {
          "name": "A2",
          "midi": 45,
          "time": 90.62500000000001,
          "velocity": 0.6299212598425197,
          "duration": 0.3059895833333286
        },
        {
          "name": "E3",
          "midi": 52,
          "time": 90.62500000000001,
          "velocity": 0.6299212598425197,
          "duration": 0.3059895833333286
        },
        {
          "name": "A3",
          "midi": 57,
          "time": 90.62500000000001,
          "velocity": 0.6299212598425197,
          "duration": 0.3059895833333286
        },
        {
          "name": "C4",
          "midi": 60,
          "time": 90.62500000000001,
          "velocity": 0.6299212598425197,
          "duration": 0.3059895833333286
        },
        {
          "name": "E4",
          "midi": 64,
          "time": 90.62500000000001,
          "velocity": 0.6299212598425197,
          "duration": 0.3059895833333286
        },
        {
          "name": "A4",
          "midi": 69,
          "time": 90.62500000000001,
          "velocity": 0.6299212598425197,
          "duration": 0.3059895833333286
        },
        {
          "name": "A2",
          "midi": 45,
          "time": 90.93750000000001,
          "velocity": 0.7874015748031497,
          "duration": 0.3059895833333286
        },
        {
          "name": "E3",
          "midi": 52,
          "time": 90.93750000000001,
          "velocity": 0.7874015748031497,
          "duration": 0.3059895833333286
        },
        {
          "name": "A3",
          "midi": 57,
          "time": 90.93750000000001,
          "velocity": 0.7874015748031497,
          "duration": 0.3059895833333286
        },
        {
          "name": "C4",
          "midi": 60,
          "time": 90.93750000000001,
          "velocity": 0.7874015748031497,
          "duration": 0.3059895833333286
        },
        {
          "name": "E4",
          "midi": 64,
          "time": 90.93750000000001,
          "velocity": 0.7874015748031497,
          "duration": 0.3059895833333286
        },
        {
          "name": "A4",
          "midi": 69,
          "time": 90.93750000000001,
          "velocity": 0.7874015748031497,
          "duration": 0.3059895833333286
        },
        {
          "name": "A4",
          "midi": 69,
          "time": 91.25000000000001,
          "velocity": 0.5511811023622047,
          "duration": 0.1497395833333286
        },
        {
          "name": "E4",
          "midi": 64,
          "time": 91.25000000000001,
          "velocity": 0.5511811023622047,
          "duration": 0.1497395833333286
        },
        {
          "name": "C4",
          "midi": 60,
          "time": 91.25000000000001,
          "velocity": 0.5511811023622047,
          "duration": 0.1497395833333286
        },
        {
          "name": "A3",
          "midi": 57,
          "time": 91.25000000000001,
          "velocity": 0.5511811023622047,
          "duration": 0.1497395833333286
        },
        {
          "name": "E3",
          "midi": 52,
          "time": 91.40625000000001,
          "velocity": 0.6299212598425197,
          "duration": 0.3059895833333286
        },
        {
          "name": "A3",
          "midi": 57,
          "time": 91.40625000000001,
          "velocity": 0.6299212598425197,
          "duration": 0.3059895833333286
        },
        {
          "name": "C4",
          "midi": 60,
          "time": 91.40625000000001,
          "velocity": 0.6299212598425197,
          "duration": 0.3059895833333286
        },
        {
          "name": "E4",
          "midi": 64,
          "time": 91.40625000000001,
          "velocity": 0.6299212598425197,
          "duration": 0.3059895833333286
        },
        {
          "name": "A4",
          "midi": 69,
          "time": 91.40625000000001,
          "velocity": 0.8188976377952756,
          "duration": 0.3059895833333286
        },
        {
          "name": "A2",
          "midi": 45,
          "time": 91.56250000000001,
          "velocity": 0.6299212598425197,
          "duration": 0.3059895833333286
        },
        {
          "name": "E3",
          "midi": 52,
          "time": 91.56250000000001,
          "velocity": 0.6299212598425197,
          "duration": 0.3059895833333286
        },
        {
          "name": "A3",
          "midi": 57,
          "time": 91.56250000000001,
          "velocity": 0.6299212598425197,
          "duration": 0.3059895833333286
        },
        {
          "name": "C4",
          "midi": 60,
          "time": 91.56250000000001,
          "velocity": 0.6299212598425197,
          "duration": 0.3059895833333286
        },
        {
          "name": "E4",
          "midi": 64,
          "time": 91.56250000000001,
          "velocity": 0.6299212598425197,
          "duration": 0.3059895833333286
        },
        {
          "name": "A4",
          "midi": 69,
          "time": 91.56250000000001,
          "velocity": 0.6299212598425197,
          "duration": 0.3059895833333286
        },
        {
          "name": "A2",
          "midi": 45,
          "time": 91.87500000000001,
          "velocity": 0.7874015748031497,
          "duration": 0.3059895833333286
        },
        {
          "name": "E3",
          "midi": 52,
          "time": 91.87500000000001,
          "velocity": 0.7874015748031497,
          "duration": 0.3059895833333286
        },
        {
          "name": "A3",
          "midi": 57,
          "time": 91.87500000000001,
          "velocity": 0.7874015748031497,
          "duration": 0.3059895833333286
        },
        {
          "name": "C4",
          "midi": 60,
          "time": 91.87500000000001,
          "velocity": 0.7874015748031497,
          "duration": 0.3059895833333286
        },
        {
          "name": "E4",
          "midi": 64,
          "time": 91.87500000000001,
          "velocity": 0.7874015748031497,
          "duration": 0.3059895833333286
        },
        {
          "name": "A4",
          "midi": 69,
          "time": 91.87500000000001,
          "velocity": 0.7874015748031497,
          "duration": 0.3059895833333286
        },
        {
          "name": "A4",
          "midi": 69,
          "time": 92.18750000000001,
          "velocity": 0.5511811023622047,
          "duration": 0.1497395833333286
        },
        {
          "name": "E4",
          "midi": 64,
          "time": 92.18750000000001,
          "velocity": 0.5511811023622047,
          "duration": 0.1497395833333286
        },
        {
          "name": "C4",
          "midi": 60,
          "time": 92.18750000000001,
          "velocity": 0.5511811023622047,
          "duration": 0.1497395833333286
        },
        {
          "name": "A4",
          "midi": 69,
          "time": 92.34375000000001,
          "velocity": 0.5511811023622047,
          "duration": 0.1497395833333286
        },
        {
          "name": "E4",
          "midi": 64,
          "time": 92.34375000000001,
          "velocity": 0.5511811023622047,
          "duration": 0.1497395833333286
        },
        {
          "name": "C4",
          "midi": 60,
          "time": 92.34375000000001,
          "velocity": 0.5511811023622047,
          "duration": 0.1497395833333286
        },
        {
          "name": "A3",
          "midi": 57,
          "time": 92.34375000000001,
          "velocity": 0.5511811023622047,
          "duration": 0.1497395833333286
        },
        {
          "name": "F2",
          "midi": 41,
          "time": 92.50000000000001,
          "velocity": 0.7874015748031497,
          "duration": 0.3059895833333286
        },
        {
          "name": "C3",
          "midi": 48,
          "time": 92.50000000000001,
          "velocity": 0.7874015748031497,
          "duration": 0.3059895833333286
        },
        {
          "name": "F3",
          "midi": 53,
          "time": 92.50000000000001,
          "velocity": 0.7874015748031497,
          "duration": 0.3059895833333286
        },
        {
          "name": "A3",
          "midi": 57,
          "time": 92.50000000000001,
          "velocity": 0.7874015748031497,
          "duration": 0.3059895833333286
        },
        {
          "name": "C4",
          "midi": 60,
          "time": 92.50000000000001,
          "velocity": 0.7874015748031497,
          "duration": 0.3059895833333286
        },
        {
          "name": "F4",
          "midi": 65,
          "time": 92.50000000000001,
          "velocity": 0.7874015748031497,
          "duration": 0.3059895833333286
        },
        {
          "name": "F4",
          "midi": 65,
          "time": 92.81250000000001,
          "velocity": 0.5511811023622047,
          "duration": 0.1497395833333286
        },
        {
          "name": "C4",
          "midi": 60,
          "time": 92.81250000000001,
          "velocity": 0.5511811023622047,
          "duration": 0.1497395833333286
        },
        {
          "name": "A3",
          "midi": 57,
          "time": 92.81250000000001,
          "velocity": 0.5511811023622047,
          "duration": 0.1497395833333286
        },
        {
          "name": "F3",
          "midi": 53,
          "time": 92.81250000000001,
          "velocity": 0.5511811023622047,
          "duration": 0.1497395833333286
        },
        {
          "name": "C3",
          "midi": 48,
          "time": 92.96875000000001,
          "velocity": 0.6299212598425197,
          "duration": 0.3059895833333286
        },
        {
          "name": "F3",
          "midi": 53,
          "time": 92.96875000000001,
          "velocity": 0.6299212598425197,
          "duration": 0.3059895833333286
        },
        {
          "name": "A3",
          "midi": 57,
          "time": 92.96875000000001,
          "velocity": 0.6299212598425197,
          "duration": 0.3059895833333286
        },
        {
          "name": "C4",
          "midi": 60,
          "time": 92.96875000000001,
          "velocity": 0.6299212598425197,
          "duration": 0.3059895833333286
        },
        {
          "name": "F4",
          "midi": 65,
          "time": 92.96875000000001,
          "velocity": 0.7401574803149606,
          "duration": 0.3059895833333286
        },
        {
          "name": "F2",
          "midi": 41,
          "time": 93.12500000000001,
          "velocity": 0.6614173228346457,
          "duration": 0.3059895833333286
        },
        {
          "name": "C3",
          "midi": 48,
          "time": 93.12500000000001,
          "velocity": 0.6299212598425197,
          "duration": 0.3059895833333286
        },
        {
          "name": "F3",
          "midi": 53,
          "time": 93.12500000000001,
          "velocity": 0.6299212598425197,
          "duration": 0.3059895833333286
        },
        {
          "name": "A3",
          "midi": 57,
          "time": 93.12500000000001,
          "velocity": 0.6299212598425197,
          "duration": 0.3059895833333286
        },
        {
          "name": "C4",
          "midi": 60,
          "time": 93.12500000000001,
          "velocity": 0.6299212598425197,
          "duration": 0.3059895833333286
        },
        {
          "name": "F4",
          "midi": 65,
          "time": 93.12500000000001,
          "velocity": 0.6771653543307087,
          "duration": 0.3059895833333286
        },
        {
          "name": "F2",
          "midi": 41,
          "time": 93.43750000000001,
          "velocity": 0.7874015748031497,
          "duration": 0.3059895833333286
        },
        {
          "name": "C3",
          "midi": 48,
          "time": 93.43750000000001,
          "velocity": 0.7874015748031497,
          "duration": 0.3059895833333286
        },
        {
          "name": "F3",
          "midi": 53,
          "time": 93.43750000000001,
          "velocity": 0.7874015748031497,
          "duration": 0.3059895833333286
        },
        {
          "name": "A3",
          "midi": 57,
          "time": 93.43750000000001,
          "velocity": 0.7874015748031497,
          "duration": 0.3059895833333286
        },
        {
          "name": "C4",
          "midi": 60,
          "time": 93.43750000000001,
          "velocity": 0.7874015748031497,
          "duration": 0.3059895833333286
        },
        {
          "name": "F4",
          "midi": 65,
          "time": 93.43750000000001,
          "velocity": 0.7874015748031497,
          "duration": 0.3059895833333286
        },
        {
          "name": "F4",
          "midi": 65,
          "time": 93.75000000000001,
          "velocity": 0.5511811023622047,
          "duration": 0.1497395833333286
        },
        {
          "name": "C4",
          "midi": 60,
          "time": 93.75000000000001,
          "velocity": 0.5511811023622047,
          "duration": 0.1497395833333286
        },
        {
          "name": "A3",
          "midi": 57,
          "time": 93.75000000000001,
          "velocity": 0.5511811023622047,
          "duration": 0.1497395833333286
        },
        {
          "name": "F3",
          "midi": 53,
          "time": 93.75000000000001,
          "velocity": 0.5511811023622047,
          "duration": 0.1497395833333286
        },
        {
          "name": "C3",
          "midi": 48,
          "time": 93.90625000000001,
          "velocity": 0.6299212598425197,
          "duration": 0.3059895833333286
        },
        {
          "name": "F3",
          "midi": 53,
          "time": 93.90625000000001,
          "velocity": 0.6299212598425197,
          "duration": 0.3059895833333286
        },
        {
          "name": "A3",
          "midi": 57,
          "time": 93.90625000000001,
          "velocity": 0.6299212598425197,
          "duration": 0.3059895833333286
        },
        {
          "name": "C4",
          "midi": 60,
          "time": 93.90625000000001,
          "velocity": 0.6299212598425197,
          "duration": 0.3059895833333286
        },
        {
          "name": "F4",
          "midi": 65,
          "time": 93.90625000000001,
          "velocity": 0.7637795275590551,
          "duration": 0.3059895833333286
        },
        {
          "name": "F2",
          "midi": 41,
          "time": 94.06250000000001,
          "velocity": 0.6299212598425197,
          "duration": 0.3059895833333286
        },
        {
          "name": "C3",
          "midi": 48,
          "time": 94.06250000000001,
          "velocity": 0.6299212598425197,
          "duration": 0.3059895833333286
        },
        {
          "name": "F3",
          "midi": 53,
          "time": 94.06250000000001,
          "velocity": 0.6299212598425197,
          "duration": 0.3059895833333286
        },
        {
          "name": "A3",
          "midi": 57,
          "time": 94.06250000000001,
          "velocity": 0.6299212598425197,
          "duration": 0.3059895833333286
        },
        {
          "name": "C4",
          "midi": 60,
          "time": 94.06250000000001,
          "velocity": 0.6299212598425197,
          "duration": 0.3059895833333286
        },
        {
          "name": "F4",
          "midi": 65,
          "time": 94.06250000000001,
          "velocity": 0.6299212598425197,
          "duration": 0.3059895833333286
        },
        {
          "name": "F2",
          "midi": 41,
          "time": 94.37500000000001,
          "velocity": 0.7874015748031497,
          "duration": 0.3059895833333286
        },
        {
          "name": "C3",
          "midi": 48,
          "time": 94.37500000000001,
          "velocity": 0.7874015748031497,
          "duration": 0.3059895833333286
        },
        {
          "name": "F3",
          "midi": 53,
          "time": 94.37500000000001,
          "velocity": 0.7874015748031497,
          "duration": 0.3059895833333286
        },
        {
          "name": "A3",
          "midi": 57,
          "time": 94.37500000000001,
          "velocity": 0.7874015748031497,
          "duration": 0.3059895833333286
        },
        {
          "name": "C4",
          "midi": 60,
          "time": 94.37500000000001,
          "velocity": 0.7874015748031497,
          "duration": 0.3059895833333286
        },
        {
          "name": "F4",
          "midi": 65,
          "time": 94.37500000000001,
          "velocity": 0.7874015748031497,
          "duration": 0.3059895833333286
        },
        {
          "name": "F3",
          "midi": 53,
          "time": 94.53125000000001,
          "velocity": 0.5039370078740157,
          "duration": 0.3059895833333286
        },
        {
          "name": "A3",
          "midi": 57,
          "time": 94.53125000000001,
          "velocity": 0.5039370078740157,
          "duration": 0.3059895833333286
        },
        {
          "name": "C4",
          "midi": 60,
          "time": 94.53125000000001,
          "velocity": 0.5039370078740157,
          "duration": 0.3059895833333286
        },
        {
          "name": "F4",
          "midi": 65,
          "time": 94.53125000000001,
          "velocity": 0.5039370078740157,
          "duration": 0.3059895833333286
        },
        {
          "name": "F4",
          "midi": 65,
          "time": 94.68750000000001,
          "velocity": 0.4409448818897638,
          "duration": 0.1497395833333286
        },
        {
          "name": "C4",
          "midi": 60,
          "time": 94.68750000000001,
          "velocity": 0.4409448818897638,
          "duration": 0.1497395833333286
        },
        {
          "name": "A3",
          "midi": 57,
          "time": 94.68750000000001,
          "velocity": 0.4409448818897638,
          "duration": 0.1497395833333286
        },
        {
          "name": "F4",
          "midi": 65,
          "time": 94.84375000000001,
          "velocity": 0.5511811023622047,
          "duration": 0.1497395833333286
        },
        {
          "name": "C4",
          "midi": 60,
          "time": 94.84375000000001,
          "velocity": 0.5511811023622047,
          "duration": 0.1497395833333286
        },
        {
          "name": "A3",
          "midi": 57,
          "time": 94.84375000000001,
          "velocity": 0.5511811023622047,
          "duration": 0.1497395833333286
        },
        {
          "name": "F3",
          "midi": 53,
          "time": 94.84375000000001,
          "velocity": 0.5511811023622047,
          "duration": 0.1497395833333286
        },
        {
          "name": "C3",
          "midi": 48,
          "time": 95.00000000000001,
          "velocity": 0.7874015748031497,
          "duration": 0.6184895833333286
        },
        {
          "name": "G3",
          "midi": 55,
          "time": 95.00000000000001,
          "velocity": 0.7874015748031497,
          "duration": 0.6184895833333286
        },
        {
          "name": "C4",
          "midi": 60,
          "time": 95.00000000000001,
          "velocity": 0.7874015748031497,
          "duration": 0.6184895833333286
        },
        {
          "name": "E4",
          "midi": 64,
          "time": 95.00000000000001,
          "velocity": 0.7874015748031497,
          "duration": 0.6184895833333286
        },
        {
          "name": "G4",
          "midi": 67,
          "time": 95.00000000000001,
          "velocity": 0.7874015748031497,
          "duration": 0.6184895833333286
        },
        {
          "name": "C3",
          "midi": 48,
          "time": 95.62500000000001,
          "velocity": 0.7874015748031497,
          "duration": 0.6184895833333286
        },
        {
          "name": "G3",
          "midi": 55,
          "time": 95.62500000000001,
          "velocity": 0.7874015748031497,
          "duration": 0.6184895833333286
        },
        {
          "name": "C4",
          "midi": 60,
          "time": 95.62500000000001,
          "velocity": 0.7874015748031497,
          "duration": 0.6184895833333286
        },
        {
          "name": "E4",
          "midi": 64,
          "time": 95.62500000000001,
          "velocity": 0.7874015748031497,
          "duration": 0.6184895833333286
        },
        {
          "name": "G4",
          "midi": 67,
          "time": 95.62500000000001,
          "velocity": 0.7874015748031497,
          "duration": 0.6184895833333286
        },
        {
          "name": "G2",
          "midi": 43,
          "time": 96.25000000000001,
          "velocity": 0.7874015748031497,
          "duration": 0.6184895833333286
        },
        {
          "name": "D3",
          "midi": 50,
          "time": 96.25000000000001,
          "velocity": 0.7874015748031497,
          "duration": 0.6184895833333286
        },
        {
          "name": "G3",
          "midi": 55,
          "time": 96.25000000000001,
          "velocity": 0.7874015748031497,
          "duration": 0.6184895833333286
        },
        {
          "name": "B3",
          "midi": 59,
          "time": 96.25000000000001,
          "velocity": 0.7874015748031497,
          "duration": 0.6184895833333286
        },
        {
          "name": "D4",
          "midi": 62,
          "time": 96.25000000000001,
          "velocity": 0.7874015748031497,
          "duration": 0.6184895833333286
        },
        {
          "name": "G4",
          "midi": 67,
          "time": 96.25000000000001,
          "velocity": 0.7874015748031497,
          "duration": 0.6184895833333286
        },
        {
          "name": "G2",
          "midi": 43,
          "time": 96.87500000000001,
          "velocity": 0.7874015748031497,
          "duration": 0.6184895833333286
        },
        {
          "name": "D3",
          "midi": 50,
          "time": 96.87500000000001,
          "velocity": 0.7874015748031497,
          "duration": 0.6184895833333286
        },
        {
          "name": "G3",
          "midi": 55,
          "time": 96.87500000000001,
          "velocity": 0.7874015748031497,
          "duration": 0.6184895833333286
        },
        {
          "name": "B3",
          "midi": 59,
          "time": 96.87500000000001,
          "velocity": 0.7874015748031497,
          "duration": 0.6184895833333286
        },
        {
          "name": "D4",
          "midi": 62,
          "time": 96.87500000000001,
          "velocity": 0.7874015748031497,
          "duration": 0.6184895833333286
        },
        {
          "name": "G4",
          "midi": 67,
          "time": 96.87500000000001,
          "velocity": 0.7874015748031497,
          "duration": 0.6184895833333286
        },
        {
          "name": "D3",
          "midi": 50,
          "time": 97.50000000000001,
          "velocity": 0.7874015748031497,
          "duration": 0.6184895833333286
        },
        {
          "name": "A3",
          "midi": 57,
          "time": 97.50000000000001,
          "velocity": 0.7874015748031497,
          "duration": 0.6184895833333286
        },
        {
          "name": "D4",
          "midi": 62,
          "time": 97.50000000000001,
          "velocity": 0.7874015748031497,
          "duration": 0.6184895833333286
        },
        {
          "name": "F4",
          "midi": 65,
          "time": 97.50000000000001,
          "velocity": 0.7874015748031497,
          "duration": 0.6184895833333286
        },
        {
          "name": "A4",
          "midi": 69,
          "time": 97.50000000000001,
          "velocity": 0.7874015748031497,
          "duration": 0.6184895833333286
        },
        {
          "name": "D3",
          "midi": 50,
          "time": 98.12500000000001,
          "velocity": 0.7874015748031497,
          "duration": 0.6184895833333286
        },
        {
          "name": "A3",
          "midi": 57,
          "time": 98.12500000000001,
          "velocity": 0.7874015748031497,
          "duration": 0.6184895833333286
        },
        {
          "name": "D4",
          "midi": 62,
          "time": 98.12500000000001,
          "velocity": 0.7874015748031497,
          "duration": 0.6184895833333286
        },
        {
          "name": "F4",
          "midi": 65,
          "time": 98.12500000000001,
          "velocity": 0.7874015748031497,
          "duration": 0.6184895833333286
        },
        {
          "name": "A4",
          "midi": 69,
          "time": 98.12500000000001,
          "velocity": 0.7874015748031497,
          "duration": 0.6184895833333286
        },
        {
          "name": "A2",
          "midi": 45,
          "time": 98.75000000000001,
          "velocity": 0.7874015748031497,
          "duration": 0.6184895833333286
        },
        {
          "name": "E3",
          "midi": 52,
          "time": 98.75000000000001,
          "velocity": 0.7874015748031497,
          "duration": 0.6184895833333286
        },
        {
          "name": "A3",
          "midi": 57,
          "time": 98.75000000000001,
          "velocity": 0.7874015748031497,
          "duration": 0.6184895833333286
        },
        {
          "name": "C4",
          "midi": 60,
          "time": 98.75000000000001,
          "velocity": 0.7874015748031497,
          "duration": 0.6184895833333286
        },
        {
          "name": "E4",
          "midi": 64,
          "time": 98.75000000000001,
          "velocity": 0.7874015748031497,
          "duration": 0.6184895833333286
        },
        {
          "name": "A4",
          "midi": 69,
          "time": 98.75000000000001,
          "velocity": 0.7874015748031497,
          "duration": 0.6184895833333286
        },
        {
          "name": "A2",
          "midi": 45,
          "time": 99.37500000000001,
          "velocity": 0.7874015748031497,
          "duration": 0.3059895833333286
        },
        {
          "name": "E3",
          "midi": 52,
          "time": 99.37500000000001,
          "velocity": 0.7874015748031497,
          "duration": 0.3059895833333286
        },
        {
          "name": "A3",
          "midi": 57,
          "time": 99.37500000000001,
          "velocity": 0.7874015748031497,
          "duration": 0.3059895833333286
        },
        {
          "name": "C4",
          "midi": 60,
          "time": 99.37500000000001,
          "velocity": 0.7874015748031497,
          "duration": 0.3059895833333286
        },
        {
          "name": "E4",
          "midi": 64,
          "time": 99.37500000000001,
          "velocity": 0.7874015748031497,
          "duration": 0.3059895833333286
        },
        {
          "name": "A4",
          "midi": 69,
          "time": 99.37500000000001,
          "velocity": 0.7874015748031497,
          "duration": 0.3059895833333286
        },
        {
          "name": "C3",
          "midi": 48,
          "time": 100.00000000000001,
          "velocity": 0.7007874015748031,
          "duration": 0.5729166666666714
        },
        {
          "name": "C4",
          "midi": 60,
          "time": 100.00000000000001,
          "velocity": 0.6850393700787402,
          "duration": 0.5859375
        },
        {
          "name": "G3",
          "midi": 55,
          "time": 100.00000000000001,
          "velocity": 0.7952755905511811,
          "duration": 0.546875
        },
        {
          "name": "E4",
          "midi": 64,
          "time": 100.00000000000001,
          "velocity": 0.8976377952755905,
          "duration": 0.5729166666666714
        },
        {
          "name": "G4",
          "midi": 67,
          "time": 100.00000000000001,
          "velocity": 0.8976377952755905,
          "duration": 0.5533854166666714
        },
        {
          "name": "G3",
          "midi": 55,
          "time": 100.62500000000001,
          "velocity": 0.7716535433070866,
          "duration": 1.8684895833333428
        },
        {
          "name": "C3",
          "midi": 48,
          "time": 100.62500000000001,
          "velocity": 0.7716535433070866,
          "duration": 1.8684895833333428
        },
        {
          "name": "C4",
          "midi": 60,
          "time": 100.62500000000001,
          "velocity": 0.6692913385826772,
          "duration": 1.8619791666666714
        },
        {
          "name": "G4",
          "midi": 67,
          "time": 100.62500000000001,
          "velocity": 0.84251968503937,
          "duration": 1.85546875
        },
        {
          "name": "E4",
          "midi": 64,
          "time": 100.62500000000001,
          "velocity": 0.8661417322834646,
          "duration": 1.8489583333333286
        },
        {
          "name": "A3",
          "midi": 57,
          "time": 102.18098958333334,
          "velocity": 0.6141732283464567,
          "duration": 2.832031250000014
        },
        {
          "name": "D3",
          "midi": 50,
          "time": 102.18098958333334,
          "velocity": 0.7952755905511811,
          "duration": 2.727864583333343
        },
        {
          "name": "D4",
          "midi": 62,
          "time": 102.22005208333334,
          "velocity": 0.7716535433070866,
          "duration": 2.734375000000014
        },
        {
          "name": "F4",
          "midi": 65,
          "time": 102.26562500000001,
          "velocity": 0.5826771653543307,
          "duration": 2.6627604166666714
        },
        {
          "name": "A2",
          "midi": 45,
          "time": 105.00000000000003,
          "velocity": 0.6692913385826772,
          "duration": 1.4062500000000142
        },
        {
          "name": "E3",
          "midi": 52,
          "time": 105.31250000000003,
          "velocity": 0.6062992125984252,
          "duration": 0.7552083333333428
        },
        {
          "name": "B3",
          "midi": 59,
          "time": 105.62500000000003,
          "velocity": 0.6692913385826772,
          "duration": 0.3385416666666714
        },
        {
          "name": "C4",
          "midi": 60,
          "time": 105.93750000000003,
          "velocity": 0.6692913385826772,
          "duration": 0.4687500000000142
        },
        {
          "name": "F2",
          "midi": 41,
          "time": 107.50000000000004,
          "velocity": 0.6062992125984252,
          "duration": 0.9505208333333286
        },
        {
          "name": "C3",
          "midi": 48,
          "time": 107.81250000000004,
          "velocity": 0.5826771653543307,
          "duration": 0.5924479166666714
        },
        {
          "name": "G3",
          "midi": 55,
          "time": 108.12500000000004,
          "velocity": 0.7086614173228346,
          "duration": 0.2799479166666714
        },
        {
          "name": "A3",
          "midi": 57,
          "time": 108.43750000000004,
          "velocity": 0.6692913385826772,
          "duration": 0.6315104166666572
        },
        {
          "name": "D3",
          "midi": 50,
          "time": 108.43750000000004,
          "velocity": 0.6929133858267716,
          "duration": 0.5989583333333286
        },
        {
          "name": "A2",
          "midi": 45,
          "time": 110.00000000000003,
          "velocity": 0.6692913385826772,
          "duration": 1.4062500000000142
        },
        {
          "name": "E3",
          "midi": 52,
          "time": 110.31250000000003,
          "velocity": 0.6062992125984252,
          "duration": 0.7552083333333428
        },
        {
          "name": "B3",
          "midi": 59,
          "time": 110.62500000000003,
          "velocity": 0.6692913385826772,
          "duration": 0.3385416666666714
        },
        {
          "name": "C4",
          "midi": 60,
          "time": 110.93750000000003,
          "velocity": 0.6692913385826772,
          "duration": 0.4687500000000142
        },
        {
          "name": "F2",
          "midi": 41,
          "time": 112.50000000000004,
          "velocity": 0.6062992125984252,
          "duration": 0.9505208333333286
        },
        {
          "name": "C3",
          "midi": 48,
          "time": 112.81250000000004,
          "velocity": 0.5826771653543307,
          "duration": 0.5924479166666714
        },
        {
          "name": "G3",
          "midi": 55,
          "time": 113.12500000000004,
          "velocity": 0.7086614173228346,
          "duration": 0.2799479166666714
        },
        {
          "name": "A3",
          "midi": 57,
          "time": 113.43750000000004,
          "velocity": 0.6692913385826772,
          "duration": 0.6315104166666572
        },
        {
          "name": "E3",
          "midi": 52,
          "time": 113.43750000000004,
          "velocity": 0.6929133858267716,
          "duration": 0.5989583333333286
        },
        {
          "name": "A2",
          "midi": 45,
          "time": 115.00000000000003,
          "velocity": 0.6692913385826772,
          "duration": 1.4062500000000142
        },
        {
          "name": "E3",
          "midi": 52,
          "time": 115.31250000000003,
          "velocity": 0.6062992125984252,
          "duration": 0.7552083333333428
        },
        {
          "name": "B3",
          "midi": 59,
          "time": 115.62500000000003,
          "velocity": 0.6692913385826772,
          "duration": 0.3385416666666714
        },
        {
          "name": "C4",
          "midi": 60,
          "time": 115.93750000000003,
          "velocity": 0.6692913385826772,
          "duration": 0.4687500000000142
        },
        {
          "name": "F2",
          "midi": 41,
          "time": 117.50000000000004,
          "velocity": 0.6062992125984252,
          "duration": 0.9505208333333286
        },
        {
          "name": "C3",
          "midi": 48,
          "time": 117.81250000000004,
          "velocity": 0.5826771653543307,
          "duration": 0.5924479166666714
        },
        {
          "name": "G3",
          "midi": 55,
          "time": 118.12500000000004,
          "velocity": 0.7086614173228346,
          "duration": 0.2799479166666714
        },
        {
          "name": "A3",
          "midi": 57,
          "time": 118.43750000000004,
          "velocity": 0.6692913385826772,
          "duration": 0.6315104166666572
        },
        {
          "name": "D3",
          "midi": 50,
          "time": 118.43750000000004,
          "velocity": 0.6929133858267716,
          "duration": 0.5989583333333286
        },
        {
          "name": "A2",
          "midi": 45,
          "time": 120.00000000000003,
          "velocity": 0.6692913385826772,
          "duration": 1.4062500000000142
        },
        {
          "name": "E3",
          "midi": 52,
          "time": 120.31250000000003,
          "velocity": 0.6062992125984252,
          "duration": 0.7552083333333428
        },
        {
          "name": "B3",
          "midi": 59,
          "time": 120.62500000000003,
          "velocity": 0.6692913385826772,
          "duration": 0.3385416666666714
        },
        {
          "name": "C4",
          "midi": 60,
          "time": 120.93750000000003,
          "velocity": 0.6692913385826772,
          "duration": 0.4687500000000142
        },
        {
          "name": "F2",
          "midi": 41,
          "time": 122.50000000000004,
          "velocity": 0.6062992125984252,
          "duration": 0.9505208333333286
        },
        {
          "name": "C3",
          "midi": 48,
          "time": 122.81250000000004,
          "velocity": 0.5826771653543307,
          "duration": 0.5924479166666714
        },
        {
          "name": "G3",
          "midi": 55,
          "time": 123.12500000000004,
          "velocity": 0.7086614173228346,
          "duration": 0.2799479166666714
        },
        {
          "name": "A3",
          "midi": 57,
          "time": 123.43750000000004,
          "velocity": 0.6692913385826772,
          "duration": 0.6315104166666572
        },
        {
          "name": "E3",
          "midi": 52,
          "time": 123.43750000000004,
          "velocity": 0.6929133858267716,
          "duration": 0.5989583333333286
        },
        {
          "name": "E3",
          "midi": 52,
          "time": 125.00000000000003,
          "velocity": 0.5826771653543307,
          "duration": 0.3059895833333286
        },
        {
          "name": "C3",
          "midi": 48,
          "time": 125.00000000000003,
          "velocity": 0.6456692913385826,
          "duration": 0.3059895833333286
        },
        {
          "name": "G3",
          "midi": 55,
          "time": 125.31250000000003,
          "velocity": 0.6062992125984252,
          "duration": 0.3059895833333286
        },
        {
          "name": "C4",
          "midi": 60,
          "time": 125.62500000000003,
          "velocity": 0.5275590551181102,
          "duration": 0.3059895833333286
        },
        {
          "name": "G3",
          "midi": 55,
          "time": 125.93750000000003,
          "velocity": 0.3700787401574803,
          "duration": 0.3059895833333286
        },
        {
          "name": "G2",
          "midi": 43,
          "time": 126.25000000000003,
          "velocity": 0.6456692913385826,
          "duration": 0.3059895833333286
        },
        {
          "name": "B2",
          "midi": 47,
          "time": 126.56250000000003,
          "velocity": 0.5826771653543307,
          "duration": 0.3059895833333286
        },
        {
          "name": "G3",
          "midi": 55,
          "time": 126.87500000000003,
          "velocity": 0.6929133858267716,
          "duration": 0.3059895833333286
        },
        {
          "name": "D4",
          "midi": 62,
          "time": 126.87500000000003,
          "velocity": 0.7086614173228346,
          "duration": 0.3059895833333286
        },
        {
          "name": "G3",
          "midi": 55,
          "time": 127.18750000000003,
          "velocity": 0.4566929133858268,
          "duration": 0.3059895833333286
        },
        {
          "name": "C3",
          "midi": 48,
          "time": 127.50000000000003,
          "velocity": 0.6692913385826772,
          "duration": 0.3059895833333286
        },
        {
          "name": "F3",
          "midi": 53,
          "time": 127.50000000000003,
          "velocity": 0.6692913385826772,
          "duration": 0.3059895833333286
        },
        {
          "name": "A3",
          "midi": 57,
          "time": 127.81250000000003,
          "velocity": 0.5590551181102362,
          "duration": 0.3059895833333428
        },
        {
          "name": "C4",
          "midi": 60,
          "time": 128.12500000000003,
          "velocity": 0.7322834645669292,
          "duration": 0.3059895833333428
        },
        {
          "name": "F4",
          "midi": 65,
          "time": 128.12500000000003,
          "velocity": 0.6692913385826772,
          "duration": 0.3059895833333428
        },
        {
          "name": "A3",
          "midi": 57,
          "time": 128.43750000000003,
          "velocity": 0.6141732283464567,
          "duration": 0.3059895833333428
        },
        {
          "name": "D3",
          "midi": 50,
          "time": 128.75000000000003,
          "velocity": 0.7086614173228346,
          "duration": 0.3059895833333428
        },
        {
          "name": "A3",
          "midi": 57,
          "time": 129.06250000000003,
          "velocity": 0.6062992125984252,
          "duration": 0.3059895833333428
        },
        {
          "name": "D4",
          "midi": 62,
          "time": 129.37500000000003,
          "velocity": 0.6692913385826772,
          "duration": 0.3059895833333428
        },
        {
          "name": "F4",
          "midi": 65,
          "time": 129.37500000000003,
          "velocity": 0.6141732283464567,
          "duration": 0.3059895833333428
        },
        {
          "name": "A2",
          "midi": 45,
          "time": 130.00000000000003,
          "velocity": 0.6692913385826772,
          "duration": 1.4062499999999716
        },
        {
          "name": "E3",
          "midi": 52,
          "time": 130.31250000000003,
          "velocity": 0.6062992125984252,
          "duration": 0.7552083333333144
        },
        {
          "name": "B3",
          "midi": 59,
          "time": 130.62500000000003,
          "velocity": 0.6692913385826772,
          "duration": 0.3385416666666572
        },
        {
          "name": "C4",
          "midi": 60,
          "time": 130.93750000000003,
          "velocity": 0.6692913385826772,
          "duration": 0.4687499999999716
        },
        {
          "name": "F2",
          "midi": 41,
          "time": 132.5,
          "velocity": 0.6062992125984252,
          "duration": 0.9505208333333428
        },
        {
          "name": "C3",
          "midi": 48,
          "time": 132.8125,
          "velocity": 0.5826771653543307,
          "duration": 0.5924479166666572
        },
        {
          "name": "G3",
          "midi": 55,
          "time": 133.125,
          "velocity": 0.7086614173228346,
          "duration": 0.2799479166666572
        },
        {
          "name": "A3",
          "midi": 57,
          "time": 133.4375,
          "velocity": 0.6692913385826772,
          "duration": 0.6315104166666856
        },
        {
          "name": "D3",
          "midi": 50,
          "time": 133.4375,
          "velocity": 0.6929133858267716,
          "duration": 0.5989583333333428
        },
        {
          "name": "A2",
          "midi": 45,
          "time": 135.00000000000003,
          "velocity": 0.6692913385826772,
          "duration": 1.4062499999999716
        },
        {
          "name": "E3",
          "midi": 52,
          "time": 135.31250000000003,
          "velocity": 0.6062992125984252,
          "duration": 0.7552083333333144
        },
        {
          "name": "B3",
          "midi": 59,
          "time": 135.62500000000003,
          "velocity": 0.6692913385826772,
          "duration": 0.3385416666666572
        },
        {
          "name": "C4",
          "midi": 60,
          "time": 135.93750000000003,
          "velocity": 0.6692913385826772,
          "duration": 0.4687499999999716
        },
        {
          "name": "F2",
          "midi": 41,
          "time": 137.5,
          "velocity": 0.6062992125984252,
          "duration": 0.9505208333333428
        },
        {
          "name": "C3",
          "midi": 48,
          "time": 137.8125,
          "velocity": 0.5826771653543307,
          "duration": 0.5924479166666572
        },
        {
          "name": "G3",
          "midi": 55,
          "time": 138.125,
          "velocity": 0.7086614173228346,
          "duration": 0.2799479166666572
        },
        {
          "name": "A3",
          "midi": 57,
          "time": 138.4375,
          "velocity": 0.6692913385826772,
          "duration": 0.6315104166666856
        },
        {
          "name": "E3",
          "midi": 52,
          "time": 138.4375,
          "velocity": 0.6929133858267716,
          "duration": 0.5989583333333428
        },
        {
          "name": "A2",
          "midi": 45,
          "time": 140.00000000000003,
          "velocity": 0.6692913385826772,
          "duration": 1.4062499999999716
        },
        {
          "name": "E3",
          "midi": 52,
          "time": 140.31250000000003,
          "velocity": 0.6062992125984252,
          "duration": 0.7552083333333144
        },
        {
          "name": "B3",
          "midi": 59,
          "time": 140.62500000000003,
          "velocity": 0.6692913385826772,
          "duration": 0.3385416666666572
        },
        {
          "name": "C4",
          "midi": 60,
          "time": 140.93750000000003,
          "velocity": 0.6692913385826772,
          "duration": 0.4687499999999716
        },
        {
          "name": "F2",
          "midi": 41,
          "time": 142.5,
          "velocity": 0.6062992125984252,
          "duration": 0.9505208333333428
        },
        {
          "name": "C3",
          "midi": 48,
          "time": 142.8125,
          "velocity": 0.5826771653543307,
          "duration": 0.5924479166666572
        },
        {
          "name": "G3",
          "midi": 55,
          "time": 143.125,
          "velocity": 0.7086614173228346,
          "duration": 0.2799479166666572
        },
        {
          "name": "A3",
          "midi": 57,
          "time": 143.4375,
          "velocity": 0.6692913385826772,
          "duration": 0.6315104166666856
        },
        {
          "name": "D3",
          "midi": 50,
          "time": 143.4375,
          "velocity": 0.6929133858267716,
          "duration": 0.5989583333333428
        },
        {
          "name": "A2",
          "midi": 45,
          "time": 145.00000000000003,
          "velocity": 0.6692913385826772,
          "duration": 1.4062499999999716
        },
        {
          "name": "E3",
          "midi": 52,
          "time": 145.31250000000003,
          "velocity": 0.6062992125984252,
          "duration": 0.7552083333333144
        },
        {
          "name": "B3",
          "midi": 59,
          "time": 145.62500000000003,
          "velocity": 0.6692913385826772,
          "duration": 0.3385416666666572
        },
        {
          "name": "C4",
          "midi": 60,
          "time": 145.93750000000003,
          "velocity": 0.6692913385826772,
          "duration": 0.4687499999999716
        },
        {
          "name": "F2",
          "midi": 41,
          "time": 147.5,
          "velocity": 0.6062992125984252,
          "duration": 0.9505208333333428
        },
        {
          "name": "C3",
          "midi": 48,
          "time": 147.8125,
          "velocity": 0.5826771653543307,
          "duration": 0.5924479166666572
        },
        {
          "name": "G3",
          "midi": 55,
          "time": 148.125,
          "velocity": 0.7086614173228346,
          "duration": 0.2799479166666572
        },
        {
          "name": "A3",
          "midi": 57,
          "time": 148.4375,
          "velocity": 0.6692913385826772,
          "duration": 0.6315104166666856
        },
        {
          "name": "E3",
          "midi": 52,
          "time": 148.4375,
          "velocity": 0.6929133858267716,
          "duration": 0.5989583333333428
        },
        {
          "name": "E3",
          "midi": 52,
          "time": 150.00000000000003,
          "velocity": 0.5826771653543307,
          "duration": 0.3059895833333428
        },
        {
          "name": "C3",
          "midi": 48,
          "time": 150.00000000000003,
          "velocity": 0.6456692913385826,
          "duration": 0.3059895833333428
        },
        {
          "name": "G3",
          "midi": 55,
          "time": 150.31250000000003,
          "velocity": 0.6062992125984252,
          "duration": 0.3059895833333428
        },
        {
          "name": "C4",
          "midi": 60,
          "time": 150.62500000000003,
          "velocity": 0.5275590551181102,
          "duration": 0.3059895833333428
        },
        {
          "name": "G3",
          "midi": 55,
          "time": 150.93750000000003,
          "velocity": 0.3700787401574803,
          "duration": 0.3059895833333428
        },
        {
          "name": "G2",
          "midi": 43,
          "time": 151.25000000000003,
          "velocity": 0.6456692913385826,
          "duration": 0.3059895833333428
        },
        {
          "name": "B2",
          "midi": 47,
          "time": 151.56250000000003,
          "velocity": 0.5826771653543307,
          "duration": 0.3059895833333428
        },
        {
          "name": "G3",
          "midi": 55,
          "time": 151.87500000000003,
          "velocity": 0.6929133858267716,
          "duration": 0.3059895833333428
        },
        {
          "name": "D4",
          "midi": 62,
          "time": 151.87500000000003,
          "velocity": 0.7086614173228346,
          "duration": 0.3059895833333428
        },
        {
          "name": "G3",
          "midi": 55,
          "time": 152.18750000000003,
          "velocity": 0.4566929133858268,
          "duration": 0.3059895833333428
        },
        {
          "name": "F3",
          "midi": 53,
          "time": 152.50000000000003,
          "velocity": 0.6692913385826772,
          "duration": 0.3059895833333428
        },
        {
          "name": "C3",
          "midi": 48,
          "time": 152.50000000000003,
          "velocity": 0.6692913385826772,
          "duration": 0.3059895833333428
        },
        {
          "name": "A3",
          "midi": 57,
          "time": 152.81250000000003,
          "velocity": 0.4881889763779528,
          "duration": 0.3059895833333428
        },
        {
          "name": "C4",
          "midi": 60,
          "time": 153.12500000000003,
          "velocity": 0.6377952755905512,
          "duration": 0.3059895833333428
        },
        {
          "name": "F4",
          "midi": 65,
          "time": 153.12500000000003,
          "velocity": 0.5826771653543307,
          "duration": 0.3059895833333428
        },
        {
          "name": "A3",
          "midi": 57,
          "time": 153.43750000000003,
          "velocity": 0.5354330708661418,
          "duration": 0.3059895833333428
        },
        {
          "name": "D3",
          "midi": 50,
          "time": 153.75000000000003,
          "velocity": 0.6220472440944882,
          "duration": 0.3059895833333428
        },
        {
          "name": "A3",
          "midi": 57,
          "time": 154.06250000000003,
          "velocity": 0.5275590551181102,
          "duration": 0.3059895833333428
        },
        {
          "name": "D4",
          "midi": 62,
          "time": 154.37500000000003,
          "velocity": 0.5826771653543307,
          "duration": 0.3059895833333428
        },
        {
          "name": "F4",
          "midi": 65,
          "time": 154.37500000000003,
          "velocity": 0.5354330708661418,
          "duration": 0.3059895833333428
        },
        {
          "name": "A2",
          "midi": 45,
          "time": 155.00000000000003,
          "velocity": 0.7874015748031497,
          "duration": 0.3059895833333428
        },
        {
          "name": "E3",
          "midi": 52,
          "time": 155.00000000000003,
          "velocity": 0.7874015748031497,
          "duration": 0.3059895833333428
        },
        {
          "name": "A3",
          "midi": 57,
          "time": 155.00000000000003,
          "velocity": 0.7874015748031497,
          "duration": 0.3059895833333428
        },
        {
          "name": "C4",
          "midi": 60,
          "time": 155.00000000000003,
          "velocity": 0.7874015748031497,
          "duration": 0.3059895833333428
        },
        {
          "name": "E4",
          "midi": 64,
          "time": 155.00000000000003,
          "velocity": 0.7874015748031497,
          "duration": 0.3059895833333428
        },
        {
          "name": "A4",
          "midi": 69,
          "time": 155.00000000000003,
          "velocity": 0.7874015748031497,
          "duration": 0.3059895833333428
        },
        {
          "name": "A4",
          "midi": 69,
          "time": 155.31250000000003,
          "velocity": 0.5511811023622047,
          "duration": 0.1497395833333428
        },
        {
          "name": "E4",
          "midi": 64,
          "time": 155.31250000000003,
          "velocity": 0.5511811023622047,
          "duration": 0.1497395833333428
        },
        {
          "name": "C4",
          "midi": 60,
          "time": 155.31250000000003,
          "velocity": 0.5511811023622047,
          "duration": 0.1497395833333428
        },
        {
          "name": "A3",
          "midi": 57,
          "time": 155.31250000000003,
          "velocity": 0.5511811023622047,
          "duration": 0.1497395833333428
        },
        {
          "name": "E3",
          "midi": 52,
          "time": 155.46875000000003,
          "velocity": 0.6299212598425197,
          "duration": 0.3059895833333428
        },
        {
          "name": "A3",
          "midi": 57,
          "time": 155.46875000000003,
          "velocity": 0.6299212598425197,
          "duration": 0.3059895833333428
        },
        {
          "name": "C4",
          "midi": 60,
          "time": 155.46875000000003,
          "velocity": 0.6299212598425197,
          "duration": 0.3059895833333428
        },
        {
          "name": "E4",
          "midi": 64,
          "time": 155.46875000000003,
          "velocity": 0.6299212598425197,
          "duration": 0.3059895833333428
        },
        {
          "name": "A4",
          "midi": 69,
          "time": 155.46875000000003,
          "velocity": 0.6299212598425197,
          "duration": 0.3059895833333428
        },
        {
          "name": "A2",
          "midi": 45,
          "time": 155.62500000000003,
          "velocity": 0.6299212598425197,
          "duration": 0.3059895833333428
        },
        {
          "name": "E3",
          "midi": 52,
          "time": 155.62500000000003,
          "velocity": 0.6299212598425197,
          "duration": 0.3059895833333428
        },
        {
          "name": "A3",
          "midi": 57,
          "time": 155.62500000000003,
          "velocity": 0.6299212598425197,
          "duration": 0.3059895833333428
        },
        {
          "name": "C4",
          "midi": 60,
          "time": 155.62500000000003,
          "velocity": 0.6299212598425197,
          "duration": 0.3059895833333428
        },
        {
          "name": "E4",
          "midi": 64,
          "time": 155.62500000000003,
          "velocity": 0.6299212598425197,
          "duration": 0.3059895833333428
        },
        {
          "name": "A4",
          "midi": 69,
          "time": 155.62500000000003,
          "velocity": 0.6299212598425197,
          "duration": 0.3059895833333428
        },
        {
          "name": "A2",
          "midi": 45,
          "time": 155.93750000000003,
          "velocity": 0.7874015748031497,
          "duration": 0.3059895833333428
        },
        {
          "name": "E3",
          "midi": 52,
          "time": 155.93750000000003,
          "velocity": 0.7874015748031497,
          "duration": 0.3059895833333428
        },
        {
          "name": "A3",
          "midi": 57,
          "time": 155.93750000000003,
          "velocity": 0.7874015748031497,
          "duration": 0.3059895833333428
        },
        {
          "name": "C4",
          "midi": 60,
          "time": 155.93750000000003,
          "velocity": 0.7874015748031497,
          "duration": 0.3059895833333428
        },
        {
          "name": "E4",
          "midi": 64,
          "time": 155.93750000000003,
          "velocity": 0.7874015748031497,
          "duration": 0.3059895833333428
        },
        {
          "name": "A4",
          "midi": 69,
          "time": 155.93750000000003,
          "velocity": 0.7874015748031497,
          "duration": 0.3059895833333428
        },
        {
          "name": "A4",
          "midi": 69,
          "time": 156.25000000000003,
          "velocity": 0.5511811023622047,
          "duration": 0.1497395833333428
        },
        {
          "name": "E4",
          "midi": 64,
          "time": 156.25000000000003,
          "velocity": 0.5511811023622047,
          "duration": 0.1497395833333428
        },
        {
          "name": "C4",
          "midi": 60,
          "time": 156.25000000000003,
          "velocity": 0.5511811023622047,
          "duration": 0.1497395833333428
        },
        {
          "name": "A3",
          "midi": 57,
          "time": 156.25000000000003,
          "velocity": 0.5511811023622047,
          "duration": 0.1497395833333428
        },
        {
          "name": "E3",
          "midi": 52,
          "time": 156.40625000000003,
          "velocity": 0.6299212598425197,
          "duration": 0.3059895833333428
        },
        {
          "name": "A3",
          "midi": 57,
          "time": 156.40625000000003,
          "velocity": 0.6299212598425197,
          "duration": 0.3059895833333428
        },
        {
          "name": "C4",
          "midi": 60,
          "time": 156.40625000000003,
          "velocity": 0.6299212598425197,
          "duration": 0.3059895833333428
        },
        {
          "name": "E4",
          "midi": 64,
          "time": 156.40625000000003,
          "velocity": 0.6299212598425197,
          "duration": 0.3059895833333428
        },
        {
          "name": "A4",
          "midi": 69,
          "time": 156.40625000000003,
          "velocity": 0.6299212598425197,
          "duration": 0.3059895833333428
        },
        {
          "name": "A2",
          "midi": 45,
          "time": 156.56250000000003,
          "velocity": 0.6299212598425197,
          "duration": 0.3059895833333428
        },
        {
          "name": "E3",
          "midi": 52,
          "time": 156.56250000000003,
          "velocity": 0.6299212598425197,
          "duration": 0.3059895833333428
        },
        {
          "name": "A3",
          "midi": 57,
          "time": 156.56250000000003,
          "velocity": 0.6299212598425197,
          "duration": 0.3059895833333428
        },
        {
          "name": "C4",
          "midi": 60,
          "time": 156.56250000000003,
          "velocity": 0.6299212598425197,
          "duration": 0.3059895833333428
        },
        {
          "name": "E4",
          "midi": 64,
          "time": 156.56250000000003,
          "velocity": 0.6299212598425197,
          "duration": 0.3059895833333428
        },
        {
          "name": "A4",
          "midi": 69,
          "time": 156.56250000000003,
          "velocity": 0.6299212598425197,
          "duration": 0.3059895833333428
        },
        {
          "name": "A2",
          "midi": 45,
          "time": 156.87500000000003,
          "velocity": 0.7874015748031497,
          "duration": 0.3059895833333428
        },
        {
          "name": "E3",
          "midi": 52,
          "time": 156.87500000000003,
          "velocity": 0.7874015748031497,
          "duration": 0.3059895833333428
        },
        {
          "name": "A3",
          "midi": 57,
          "time": 156.87500000000003,
          "velocity": 0.7874015748031497,
          "duration": 0.3059895833333428
        },
        {
          "name": "C4",
          "midi": 60,
          "time": 156.87500000000003,
          "velocity": 0.7874015748031497,
          "duration": 0.3059895833333428
        },
        {
          "name": "E4",
          "midi": 64,
          "time": 156.87500000000003,
          "velocity": 0.7874015748031497,
          "duration": 0.3059895833333428
        },
        {
          "name": "A4",
          "midi": 69,
          "time": 156.87500000000003,
          "velocity": 0.7874015748031497,
          "duration": 0.3059895833333428
        },
        {
          "name": "A4",
          "midi": 69,
          "time": 157.18750000000003,
          "velocity": 0.5511811023622047,
          "duration": 0.1497395833333428
        },
        {
          "name": "E4",
          "midi": 64,
          "time": 157.18750000000003,
          "velocity": 0.5511811023622047,
          "duration": 0.1497395833333428
        },
        {
          "name": "C4",
          "midi": 60,
          "time": 157.18750000000003,
          "velocity": 0.5511811023622047,
          "duration": 0.1497395833333428
        },
        {
          "name": "A4",
          "midi": 69,
          "time": 157.34375000000003,
          "velocity": 0.5511811023622047,
          "duration": 0.1497395833333428
        },
        {
          "name": "E4",
          "midi": 64,
          "time": 157.34375000000003,
          "velocity": 0.5511811023622047,
          "duration": 0.1497395833333428
        },
        {
          "name": "C4",
          "midi": 60,
          "time": 157.34375000000003,
          "velocity": 0.5511811023622047,
          "duration": 0.1497395833333428
        },
        {
          "name": "A3",
          "midi": 57,
          "time": 157.34375000000003,
          "velocity": 0.5511811023622047,
          "duration": 0.1497395833333428
        },
        {
          "name": "F2",
          "midi": 41,
          "time": 157.50000000000003,
          "velocity": 0.7874015748031497,
          "duration": 0.3059895833333428
        },
        {
          "name": "C3",
          "midi": 48,
          "time": 157.50000000000003,
          "velocity": 0.7874015748031497,
          "duration": 0.3059895833333428
        },
        {
          "name": "F3",
          "midi": 53,
          "time": 157.50000000000003,
          "velocity": 0.7874015748031497,
          "duration": 0.3059895833333428
        },
        {
          "name": "A3",
          "midi": 57,
          "time": 157.50000000000003,
          "velocity": 0.7874015748031497,
          "duration": 0.3059895833333428
        },
        {
          "name": "C4",
          "midi": 60,
          "time": 157.50000000000003,
          "velocity": 0.7874015748031497,
          "duration": 0.3059895833333428
        },
        {
          "name": "F4",
          "midi": 65,
          "time": 157.50000000000003,
          "velocity": 0.7874015748031497,
          "duration": 0.3059895833333428
        },
        {
          "name": "F4",
          "midi": 65,
          "time": 157.81250000000003,
          "velocity": 0.5511811023622047,
          "duration": 0.1497395833333428
        },
        {
          "name": "C4",
          "midi": 60,
          "time": 157.81250000000003,
          "velocity": 0.5511811023622047,
          "duration": 0.1497395833333428
        },
        {
          "name": "A3",
          "midi": 57,
          "time": 157.81250000000003,
          "velocity": 0.5511811023622047,
          "duration": 0.1497395833333428
        },
        {
          "name": "F3",
          "midi": 53,
          "time": 157.81250000000003,
          "velocity": 0.5511811023622047,
          "duration": 0.1497395833333428
        },
        {
          "name": "C3",
          "midi": 48,
          "time": 157.96875000000003,
          "velocity": 0.6299212598425197,
          "duration": 0.3059895833333428
        },
        {
          "name": "F3",
          "midi": 53,
          "time": 157.96875000000003,
          "velocity": 0.6299212598425197,
          "duration": 0.3059895833333428
        },
        {
          "name": "A3",
          "midi": 57,
          "time": 157.96875000000003,
          "velocity": 0.6299212598425197,
          "duration": 0.3059895833333428
        },
        {
          "name": "C4",
          "midi": 60,
          "time": 157.96875000000003,
          "velocity": 0.6299212598425197,
          "duration": 0.3059895833333428
        },
        {
          "name": "F4",
          "midi": 65,
          "time": 157.96875000000003,
          "velocity": 0.6299212598425197,
          "duration": 0.3059895833333428
        },
        {
          "name": "F2",
          "midi": 41,
          "time": 158.12500000000003,
          "velocity": 0.6299212598425197,
          "duration": 0.3059895833333428
        },
        {
          "name": "C3",
          "midi": 48,
          "time": 158.12500000000003,
          "velocity": 0.6299212598425197,
          "duration": 0.3059895833333428
        },
        {
          "name": "F3",
          "midi": 53,
          "time": 158.12500000000003,
          "velocity": 0.6299212598425197,
          "duration": 0.3059895833333428
        },
        {
          "name": "A3",
          "midi": 57,
          "time": 158.12500000000003,
          "velocity": 0.6299212598425197,
          "duration": 0.3059895833333428
        },
        {
          "name": "C4",
          "midi": 60,
          "time": 158.12500000000003,
          "velocity": 0.6299212598425197,
          "duration": 0.3059895833333428
        },
        {
          "name": "F4",
          "midi": 65,
          "time": 158.12500000000003,
          "velocity": 0.6299212598425197,
          "duration": 0.3059895833333428
        },
        {
          "name": "F2",
          "midi": 41,
          "time": 158.43750000000003,
          "velocity": 0.7874015748031497,
          "duration": 0.3059895833333428
        },
        {
          "name": "C3",
          "midi": 48,
          "time": 158.43750000000003,
          "velocity": 0.7874015748031497,
          "duration": 0.3059895833333428
        },
        {
          "name": "F3",
          "midi": 53,
          "time": 158.43750000000003,
          "velocity": 0.7874015748031497,
          "duration": 0.3059895833333428
        },
        {
          "name": "A3",
          "midi": 57,
          "time": 158.43750000000003,
          "velocity": 0.7874015748031497,
          "duration": 0.3059895833333428
        },
        {
          "name": "C4",
          "midi": 60,
          "time": 158.43750000000003,
          "velocity": 0.7874015748031497,
          "duration": 0.3059895833333428
        },
        {
          "name": "F4",
          "midi": 65,
          "time": 158.43750000000003,
          "velocity": 0.7874015748031497,
          "duration": 0.3059895833333428
        },
        {
          "name": "F4",
          "midi": 65,
          "time": 158.75000000000003,
          "velocity": 0.5511811023622047,
          "duration": 0.1497395833333428
        },
        {
          "name": "C4",
          "midi": 60,
          "time": 158.75000000000003,
          "velocity": 0.5511811023622047,
          "duration": 0.1497395833333428
        },
        {
          "name": "A3",
          "midi": 57,
          "time": 158.75000000000003,
          "velocity": 0.5511811023622047,
          "duration": 0.1497395833333428
        },
        {
          "name": "F3",
          "midi": 53,
          "time": 158.75000000000003,
          "velocity": 0.5511811023622047,
          "duration": 0.1497395833333428
        },
        {
          "name": "C3",
          "midi": 48,
          "time": 158.90625000000003,
          "velocity": 0.6299212598425197,
          "duration": 0.3059895833333428
        },
        {
          "name": "F3",
          "midi": 53,
          "time": 158.90625000000003,
          "velocity": 0.6299212598425197,
          "duration": 0.3059895833333428
        },
        {
          "name": "A3",
          "midi": 57,
          "time": 158.90625000000003,
          "velocity": 0.6299212598425197,
          "duration": 0.3059895833333428
        },
        {
          "name": "C4",
          "midi": 60,
          "time": 158.90625000000003,
          "velocity": 0.6299212598425197,
          "duration": 0.3059895833333428
        },
        {
          "name": "F4",
          "midi": 65,
          "time": 158.90625000000003,
          "velocity": 0.6299212598425197,
          "duration": 0.3059895833333428
        },
        {
          "name": "F2",
          "midi": 41,
          "time": 159.06250000000003,
          "velocity": 0.6299212598425197,
          "duration": 0.3059895833333428
        },
        {
          "name": "C3",
          "midi": 48,
          "time": 159.06250000000003,
          "velocity": 0.6299212598425197,
          "duration": 0.3059895833333428
        },
        {
          "name": "F3",
          "midi": 53,
          "time": 159.06250000000003,
          "velocity": 0.6299212598425197,
          "duration": 0.3059895833333428
        },
        {
          "name": "A3",
          "midi": 57,
          "time": 159.06250000000003,
          "velocity": 0.6299212598425197,
          "duration": 0.3059895833333428
        },
        {
          "name": "C4",
          "midi": 60,
          "time": 159.06250000000003,
          "velocity": 0.6299212598425197,
          "duration": 0.3059895833333428
        },
        {
          "name": "F4",
          "midi": 65,
          "time": 159.06250000000003,
          "velocity": 0.6299212598425197,
          "duration": 0.3059895833333428
        },
        {
          "name": "F2",
          "midi": 41,
          "time": 159.37500000000003,
          "velocity": 0.7874015748031497,
          "duration": 0.3059895833333428
        },
        {
          "name": "C3",
          "midi": 48,
          "time": 159.37500000000003,
          "velocity": 0.7874015748031497,
          "duration": 0.3059895833333428
        },
        {
          "name": "F3",
          "midi": 53,
          "time": 159.37500000000003,
          "velocity": 0.7874015748031497,
          "duration": 0.3059895833333428
        },
        {
          "name": "A3",
          "midi": 57,
          "time": 159.37500000000003,
          "velocity": 0.7874015748031497,
          "duration": 0.3059895833333428
        },
        {
          "name": "C4",
          "midi": 60,
          "time": 159.37500000000003,
          "velocity": 0.7874015748031497,
          "duration": 0.3059895833333428
        },
        {
          "name": "F4",
          "midi": 65,
          "time": 159.37500000000003,
          "velocity": 0.7874015748031497,
          "duration": 0.3059895833333428
        },
        {
          "name": "F3",
          "midi": 53,
          "time": 159.53125000000003,
          "velocity": 0.5039370078740157,
          "duration": 0.3059895833333428
        },
        {
          "name": "A3",
          "midi": 57,
          "time": 159.53125000000003,
          "velocity": 0.5039370078740157,
          "duration": 0.3059895833333428
        },
        {
          "name": "C4",
          "midi": 60,
          "time": 159.53125000000003,
          "velocity": 0.5039370078740157,
          "duration": 0.3059895833333428
        },
        {
          "name": "F4",
          "midi": 65,
          "time": 159.53125000000003,
          "velocity": 0.5039370078740157,
          "duration": 0.3059895833333428
        },
        {
          "name": "F4",
          "midi": 65,
          "time": 159.68750000000003,
          "velocity": 0.4409448818897638,
          "duration": 0.1497395833333428
        },
        {
          "name": "C4",
          "midi": 60,
          "time": 159.68750000000003,
          "velocity": 0.4409448818897638,
          "duration": 0.1497395833333428
        },
        {
          "name": "A3",
          "midi": 57,
          "time": 159.68750000000003,
          "velocity": 0.4409448818897638,
          "duration": 0.1497395833333428
        },
        {
          "name": "F4",
          "midi": 65,
          "time": 159.84375000000003,
          "velocity": 0.5511811023622047,
          "duration": 0.1497395833333428
        },
        {
          "name": "C4",
          "midi": 60,
          "time": 159.84375000000003,
          "velocity": 0.5511811023622047,
          "duration": 0.1497395833333428
        },
        {
          "name": "A3",
          "midi": 57,
          "time": 159.84375000000003,
          "velocity": 0.5511811023622047,
          "duration": 0.1497395833333428
        },
        {
          "name": "F3",
          "midi": 53,
          "time": 159.84375000000003,
          "velocity": 0.5511811023622047,
          "duration": 0.1497395833333428
        },
        {
          "name": "A2",
          "midi": 45,
          "time": 160.00000000000003,
          "velocity": 0.7874015748031497,
          "duration": 0.3059895833333428
        },
        {
          "name": "E3",
          "midi": 52,
          "time": 160.00000000000003,
          "velocity": 0.7874015748031497,
          "duration": 0.3059895833333428
        },
        {
          "name": "A3",
          "midi": 57,
          "time": 160.00000000000003,
          "velocity": 0.7874015748031497,
          "duration": 0.3059895833333428
        },
        {
          "name": "C4",
          "midi": 60,
          "time": 160.00000000000003,
          "velocity": 0.7874015748031497,
          "duration": 0.3059895833333428
        },
        {
          "name": "E4",
          "midi": 64,
          "time": 160.00000000000003,
          "velocity": 0.7874015748031497,
          "duration": 0.3059895833333428
        },
        {
          "name": "A4",
          "midi": 69,
          "time": 160.00000000000003,
          "velocity": 0.7874015748031497,
          "duration": 0.3059895833333428
        },
        {
          "name": "A4",
          "midi": 69,
          "time": 160.31250000000003,
          "velocity": 0.5511811023622047,
          "duration": 0.1497395833333428
        },
        {
          "name": "E4",
          "midi": 64,
          "time": 160.31250000000003,
          "velocity": 0.5511811023622047,
          "duration": 0.1497395833333428
        },
        {
          "name": "C4",
          "midi": 60,
          "time": 160.31250000000003,
          "velocity": 0.5511811023622047,
          "duration": 0.1497395833333428
        },
        {
          "name": "A3",
          "midi": 57,
          "time": 160.31250000000003,
          "velocity": 0.5511811023622047,
          "duration": 0.1497395833333428
        },
        {
          "name": "E3",
          "midi": 52,
          "time": 160.46875000000003,
          "velocity": 0.6299212598425197,
          "duration": 0.3059895833333428
        },
        {
          "name": "A3",
          "midi": 57,
          "time": 160.46875000000003,
          "velocity": 0.6299212598425197,
          "duration": 0.3059895833333428
        },
        {
          "name": "C4",
          "midi": 60,
          "time": 160.46875000000003,
          "velocity": 0.6299212598425197,
          "duration": 0.3059895833333428
        },
        {
          "name": "E4",
          "midi": 64,
          "time": 160.46875000000003,
          "velocity": 0.6299212598425197,
          "duration": 0.3059895833333428
        },
        {
          "name": "A4",
          "midi": 69,
          "time": 160.46875000000003,
          "velocity": 0.6299212598425197,
          "duration": 0.3059895833333428
        },
        {
          "name": "A2",
          "midi": 45,
          "time": 160.62500000000003,
          "velocity": 0.6299212598425197,
          "duration": 0.3059895833333428
        },
        {
          "name": "E3",
          "midi": 52,
          "time": 160.62500000000003,
          "velocity": 0.6299212598425197,
          "duration": 0.3059895833333428
        },
        {
          "name": "A3",
          "midi": 57,
          "time": 160.62500000000003,
          "velocity": 0.6299212598425197,
          "duration": 0.3059895833333428
        },
        {
          "name": "C4",
          "midi": 60,
          "time": 160.62500000000003,
          "velocity": 0.6299212598425197,
          "duration": 0.3059895833333428
        },
        {
          "name": "E4",
          "midi": 64,
          "time": 160.62500000000003,
          "velocity": 0.6299212598425197,
          "duration": 0.3059895833333428
        },
        {
          "name": "A4",
          "midi": 69,
          "time": 160.62500000000003,
          "velocity": 0.6299212598425197,
          "duration": 0.3059895833333428
        },
        {
          "name": "A2",
          "midi": 45,
          "time": 160.93750000000003,
          "velocity": 0.7874015748031497,
          "duration": 0.3059895833333428
        },
        {
          "name": "E3",
          "midi": 52,
          "time": 160.93750000000003,
          "velocity": 0.7874015748031497,
          "duration": 0.3059895833333428
        },
        {
          "name": "A3",
          "midi": 57,
          "time": 160.93750000000003,
          "velocity": 0.7874015748031497,
          "duration": 0.3059895833333428
        },
        {
          "name": "C4",
          "midi": 60,
          "time": 160.93750000000003,
          "velocity": 0.7874015748031497,
          "duration": 0.3059895833333428
        },
        {
          "name": "E4",
          "midi": 64,
          "time": 160.93750000000003,
          "velocity": 0.7874015748031497,
          "duration": 0.3059895833333428
        },
        {
          "name": "A4",
          "midi": 69,
          "time": 160.93750000000003,
          "velocity": 0.7874015748031497,
          "duration": 0.3059895833333428
        },
        {
          "name": "A4",
          "midi": 69,
          "time": 161.25000000000003,
          "velocity": 0.5511811023622047,
          "duration": 0.1497395833333428
        },
        {
          "name": "E4",
          "midi": 64,
          "time": 161.25000000000003,
          "velocity": 0.5511811023622047,
          "duration": 0.1497395833333428
        },
        {
          "name": "C4",
          "midi": 60,
          "time": 161.25000000000003,
          "velocity": 0.5511811023622047,
          "duration": 0.1497395833333428
        },
        {
          "name": "A3",
          "midi": 57,
          "time": 161.25000000000003,
          "velocity": 0.5511811023622047,
          "duration": 0.1497395833333428
        },
        {
          "name": "E3",
          "midi": 52,
          "time": 161.40625000000003,
          "velocity": 0.6299212598425197,
          "duration": 0.3059895833333428
        },
        {
          "name": "A3",
          "midi": 57,
          "time": 161.40625000000003,
          "velocity": 0.6299212598425197,
          "duration": 0.3059895833333428
        },
        {
          "name": "C4",
          "midi": 60,
          "time": 161.40625000000003,
          "velocity": 0.6299212598425197,
          "duration": 0.3059895833333428
        },
        {
          "name": "E4",
          "midi": 64,
          "time": 161.40625000000003,
          "velocity": 0.6299212598425197,
          "duration": 0.3059895833333428
        },
        {
          "name": "A4",
          "midi": 69,
          "time": 161.40625000000003,
          "velocity": 0.8188976377952756,
          "duration": 0.3059895833333428
        },
        {
          "name": "A2",
          "midi": 45,
          "time": 161.56250000000003,
          "velocity": 0.6299212598425197,
          "duration": 0.3059895833333428
        },
        {
          "name": "E3",
          "midi": 52,
          "time": 161.56250000000003,
          "velocity": 0.6299212598425197,
          "duration": 0.3059895833333428
        },
        {
          "name": "A3",
          "midi": 57,
          "time": 161.56250000000003,
          "velocity": 0.6299212598425197,
          "duration": 0.3059895833333428
        },
        {
          "name": "C4",
          "midi": 60,
          "time": 161.56250000000003,
          "velocity": 0.6299212598425197,
          "duration": 0.3059895833333428
        },
        {
          "name": "E4",
          "midi": 64,
          "time": 161.56250000000003,
          "velocity": 0.6299212598425197,
          "duration": 0.3059895833333428
        },
        {
          "name": "A4",
          "midi": 69,
          "time": 161.56250000000003,
          "velocity": 0.6299212598425197,
          "duration": 0.3059895833333428
        },
        {
          "name": "A2",
          "midi": 45,
          "time": 161.87500000000003,
          "velocity": 0.7874015748031497,
          "duration": 0.3059895833333428
        },
        {
          "name": "E3",
          "midi": 52,
          "time": 161.87500000000003,
          "velocity": 0.7874015748031497,
          "duration": 0.3059895833333428
        },
        {
          "name": "A3",
          "midi": 57,
          "time": 161.87500000000003,
          "velocity": 0.7874015748031497,
          "duration": 0.3059895833333428
        },
        {
          "name": "C4",
          "midi": 60,
          "time": 161.87500000000003,
          "velocity": 0.7874015748031497,
          "duration": 0.3059895833333428
        },
        {
          "name": "E4",
          "midi": 64,
          "time": 161.87500000000003,
          "velocity": 0.7874015748031497,
          "duration": 0.3059895833333428
        },
        {
          "name": "A4",
          "midi": 69,
          "time": 161.87500000000003,
          "velocity": 0.7874015748031497,
          "duration": 0.3059895833333428
        },
        {
          "name": "A4",
          "midi": 69,
          "time": 162.18750000000003,
          "velocity": 0.5511811023622047,
          "duration": 0.1497395833333428
        },
        {
          "name": "E4",
          "midi": 64,
          "time": 162.18750000000003,
          "velocity": 0.5511811023622047,
          "duration": 0.1497395833333428
        },
        {
          "name": "C4",
          "midi": 60,
          "time": 162.18750000000003,
          "velocity": 0.5511811023622047,
          "duration": 0.1497395833333428
        },
        {
          "name": "A4",
          "midi": 69,
          "time": 162.34375000000003,
          "velocity": 0.5511811023622047,
          "duration": 0.1497395833333428
        },
        {
          "name": "E4",
          "midi": 64,
          "time": 162.34375000000003,
          "velocity": 0.5511811023622047,
          "duration": 0.1497395833333428
        },
        {
          "name": "C4",
          "midi": 60,
          "time": 162.34375000000003,
          "velocity": 0.5511811023622047,
          "duration": 0.1497395833333428
        },
        {
          "name": "A3",
          "midi": 57,
          "time": 162.34375000000003,
          "velocity": 0.5511811023622047,
          "duration": 0.1497395833333428
        },
        {
          "name": "F2",
          "midi": 41,
          "time": 162.50000000000003,
          "velocity": 0.7874015748031497,
          "duration": 0.3059895833333428
        },
        {
          "name": "C3",
          "midi": 48,
          "time": 162.50000000000003,
          "velocity": 0.7874015748031497,
          "duration": 0.3059895833333428
        },
        {
          "name": "F3",
          "midi": 53,
          "time": 162.50000000000003,
          "velocity": 0.7874015748031497,
          "duration": 0.3059895833333428
        },
        {
          "name": "A3",
          "midi": 57,
          "time": 162.50000000000003,
          "velocity": 0.7874015748031497,
          "duration": 0.3059895833333428
        },
        {
          "name": "C4",
          "midi": 60,
          "time": 162.50000000000003,
          "velocity": 0.7874015748031497,
          "duration": 0.3059895833333428
        },
        {
          "name": "F4",
          "midi": 65,
          "time": 162.50000000000003,
          "velocity": 0.7874015748031497,
          "duration": 0.3059895833333428
        },
        {
          "name": "F4",
          "midi": 65,
          "time": 162.81250000000003,
          "velocity": 0.5511811023622047,
          "duration": 0.1497395833333428
        },
        {
          "name": "C4",
          "midi": 60,
          "time": 162.81250000000003,
          "velocity": 0.5511811023622047,
          "duration": 0.1497395833333428
        },
        {
          "name": "A3",
          "midi": 57,
          "time": 162.81250000000003,
          "velocity": 0.5511811023622047,
          "duration": 0.1497395833333428
        },
        {
          "name": "F3",
          "midi": 53,
          "time": 162.81250000000003,
          "velocity": 0.5511811023622047,
          "duration": 0.1497395833333428
        },
        {
          "name": "C3",
          "midi": 48,
          "time": 162.96875000000003,
          "velocity": 0.6299212598425197,
          "duration": 0.3059895833333428
        },
        {
          "name": "F3",
          "midi": 53,
          "time": 162.96875000000003,
          "velocity": 0.6299212598425197,
          "duration": 0.3059895833333428
        },
        {
          "name": "A3",
          "midi": 57,
          "time": 162.96875000000003,
          "velocity": 0.6299212598425197,
          "duration": 0.3059895833333428
        },
        {
          "name": "C4",
          "midi": 60,
          "time": 162.96875000000003,
          "velocity": 0.6299212598425197,
          "duration": 0.3059895833333428
        },
        {
          "name": "F4",
          "midi": 65,
          "time": 162.96875000000003,
          "velocity": 0.7401574803149606,
          "duration": 0.3059895833333428
        },
        {
          "name": "F2",
          "midi": 41,
          "time": 163.12500000000003,
          "velocity": 0.6614173228346457,
          "duration": 0.3059895833333428
        },
        {
          "name": "C3",
          "midi": 48,
          "time": 163.12500000000003,
          "velocity": 0.6299212598425197,
          "duration": 0.3059895833333428
        },
        {
          "name": "F3",
          "midi": 53,
          "time": 163.12500000000003,
          "velocity": 0.6299212598425197,
          "duration": 0.3059895833333428
        },
        {
          "name": "A3",
          "midi": 57,
          "time": 163.12500000000003,
          "velocity": 0.6299212598425197,
          "duration": 0.3059895833333428
        },
        {
          "name": "C4",
          "midi": 60,
          "time": 163.12500000000003,
          "velocity": 0.6299212598425197,
          "duration": 0.3059895833333428
        },
        {
          "name": "F4",
          "midi": 65,
          "time": 163.12500000000003,
          "velocity": 0.6771653543307087,
          "duration": 0.3059895833333428
        },
        {
          "name": "F2",
          "midi": 41,
          "time": 163.43750000000003,
          "velocity": 0.7874015748031497,
          "duration": 0.3059895833333428
        },
        {
          "name": "C3",
          "midi": 48,
          "time": 163.43750000000003,
          "velocity": 0.7874015748031497,
          "duration": 0.3059895833333428
        },
        {
          "name": "F3",
          "midi": 53,
          "time": 163.43750000000003,
          "velocity": 0.7874015748031497,
          "duration": 0.3059895833333428
        },
        {
          "name": "A3",
          "midi": 57,
          "time": 163.43750000000003,
          "velocity": 0.7874015748031497,
          "duration": 0.3059895833333428
        },
        {
          "name": "C4",
          "midi": 60,
          "time": 163.43750000000003,
          "velocity": 0.7874015748031497,
          "duration": 0.3059895833333428
        },
        {
          "name": "F4",
          "midi": 65,
          "time": 163.43750000000003,
          "velocity": 0.7874015748031497,
          "duration": 0.3059895833333428
        },
        {
          "name": "F4",
          "midi": 65,
          "time": 163.75000000000003,
          "velocity": 0.5511811023622047,
          "duration": 0.1497395833333428
        },
        {
          "name": "C4",
          "midi": 60,
          "time": 163.75000000000003,
          "velocity": 0.5511811023622047,
          "duration": 0.1497395833333428
        },
        {
          "name": "A3",
          "midi": 57,
          "time": 163.75000000000003,
          "velocity": 0.5511811023622047,
          "duration": 0.1497395833333428
        },
        {
          "name": "F3",
          "midi": 53,
          "time": 163.75000000000003,
          "velocity": 0.5511811023622047,
          "duration": 0.1497395833333428
        },
        {
          "name": "C3",
          "midi": 48,
          "time": 163.90625000000003,
          "velocity": 0.6299212598425197,
          "duration": 0.3059895833333428
        },
        {
          "name": "F3",
          "midi": 53,
          "time": 163.90625000000003,
          "velocity": 0.6299212598425197,
          "duration": 0.3059895833333428
        },
        {
          "name": "A3",
          "midi": 57,
          "time": 163.90625000000003,
          "velocity": 0.6299212598425197,
          "duration": 0.3059895833333428
        },
        {
          "name": "C4",
          "midi": 60,
          "time": 163.90625000000003,
          "velocity": 0.6299212598425197,
          "duration": 0.3059895833333428
        },
        {
          "name": "F4",
          "midi": 65,
          "time": 163.90625000000003,
          "velocity": 0.7637795275590551,
          "duration": 0.3059895833333428
        },
        {
          "name": "F2",
          "midi": 41,
          "time": 164.06250000000003,
          "velocity": 0.6299212598425197,
          "duration": 0.3059895833333428
        },
        {
          "name": "C3",
          "midi": 48,
          "time": 164.06250000000003,
          "velocity": 0.6299212598425197,
          "duration": 0.3059895833333428
        },
        {
          "name": "F3",
          "midi": 53,
          "time": 164.06250000000003,
          "velocity": 0.6299212598425197,
          "duration": 0.3059895833333428
        },
        {
          "name": "A3",
          "midi": 57,
          "time": 164.06250000000003,
          "velocity": 0.6299212598425197,
          "duration": 0.3059895833333428
        },
        {
          "name": "C4",
          "midi": 60,
          "time": 164.06250000000003,
          "velocity": 0.6299212598425197,
          "duration": 0.3059895833333428
        },
        {
          "name": "F4",
          "midi": 65,
          "time": 164.06250000000003,
          "velocity": 0.6299212598425197,
          "duration": 0.3059895833333428
        },
        {
          "name": "F2",
          "midi": 41,
          "time": 164.37500000000003,
          "velocity": 0.7874015748031497,
          "duration": 0.3059895833333428
        },
        {
          "name": "C3",
          "midi": 48,
          "time": 164.37500000000003,
          "velocity": 0.7874015748031497,
          "duration": 0.3059895833333428
        },
        {
          "name": "F3",
          "midi": 53,
          "time": 164.37500000000003,
          "velocity": 0.7874015748031497,
          "duration": 0.3059895833333428
        },
        {
          "name": "A3",
          "midi": 57,
          "time": 164.37500000000003,
          "velocity": 0.7874015748031497,
          "duration": 0.3059895833333428
        },
        {
          "name": "C4",
          "midi": 60,
          "time": 164.37500000000003,
          "velocity": 0.7874015748031497,
          "duration": 0.3059895833333428
        },
        {
          "name": "F4",
          "midi": 65,
          "time": 164.37500000000003,
          "velocity": 0.7874015748031497,
          "duration": 0.3059895833333428
        },
        {
          "name": "F3",
          "midi": 53,
          "time": 164.53125000000003,
          "velocity": 0.5039370078740157,
          "duration": 0.3059895833333428
        },
        {
          "name": "A3",
          "midi": 57,
          "time": 164.53125000000003,
          "velocity": 0.5039370078740157,
          "duration": 0.3059895833333428
        },
        {
          "name": "C4",
          "midi": 60,
          "time": 164.53125000000003,
          "velocity": 0.5039370078740157,
          "duration": 0.3059895833333428
        },
        {
          "name": "F4",
          "midi": 65,
          "time": 164.53125000000003,
          "velocity": 0.5039370078740157,
          "duration": 0.3059895833333428
        },
        {
          "name": "F4",
          "midi": 65,
          "time": 164.68750000000003,
          "velocity": 0.4409448818897638,
          "duration": 0.1497395833333428
        },
        {
          "name": "C4",
          "midi": 60,
          "time": 164.68750000000003,
          "velocity": 0.4409448818897638,
          "duration": 0.1497395833333428
        },
        {
          "name": "A3",
          "midi": 57,
          "time": 164.68750000000003,
          "velocity": 0.4409448818897638,
          "duration": 0.1497395833333428
        },
        {
          "name": "F4",
          "midi": 65,
          "time": 164.84375000000003,
          "velocity": 0.5511811023622047,
          "duration": 0.1497395833333428
        },
        {
          "name": "C4",
          "midi": 60,
          "time": 164.84375000000003,
          "velocity": 0.5511811023622047,
          "duration": 0.1497395833333428
        },
        {
          "name": "A3",
          "midi": 57,
          "time": 164.84375000000003,
          "velocity": 0.5511811023622047,
          "duration": 0.1497395833333428
        },
        {
          "name": "F3",
          "midi": 53,
          "time": 164.84375000000003,
          "velocity": 0.5511811023622047,
          "duration": 0.1497395833333428
        },
        {
          "name": "A2",
          "midi": 45,
          "time": 165.00000000000003,
          "velocity": 0.7874015748031497,
          "duration": 0.3059895833333428
        },
        {
          "name": "E3",
          "midi": 52,
          "time": 165.00000000000003,
          "velocity": 0.7874015748031497,
          "duration": 0.3059895833333428
        },
        {
          "name": "A3",
          "midi": 57,
          "time": 165.00000000000003,
          "velocity": 0.7874015748031497,
          "duration": 0.3059895833333428
        },
        {
          "name": "C4",
          "midi": 60,
          "time": 165.00000000000003,
          "velocity": 0.7874015748031497,
          "duration": 0.3059895833333428
        },
        {
          "name": "E4",
          "midi": 64,
          "time": 165.00000000000003,
          "velocity": 0.7874015748031497,
          "duration": 0.3059895833333428
        },
        {
          "name": "A4",
          "midi": 69,
          "time": 165.00000000000003,
          "velocity": 0.7874015748031497,
          "duration": 0.3059895833333428
        },
        {
          "name": "A4",
          "midi": 69,
          "time": 165.31250000000003,
          "velocity": 0.5511811023622047,
          "duration": 0.1497395833333428
        },
        {
          "name": "E4",
          "midi": 64,
          "time": 165.31250000000003,
          "velocity": 0.5511811023622047,
          "duration": 0.1497395833333428
        },
        {
          "name": "C4",
          "midi": 60,
          "time": 165.31250000000003,
          "velocity": 0.5511811023622047,
          "duration": 0.1497395833333428
        },
        {
          "name": "A3",
          "midi": 57,
          "time": 165.31250000000003,
          "velocity": 0.5511811023622047,
          "duration": 0.1497395833333428
        },
        {
          "name": "E3",
          "midi": 52,
          "time": 165.46875000000003,
          "velocity": 0.6299212598425197,
          "duration": 0.3059895833333428
        },
        {
          "name": "A3",
          "midi": 57,
          "time": 165.46875000000003,
          "velocity": 0.6299212598425197,
          "duration": 0.3059895833333428
        },
        {
          "name": "C4",
          "midi": 60,
          "time": 165.46875000000003,
          "velocity": 0.6299212598425197,
          "duration": 0.3059895833333428
        },
        {
          "name": "E4",
          "midi": 64,
          "time": 165.46875000000003,
          "velocity": 0.6299212598425197,
          "duration": 0.3059895833333428
        },
        {
          "name": "A4",
          "midi": 69,
          "time": 165.46875000000003,
          "velocity": 0.6299212598425197,
          "duration": 0.3059895833333428
        },
        {
          "name": "A2",
          "midi": 45,
          "time": 165.62500000000003,
          "velocity": 0.6299212598425197,
          "duration": 0.3059895833333428
        },
        {
          "name": "E3",
          "midi": 52,
          "time": 165.62500000000003,
          "velocity": 0.6299212598425197,
          "duration": 0.3059895833333428
        },
        {
          "name": "A3",
          "midi": 57,
          "time": 165.62500000000003,
          "velocity": 0.6299212598425197,
          "duration": 0.3059895833333428
        },
        {
          "name": "C4",
          "midi": 60,
          "time": 165.62500000000003,
          "velocity": 0.6299212598425197,
          "duration": 0.3059895833333428
        },
        {
          "name": "E4",
          "midi": 64,
          "time": 165.62500000000003,
          "velocity": 0.6299212598425197,
          "duration": 0.3059895833333428
        },
        {
          "name": "A4",
          "midi": 69,
          "time": 165.62500000000003,
          "velocity": 0.6299212598425197,
          "duration": 0.3059895833333428
        },
        {
          "name": "A2",
          "midi": 45,
          "time": 165.93750000000003,
          "velocity": 0.7874015748031497,
          "duration": 0.3059895833333428
        },
        {
          "name": "E3",
          "midi": 52,
          "time": 165.93750000000003,
          "velocity": 0.7874015748031497,
          "duration": 0.3059895833333428
        },
        {
          "name": "A3",
          "midi": 57,
          "time": 165.93750000000003,
          "velocity": 0.7874015748031497,
          "duration": 0.3059895833333428
        },
        {
          "name": "C4",
          "midi": 60,
          "time": 165.93750000000003,
          "velocity": 0.7874015748031497,
          "duration": 0.3059895833333428
        },
        {
          "name": "E4",
          "midi": 64,
          "time": 165.93750000000003,
          "velocity": 0.7874015748031497,
          "duration": 0.3059895833333428
        },
        {
          "name": "A4",
          "midi": 69,
          "time": 165.93750000000003,
          "velocity": 0.7874015748031497,
          "duration": 0.3059895833333428
        },
        {
          "name": "A4",
          "midi": 69,
          "time": 166.25000000000003,
          "velocity": 0.5511811023622047,
          "duration": 0.1497395833333428
        },
        {
          "name": "E4",
          "midi": 64,
          "time": 166.25000000000003,
          "velocity": 0.5511811023622047,
          "duration": 0.1497395833333428
        },
        {
          "name": "C4",
          "midi": 60,
          "time": 166.25000000000003,
          "velocity": 0.5511811023622047,
          "duration": 0.1497395833333428
        },
        {
          "name": "A3",
          "midi": 57,
          "time": 166.25000000000003,
          "velocity": 0.5511811023622047,
          "duration": 0.1497395833333428
        },
        {
          "name": "E3",
          "midi": 52,
          "time": 166.40625000000003,
          "velocity": 0.6299212598425197,
          "duration": 0.3059895833333428
        },
        {
          "name": "A3",
          "midi": 57,
          "time": 166.40625000000003,
          "velocity": 0.6299212598425197,
          "duration": 0.3059895833333428
        },
        {
          "name": "C4",
          "midi": 60,
          "time": 166.40625000000003,
          "velocity": 0.6299212598425197,
          "duration": 0.3059895833333428
        },
        {
          "name": "E4",
          "midi": 64,
          "time": 166.40625000000003,
          "velocity": 0.6299212598425197,
          "duration": 0.3059895833333428
        },
        {
          "name": "A4",
          "midi": 69,
          "time": 166.40625000000003,
          "velocity": 0.6299212598425197,
          "duration": 0.3059895833333428
        },
        {
          "name": "A2",
          "midi": 45,
          "time": 166.56250000000003,
          "velocity": 0.6299212598425197,
          "duration": 0.3059895833333428
        },
        {
          "name": "E3",
          "midi": 52,
          "time": 166.56250000000003,
          "velocity": 0.6299212598425197,
          "duration": 0.3059895833333428
        },
        {
          "name": "A3",
          "midi": 57,
          "time": 166.56250000000003,
          "velocity": 0.6299212598425197,
          "duration": 0.3059895833333428
        },
        {
          "name": "C4",
          "midi": 60,
          "time": 166.56250000000003,
          "velocity": 0.6299212598425197,
          "duration": 0.3059895833333428
        },
        {
          "name": "E4",
          "midi": 64,
          "time": 166.56250000000003,
          "velocity": 0.6299212598425197,
          "duration": 0.3059895833333428
        },
        {
          "name": "A4",
          "midi": 69,
          "time": 166.56250000000003,
          "velocity": 0.6299212598425197,
          "duration": 0.3059895833333428
        },
        {
          "name": "A2",
          "midi": 45,
          "time": 166.87500000000003,
          "velocity": 0.7874015748031497,
          "duration": 0.3059895833333428
        },
        {
          "name": "E3",
          "midi": 52,
          "time": 166.87500000000003,
          "velocity": 0.7874015748031497,
          "duration": 0.3059895833333428
        },
        {
          "name": "A3",
          "midi": 57,
          "time": 166.87500000000003,
          "velocity": 0.7874015748031497,
          "duration": 0.3059895833333428
        },
        {
          "name": "C4",
          "midi": 60,
          "time": 166.87500000000003,
          "velocity": 0.7874015748031497,
          "duration": 0.3059895833333428
        },
        {
          "name": "E4",
          "midi": 64,
          "time": 166.87500000000003,
          "velocity": 0.7874015748031497,
          "duration": 0.3059895833333428
        },
        {
          "name": "A4",
          "midi": 69,
          "time": 166.87500000000003,
          "velocity": 0.7874015748031497,
          "duration": 0.3059895833333428
        },
        {
          "name": "A4",
          "midi": 69,
          "time": 167.18750000000003,
          "velocity": 0.5511811023622047,
          "duration": 0.1497395833333428
        },
        {
          "name": "E4",
          "midi": 64,
          "time": 167.18750000000003,
          "velocity": 0.5511811023622047,
          "duration": 0.1497395833333428
        },
        {
          "name": "C4",
          "midi": 60,
          "time": 167.18750000000003,
          "velocity": 0.5511811023622047,
          "duration": 0.1497395833333428
        },
        {
          "name": "A4",
          "midi": 69,
          "time": 167.34375000000003,
          "velocity": 0.5511811023622047,
          "duration": 0.1497395833333428
        },
        {
          "name": "E4",
          "midi": 64,
          "time": 167.34375000000003,
          "velocity": 0.5511811023622047,
          "duration": 0.1497395833333428
        },
        {
          "name": "C4",
          "midi": 60,
          "time": 167.34375000000003,
          "velocity": 0.5511811023622047,
          "duration": 0.1497395833333428
        },
        {
          "name": "A3",
          "midi": 57,
          "time": 167.34375000000003,
          "velocity": 0.5511811023622047,
          "duration": 0.1497395833333428
        },
        {
          "name": "F2",
          "midi": 41,
          "time": 167.50000000000003,
          "velocity": 0.7874015748031497,
          "duration": 0.3059895833333428
        },
        {
          "name": "C3",
          "midi": 48,
          "time": 167.50000000000003,
          "velocity": 0.7874015748031497,
          "duration": 0.3059895833333428
        },
        {
          "name": "F3",
          "midi": 53,
          "time": 167.50000000000003,
          "velocity": 0.7874015748031497,
          "duration": 0.3059895833333428
        },
        {
          "name": "A3",
          "midi": 57,
          "time": 167.50000000000003,
          "velocity": 0.7874015748031497,
          "duration": 0.3059895833333428
        },
        {
          "name": "C4",
          "midi": 60,
          "time": 167.50000000000003,
          "velocity": 0.7874015748031497,
          "duration": 0.3059895833333428
        },
        {
          "name": "F4",
          "midi": 65,
          "time": 167.50000000000003,
          "velocity": 0.7874015748031497,
          "duration": 0.3059895833333428
        },
        {
          "name": "F4",
          "midi": 65,
          "time": 167.81250000000003,
          "velocity": 0.5511811023622047,
          "duration": 0.1497395833333428
        },
        {
          "name": "C4",
          "midi": 60,
          "time": 167.81250000000003,
          "velocity": 0.5511811023622047,
          "duration": 0.1497395833333428
        },
        {
          "name": "A3",
          "midi": 57,
          "time": 167.81250000000003,
          "velocity": 0.5511811023622047,
          "duration": 0.1497395833333428
        },
        {
          "name": "F3",
          "midi": 53,
          "time": 167.81250000000003,
          "velocity": 0.5511811023622047,
          "duration": 0.1497395833333428
        },
        {
          "name": "C3",
          "midi": 48,
          "time": 167.96875000000003,
          "velocity": 0.6299212598425197,
          "duration": 0.3059895833333428
        },
        {
          "name": "F3",
          "midi": 53,
          "time": 167.96875000000003,
          "velocity": 0.6299212598425197,
          "duration": 0.3059895833333428
        },
        {
          "name": "A3",
          "midi": 57,
          "time": 167.96875000000003,
          "velocity": 0.6299212598425197,
          "duration": 0.3059895833333428
        },
        {
          "name": "C4",
          "midi": 60,
          "time": 167.96875000000003,
          "velocity": 0.6299212598425197,
          "duration": 0.3059895833333428
        },
        {
          "name": "F4",
          "midi": 65,
          "time": 167.96875000000003,
          "velocity": 0.6299212598425197,
          "duration": 0.3059895833333428
        },
        {
          "name": "F2",
          "midi": 41,
          "time": 168.12500000000003,
          "velocity": 0.6299212598425197,
          "duration": 0.3059895833333428
        },
        {
          "name": "C3",
          "midi": 48,
          "time": 168.12500000000003,
          "velocity": 0.6299212598425197,
          "duration": 0.3059895833333428
        },
        {
          "name": "F3",
          "midi": 53,
          "time": 168.12500000000003,
          "velocity": 0.6299212598425197,
          "duration": 0.3059895833333428
        },
        {
          "name": "A3",
          "midi": 57,
          "time": 168.12500000000003,
          "velocity": 0.6299212598425197,
          "duration": 0.3059895833333428
        },
        {
          "name": "C4",
          "midi": 60,
          "time": 168.12500000000003,
          "velocity": 0.6299212598425197,
          "duration": 0.3059895833333428
        },
        {
          "name": "F4",
          "midi": 65,
          "time": 168.12500000000003,
          "velocity": 0.6299212598425197,
          "duration": 0.3059895833333428
        },
        {
          "name": "F2",
          "midi": 41,
          "time": 168.43750000000003,
          "velocity": 0.7874015748031497,
          "duration": 0.3059895833333428
        },
        {
          "name": "C3",
          "midi": 48,
          "time": 168.43750000000003,
          "velocity": 0.7874015748031497,
          "duration": 0.3059895833333428
        },
        {
          "name": "F3",
          "midi": 53,
          "time": 168.43750000000003,
          "velocity": 0.7874015748031497,
          "duration": 0.3059895833333428
        },
        {
          "name": "A3",
          "midi": 57,
          "time": 168.43750000000003,
          "velocity": 0.7874015748031497,
          "duration": 0.3059895833333428
        },
        {
          "name": "C4",
          "midi": 60,
          "time": 168.43750000000003,
          "velocity": 0.7874015748031497,
          "duration": 0.3059895833333428
        },
        {
          "name": "F4",
          "midi": 65,
          "time": 168.43750000000003,
          "velocity": 0.7874015748031497,
          "duration": 0.3059895833333428
        },
        {
          "name": "F4",
          "midi": 65,
          "time": 168.75000000000003,
          "velocity": 0.5511811023622047,
          "duration": 0.1497395833333428
        },
        {
          "name": "C4",
          "midi": 60,
          "time": 168.75000000000003,
          "velocity": 0.5511811023622047,
          "duration": 0.1497395833333428
        },
        {
          "name": "A3",
          "midi": 57,
          "time": 168.75000000000003,
          "velocity": 0.5511811023622047,
          "duration": 0.1497395833333428
        },
        {
          "name": "F3",
          "midi": 53,
          "time": 168.75000000000003,
          "velocity": 0.5511811023622047,
          "duration": 0.1497395833333428
        },
        {
          "name": "C3",
          "midi": 48,
          "time": 168.90625000000003,
          "velocity": 0.6299212598425197,
          "duration": 0.3059895833333428
        },
        {
          "name": "F3",
          "midi": 53,
          "time": 168.90625000000003,
          "velocity": 0.6299212598425197,
          "duration": 0.3059895833333428
        },
        {
          "name": "A3",
          "midi": 57,
          "time": 168.90625000000003,
          "velocity": 0.6299212598425197,
          "duration": 0.3059895833333428
        },
        {
          "name": "C4",
          "midi": 60,
          "time": 168.90625000000003,
          "velocity": 0.6299212598425197,
          "duration": 0.3059895833333428
        },
        {
          "name": "F4",
          "midi": 65,
          "time": 168.90625000000003,
          "velocity": 0.6299212598425197,
          "duration": 0.3059895833333428
        },
        {
          "name": "F2",
          "midi": 41,
          "time": 169.06250000000003,
          "velocity": 0.6299212598425197,
          "duration": 0.3059895833333428
        },
        {
          "name": "C3",
          "midi": 48,
          "time": 169.06250000000003,
          "velocity": 0.6299212598425197,
          "duration": 0.3059895833333428
        },
        {
          "name": "F3",
          "midi": 53,
          "time": 169.06250000000003,
          "velocity": 0.6299212598425197,
          "duration": 0.3059895833333428
        },
        {
          "name": "A3",
          "midi": 57,
          "time": 169.06250000000003,
          "velocity": 0.6299212598425197,
          "duration": 0.3059895833333428
        },
        {
          "name": "C4",
          "midi": 60,
          "time": 169.06250000000003,
          "velocity": 0.6299212598425197,
          "duration": 0.3059895833333428
        },
        {
          "name": "F4",
          "midi": 65,
          "time": 169.06250000000003,
          "velocity": 0.6299212598425197,
          "duration": 0.3059895833333428
        },
        {
          "name": "F2",
          "midi": 41,
          "time": 169.37500000000003,
          "velocity": 0.7874015748031497,
          "duration": 0.3059895833333428
        },
        {
          "name": "C3",
          "midi": 48,
          "time": 169.37500000000003,
          "velocity": 0.7874015748031497,
          "duration": 0.3059895833333428
        },
        {
          "name": "F3",
          "midi": 53,
          "time": 169.37500000000003,
          "velocity": 0.7874015748031497,
          "duration": 0.3059895833333428
        },
        {
          "name": "A3",
          "midi": 57,
          "time": 169.37500000000003,
          "velocity": 0.7874015748031497,
          "duration": 0.3059895833333428
        },
        {
          "name": "C4",
          "midi": 60,
          "time": 169.37500000000003,
          "velocity": 0.7874015748031497,
          "duration": 0.3059895833333428
        },
        {
          "name": "F4",
          "midi": 65,
          "time": 169.37500000000003,
          "velocity": 0.7874015748031497,
          "duration": 0.3059895833333428
        },
        {
          "name": "F3",
          "midi": 53,
          "time": 169.53125000000003,
          "velocity": 0.5039370078740157,
          "duration": 0.3059895833333428
        },
        {
          "name": "A3",
          "midi": 57,
          "time": 169.53125000000003,
          "velocity": 0.5039370078740157,
          "duration": 0.3059895833333428
        },
        {
          "name": "C4",
          "midi": 60,
          "time": 169.53125000000003,
          "velocity": 0.5039370078740157,
          "duration": 0.3059895833333428
        },
        {
          "name": "F4",
          "midi": 65,
          "time": 169.53125000000003,
          "velocity": 0.5039370078740157,
          "duration": 0.3059895833333428
        },
        {
          "name": "F4",
          "midi": 65,
          "time": 169.68750000000003,
          "velocity": 0.4409448818897638,
          "duration": 0.1497395833333428
        },
        {
          "name": "C4",
          "midi": 60,
          "time": 169.68750000000003,
          "velocity": 0.4409448818897638,
          "duration": 0.1497395833333428
        },
        {
          "name": "A3",
          "midi": 57,
          "time": 169.68750000000003,
          "velocity": 0.4409448818897638,
          "duration": 0.1497395833333428
        },
        {
          "name": "F4",
          "midi": 65,
          "time": 169.84375000000003,
          "velocity": 0.5511811023622047,
          "duration": 0.1497395833333428
        },
        {
          "name": "C4",
          "midi": 60,
          "time": 169.84375000000003,
          "velocity": 0.5511811023622047,
          "duration": 0.1497395833333428
        },
        {
          "name": "A3",
          "midi": 57,
          "time": 169.84375000000003,
          "velocity": 0.5511811023622047,
          "duration": 0.1497395833333428
        },
        {
          "name": "F3",
          "midi": 53,
          "time": 169.84375000000003,
          "velocity": 0.5511811023622047,
          "duration": 0.1497395833333428
        },
        {
          "name": "A2",
          "midi": 45,
          "time": 170.00000000000003,
          "velocity": 0.7874015748031497,
          "duration": 0.3059895833333428
        },
        {
          "name": "E3",
          "midi": 52,
          "time": 170.00000000000003,
          "velocity": 0.7874015748031497,
          "duration": 0.3059895833333428
        },
        {
          "name": "A3",
          "midi": 57,
          "time": 170.00000000000003,
          "velocity": 0.7874015748031497,
          "duration": 0.3059895833333428
        },
        {
          "name": "C4",
          "midi": 60,
          "time": 170.00000000000003,
          "velocity": 0.7874015748031497,
          "duration": 0.3059895833333428
        },
        {
          "name": "E4",
          "midi": 64,
          "time": 170.00000000000003,
          "velocity": 0.7874015748031497,
          "duration": 0.3059895833333428
        },
        {
          "name": "A4",
          "midi": 69,
          "time": 170.00000000000003,
          "velocity": 0.7874015748031497,
          "duration": 0.3059895833333428
        },
        {
          "name": "A4",
          "midi": 69,
          "time": 170.31250000000003,
          "velocity": 0.5511811023622047,
          "duration": 0.1497395833333428
        },
        {
          "name": "E4",
          "midi": 64,
          "time": 170.31250000000003,
          "velocity": 0.5511811023622047,
          "duration": 0.1497395833333428
        },
        {
          "name": "C4",
          "midi": 60,
          "time": 170.31250000000003,
          "velocity": 0.5511811023622047,
          "duration": 0.1497395833333428
        },
        {
          "name": "A3",
          "midi": 57,
          "time": 170.31250000000003,
          "velocity": 0.5511811023622047,
          "duration": 0.1497395833333428
        },
        {
          "name": "E3",
          "midi": 52,
          "time": 170.46875000000003,
          "velocity": 0.6299212598425197,
          "duration": 0.3059895833333428
        },
        {
          "name": "A3",
          "midi": 57,
          "time": 170.46875000000003,
          "velocity": 0.6299212598425197,
          "duration": 0.3059895833333428
        },
        {
          "name": "C4",
          "midi": 60,
          "time": 170.46875000000003,
          "velocity": 0.6299212598425197,
          "duration": 0.3059895833333428
        },
        {
          "name": "E4",
          "midi": 64,
          "time": 170.46875000000003,
          "velocity": 0.6299212598425197,
          "duration": 0.3059895833333428
        },
        {
          "name": "A4",
          "midi": 69,
          "time": 170.46875000000003,
          "velocity": 0.6299212598425197,
          "duration": 0.3059895833333428
        },
        {
          "name": "A2",
          "midi": 45,
          "time": 170.62500000000003,
          "velocity": 0.6299212598425197,
          "duration": 0.3059895833333428
        },
        {
          "name": "E3",
          "midi": 52,
          "time": 170.62500000000003,
          "velocity": 0.6299212598425197,
          "duration": 0.3059895833333428
        },
        {
          "name": "A3",
          "midi": 57,
          "time": 170.62500000000003,
          "velocity": 0.6299212598425197,
          "duration": 0.3059895833333428
        },
        {
          "name": "C4",
          "midi": 60,
          "time": 170.62500000000003,
          "velocity": 0.6299212598425197,
          "duration": 0.3059895833333428
        },
        {
          "name": "E4",
          "midi": 64,
          "time": 170.62500000000003,
          "velocity": 0.6299212598425197,
          "duration": 0.3059895833333428
        },
        {
          "name": "A4",
          "midi": 69,
          "time": 170.62500000000003,
          "velocity": 0.6299212598425197,
          "duration": 0.3059895833333428
        },
        {
          "name": "A2",
          "midi": 45,
          "time": 170.93750000000003,
          "velocity": 0.7874015748031497,
          "duration": 0.3059895833333428
        },
        {
          "name": "E3",
          "midi": 52,
          "time": 170.93750000000003,
          "velocity": 0.7874015748031497,
          "duration": 0.3059895833333428
        },
        {
          "name": "A3",
          "midi": 57,
          "time": 170.93750000000003,
          "velocity": 0.7874015748031497,
          "duration": 0.3059895833333428
        },
        {
          "name": "C4",
          "midi": 60,
          "time": 170.93750000000003,
          "velocity": 0.7874015748031497,
          "duration": 0.3059895833333428
        },
        {
          "name": "E4",
          "midi": 64,
          "time": 170.93750000000003,
          "velocity": 0.7874015748031497,
          "duration": 0.3059895833333428
        },
        {
          "name": "A4",
          "midi": 69,
          "time": 170.93750000000003,
          "velocity": 0.7874015748031497,
          "duration": 0.3059895833333428
        },
        {
          "name": "A4",
          "midi": 69,
          "time": 171.25000000000003,
          "velocity": 0.5511811023622047,
          "duration": 0.1497395833333428
        },
        {
          "name": "E4",
          "midi": 64,
          "time": 171.25000000000003,
          "velocity": 0.5511811023622047,
          "duration": 0.1497395833333428
        },
        {
          "name": "C4",
          "midi": 60,
          "time": 171.25000000000003,
          "velocity": 0.5511811023622047,
          "duration": 0.1497395833333428
        },
        {
          "name": "A3",
          "midi": 57,
          "time": 171.25000000000003,
          "velocity": 0.5511811023622047,
          "duration": 0.1497395833333428
        },
        {
          "name": "E3",
          "midi": 52,
          "time": 171.40625000000003,
          "velocity": 0.6299212598425197,
          "duration": 0.3059895833333428
        },
        {
          "name": "A3",
          "midi": 57,
          "time": 171.40625000000003,
          "velocity": 0.6299212598425197,
          "duration": 0.3059895833333428
        },
        {
          "name": "C4",
          "midi": 60,
          "time": 171.40625000000003,
          "velocity": 0.6299212598425197,
          "duration": 0.3059895833333428
        },
        {
          "name": "E4",
          "midi": 64,
          "time": 171.40625000000003,
          "velocity": 0.6299212598425197,
          "duration": 0.3059895833333428
        },
        {
          "name": "A4",
          "midi": 69,
          "time": 171.40625000000003,
          "velocity": 0.8188976377952756,
          "duration": 0.3059895833333428
        },
        {
          "name": "A2",
          "midi": 45,
          "time": 171.56250000000003,
          "velocity": 0.6299212598425197,
          "duration": 0.3059895833333428
        },
        {
          "name": "E3",
          "midi": 52,
          "time": 171.56250000000003,
          "velocity": 0.6299212598425197,
          "duration": 0.3059895833333428
        },
        {
          "name": "A3",
          "midi": 57,
          "time": 171.56250000000003,
          "velocity": 0.6299212598425197,
          "duration": 0.3059895833333428
        },
        {
          "name": "C4",
          "midi": 60,
          "time": 171.56250000000003,
          "velocity": 0.6299212598425197,
          "duration": 0.3059895833333428
        },
        {
          "name": "E4",
          "midi": 64,
          "time": 171.56250000000003,
          "velocity": 0.6299212598425197,
          "duration": 0.3059895833333428
        },
        {
          "name": "A4",
          "midi": 69,
          "time": 171.56250000000003,
          "velocity": 0.6299212598425197,
          "duration": 0.3059895833333428
        },
        {
          "name": "A2",
          "midi": 45,
          "time": 171.87500000000003,
          "velocity": 0.7874015748031497,
          "duration": 0.3059895833333428
        },
        {
          "name": "E3",
          "midi": 52,
          "time": 171.87500000000003,
          "velocity": 0.7874015748031497,
          "duration": 0.3059895833333428
        },
        {
          "name": "A3",
          "midi": 57,
          "time": 171.87500000000003,
          "velocity": 0.7874015748031497,
          "duration": 0.3059895833333428
        },
        {
          "name": "C4",
          "midi": 60,
          "time": 171.87500000000003,
          "velocity": 0.7874015748031497,
          "duration": 0.3059895833333428
        },
        {
          "name": "E4",
          "midi": 64,
          "time": 171.87500000000003,
          "velocity": 0.7874015748031497,
          "duration": 0.3059895833333428
        },
        {
          "name": "A4",
          "midi": 69,
          "time": 171.87500000000003,
          "velocity": 0.7874015748031497,
          "duration": 0.3059895833333428
        },
        {
          "name": "A4",
          "midi": 69,
          "time": 172.18750000000003,
          "velocity": 0.5511811023622047,
          "duration": 0.1497395833333428
        },
        {
          "name": "E4",
          "midi": 64,
          "time": 172.18750000000003,
          "velocity": 0.5511811023622047,
          "duration": 0.1497395833333428
        },
        {
          "name": "C4",
          "midi": 60,
          "time": 172.18750000000003,
          "velocity": 0.5511811023622047,
          "duration": 0.1497395833333428
        },
        {
          "name": "A4",
          "midi": 69,
          "time": 172.34375000000003,
          "velocity": 0.5511811023622047,
          "duration": 0.1497395833333428
        },
        {
          "name": "E4",
          "midi": 64,
          "time": 172.34375000000003,
          "velocity": 0.5511811023622047,
          "duration": 0.1497395833333428
        },
        {
          "name": "C4",
          "midi": 60,
          "time": 172.34375000000003,
          "velocity": 0.5511811023622047,
          "duration": 0.1497395833333428
        },
        {
          "name": "A3",
          "midi": 57,
          "time": 172.34375000000003,
          "velocity": 0.5511811023622047,
          "duration": 0.1497395833333428
        },
        {
          "name": "F2",
          "midi": 41,
          "time": 172.50000000000003,
          "velocity": 0.7874015748031497,
          "duration": 0.3059895833333428
        },
        {
          "name": "C3",
          "midi": 48,
          "time": 172.50000000000003,
          "velocity": 0.7874015748031497,
          "duration": 0.3059895833333428
        },
        {
          "name": "F3",
          "midi": 53,
          "time": 172.50000000000003,
          "velocity": 0.7874015748031497,
          "duration": 0.3059895833333428
        },
        {
          "name": "A3",
          "midi": 57,
          "time": 172.50000000000003,
          "velocity": 0.7874015748031497,
          "duration": 0.3059895833333428
        },
        {
          "name": "C4",
          "midi": 60,
          "time": 172.50000000000003,
          "velocity": 0.7874015748031497,
          "duration": 0.3059895833333428
        },
        {
          "name": "F4",
          "midi": 65,
          "time": 172.50000000000003,
          "velocity": 0.7874015748031497,
          "duration": 0.3059895833333428
        },
        {
          "name": "F4",
          "midi": 65,
          "time": 172.81250000000003,
          "velocity": 0.5511811023622047,
          "duration": 0.1497395833333428
        },
        {
          "name": "C4",
          "midi": 60,
          "time": 172.81250000000003,
          "velocity": 0.5511811023622047,
          "duration": 0.1497395833333428
        },
        {
          "name": "A3",
          "midi": 57,
          "time": 172.81250000000003,
          "velocity": 0.5511811023622047,
          "duration": 0.1497395833333428
        },
        {
          "name": "F3",
          "midi": 53,
          "time": 172.81250000000003,
          "velocity": 0.5511811023622047,
          "duration": 0.1497395833333428
        },
        {
          "name": "C3",
          "midi": 48,
          "time": 172.96875000000003,
          "velocity": 0.6299212598425197,
          "duration": 0.3059895833333428
        },
        {
          "name": "F3",
          "midi": 53,
          "time": 172.96875000000003,
          "velocity": 0.6299212598425197,
          "duration": 0.3059895833333428
        },
        {
          "name": "A3",
          "midi": 57,
          "time": 172.96875000000003,
          "velocity": 0.6299212598425197,
          "duration": 0.3059895833333428
        },
        {
          "name": "C4",
          "midi": 60,
          "time": 172.96875000000003,
          "velocity": 0.6299212598425197,
          "duration": 0.3059895833333428
        },
        {
          "name": "F4",
          "midi": 65,
          "time": 172.96875000000003,
          "velocity": 0.7401574803149606,
          "duration": 0.3059895833333428
        },
        {
          "name": "F2",
          "midi": 41,
          "time": 173.12500000000003,
          "velocity": 0.6614173228346457,
          "duration": 0.3059895833333428
        },
        {
          "name": "C3",
          "midi": 48,
          "time": 173.12500000000003,
          "velocity": 0.6299212598425197,
          "duration": 0.3059895833333428
        },
        {
          "name": "F3",
          "midi": 53,
          "time": 173.12500000000003,
          "velocity": 0.6299212598425197,
          "duration": 0.3059895833333428
        },
        {
          "name": "A3",
          "midi": 57,
          "time": 173.12500000000003,
          "velocity": 0.6299212598425197,
          "duration": 0.3059895833333428
        },
        {
          "name": "C4",
          "midi": 60,
          "time": 173.12500000000003,
          "velocity": 0.6299212598425197,
          "duration": 0.3059895833333428
        },
        {
          "name": "F4",
          "midi": 65,
          "time": 173.12500000000003,
          "velocity": 0.6771653543307087,
          "duration": 0.3059895833333428
        },
        {
          "name": "F2",
          "midi": 41,
          "time": 173.43750000000003,
          "velocity": 0.7874015748031497,
          "duration": 0.3059895833333428
        },
        {
          "name": "C3",
          "midi": 48,
          "time": 173.43750000000003,
          "velocity": 0.7874015748031497,
          "duration": 0.3059895833333428
        },
        {
          "name": "F3",
          "midi": 53,
          "time": 173.43750000000003,
          "velocity": 0.7874015748031497,
          "duration": 0.3059895833333428
        },
        {
          "name": "A3",
          "midi": 57,
          "time": 173.43750000000003,
          "velocity": 0.7874015748031497,
          "duration": 0.3059895833333428
        },
        {
          "name": "C4",
          "midi": 60,
          "time": 173.43750000000003,
          "velocity": 0.7874015748031497,
          "duration": 0.3059895833333428
        },
        {
          "name": "F4",
          "midi": 65,
          "time": 173.43750000000003,
          "velocity": 0.7874015748031497,
          "duration": 0.3059895833333428
        },
        {
          "name": "F4",
          "midi": 65,
          "time": 173.75000000000003,
          "velocity": 0.5511811023622047,
          "duration": 0.1497395833333428
        },
        {
          "name": "C4",
          "midi": 60,
          "time": 173.75000000000003,
          "velocity": 0.5511811023622047,
          "duration": 0.1497395833333428
        },
        {
          "name": "A3",
          "midi": 57,
          "time": 173.75000000000003,
          "velocity": 0.5511811023622047,
          "duration": 0.1497395833333428
        },
        {
          "name": "F3",
          "midi": 53,
          "time": 173.75000000000003,
          "velocity": 0.5511811023622047,
          "duration": 0.1497395833333428
        },
        {
          "name": "C3",
          "midi": 48,
          "time": 173.90625000000003,
          "velocity": 0.6299212598425197,
          "duration": 0.3059895833333428
        },
        {
          "name": "F3",
          "midi": 53,
          "time": 173.90625000000003,
          "velocity": 0.6299212598425197,
          "duration": 0.3059895833333428
        },
        {
          "name": "A3",
          "midi": 57,
          "time": 173.90625000000003,
          "velocity": 0.6299212598425197,
          "duration": 0.3059895833333428
        },
        {
          "name": "C4",
          "midi": 60,
          "time": 173.90625000000003,
          "velocity": 0.6299212598425197,
          "duration": 0.3059895833333428
        },
        {
          "name": "F4",
          "midi": 65,
          "time": 173.90625000000003,
          "velocity": 0.7637795275590551,
          "duration": 0.3059895833333428
        },
        {
          "name": "F2",
          "midi": 41,
          "time": 174.06250000000003,
          "velocity": 0.6299212598425197,
          "duration": 0.3059895833333428
        },
        {
          "name": "C3",
          "midi": 48,
          "time": 174.06250000000003,
          "velocity": 0.6299212598425197,
          "duration": 0.3059895833333428
        },
        {
          "name": "F3",
          "midi": 53,
          "time": 174.06250000000003,
          "velocity": 0.6299212598425197,
          "duration": 0.3059895833333428
        },
        {
          "name": "A3",
          "midi": 57,
          "time": 174.06250000000003,
          "velocity": 0.6299212598425197,
          "duration": 0.3059895833333428
        },
        {
          "name": "C4",
          "midi": 60,
          "time": 174.06250000000003,
          "velocity": 0.6299212598425197,
          "duration": 0.3059895833333428
        },
        {
          "name": "F4",
          "midi": 65,
          "time": 174.06250000000003,
          "velocity": 0.6299212598425197,
          "duration": 0.3059895833333428
        },
        {
          "name": "F2",
          "midi": 41,
          "time": 174.37500000000003,
          "velocity": 0.7874015748031497,
          "duration": 0.3059895833333428
        },
        {
          "name": "C3",
          "midi": 48,
          "time": 174.37500000000003,
          "velocity": 0.7874015748031497,
          "duration": 0.3059895833333428
        },
        {
          "name": "F3",
          "midi": 53,
          "time": 174.37500000000003,
          "velocity": 0.7874015748031497,
          "duration": 0.3059895833333428
        },
        {
          "name": "A3",
          "midi": 57,
          "time": 174.37500000000003,
          "velocity": 0.7874015748031497,
          "duration": 0.3059895833333428
        },
        {
          "name": "C4",
          "midi": 60,
          "time": 174.37500000000003,
          "velocity": 0.7874015748031497,
          "duration": 0.3059895833333428
        },
        {
          "name": "F4",
          "midi": 65,
          "time": 174.37500000000003,
          "velocity": 0.7874015748031497,
          "duration": 0.3059895833333428
        },
        {
          "name": "F3",
          "midi": 53,
          "time": 174.53125000000003,
          "velocity": 0.5039370078740157,
          "duration": 0.3059895833333428
        },
        {
          "name": "A3",
          "midi": 57,
          "time": 174.53125000000003,
          "velocity": 0.5039370078740157,
          "duration": 0.3059895833333428
        },
        {
          "name": "C4",
          "midi": 60,
          "time": 174.53125000000003,
          "velocity": 0.5039370078740157,
          "duration": 0.3059895833333428
        },
        {
          "name": "F4",
          "midi": 65,
          "time": 174.53125000000003,
          "velocity": 0.5039370078740157,
          "duration": 0.3059895833333428
        },
        {
          "name": "F4",
          "midi": 65,
          "time": 174.68750000000003,
          "velocity": 0.4409448818897638,
          "duration": 0.1497395833333428
        },
        {
          "name": "C4",
          "midi": 60,
          "time": 174.68750000000003,
          "velocity": 0.4409448818897638,
          "duration": 0.1497395833333428
        },
        {
          "name": "A3",
          "midi": 57,
          "time": 174.68750000000003,
          "velocity": 0.4409448818897638,
          "duration": 0.1497395833333428
        },
        {
          "name": "F4",
          "midi": 65,
          "time": 174.84375000000003,
          "velocity": 0.5511811023622047,
          "duration": 0.1497395833333428
        },
        {
          "name": "C4",
          "midi": 60,
          "time": 174.84375000000003,
          "velocity": 0.5511811023622047,
          "duration": 0.1497395833333428
        },
        {
          "name": "A3",
          "midi": 57,
          "time": 174.84375000000003,
          "velocity": 0.5511811023622047,
          "duration": 0.1497395833333428
        },
        {
          "name": "F3",
          "midi": 53,
          "time": 174.84375000000003,
          "velocity": 0.5511811023622047,
          "duration": 0.1497395833333428
        },
        {
          "name": "A2",
          "midi": 45,
          "time": 175.00000000000003,
          "velocity": 0.7874015748031497,
          "duration": 0.3059895833333428
        },
        {
          "name": "E3",
          "midi": 52,
          "time": 175.00000000000003,
          "velocity": 0.7874015748031497,
          "duration": 0.3059895833333428
        },
        {
          "name": "A3",
          "midi": 57,
          "time": 175.00000000000003,
          "velocity": 0.7874015748031497,
          "duration": 0.3059895833333428
        },
        {
          "name": "C4",
          "midi": 60,
          "time": 175.00000000000003,
          "velocity": 0.7874015748031497,
          "duration": 0.3059895833333428
        },
        {
          "name": "E4",
          "midi": 64,
          "time": 175.00000000000003,
          "velocity": 0.7874015748031497,
          "duration": 0.3059895833333428
        },
        {
          "name": "A4",
          "midi": 69,
          "time": 175.00000000000003,
          "velocity": 0.7874015748031497,
          "duration": 0.3059895833333428
        },
        {
          "name": "A4",
          "midi": 69,
          "time": 175.31250000000003,
          "velocity": 0.5511811023622047,
          "duration": 0.1497395833333428
        },
        {
          "name": "E4",
          "midi": 64,
          "time": 175.31250000000003,
          "velocity": 0.5511811023622047,
          "duration": 0.1497395833333428
        },
        {
          "name": "C4",
          "midi": 60,
          "time": 175.31250000000003,
          "velocity": 0.5511811023622047,
          "duration": 0.1497395833333428
        },
        {
          "name": "A3",
          "midi": 57,
          "time": 175.31250000000003,
          "velocity": 0.5511811023622047,
          "duration": 0.1497395833333428
        },
        {
          "name": "E3",
          "midi": 52,
          "time": 175.46875000000003,
          "velocity": 0.6299212598425197,
          "duration": 0.3059895833333428
        },
        {
          "name": "A3",
          "midi": 57,
          "time": 175.46875000000003,
          "velocity": 0.6299212598425197,
          "duration": 0.3059895833333428
        },
        {
          "name": "C4",
          "midi": 60,
          "time": 175.46875000000003,
          "velocity": 0.6299212598425197,
          "duration": 0.3059895833333428
        },
        {
          "name": "E4",
          "midi": 64,
          "time": 175.46875000000003,
          "velocity": 0.6299212598425197,
          "duration": 0.3059895833333428
        },
        {
          "name": "A4",
          "midi": 69,
          "time": 175.46875000000003,
          "velocity": 0.6299212598425197,
          "duration": 0.3059895833333428
        },
        {
          "name": "A2",
          "midi": 45,
          "time": 175.62500000000003,
          "velocity": 0.6299212598425197,
          "duration": 0.3059895833333428
        },
        {
          "name": "E3",
          "midi": 52,
          "time": 175.62500000000003,
          "velocity": 0.6299212598425197,
          "duration": 0.3059895833333428
        },
        {
          "name": "A3",
          "midi": 57,
          "time": 175.62500000000003,
          "velocity": 0.6299212598425197,
          "duration": 0.3059895833333428
        },
        {
          "name": "C4",
          "midi": 60,
          "time": 175.62500000000003,
          "velocity": 0.6299212598425197,
          "duration": 0.3059895833333428
        },
        {
          "name": "E4",
          "midi": 64,
          "time": 175.62500000000003,
          "velocity": 0.6299212598425197,
          "duration": 0.3059895833333428
        },
        {
          "name": "A4",
          "midi": 69,
          "time": 175.62500000000003,
          "velocity": 0.6299212598425197,
          "duration": 0.3059895833333428
        },
        {
          "name": "A2",
          "midi": 45,
          "time": 175.93750000000003,
          "velocity": 0.7874015748031497,
          "duration": 0.3059895833333428
        },
        {
          "name": "E3",
          "midi": 52,
          "time": 175.93750000000003,
          "velocity": 0.7874015748031497,
          "duration": 0.3059895833333428
        },
        {
          "name": "A3",
          "midi": 57,
          "time": 175.93750000000003,
          "velocity": 0.7874015748031497,
          "duration": 0.3059895833333428
        },
        {
          "name": "C4",
          "midi": 60,
          "time": 175.93750000000003,
          "velocity": 0.7874015748031497,
          "duration": 0.3059895833333428
        },
        {
          "name": "E4",
          "midi": 64,
          "time": 175.93750000000003,
          "velocity": 0.7874015748031497,
          "duration": 0.3059895833333428
        },
        {
          "name": "A4",
          "midi": 69,
          "time": 175.93750000000003,
          "velocity": 0.7874015748031497,
          "duration": 0.3059895833333428
        },
        {
          "name": "A4",
          "midi": 69,
          "time": 176.25000000000003,
          "velocity": 0.5511811023622047,
          "duration": 0.1497395833333428
        },
        {
          "name": "E4",
          "midi": 64,
          "time": 176.25000000000003,
          "velocity": 0.5511811023622047,
          "duration": 0.1497395833333428
        },
        {
          "name": "C4",
          "midi": 60,
          "time": 176.25000000000003,
          "velocity": 0.5511811023622047,
          "duration": 0.1497395833333428
        },
        {
          "name": "A3",
          "midi": 57,
          "time": 176.25000000000003,
          "velocity": 0.5511811023622047,
          "duration": 0.1497395833333428
        },
        {
          "name": "E3",
          "midi": 52,
          "time": 176.40625000000003,
          "velocity": 0.6299212598425197,
          "duration": 0.3059895833333428
        },
        {
          "name": "A3",
          "midi": 57,
          "time": 176.40625000000003,
          "velocity": 0.6299212598425197,
          "duration": 0.3059895833333428
        },
        {
          "name": "C4",
          "midi": 60,
          "time": 176.40625000000003,
          "velocity": 0.6299212598425197,
          "duration": 0.3059895833333428
        },
        {
          "name": "E4",
          "midi": 64,
          "time": 176.40625000000003,
          "velocity": 0.6299212598425197,
          "duration": 0.3059895833333428
        },
        {
          "name": "A4",
          "midi": 69,
          "time": 176.40625000000003,
          "velocity": 0.6299212598425197,
          "duration": 0.3059895833333428
        },
        {
          "name": "A2",
          "midi": 45,
          "time": 176.56250000000003,
          "velocity": 0.6299212598425197,
          "duration": 0.3059895833333428
        },
        {
          "name": "E3",
          "midi": 52,
          "time": 176.56250000000003,
          "velocity": 0.6299212598425197,
          "duration": 0.3059895833333428
        },
        {
          "name": "A3",
          "midi": 57,
          "time": 176.56250000000003,
          "velocity": 0.6299212598425197,
          "duration": 0.3059895833333428
        },
        {
          "name": "C4",
          "midi": 60,
          "time": 176.56250000000003,
          "velocity": 0.6299212598425197,
          "duration": 0.3059895833333428
        },
        {
          "name": "E4",
          "midi": 64,
          "time": 176.56250000000003,
          "velocity": 0.6299212598425197,
          "duration": 0.3059895833333428
        },
        {
          "name": "A4",
          "midi": 69,
          "time": 176.56250000000003,
          "velocity": 0.6299212598425197,
          "duration": 0.3059895833333428
        },
        {
          "name": "A2",
          "midi": 45,
          "time": 176.87500000000003,
          "velocity": 0.7874015748031497,
          "duration": 0.3059895833333428
        },
        {
          "name": "E3",
          "midi": 52,
          "time": 176.87500000000003,
          "velocity": 0.7874015748031497,
          "duration": 0.3059895833333428
        },
        {
          "name": "A3",
          "midi": 57,
          "time": 176.87500000000003,
          "velocity": 0.7874015748031497,
          "duration": 0.3059895833333428
        },
        {
          "name": "C4",
          "midi": 60,
          "time": 176.87500000000003,
          "velocity": 0.7874015748031497,
          "duration": 0.3059895833333428
        },
        {
          "name": "E4",
          "midi": 64,
          "time": 176.87500000000003,
          "velocity": 0.7874015748031497,
          "duration": 0.3059895833333428
        },
        {
          "name": "A4",
          "midi": 69,
          "time": 176.87500000000003,
          "velocity": 0.7874015748031497,
          "duration": 0.3059895833333428
        },
        {
          "name": "A4",
          "midi": 69,
          "time": 177.18750000000003,
          "velocity": 0.5511811023622047,
          "duration": 0.1497395833333428
        },
        {
          "name": "E4",
          "midi": 64,
          "time": 177.18750000000003,
          "velocity": 0.5511811023622047,
          "duration": 0.1497395833333428
        },
        {
          "name": "C4",
          "midi": 60,
          "time": 177.18750000000003,
          "velocity": 0.5511811023622047,
          "duration": 0.1497395833333428
        },
        {
          "name": "A4",
          "midi": 69,
          "time": 177.34375000000003,
          "velocity": 0.5511811023622047,
          "duration": 0.1497395833333428
        },
        {
          "name": "E4",
          "midi": 64,
          "time": 177.34375000000003,
          "velocity": 0.5511811023622047,
          "duration": 0.1497395833333428
        },
        {
          "name": "C4",
          "midi": 60,
          "time": 177.34375000000003,
          "velocity": 0.5511811023622047,
          "duration": 0.1497395833333428
        },
        {
          "name": "A3",
          "midi": 57,
          "time": 177.34375000000003,
          "velocity": 0.5511811023622047,
          "duration": 0.1497395833333428
        },
        {
          "name": "F2",
          "midi": 41,
          "time": 177.50000000000003,
          "velocity": 0.7874015748031497,
          "duration": 0.3059895833333428
        },
        {
          "name": "C3",
          "midi": 48,
          "time": 177.50000000000003,
          "velocity": 0.7874015748031497,
          "duration": 0.3059895833333428
        },
        {
          "name": "F3",
          "midi": 53,
          "time": 177.50000000000003,
          "velocity": 0.7874015748031497,
          "duration": 0.3059895833333428
        },
        {
          "name": "A3",
          "midi": 57,
          "time": 177.50000000000003,
          "velocity": 0.7874015748031497,
          "duration": 0.3059895833333428
        },
        {
          "name": "C4",
          "midi": 60,
          "time": 177.50000000000003,
          "velocity": 0.7874015748031497,
          "duration": 0.3059895833333428
        },
        {
          "name": "F4",
          "midi": 65,
          "time": 177.50000000000003,
          "velocity": 0.7874015748031497,
          "duration": 0.3059895833333428
        },
        {
          "name": "F4",
          "midi": 65,
          "time": 177.81250000000003,
          "velocity": 0.5511811023622047,
          "duration": 0.1497395833333428
        },
        {
          "name": "C4",
          "midi": 60,
          "time": 177.81250000000003,
          "velocity": 0.5511811023622047,
          "duration": 0.1497395833333428
        },
        {
          "name": "A3",
          "midi": 57,
          "time": 177.81250000000003,
          "velocity": 0.5511811023622047,
          "duration": 0.1497395833333428
        },
        {
          "name": "F3",
          "midi": 53,
          "time": 177.81250000000003,
          "velocity": 0.5511811023622047,
          "duration": 0.1497395833333428
        },
        {
          "name": "C3",
          "midi": 48,
          "time": 177.96875000000003,
          "velocity": 0.6299212598425197,
          "duration": 0.3059895833333428
        },
        {
          "name": "F3",
          "midi": 53,
          "time": 177.96875000000003,
          "velocity": 0.6299212598425197,
          "duration": 0.3059895833333428
        },
        {
          "name": "A3",
          "midi": 57,
          "time": 177.96875000000003,
          "velocity": 0.6299212598425197,
          "duration": 0.3059895833333428
        },
        {
          "name": "C4",
          "midi": 60,
          "time": 177.96875000000003,
          "velocity": 0.6299212598425197,
          "duration": 0.3059895833333428
        },
        {
          "name": "F4",
          "midi": 65,
          "time": 177.96875000000003,
          "velocity": 0.6299212598425197,
          "duration": 0.3059895833333428
        },
        {
          "name": "F2",
          "midi": 41,
          "time": 178.12500000000003,
          "velocity": 0.6299212598425197,
          "duration": 0.3059895833333428
        },
        {
          "name": "C3",
          "midi": 48,
          "time": 178.12500000000003,
          "velocity": 0.6299212598425197,
          "duration": 0.3059895833333428
        },
        {
          "name": "F3",
          "midi": 53,
          "time": 178.12500000000003,
          "velocity": 0.6299212598425197,
          "duration": 0.3059895833333428
        },
        {
          "name": "A3",
          "midi": 57,
          "time": 178.12500000000003,
          "velocity": 0.6299212598425197,
          "duration": 0.3059895833333428
        },
        {
          "name": "C4",
          "midi": 60,
          "time": 178.12500000000003,
          "velocity": 0.6299212598425197,
          "duration": 0.3059895833333428
        },
        {
          "name": "F4",
          "midi": 65,
          "time": 178.12500000000003,
          "velocity": 0.6299212598425197,
          "duration": 0.3059895833333428
        },
        {
          "name": "F2",
          "midi": 41,
          "time": 178.43750000000003,
          "velocity": 0.7874015748031497,
          "duration": 0.3059895833333428
        },
        {
          "name": "C3",
          "midi": 48,
          "time": 178.43750000000003,
          "velocity": 0.7874015748031497,
          "duration": 0.3059895833333428
        },
        {
          "name": "F3",
          "midi": 53,
          "time": 178.43750000000003,
          "velocity": 0.7874015748031497,
          "duration": 0.3059895833333428
        },
        {
          "name": "A3",
          "midi": 57,
          "time": 178.43750000000003,
          "velocity": 0.7874015748031497,
          "duration": 0.3059895833333428
        },
        {
          "name": "C4",
          "midi": 60,
          "time": 178.43750000000003,
          "velocity": 0.7874015748031497,
          "duration": 0.3059895833333428
        },
        {
          "name": "F4",
          "midi": 65,
          "time": 178.43750000000003,
          "velocity": 0.7874015748031497,
          "duration": 0.3059895833333428
        },
        {
          "name": "F4",
          "midi": 65,
          "time": 178.75000000000003,
          "velocity": 0.5511811023622047,
          "duration": 0.1497395833333428
        },
        {
          "name": "C4",
          "midi": 60,
          "time": 178.75000000000003,
          "velocity": 0.5511811023622047,
          "duration": 0.1497395833333428
        },
        {
          "name": "A3",
          "midi": 57,
          "time": 178.75000000000003,
          "velocity": 0.5511811023622047,
          "duration": 0.1497395833333428
        },
        {
          "name": "F3",
          "midi": 53,
          "time": 178.75000000000003,
          "velocity": 0.5511811023622047,
          "duration": 0.1497395833333428
        },
        {
          "name": "C3",
          "midi": 48,
          "time": 178.90625000000003,
          "velocity": 0.6299212598425197,
          "duration": 0.3059895833333428
        },
        {
          "name": "F3",
          "midi": 53,
          "time": 178.90625000000003,
          "velocity": 0.6299212598425197,
          "duration": 0.3059895833333428
        },
        {
          "name": "A3",
          "midi": 57,
          "time": 178.90625000000003,
          "velocity": 0.6299212598425197,
          "duration": 0.3059895833333428
        },
        {
          "name": "C4",
          "midi": 60,
          "time": 178.90625000000003,
          "velocity": 0.6299212598425197,
          "duration": 0.3059895833333428
        },
        {
          "name": "F4",
          "midi": 65,
          "time": 178.90625000000003,
          "velocity": 0.6299212598425197,
          "duration": 0.3059895833333428
        },
        {
          "name": "F2",
          "midi": 41,
          "time": 179.06250000000003,
          "velocity": 0.6299212598425197,
          "duration": 0.3059895833333428
        },
        {
          "name": "C3",
          "midi": 48,
          "time": 179.06250000000003,
          "velocity": 0.6299212598425197,
          "duration": 0.3059895833333428
        },
        {
          "name": "F3",
          "midi": 53,
          "time": 179.06250000000003,
          "velocity": 0.6299212598425197,
          "duration": 0.3059895833333428
        },
        {
          "name": "A3",
          "midi": 57,
          "time": 179.06250000000003,
          "velocity": 0.6299212598425197,
          "duration": 0.3059895833333428
        },
        {
          "name": "C4",
          "midi": 60,
          "time": 179.06250000000003,
          "velocity": 0.6299212598425197,
          "duration": 0.3059895833333428
        },
        {
          "name": "F4",
          "midi": 65,
          "time": 179.06250000000003,
          "velocity": 0.6299212598425197,
          "duration": 0.3059895833333428
        },
        {
          "name": "F2",
          "midi": 41,
          "time": 179.37500000000003,
          "velocity": 0.7874015748031497,
          "duration": 0.3059895833333428
        },
        {
          "name": "C3",
          "midi": 48,
          "time": 179.37500000000003,
          "velocity": 0.7874015748031497,
          "duration": 0.3059895833333428
        },
        {
          "name": "F3",
          "midi": 53,
          "time": 179.37500000000003,
          "velocity": 0.7874015748031497,
          "duration": 0.3059895833333428
        },
        {
          "name": "A3",
          "midi": 57,
          "time": 179.37500000000003,
          "velocity": 0.7874015748031497,
          "duration": 0.3059895833333428
        },
        {
          "name": "C4",
          "midi": 60,
          "time": 179.37500000000003,
          "velocity": 0.7874015748031497,
          "duration": 0.3059895833333428
        },
        {
          "name": "F4",
          "midi": 65,
          "time": 179.37500000000003,
          "velocity": 0.7874015748031497,
          "duration": 0.3059895833333428
        },
        {
          "name": "F3",
          "midi": 53,
          "time": 179.53125000000003,
          "velocity": 0.5039370078740157,
          "duration": 0.3059895833333428
        },
        {
          "name": "A3",
          "midi": 57,
          "time": 179.53125000000003,
          "velocity": 0.5039370078740157,
          "duration": 0.3059895833333428
        },
        {
          "name": "C4",
          "midi": 60,
          "time": 179.53125000000003,
          "velocity": 0.5039370078740157,
          "duration": 0.3059895833333428
        },
        {
          "name": "F4",
          "midi": 65,
          "time": 179.53125000000003,
          "velocity": 0.5039370078740157,
          "duration": 0.3059895833333428
        },
        {
          "name": "F4",
          "midi": 65,
          "time": 179.68750000000003,
          "velocity": 0.4409448818897638,
          "duration": 0.1497395833333428
        },
        {
          "name": "C4",
          "midi": 60,
          "time": 179.68750000000003,
          "velocity": 0.4409448818897638,
          "duration": 0.1497395833333428
        },
        {
          "name": "A3",
          "midi": 57,
          "time": 179.68750000000003,
          "velocity": 0.4409448818897638,
          "duration": 0.1497395833333428
        },
        {
          "name": "F4",
          "midi": 65,
          "time": 179.84375000000003,
          "velocity": 0.5511811023622047,
          "duration": 0.1497395833333428
        },
        {
          "name": "C4",
          "midi": 60,
          "time": 179.84375000000003,
          "velocity": 0.5511811023622047,
          "duration": 0.1497395833333428
        },
        {
          "name": "A3",
          "midi": 57,
          "time": 179.84375000000003,
          "velocity": 0.5511811023622047,
          "duration": 0.1497395833333428
        },
        {
          "name": "F3",
          "midi": 53,
          "time": 179.84375000000003,
          "velocity": 0.5511811023622047,
          "duration": 0.1497395833333428
        },
        {
          "name": "A2",
          "midi": 45,
          "time": 180.00000000000003,
          "velocity": 0.7874015748031497,
          "duration": 0.3059895833333428
        },
        {
          "name": "E3",
          "midi": 52,
          "time": 180.00000000000003,
          "velocity": 0.7874015748031497,
          "duration": 0.3059895833333428
        },
        {
          "name": "A3",
          "midi": 57,
          "time": 180.00000000000003,
          "velocity": 0.7874015748031497,
          "duration": 0.3059895833333428
        },
        {
          "name": "C4",
          "midi": 60,
          "time": 180.00000000000003,
          "velocity": 0.7874015748031497,
          "duration": 0.3059895833333428
        },
        {
          "name": "E4",
          "midi": 64,
          "time": 180.00000000000003,
          "velocity": 0.7874015748031497,
          "duration": 0.3059895833333428
        },
        {
          "name": "A4",
          "midi": 69,
          "time": 180.00000000000003,
          "velocity": 0.7874015748031497,
          "duration": 0.3059895833333428
        },
        {
          "name": "A4",
          "midi": 69,
          "time": 180.31250000000003,
          "velocity": 0.5511811023622047,
          "duration": 0.1497395833333428
        },
        {
          "name": "E4",
          "midi": 64,
          "time": 180.31250000000003,
          "velocity": 0.5511811023622047,
          "duration": 0.1497395833333428
        },
        {
          "name": "C4",
          "midi": 60,
          "time": 180.31250000000003,
          "velocity": 0.5511811023622047,
          "duration": 0.1497395833333428
        },
        {
          "name": "A3",
          "midi": 57,
          "time": 180.31250000000003,
          "velocity": 0.5511811023622047,
          "duration": 0.1497395833333428
        },
        {
          "name": "E3",
          "midi": 52,
          "time": 180.46875000000003,
          "velocity": 0.6299212598425197,
          "duration": 0.3059895833333428
        },
        {
          "name": "A3",
          "midi": 57,
          "time": 180.46875000000003,
          "velocity": 0.6299212598425197,
          "duration": 0.3059895833333428
        },
        {
          "name": "C4",
          "midi": 60,
          "time": 180.46875000000003,
          "velocity": 0.6299212598425197,
          "duration": 0.3059895833333428
        },
        {
          "name": "E4",
          "midi": 64,
          "time": 180.46875000000003,
          "velocity": 0.6299212598425197,
          "duration": 0.3059895833333428
        },
        {
          "name": "A4",
          "midi": 69,
          "time": 180.46875000000003,
          "velocity": 0.6299212598425197,
          "duration": 0.3059895833333428
        },
        {
          "name": "A2",
          "midi": 45,
          "time": 180.62500000000003,
          "velocity": 0.6299212598425197,
          "duration": 0.3059895833333428
        },
        {
          "name": "E3",
          "midi": 52,
          "time": 180.62500000000003,
          "velocity": 0.6299212598425197,
          "duration": 0.3059895833333428
        },
        {
          "name": "A3",
          "midi": 57,
          "time": 180.62500000000003,
          "velocity": 0.6299212598425197,
          "duration": 0.3059895833333428
        },
        {
          "name": "C4",
          "midi": 60,
          "time": 180.62500000000003,
          "velocity": 0.6299212598425197,
          "duration": 0.3059895833333428
        },
        {
          "name": "E4",
          "midi": 64,
          "time": 180.62500000000003,
          "velocity": 0.6299212598425197,
          "duration": 0.3059895833333428
        },
        {
          "name": "A4",
          "midi": 69,
          "time": 180.62500000000003,
          "velocity": 0.6299212598425197,
          "duration": 0.3059895833333428
        },
        {
          "name": "A2",
          "midi": 45,
          "time": 180.93750000000003,
          "velocity": 0.7874015748031497,
          "duration": 0.3059895833333428
        },
        {
          "name": "E3",
          "midi": 52,
          "time": 180.93750000000003,
          "velocity": 0.7874015748031497,
          "duration": 0.3059895833333428
        },
        {
          "name": "A3",
          "midi": 57,
          "time": 180.93750000000003,
          "velocity": 0.7874015748031497,
          "duration": 0.3059895833333428
        },
        {
          "name": "C4",
          "midi": 60,
          "time": 180.93750000000003,
          "velocity": 0.7874015748031497,
          "duration": 0.3059895833333428
        },
        {
          "name": "E4",
          "midi": 64,
          "time": 180.93750000000003,
          "velocity": 0.7874015748031497,
          "duration": 0.3059895833333428
        },
        {
          "name": "A4",
          "midi": 69,
          "time": 180.93750000000003,
          "velocity": 0.7874015748031497,
          "duration": 0.3059895833333428
        },
        {
          "name": "A4",
          "midi": 69,
          "time": 181.25000000000003,
          "velocity": 0.5511811023622047,
          "duration": 0.1497395833333428
        },
        {
          "name": "E4",
          "midi": 64,
          "time": 181.25000000000003,
          "velocity": 0.5511811023622047,
          "duration": 0.1497395833333428
        },
        {
          "name": "C4",
          "midi": 60,
          "time": 181.25000000000003,
          "velocity": 0.5511811023622047,
          "duration": 0.1497395833333428
        },
        {
          "name": "A3",
          "midi": 57,
          "time": 181.25000000000003,
          "velocity": 0.5511811023622047,
          "duration": 0.1497395833333428
        },
        {
          "name": "E3",
          "midi": 52,
          "time": 181.40625000000003,
          "velocity": 0.6299212598425197,
          "duration": 0.3059895833333428
        },
        {
          "name": "A3",
          "midi": 57,
          "time": 181.40625000000003,
          "velocity": 0.6299212598425197,
          "duration": 0.3059895833333428
        },
        {
          "name": "C4",
          "midi": 60,
          "time": 181.40625000000003,
          "velocity": 0.6299212598425197,
          "duration": 0.3059895833333428
        },
        {
          "name": "E4",
          "midi": 64,
          "time": 181.40625000000003,
          "velocity": 0.6299212598425197,
          "duration": 0.3059895833333428
        },
        {
          "name": "A4",
          "midi": 69,
          "time": 181.40625000000003,
          "velocity": 0.8188976377952756,
          "duration": 0.3059895833333428
        },
        {
          "name": "A2",
          "midi": 45,
          "time": 181.56250000000003,
          "velocity": 0.6299212598425197,
          "duration": 0.3059895833333428
        },
        {
          "name": "E3",
          "midi": 52,
          "time": 181.56250000000003,
          "velocity": 0.6299212598425197,
          "duration": 0.3059895833333428
        },
        {
          "name": "A3",
          "midi": 57,
          "time": 181.56250000000003,
          "velocity": 0.6299212598425197,
          "duration": 0.3059895833333428
        },
        {
          "name": "C4",
          "midi": 60,
          "time": 181.56250000000003,
          "velocity": 0.6299212598425197,
          "duration": 0.3059895833333428
        },
        {
          "name": "E4",
          "midi": 64,
          "time": 181.56250000000003,
          "velocity": 0.6299212598425197,
          "duration": 0.3059895833333428
        },
        {
          "name": "A4",
          "midi": 69,
          "time": 181.56250000000003,
          "velocity": 0.6299212598425197,
          "duration": 0.3059895833333428
        },
        {
          "name": "A2",
          "midi": 45,
          "time": 181.87500000000003,
          "velocity": 0.7874015748031497,
          "duration": 0.3059895833333428
        },
        {
          "name": "E3",
          "midi": 52,
          "time": 181.87500000000003,
          "velocity": 0.7874015748031497,
          "duration": 0.3059895833333428
        },
        {
          "name": "A3",
          "midi": 57,
          "time": 181.87500000000003,
          "velocity": 0.7874015748031497,
          "duration": 0.3059895833333428
        },
        {
          "name": "C4",
          "midi": 60,
          "time": 181.87500000000003,
          "velocity": 0.7874015748031497,
          "duration": 0.3059895833333428
        },
        {
          "name": "E4",
          "midi": 64,
          "time": 181.87500000000003,
          "velocity": 0.7874015748031497,
          "duration": 0.3059895833333428
        },
        {
          "name": "A4",
          "midi": 69,
          "time": 181.87500000000003,
          "velocity": 0.7874015748031497,
          "duration": 0.3059895833333428
        },
        {
          "name": "A4",
          "midi": 69,
          "time": 182.18750000000003,
          "velocity": 0.5511811023622047,
          "duration": 0.1497395833333428
        },
        {
          "name": "E4",
          "midi": 64,
          "time": 182.18750000000003,
          "velocity": 0.5511811023622047,
          "duration": 0.1497395833333428
        },
        {
          "name": "C4",
          "midi": 60,
          "time": 182.18750000000003,
          "velocity": 0.5511811023622047,
          "duration": 0.1497395833333428
        },
        {
          "name": "A4",
          "midi": 69,
          "time": 182.34375000000003,
          "velocity": 0.5511811023622047,
          "duration": 0.1497395833333428
        },
        {
          "name": "E4",
          "midi": 64,
          "time": 182.34375000000003,
          "velocity": 0.5511811023622047,
          "duration": 0.1497395833333428
        },
        {
          "name": "C4",
          "midi": 60,
          "time": 182.34375000000003,
          "velocity": 0.5511811023622047,
          "duration": 0.1497395833333428
        },
        {
          "name": "A3",
          "midi": 57,
          "time": 182.34375000000003,
          "velocity": 0.5511811023622047,
          "duration": 0.1497395833333428
        },
        {
          "name": "F2",
          "midi": 41,
          "time": 182.50000000000003,
          "velocity": 0.7874015748031497,
          "duration": 0.3059895833333428
        },
        {
          "name": "C3",
          "midi": 48,
          "time": 182.50000000000003,
          "velocity": 0.7874015748031497,
          "duration": 0.3059895833333428
        },
        {
          "name": "F3",
          "midi": 53,
          "time": 182.50000000000003,
          "velocity": 0.7874015748031497,
          "duration": 0.3059895833333428
        },
        {
          "name": "A3",
          "midi": 57,
          "time": 182.50000000000003,
          "velocity": 0.7874015748031497,
          "duration": 0.3059895833333428
        },
        {
          "name": "C4",
          "midi": 60,
          "time": 182.50000000000003,
          "velocity": 0.7874015748031497,
          "duration": 0.3059895833333428
        },
        {
          "name": "F4",
          "midi": 65,
          "time": 182.50000000000003,
          "velocity": 0.7874015748031497,
          "duration": 0.3059895833333428
        },
        {
          "name": "F4",
          "midi": 65,
          "time": 182.81250000000003,
          "velocity": 0.5511811023622047,
          "duration": 0.1497395833333428
        },
        {
          "name": "C4",
          "midi": 60,
          "time": 182.81250000000003,
          "velocity": 0.5511811023622047,
          "duration": 0.1497395833333428
        },
        {
          "name": "A3",
          "midi": 57,
          "time": 182.81250000000003,
          "velocity": 0.5511811023622047,
          "duration": 0.1497395833333428
        },
        {
          "name": "F3",
          "midi": 53,
          "time": 182.81250000000003,
          "velocity": 0.5511811023622047,
          "duration": 0.1497395833333428
        },
        {
          "name": "C3",
          "midi": 48,
          "time": 182.96875000000003,
          "velocity": 0.6299212598425197,
          "duration": 0.3059895833333428
        },
        {
          "name": "F3",
          "midi": 53,
          "time": 182.96875000000003,
          "velocity": 0.6299212598425197,
          "duration": 0.3059895833333428
        },
        {
          "name": "A3",
          "midi": 57,
          "time": 182.96875000000003,
          "velocity": 0.6299212598425197,
          "duration": 0.3059895833333428
        },
        {
          "name": "C4",
          "midi": 60,
          "time": 182.96875000000003,
          "velocity": 0.6299212598425197,
          "duration": 0.3059895833333428
        },
        {
          "name": "F4",
          "midi": 65,
          "time": 182.96875000000003,
          "velocity": 0.7401574803149606,
          "duration": 0.3059895833333428
        },
        {
          "name": "F2",
          "midi": 41,
          "time": 183.12500000000003,
          "velocity": 0.6614173228346457,
          "duration": 0.3059895833333428
        },
        {
          "name": "C3",
          "midi": 48,
          "time": 183.12500000000003,
          "velocity": 0.6299212598425197,
          "duration": 0.3059895833333428
        },
        {
          "name": "F3",
          "midi": 53,
          "time": 183.12500000000003,
          "velocity": 0.6299212598425197,
          "duration": 0.3059895833333428
        },
        {
          "name": "A3",
          "midi": 57,
          "time": 183.12500000000003,
          "velocity": 0.6299212598425197,
          "duration": 0.3059895833333428
        },
        {
          "name": "C4",
          "midi": 60,
          "time": 183.12500000000003,
          "velocity": 0.6299212598425197,
          "duration": 0.3059895833333428
        },
        {
          "name": "F4",
          "midi": 65,
          "time": 183.12500000000003,
          "velocity": 0.6771653543307087,
          "duration": 0.3059895833333428
        },
        {
          "name": "F2",
          "midi": 41,
          "time": 183.43750000000003,
          "velocity": 0.7874015748031497,
          "duration": 0.3059895833333428
        },
        {
          "name": "C3",
          "midi": 48,
          "time": 183.43750000000003,
          "velocity": 0.7874015748031497,
          "duration": 0.3059895833333428
        },
        {
          "name": "F3",
          "midi": 53,
          "time": 183.43750000000003,
          "velocity": 0.7874015748031497,
          "duration": 0.3059895833333428
        },
        {
          "name": "A3",
          "midi": 57,
          "time": 183.43750000000003,
          "velocity": 0.7874015748031497,
          "duration": 0.3059895833333428
        },
        {
          "name": "C4",
          "midi": 60,
          "time": 183.43750000000003,
          "velocity": 0.7874015748031497,
          "duration": 0.3059895833333428
        },
        {
          "name": "F4",
          "midi": 65,
          "time": 183.43750000000003,
          "velocity": 0.7874015748031497,
          "duration": 0.3059895833333428
        },
        {
          "name": "F4",
          "midi": 65,
          "time": 183.75000000000003,
          "velocity": 0.5511811023622047,
          "duration": 0.1497395833333428
        },
        {
          "name": "C4",
          "midi": 60,
          "time": 183.75000000000003,
          "velocity": 0.5511811023622047,
          "duration": 0.1497395833333428
        },
        {
          "name": "A3",
          "midi": 57,
          "time": 183.75000000000003,
          "velocity": 0.5511811023622047,
          "duration": 0.1497395833333428
        },
        {
          "name": "F3",
          "midi": 53,
          "time": 183.75000000000003,
          "velocity": 0.5511811023622047,
          "duration": 0.1497395833333428
        },
        {
          "name": "C3",
          "midi": 48,
          "time": 183.90625000000003,
          "velocity": 0.6299212598425197,
          "duration": 0.3059895833333428
        },
        {
          "name": "F3",
          "midi": 53,
          "time": 183.90625000000003,
          "velocity": 0.6299212598425197,
          "duration": 0.3059895833333428
        },
        {
          "name": "A3",
          "midi": 57,
          "time": 183.90625000000003,
          "velocity": 0.6299212598425197,
          "duration": 0.3059895833333428
        },
        {
          "name": "C4",
          "midi": 60,
          "time": 183.90625000000003,
          "velocity": 0.6299212598425197,
          "duration": 0.3059895833333428
        },
        {
          "name": "F4",
          "midi": 65,
          "time": 183.90625000000003,
          "velocity": 0.7637795275590551,
          "duration": 0.3059895833333428
        },
        {
          "name": "F2",
          "midi": 41,
          "time": 184.06250000000003,
          "velocity": 0.6299212598425197,
          "duration": 0.3059895833333428
        },
        {
          "name": "C3",
          "midi": 48,
          "time": 184.06250000000003,
          "velocity": 0.6299212598425197,
          "duration": 0.3059895833333428
        },
        {
          "name": "F3",
          "midi": 53,
          "time": 184.06250000000003,
          "velocity": 0.6299212598425197,
          "duration": 0.3059895833333428
        },
        {
          "name": "A3",
          "midi": 57,
          "time": 184.06250000000003,
          "velocity": 0.6299212598425197,
          "duration": 0.3059895833333428
        },
        {
          "name": "C4",
          "midi": 60,
          "time": 184.06250000000003,
          "velocity": 0.6299212598425197,
          "duration": 0.3059895833333428
        },
        {
          "name": "F4",
          "midi": 65,
          "time": 184.06250000000003,
          "velocity": 0.6299212598425197,
          "duration": 0.3059895833333428
        },
        {
          "name": "F2",
          "midi": 41,
          "time": 184.37500000000003,
          "velocity": 0.7874015748031497,
          "duration": 0.3059895833333428
        },
        {
          "name": "C3",
          "midi": 48,
          "time": 184.37500000000003,
          "velocity": 0.7874015748031497,
          "duration": 0.3059895833333428
        },
        {
          "name": "F3",
          "midi": 53,
          "time": 184.37500000000003,
          "velocity": 0.7874015748031497,
          "duration": 0.3059895833333428
        },
        {
          "name": "A3",
          "midi": 57,
          "time": 184.37500000000003,
          "velocity": 0.7874015748031497,
          "duration": 0.3059895833333428
        },
        {
          "name": "C4",
          "midi": 60,
          "time": 184.37500000000003,
          "velocity": 0.7874015748031497,
          "duration": 0.3059895833333428
        },
        {
          "name": "F4",
          "midi": 65,
          "time": 184.37500000000003,
          "velocity": 0.7874015748031497,
          "duration": 0.3059895833333428
        },
        {
          "name": "F3",
          "midi": 53,
          "time": 184.53125000000003,
          "velocity": 0.5039370078740157,
          "duration": 0.3059895833333428
        },
        {
          "name": "A3",
          "midi": 57,
          "time": 184.53125000000003,
          "velocity": 0.5039370078740157,
          "duration": 0.3059895833333428
        },
        {
          "name": "C4",
          "midi": 60,
          "time": 184.53125000000003,
          "velocity": 0.5039370078740157,
          "duration": 0.3059895833333428
        },
        {
          "name": "F4",
          "midi": 65,
          "time": 184.53125000000003,
          "velocity": 0.5039370078740157,
          "duration": 0.3059895833333428
        },
        {
          "name": "F4",
          "midi": 65,
          "time": 184.68750000000003,
          "velocity": 0.4409448818897638,
          "duration": 0.1497395833333428
        },
        {
          "name": "C4",
          "midi": 60,
          "time": 184.68750000000003,
          "velocity": 0.4409448818897638,
          "duration": 0.1497395833333428
        },
        {
          "name": "A3",
          "midi": 57,
          "time": 184.68750000000003,
          "velocity": 0.4409448818897638,
          "duration": 0.1497395833333428
        },
        {
          "name": "F4",
          "midi": 65,
          "time": 184.84375000000003,
          "velocity": 0.5511811023622047,
          "duration": 0.1497395833333428
        },
        {
          "name": "C4",
          "midi": 60,
          "time": 184.84375000000003,
          "velocity": 0.5511811023622047,
          "duration": 0.1497395833333428
        },
        {
          "name": "A3",
          "midi": 57,
          "time": 184.84375000000003,
          "velocity": 0.5511811023622047,
          "duration": 0.1497395833333428
        },
        {
          "name": "F3",
          "midi": 53,
          "time": 184.84375000000003,
          "velocity": 0.5511811023622047,
          "duration": 0.1497395833333428
        },
        {
          "name": "C3",
          "midi": 48,
          "time": 185.00000000000003,
          "velocity": 0.7874015748031497,
          "duration": 0.6184895833333428
        },
        {
          "name": "G3",
          "midi": 55,
          "time": 185.00000000000003,
          "velocity": 0.7874015748031497,
          "duration": 0.6184895833333428
        },
        {
          "name": "C4",
          "midi": 60,
          "time": 185.00000000000003,
          "velocity": 0.7874015748031497,
          "duration": 0.6184895833333428
        },
        {
          "name": "E4",
          "midi": 64,
          "time": 185.00000000000003,
          "velocity": 0.7874015748031497,
          "duration": 0.6184895833333428
        },
        {
          "name": "G4",
          "midi": 67,
          "time": 185.00000000000003,
          "velocity": 0.7874015748031497,
          "duration": 0.6184895833333428
        },
        {
          "name": "C3",
          "midi": 48,
          "time": 185.62500000000003,
          "velocity": 0.7874015748031497,
          "duration": 0.6184895833333428
        },
        {
          "name": "G3",
          "midi": 55,
          "time": 185.62500000000003,
          "velocity": 0.7874015748031497,
          "duration": 0.6184895833333428
        },
        {
          "name": "C4",
          "midi": 60,
          "time": 185.62500000000003,
          "velocity": 0.7874015748031497,
          "duration": 0.6184895833333428
        },
        {
          "name": "E4",
          "midi": 64,
          "time": 185.62500000000003,
          "velocity": 0.7874015748031497,
          "duration": 0.6184895833333428
        },
        {
          "name": "G4",
          "midi": 67,
          "time": 185.62500000000003,
          "velocity": 0.7874015748031497,
          "duration": 0.6184895833333428
        },
        {
          "name": "G2",
          "midi": 43,
          "time": 186.25000000000003,
          "velocity": 0.7874015748031497,
          "duration": 0.6184895833333428
        },
        {
          "name": "D3",
          "midi": 50,
          "time": 186.25000000000003,
          "velocity": 0.7874015748031497,
          "duration": 0.6184895833333428
        },
        {
          "name": "G3",
          "midi": 55,
          "time": 186.25000000000003,
          "velocity": 0.7874015748031497,
          "duration": 0.6184895833333428
        },
        {
          "name": "B3",
          "midi": 59,
          "time": 186.25000000000003,
          "velocity": 0.7874015748031497,
          "duration": 0.6184895833333428
        },
        {
          "name": "D4",
          "midi": 62,
          "time": 186.25000000000003,
          "velocity": 0.7874015748031497,
          "duration": 0.6184895833333428
        },
        {
          "name": "G4",
          "midi": 67,
          "time": 186.25000000000003,
          "velocity": 0.7874015748031497,
          "duration": 0.6184895833333428
        },
        {
          "name": "G2",
          "midi": 43,
          "time": 186.87500000000003,
          "velocity": 0.7874015748031497,
          "duration": 0.6184895833333428
        },
        {
          "name": "D3",
          "midi": 50,
          "time": 186.87500000000003,
          "velocity": 0.7874015748031497,
          "duration": 0.6184895833333428
        },
        {
          "name": "G3",
          "midi": 55,
          "time": 186.87500000000003,
          "velocity": 0.7874015748031497,
          "duration": 0.6184895833333428
        },
        {
          "name": "B3",
          "midi": 59,
          "time": 186.87500000000003,
          "velocity": 0.7874015748031497,
          "duration": 0.6184895833333428
        },
        {
          "name": "D4",
          "midi": 62,
          "time": 186.87500000000003,
          "velocity": 0.7874015748031497,
          "duration": 0.6184895833333428
        },
        {
          "name": "G4",
          "midi": 67,
          "time": 186.87500000000003,
          "velocity": 0.7874015748031497,
          "duration": 0.6184895833333428
        },
        {
          "name": "D3",
          "midi": 50,
          "time": 187.50000000000003,
          "velocity": 0.7874015748031497,
          "duration": 0.6184895833333428
        },
        {
          "name": "A3",
          "midi": 57,
          "time": 187.50000000000003,
          "velocity": 0.7874015748031497,
          "duration": 0.6184895833333428
        },
        {
          "name": "D4",
          "midi": 62,
          "time": 187.50000000000003,
          "velocity": 0.7874015748031497,
          "duration": 0.6184895833333428
        },
        {
          "name": "F4",
          "midi": 65,
          "time": 187.50000000000003,
          "velocity": 0.7874015748031497,
          "duration": 0.6184895833333428
        },
        {
          "name": "A4",
          "midi": 69,
          "time": 187.50000000000003,
          "velocity": 0.7874015748031497,
          "duration": 0.6184895833333428
        },
        {
          "name": "D3",
          "midi": 50,
          "time": 188.12500000000003,
          "velocity": 0.7874015748031497,
          "duration": 0.6184895833333428
        },
        {
          "name": "A3",
          "midi": 57,
          "time": 188.12500000000003,
          "velocity": 0.7874015748031497,
          "duration": 0.6184895833333428
        },
        {
          "name": "D4",
          "midi": 62,
          "time": 188.12500000000003,
          "velocity": 0.7874015748031497,
          "duration": 0.6184895833333428
        },
        {
          "name": "F4",
          "midi": 65,
          "time": 188.12500000000003,
          "velocity": 0.7874015748031497,
          "duration": 0.6184895833333428
        },
        {
          "name": "A4",
          "midi": 69,
          "time": 188.12500000000003,
          "velocity": 0.7874015748031497,
          "duration": 0.6184895833333428
        },
        {
          "name": "A2",
          "midi": 45,
          "time": 188.75000000000003,
          "velocity": 0.7874015748031497,
          "duration": 0.6184895833333428
        },
        {
          "name": "E3",
          "midi": 52,
          "time": 188.75000000000003,
          "velocity": 0.7874015748031497,
          "duration": 0.6184895833333428
        },
        {
          "name": "A3",
          "midi": 57,
          "time": 188.75000000000003,
          "velocity": 0.7874015748031497,
          "duration": 0.6184895833333428
        },
        {
          "name": "C4",
          "midi": 60,
          "time": 188.75000000000003,
          "velocity": 0.7874015748031497,
          "duration": 0.6184895833333428
        },
        {
          "name": "E4",
          "midi": 64,
          "time": 188.75000000000003,
          "velocity": 0.7874015748031497,
          "duration": 0.6184895833333428
        },
        {
          "name": "A4",
          "midi": 69,
          "time": 188.75000000000003,
          "velocity": 0.7874015748031497,
          "duration": 0.6184895833333428
        },
        {
          "name": "A2",
          "midi": 45,
          "time": 189.37500000000003,
          "velocity": 0.7874015748031497,
          "duration": 0.3059895833333428
        },
        {
          "name": "E3",
          "midi": 52,
          "time": 189.37500000000003,
          "velocity": 0.7874015748031497,
          "duration": 0.3059895833333428
        },
        {
          "name": "A3",
          "midi": 57,
          "time": 189.37500000000003,
          "velocity": 0.7874015748031497,
          "duration": 0.3059895833333428
        },
        {
          "name": "C4",
          "midi": 60,
          "time": 189.37500000000003,
          "velocity": 0.7874015748031497,
          "duration": 0.3059895833333428
        },
        {
          "name": "E4",
          "midi": 64,
          "time": 189.37500000000003,
          "velocity": 0.7874015748031497,
          "duration": 0.3059895833333428
        },
        {
          "name": "A4",
          "midi": 69,
          "time": 189.37500000000003,
          "velocity": 0.7874015748031497,
          "duration": 0.3059895833333428
        },
        {
          "name": "C3",
          "midi": 48,
          "time": 190.00000000000003,
          "velocity": 0.7874015748031497,
          "duration": 0.6184895833333428
        },
        {
          "name": "G3",
          "midi": 55,
          "time": 190.00000000000003,
          "velocity": 0.7874015748031497,
          "duration": 0.6184895833333428
        },
        {
          "name": "C4",
          "midi": 60,
          "time": 190.00000000000003,
          "velocity": 0.7874015748031497,
          "duration": 0.6184895833333428
        },
        {
          "name": "E4",
          "midi": 64,
          "time": 190.00000000000003,
          "velocity": 0.7874015748031497,
          "duration": 0.6184895833333428
        },
        {
          "name": "G4",
          "midi": 67,
          "time": 190.00000000000003,
          "velocity": 0.7874015748031497,
          "duration": 0.6184895833333428
        },
        {
          "name": "C3",
          "midi": 48,
          "time": 190.62500000000003,
          "velocity": 0.7874015748031497,
          "duration": 0.6184895833333428
        },
        {
          "name": "G3",
          "midi": 55,
          "time": 190.62500000000003,
          "velocity": 0.7874015748031497,
          "duration": 0.6184895833333428
        },
        {
          "name": "C4",
          "midi": 60,
          "time": 190.62500000000003,
          "velocity": 0.7874015748031497,
          "duration": 0.6184895833333428
        },
        {
          "name": "E4",
          "midi": 64,
          "time": 190.62500000000003,
          "velocity": 0.7874015748031497,
          "duration": 0.6184895833333428
        },
        {
          "name": "G4",
          "midi": 67,
          "time": 190.62500000000003,
          "velocity": 0.7874015748031497,
          "duration": 0.6184895833333428
        },
        {
          "name": "D3",
          "midi": 50,
          "time": 191.87500000000003,
          "velocity": 0.7874015748031497,
          "duration": 0.6184895833333428
        },
        {
          "name": "A3",
          "midi": 57,
          "time": 191.87500000000003,
          "velocity": 0.7874015748031497,
          "duration": 0.6184895833333428
        },
        {
          "name": "D4",
          "midi": 62,
          "time": 191.87500000000003,
          "velocity": 0.7874015748031497,
          "duration": 0.6184895833333428
        },
        {
          "name": "F4",
          "midi": 65,
          "time": 191.87500000000003,
          "velocity": 0.7874015748031497,
          "duration": 0.6184895833333428
        },
        {
          "name": "A4",
          "midi": 69,
          "time": 191.87500000000003,
          "velocity": 0.7874015748031497,
          "duration": 0.6184895833333428
        },
        {
          "name": "D3",
          "midi": 50,
          "time": 192.50000000000003,
          "velocity": 0.7874015748031497,
          "duration": 0.6184895833333428
        },
        {
          "name": "A3",
          "midi": 57,
          "time": 192.50000000000003,
          "velocity": 0.7874015748031497,
          "duration": 0.6184895833333428
        },
        {
          "name": "D4",
          "midi": 62,
          "time": 192.50000000000003,
          "velocity": 0.7874015748031497,
          "duration": 0.6184895833333428
        },
        {
          "name": "F4",
          "midi": 65,
          "time": 192.50000000000003,
          "velocity": 0.7874015748031497,
          "duration": 0.6184895833333428
        },
        {
          "name": "A4",
          "midi": 69,
          "time": 192.50000000000003,
          "velocity": 0.7874015748031497,
          "duration": 0.6184895833333428
        },
        {
          "name": "D3",
          "midi": 50,
          "time": 193.12500000000003,
          "velocity": 0.7874015748031497,
          "duration": 0.6184895833333428
        },
        {
          "name": "A3",
          "midi": 57,
          "time": 193.12500000000003,
          "velocity": 0.7874015748031497,
          "duration": 0.6184895833333428
        },
        {
          "name": "D4",
          "midi": 62,
          "time": 193.12500000000003,
          "velocity": 0.7874015748031497,
          "duration": 0.6184895833333428
        },
        {
          "name": "F4",
          "midi": 65,
          "time": 193.12500000000003,
          "velocity": 0.7874015748031497,
          "duration": 0.6184895833333428
        },
        {
          "name": "A4",
          "midi": 69,
          "time": 193.12500000000003,
          "velocity": 0.7874015748031497,
          "duration": 0.6184895833333428
        },
        {
          "name": "D3",
          "midi": 50,
          "time": 193.75000000000003,
          "velocity": 0.7874015748031497,
          "duration": 0.6184895833333428
        },
        {
          "name": "A3",
          "midi": 57,
          "time": 193.75000000000003,
          "velocity": 0.7874015748031497,
          "duration": 0.6184895833333428
        },
        {
          "name": "D4",
          "midi": 62,
          "time": 193.75000000000003,
          "velocity": 0.7874015748031497,
          "duration": 0.6184895833333428
        },
        {
          "name": "F4",
          "midi": 65,
          "time": 193.75000000000003,
          "velocity": 0.7874015748031497,
          "duration": 0.6184895833333428
        },
        {
          "name": "A4",
          "midi": 69,
          "time": 193.75000000000003,
          "velocity": 0.7874015748031497,
          "duration": 0.6184895833333428
        },
        {
          "name": "D3",
          "midi": 50,
          "time": 194.37500000000003,
          "velocity": 0.7874015748031497,
          "duration": 0.6184895833333428
        },
        {
          "name": "A3",
          "midi": 57,
          "time": 194.37500000000003,
          "velocity": 0.7874015748031497,
          "duration": 0.6184895833333428
        },
        {
          "name": "D4",
          "midi": 62,
          "time": 194.37500000000003,
          "velocity": 0.7874015748031497,
          "duration": 0.6184895833333428
        },
        {
          "name": "F4",
          "midi": 65,
          "time": 194.37500000000003,
          "velocity": 0.7874015748031497,
          "duration": 0.6184895833333428
        },
        {
          "name": "A4",
          "midi": 69,
          "time": 194.37500000000003,
          "velocity": 0.7874015748031497,
          "duration": 0.6184895833333428
        },
        {
          "name": "C3",
          "midi": 48,
          "time": 195.00000000000003,
          "velocity": 0.7874015748031497,
          "duration": 0.6184895833333428
        },
        {
          "name": "G3",
          "midi": 55,
          "time": 195.00000000000003,
          "velocity": 0.7874015748031497,
          "duration": 0.6184895833333428
        },
        {
          "name": "C4",
          "midi": 60,
          "time": 195.00000000000003,
          "velocity": 0.7874015748031497,
          "duration": 0.6184895833333428
        },
        {
          "name": "E4",
          "midi": 64,
          "time": 195.00000000000003,
          "velocity": 0.7874015748031497,
          "duration": 0.6184895833333428
        },
        {
          "name": "G4",
          "midi": 67,
          "time": 195.00000000000003,
          "velocity": 0.7874015748031497,
          "duration": 0.6184895833333428
        },
        {
          "name": "C3",
          "midi": 48,
          "time": 195.62500000000003,
          "velocity": 0.7874015748031497,
          "duration": 0.6184895833333428
        },
        {
          "name": "G3",
          "midi": 55,
          "time": 195.62500000000003,
          "velocity": 0.7874015748031497,
          "duration": 0.6184895833333428
        },
        {
          "name": "C4",
          "midi": 60,
          "time": 195.62500000000003,
          "velocity": 0.7874015748031497,
          "duration": 0.6184895833333428
        },
        {
          "name": "E4",
          "midi": 64,
          "time": 195.62500000000003,
          "velocity": 0.7874015748031497,
          "duration": 0.6184895833333428
        },
        {
          "name": "G4",
          "midi": 67,
          "time": 195.62500000000003,
          "velocity": 0.7874015748031497,
          "duration": 0.6184895833333428
        },
        {
          "name": "G2",
          "midi": 43,
          "time": 196.25000000000003,
          "velocity": 0.7874015748031497,
          "duration": 0.6184895833333428
        },
        {
          "name": "D3",
          "midi": 50,
          "time": 196.25000000000003,
          "velocity": 0.7874015748031497,
          "duration": 0.6184895833333428
        },
        {
          "name": "G3",
          "midi": 55,
          "time": 196.25000000000003,
          "velocity": 0.7874015748031497,
          "duration": 0.6184895833333428
        },
        {
          "name": "B3",
          "midi": 59,
          "time": 196.25000000000003,
          "velocity": 0.7874015748031497,
          "duration": 0.6184895833333428
        },
        {
          "name": "D4",
          "midi": 62,
          "time": 196.25000000000003,
          "velocity": 0.7874015748031497,
          "duration": 0.6184895833333428
        },
        {
          "name": "G4",
          "midi": 67,
          "time": 196.25000000000003,
          "velocity": 0.7874015748031497,
          "duration": 0.6184895833333428
        },
        {
          "name": "G2",
          "midi": 43,
          "time": 196.87500000000003,
          "velocity": 0.7874015748031497,
          "duration": 0.6184895833333428
        },
        {
          "name": "D3",
          "midi": 50,
          "time": 196.87500000000003,
          "velocity": 0.7874015748031497,
          "duration": 0.6184895833333428
        },
        {
          "name": "G3",
          "midi": 55,
          "time": 196.87500000000003,
          "velocity": 0.7874015748031497,
          "duration": 0.6184895833333428
        },
        {
          "name": "B3",
          "midi": 59,
          "time": 196.87500000000003,
          "velocity": 0.7874015748031497,
          "duration": 0.6184895833333428
        },
        {
          "name": "D4",
          "midi": 62,
          "time": 196.87500000000003,
          "velocity": 0.7874015748031497,
          "duration": 0.6184895833333428
        },
        {
          "name": "G4",
          "midi": 67,
          "time": 196.87500000000003,
          "velocity": 0.7874015748031497,
          "duration": 0.6184895833333428
        },
        {
          "name": "D3",
          "midi": 50,
          "time": 197.50000000000003,
          "velocity": 0.7874015748031497,
          "duration": 0.6184895833333428
        },
        {
          "name": "A3",
          "midi": 57,
          "time": 197.50000000000003,
          "velocity": 0.7874015748031497,
          "duration": 0.6184895833333428
        },
        {
          "name": "D4",
          "midi": 62,
          "time": 197.50000000000003,
          "velocity": 0.7874015748031497,
          "duration": 0.6184895833333428
        },
        {
          "name": "F4",
          "midi": 65,
          "time": 197.50000000000003,
          "velocity": 0.7874015748031497,
          "duration": 0.6184895833333428
        },
        {
          "name": "A4",
          "midi": 69,
          "time": 197.50000000000003,
          "velocity": 0.7874015748031497,
          "duration": 0.6184895833333428
        },
        {
          "name": "D3",
          "midi": 50,
          "time": 198.12500000000003,
          "velocity": 0.7874015748031497,
          "duration": 0.6184895833333428
        },
        {
          "name": "A3",
          "midi": 57,
          "time": 198.12500000000003,
          "velocity": 0.7874015748031497,
          "duration": 0.6184895833333428
        },
        {
          "name": "D4",
          "midi": 62,
          "time": 198.12500000000003,
          "velocity": 0.7874015748031497,
          "duration": 0.6184895833333428
        },
        {
          "name": "F4",
          "midi": 65,
          "time": 198.12500000000003,
          "velocity": 0.7874015748031497,
          "duration": 0.6184895833333428
        },
        {
          "name": "A4",
          "midi": 69,
          "time": 198.12500000000003,
          "velocity": 0.7874015748031497,
          "duration": 0.6184895833333428
        },
        {
          "name": "A2",
          "midi": 45,
          "time": 198.75000000000003,
          "velocity": 0.7874015748031497,
          "duration": 0.6184895833333428
        },
        {
          "name": "E3",
          "midi": 52,
          "time": 198.75000000000003,
          "velocity": 0.7874015748031497,
          "duration": 0.6184895833333428
        },
        {
          "name": "A3",
          "midi": 57,
          "time": 198.75000000000003,
          "velocity": 0.7874015748031497,
          "duration": 0.6184895833333428
        },
        {
          "name": "C4",
          "midi": 60,
          "time": 198.75000000000003,
          "velocity": 0.7874015748031497,
          "duration": 0.6184895833333428
        },
        {
          "name": "E4",
          "midi": 64,
          "time": 198.75000000000003,
          "velocity": 0.7874015748031497,
          "duration": 0.6184895833333428
        },
        {
          "name": "A4",
          "midi": 69,
          "time": 198.75000000000003,
          "velocity": 0.7874015748031497,
          "duration": 0.6184895833333428
        },
        {
          "name": "A2",
          "midi": 45,
          "time": 199.37500000000003,
          "velocity": 0.7874015748031497,
          "duration": 0.3059895833333428
        },
        {
          "name": "E3",
          "midi": 52,
          "time": 199.37500000000003,
          "velocity": 0.7874015748031497,
          "duration": 0.3059895833333428
        },
        {
          "name": "A3",
          "midi": 57,
          "time": 199.37500000000003,
          "velocity": 0.7874015748031497,
          "duration": 0.3059895833333428
        },
        {
          "name": "C4",
          "midi": 60,
          "time": 199.37500000000003,
          "velocity": 0.7874015748031497,
          "duration": 0.3059895833333428
        },
        {
          "name": "E4",
          "midi": 64,
          "time": 199.37500000000003,
          "velocity": 0.7874015748031497,
          "duration": 0.3059895833333428
        },
        {
          "name": "A4",
          "midi": 69,
          "time": 199.37500000000003,
          "velocity": 0.7874015748031497,
          "duration": 0.3059895833333428
        },
        {
          "name": "C3",
          "midi": 48,
          "time": 200.00000000000003,
          "velocity": 0.7007874015748031,
          "duration": 0.5729166666666572
        },
        {
          "name": "C4",
          "midi": 60,
          "time": 200.00000000000003,
          "velocity": 0.6850393700787402,
          "duration": 0.5859375
        },
        {
          "name": "G3",
          "midi": 55,
          "time": 200.00000000000003,
          "velocity": 0.7952755905511811,
          "duration": 0.546875
        },
        {
          "name": "E4",
          "midi": 64,
          "time": 200.00000000000003,
          "velocity": 0.8976377952755905,
          "duration": 0.5729166666666572
        },
        {
          "name": "G4",
          "midi": 67,
          "time": 200.00000000000003,
          "velocity": 0.8976377952755905,
          "duration": 0.5533854166666572
        },
        {
          "name": "G3",
          "midi": 55,
          "time": 200.62500000000003,
          "velocity": 0.7716535433070866,
          "duration": 1.8684895833333144
        },
        {
          "name": "C3",
          "midi": 48,
          "time": 200.62500000000003,
          "velocity": 0.7716535433070866,
          "duration": 1.8684895833333144
        },
        {
          "name": "C4",
          "midi": 60,
          "time": 200.62500000000003,
          "velocity": 0.6692913385826772,
          "duration": 1.8619791666666572
        },
        {
          "name": "G4",
          "midi": 67,
          "time": 200.62500000000003,
          "velocity": 0.84251968503937,
          "duration": 1.85546875
        },
        {
          "name": "E4",
          "midi": 64,
          "time": 200.62500000000003,
          "velocity": 0.8661417322834646,
          "duration": 1.8489583333333428
        },
        {
          "name": "A3",
          "midi": 57,
          "time": 202.18098958333337,
          "velocity": 0.6141732283464567,
          "duration": 2.8320312499999716
        },
        {
          "name": "D3",
          "midi": 50,
          "time": 202.18098958333337,
          "velocity": 0.7952755905511811,
          "duration": 2.7278645833333144
        },
        {
          "name": "D4",
          "midi": 62,
          "time": 202.22005208333337,
          "velocity": 0.7716535433070866,
          "duration": 2.7343749999999716
        },
        {
          "name": "F4",
          "midi": 65,
          "time": 202.26562500000003,
          "velocity": 0.5826771653543307,
          "duration": 2.662760416666657
        },
        {
          "name": "F#2",
          "midi": 42,
          "time": 205,
          "velocity": 0.5984251968503937,
          "duration": 2.3046875
        },
        {
          "name": "C#3",
          "midi": 49,
          "time": 205.3125,
          "velocity": 0.5039370078740157,
          "duration": 0.91796875
        },
        {
          "name": "F#3",
          "midi": 54,
          "time": 205.625,
          "velocity": 0.6771653543307087,
          "duration": 0.8658854166666572
        },
        {
          "name": "C#4",
          "midi": 61,
          "time": 205.625,
          "velocity": 0.7007874015748031,
          "duration": 0.8203125
        },
        {
          "name": "A3",
          "midi": 57,
          "time": 205.625,
          "velocity": 0.8188976377952756,
          "duration": 0.8268229166666572
        },
        {
          "name": "C#3",
          "midi": 49,
          "time": 206.40625,
          "velocity": 0.5984251968503937,
          "duration": 0.5403645833333428
        },
        {
          "name": "F#3",
          "midi": 54,
          "time": 206.71875,
          "velocity": 0.7480314960629921,
          "duration": 0.3776041666666572
        },
        {
          "name": "A3",
          "midi": 57,
          "time": 206.71875,
          "velocity": 0.9448818897637795,
          "duration": 0.390625
        },
        {
          "name": "C#4",
          "midi": 61,
          "time": 206.71875,
          "velocity": 0.7480314960629921,
          "duration": 0.37109375
        },
        {
          "name": "C#3",
          "midi": 49,
          "time": 207.03125,
          "velocity": 0.6614173228346457,
          "duration": 0.3255208333333428
        },
        {
          "name": "F#3",
          "midi": 54,
          "time": 207.1875,
          "velocity": 0.7795275590551181,
          "duration": 0.3125
        },
        {
          "name": "D3",
          "midi": 50,
          "time": 207.5,
          "velocity": 0.8661417322834646,
          "duration": 1.7513020833333428
        },
        {
          "name": "A3",
          "midi": 57,
          "time": 207.8125,
          "velocity": 0.7952755905511811,
          "duration": 1.1588541666666572
        },
        {
          "name": "D4",
          "midi": 62,
          "time": 208.125,
          "velocity": 0.8661417322834646,
          "duration": 0.8203125
        },
        {
          "name": "F#4",
          "midi": 66,
          "time": 208.125,
          "velocity": 0.7795275590551181,
          "duration": 0.83984375
        },
        {
          "name": "A3",
          "midi": 57,
          "time": 209.0625,
          "velocity": 0.6850393700787402,
          "duration": 0.2473958333333428
        },
        {
          "name": "F#4",
          "midi": 66,
          "time": 209.0625,
          "velocity": 0.952755905511811,
          "duration": 0.20182291666668561
        },
        {
          "name": "F#4",
          "midi": 66,
          "time": 209.375,
          "velocity": 0.7795275590551181,
          "duration": 0.15625
        },
        {
          "name": "A3",
          "midi": 57,
          "time": 209.375,
          "velocity": 0.8188976377952756,
          "duration": 0.3971354166666572
        },
        {
          "name": "E4",
          "midi": 64,
          "time": 209.53125,
          "velocity": 0.9212598425196851,
          "duration": 0.17578125
        },
        {
          "name": "D4",
          "midi": 62,
          "time": 209.6875,
          "velocity": 0.8661417322834646,
          "duration": 0.2799479166666572
        },
        {
          "name": "F#2",
          "midi": 42,
          "time": 210,
          "velocity": 0.6456692913385826,
          "duration": 2.317708333333286
        },
        {
          "name": "C#3",
          "midi": 49,
          "time": 210.3125,
          "velocity": 0.6614173228346457,
          "duration": 0.546875
        },
        {
          "name": "F#3",
          "midi": 54,
          "time": 210.625,
          "velocity": 0.6614173228346457,
          "duration": 0.4296875
        },
        {
          "name": "C#4",
          "midi": 61,
          "time": 210.625,
          "velocity": 0.6771653543307087,
          "duration": 0.5338541666666572
        },
        {
          "name": "A3",
          "midi": 57,
          "time": 210.625,
          "velocity": 0.7952755905511811,
          "duration": 0.5143229166666572
        },
        {
          "name": "C#3",
          "midi": 49,
          "time": 210.9375,
          "velocity": 0.47244094488188976,
          "duration": 0.7747395833333428
        },
        {
          "name": "F#3",
          "midi": 54,
          "time": 211.25,
          "velocity": 0.5590551181102362,
          "duration": 0.6315104166666572
        },
        {
          "name": "C#4",
          "midi": 61,
          "time": 211.5625,
          "velocity": 0.7795275590551181,
          "duration": 0.4036458333333144
        },
        {
          "name": "A3",
          "midi": 57,
          "time": 211.5625,
          "velocity": 0.8661417322834646,
          "duration": 0.4101562499999716
        },
        {
          "name": "C#3",
          "midi": 49,
          "time": 211.875,
          "velocity": 0.6299212598425197,
          "duration": 0.41666666666662877
        },
        {
          "name": "F#3",
          "midi": 54,
          "time": 212.18749999999997,
          "velocity": 0.7165354330708661,
          "duration": 0.31901041666662877
        },
        {
          "name": "A3",
          "midi": 57,
          "time": 212.18749999999997,
          "velocity": 0.8661417322834646,
          "duration": 0.2864583333333144
        },
        {
          "name": "C#4",
          "midi": 61,
          "time": 212.18749999999997,
          "velocity": 0.7165354330708661,
          "duration": 0.2604166666666572
        },
        {
          "name": "D3",
          "midi": 50,
          "time": 212.49999999999994,
          "velocity": 0.7165354330708661,
          "duration": 0.8528645833333428
        },
        {
          "name": "A3",
          "midi": 57,
          "time": 212.81249999999994,
          "velocity": 0.6299212598425197,
          "duration": 1.2109375
        },
        {
          "name": "D4",
          "midi": 62,
          "time": 213.12499999999994,
          "velocity": 0.8188976377952756,
          "duration": 0.5533854166666572
        },
        {
          "name": "F#4",
          "midi": 66,
          "time": 213.12499999999994,
          "velocity": 0.8188976377952756,
          "duration": 0.46875
        },
        {
          "name": "D3",
          "midi": 50,
          "time": 213.43749999999994,
          "velocity": 0.5826771653543307,
          "duration": 0.5013020833333428
        },
        {
          "name": "E4",
          "midi": 64,
          "time": 213.74999999999994,
          "velocity": 0.7952755905511811,
          "duration": 0.46875
        },
        {
          "name": "D3",
          "midi": 50,
          "time": 214.06249999999994,
          "velocity": 0.6062992125984252,
          "duration": 0.4427083333333428
        },
        {
          "name": "A3",
          "midi": 57,
          "time": 214.37499999999994,
          "velocity": 0.5905511811023622,
          "duration": 0.5533854166666856
        },
        {
          "name": "F#4",
          "midi": 66,
          "time": 214.37499999999994,
          "velocity": 0.5984251968503937,
          "duration": 0.52734375
        },
        {
          "name": "D4",
          "midi": 62,
          "time": 214.37499999999994,
          "velocity": 0.7716535433070866,
          "duration": 0.5403645833333428
        },
        {
          "name": "D3",
          "midi": 50,
          "time": 214.68749999999994,
          "velocity": 0.7716535433070866,
          "duration": 0.1692708333333428
        },
        {
          "name": "B2",
          "midi": 47,
          "time": 214.99999999999997,
          "velocity": 0.8976377952755905,
          "duration": 0.7877604166666572
        },
        {
          "name": "F#3",
          "midi": 54,
          "time": 215.31249999999997,
          "velocity": 0.7480314960629921,
          "duration": 0.41015625
        },
        {
          "name": "F#4",
          "midi": 66,
          "time": 215.62499999999997,
          "velocity": 0.8661417322834646,
          "duration": 0.6510416666666856
        },
        {
          "name": "D4",
          "midi": 62,
          "time": 215.62499999999997,
          "velocity": 0.9212598425196851,
          "duration": 0.6380208333333428
        },
        {
          "name": "B3",
          "midi": 59,
          "time": 215.62499999999997,
          "velocity": 0.84251968503937,
          "duration": 0.625
        },
        {
          "name": "F#3",
          "midi": 54,
          "time": 215.93749999999997,
          "velocity": 0.7165354330708661,
          "duration": 0.2734375
        },
        {
          "name": "D3",
          "midi": 50,
          "time": 216.24999999999997,
          "velocity": 0.84251968503937,
          "duration": 0.9375000000000284
        },
        {
          "name": "A3",
          "midi": 57,
          "time": 216.5625,
          "velocity": 0.7322834645669292,
          "duration": 0.4427083333333428
        },
        {
          "name": "F#4",
          "midi": 66,
          "time": 216.875,
          "velocity": 0.9133858267716536,
          "duration": 0.60546875
        },
        {
          "name": "D4",
          "midi": 62,
          "time": 216.875,
          "velocity": 0.8661417322834646,
          "duration": 0.6184895833333144
        },
        {
          "name": "A3",
          "midi": 57,
          "time": 217.1875,
          "velocity": 0.7559055118110236,
          "duration": 0.2994791666666572
        },
        {
          "name": "A2",
          "midi": 45,
          "time": 217.49999999999997,
          "velocity": 0.8661417322834646,
          "duration": 0.8333333333333428
        },
        {
          "name": "E3",
          "midi": 52,
          "time": 217.81249999999997,
          "velocity": 0.7716535433070866,
          "duration": 0.4231770833333428
        },
        {
          "name": "C#4",
          "midi": 61,
          "time": 218.12499999999997,
          "velocity": 0.8661417322834646,
          "duration": 0.6510416666666572
        },
        {
          "name": "E4",
          "midi": 64,
          "time": 218.12499999999997,
          "velocity": 0.8976377952755905,
          "duration": 0.6640625
        },
        {
          "name": "A3",
          "midi": 57,
          "time": 218.12499999999997,
          "velocity": 0.8976377952755905,
          "duration": 0.6705729166666572
        },
        {
          "name": "E3",
          "midi": 52,
          "time": 218.43749999999997,
          "velocity": 0.6850393700787402,
          "duration": 0.10416666666665719
        },
        {
          "name": "E2",
          "midi": 40,
          "time": 218.74999999999997,
          "velocity": 0.8976377952755905,
          "duration": 1.1197916666666856
        },
        {
          "name": "E3",
          "midi": 52,
          "time": 219.06249999999997,
          "velocity": 0.7559055118110236,
          "duration": 0.5143229166666572
        },
        {
          "name": "G#3",
          "midi": 56,
          "time": 219.37499999999997,
          "velocity": 0.7795275590551181,
          "duration": 0.5013020833333428
        },
        {
          "name": "E4",
          "midi": 64,
          "time": 219.37499999999997,
          "velocity": 0.8661417322834646,
          "duration": 0.4947916666666856
        },
        {
          "name": "B3",
          "midi": 59,
          "time": 219.37499999999997,
          "velocity": 0.8976377952755905,
          "duration": 0.4817708333333428
        },
        {
          "name": "E3",
          "midi": 52,
          "time": 219.68749999999997,
          "velocity": 0.7559055118110236,
          "duration": 0.22135416666668561
        },
        {
          "name": "F#2",
          "midi": 42,
          "time": 220,
          "velocity": 0.7795275590551181,
          "duration": 2.1289062499999716
        },
        {
          "name": "C#3",
          "midi": 49,
          "time": 220.3125,
          "velocity": 0.6141732283464567,
          "duration": 0.52734375
        },
        {
          "name": "A3",
          "midi": 57,
          "time": 220.625,
          "velocity": 0.7165354330708661,
          "duration": 0.8919270833333144
        },
        {
          "name": "F#4",
          "midi": 66,
          "time": 220.625,
          "velocity": 0.6614173228346457,
          "duration": 0.8854166666666572
        },
        {
          "name": "C#4",
          "midi": 61,
          "time": 220.625,
          "velocity": 0.7795275590551181,
          "duration": 0.8854166666666572
        },
        {
          "name": "C#3",
          "midi": 49,
          "time": 220.9375,
          "velocity": 0.4566929133858268,
          "duration": 0.7942708333333144
        },
        {
          "name": "C#4",
          "midi": 61,
          "time": 221.56249999999997,
          "velocity": 0.8188976377952756,
          "duration": 0.4296875
        },
        {
          "name": "A3",
          "midi": 57,
          "time": 221.56249999999997,
          "velocity": 0.8188976377952756,
          "duration": 0.4166666666666572
        },
        {
          "name": "F#4",
          "midi": 66,
          "time": 221.56249999999997,
          "velocity": 0.7795275590551181,
          "duration": 0.4296875
        },
        {
          "name": "C#3",
          "midi": 49,
          "time": 221.87499999999997,
          "velocity": 0.6299212598425197,
          "duration": 0.4036458333333428
        },
        {
          "name": "C#4",
          "midi": 61,
          "time": 222.18749999999997,
          "velocity": 0.7795275590551181,
          "duration": 0.3776041666666856
        },
        {
          "name": "F#4",
          "midi": 66,
          "time": 222.18749999999997,
          "velocity": 0.7480314960629921,
          "duration": 0.3450520833333428
        },
        {
          "name": "A3",
          "midi": 57,
          "time": 222.18749999999997,
          "velocity": 0.8188976377952756,
          "duration": 0.3906250000000284
        },
        {
          "name": "D3",
          "midi": 50,
          "time": 222.49999999999997,
          "velocity": 0.8188976377952756,
          "duration": 0.8268229166666856
        },
        {
          "name": "A3",
          "midi": 57,
          "time": 222.8125,
          "velocity": 0.7322834645669292,
          "duration": 0.83984375
        },
        {
          "name": "D4",
          "midi": 62,
          "time": 223.125,
          "velocity": 0.8976377952755905,
          "duration": 0.6510416666666572
        },
        {
          "name": "F#4",
          "midi": 66,
          "time": 223.125,
          "velocity": 0.8188976377952756,
          "duration": 0.6510416666666572
        },
        {
          "name": "D3",
          "midi": 50,
          "time": 223.4375,
          "velocity": 0.7716535433070866,
          "duration": 0.8463541666666572
        },
        {
          "name": "A3",
          "midi": 57,
          "time": 223.75,
          "velocity": 0.6850393700787402,
          "duration": 0.64453125
        },
        {
          "name": "F#4",
          "midi": 66,
          "time": 224.0625,
          "velocity": 0.7795275590551181,
          "duration": 0.48828125
        },
        {
          "name": "D4",
          "midi": 62,
          "time": 224.0625,
          "velocity": 0.33070866141732286,
          "duration": 0.3255208333333428
        },
        {
          "name": "D3",
          "midi": 50,
          "time": 224.375,
          "velocity": 0.8188976377952756,
          "duration": 0.3776041666666572
        },
        {
          "name": "F#4",
          "midi": 66,
          "time": 224.6875,
          "velocity": 0.6771653543307087,
          "duration": 0.3190104166666572
        },
        {
          "name": "A3",
          "midi": 57,
          "time": 224.6875,
          "velocity": 0.7716535433070866,
          "duration": 0.3255208333333144
        },
        {
          "name": "D4",
          "midi": 62,
          "time": 224.6875,
          "velocity": 0.84251968503937,
          "duration": 0.3125
        },
        {
          "name": "F#2",
          "midi": 42,
          "time": 225,
          "velocity": 0.7007874015748031,
          "duration": 2.2200520833333144
        },
        {
          "name": "C#3",
          "midi": 49,
          "time": 225.31249999999997,
          "velocity": 0.6614173228346457,
          "duration": 0.4557291666666572
        },
        {
          "name": "A3",
          "midi": 57,
          "time": 225.62499999999997,
          "velocity": 0.8661417322834646,
          "duration": 0.3515625
        },
        {
          "name": "F#3",
          "midi": 54,
          "time": 225.62499999999997,
          "velocity": 0.7007874015748031,
          "duration": 0.3515625
        },
        {
          "name": "C#4",
          "midi": 61,
          "time": 225.62499999999997,
          "velocity": 0.7007874015748031,
          "duration": 0.3385416666666572
        },
        {
          "name": "C#3",
          "midi": 49,
          "time": 225.93749999999997,
          "velocity": 0.7165354330708661,
          "duration": 0.7682291666666572
        },
        {
          "name": "A3",
          "midi": 57,
          "time": 226.24999999999997,
          "velocity": 0.6299212598425197,
          "duration": 0.6640625
        },
        {
          "name": "C#4",
          "midi": 61,
          "time": 226.56249999999997,
          "velocity": 0.8661417322834646,
          "duration": 0.4752604166666572
        },
        {
          "name": "F#4",
          "midi": 66,
          "time": 226.56249999999997,
          "velocity": 0.7795275590551181,
          "duration": 0.4361979166666572
        },
        {
          "name": "C#3",
          "midi": 49,
          "time": 226.87499999999997,
          "velocity": 0.5984251968503937,
          "duration": 0.4361979166666856
        },
        {
          "name": "A3",
          "midi": 57,
          "time": 227.18749999999997,
          "velocity": 0.7165354330708661,
          "duration": 0.4101562500000284
        },
        {
          "name": "D3",
          "midi": 50,
          "time": 227.5,
          "velocity": 0.7952755905511811,
          "duration": 0.8333333333333428
        },
        {
          "name": "A3",
          "midi": 57,
          "time": 227.8125,
          "velocity": 0.6377952755905512,
          "duration": 0.6510416666666572
        },
        {
          "name": "D4",
          "midi": 62,
          "time": 228.125,
          "velocity": 0.8976377952755905,
          "duration": 0.5078125
        },
        {
          "name": "F#4",
          "midi": 66,
          "time": 228.125,
          "velocity": 0.7480314960629921,
          "duration": 0.5208333333333428
        },
        {
          "name": "D3",
          "midi": 50,
          "time": 228.4375,
          "velocity": 0.7165354330708661,
          "duration": 1.4518229166666856
        },
        {
          "name": "A3",
          "midi": 57,
          "time": 228.75,
          "velocity": 0.8976377952755905,
          "duration": 0.6770833333333428
        },
        {
          "name": "F#4",
          "midi": 66,
          "time": 228.75,
          "velocity": 0.7165354330708661,
          "duration": 0.078125
        },
        {
          "name": "E4",
          "midi": 64,
          "time": 229.0625,
          "velocity": 0.9606299212598425,
          "duration": 0.3255208333333428
        },
        {
          "name": "D4",
          "midi": 62,
          "time": 229.375,
          "velocity": 0.8976377952755905,
          "duration": 0.2864583333333428
        },
        {
          "name": "A3",
          "midi": 57,
          "time": 229.6875,
          "velocity": 0.7952755905511811,
          "duration": 0.24088541666668561
        },
        {
          "name": "F#4",
          "midi": 66,
          "time": 229.6875,
          "velocity": 0.952755905511811,
          "duration": 0.1888020833333428
        },
        {
          "name": "B2",
          "midi": 47,
          "time": 230.00000000000003,
          "velocity": 0.8976377952755905,
          "duration": 0.7877604166666572
        },
        {
          "name": "F#3",
          "midi": 54,
          "time": 230.31250000000003,
          "velocity": 0.7480314960629921,
          "duration": 0.41015625
        },
        {
          "name": "F#4",
          "midi": 66,
          "time": 230.62500000000003,
          "velocity": 0.8661417322834646,
          "duration": 0.6510416666666856
        },
        {
          "name": "D4",
          "midi": 62,
          "time": 230.62500000000003,
          "velocity": 0.9212598425196851,
          "duration": 0.6380208333333428
        },
        {
          "name": "B3",
          "midi": 59,
          "time": 230.62500000000003,
          "velocity": 0.84251968503937,
          "duration": 0.625
        },
        {
          "name": "F#3",
          "midi": 54,
          "time": 230.93750000000003,
          "velocity": 0.7165354330708661,
          "duration": 0.2734375
        },
        {
          "name": "D3",
          "midi": 50,
          "time": 231.25000000000003,
          "velocity": 0.84251968503937,
          "duration": 0.9375000000000284
        },
        {
          "name": "A3",
          "midi": 57,
          "time": 231.56250000000006,
          "velocity": 0.7322834645669292,
          "duration": 0.4427083333333428
        },
        {
          "name": "F#4",
          "midi": 66,
          "time": 231.87500000000006,
          "velocity": 0.9133858267716536,
          "duration": 0.60546875
        },
        {
          "name": "D4",
          "midi": 62,
          "time": 231.87500000000006,
          "velocity": 0.8661417322834646,
          "duration": 0.6184895833333144
        },
        {
          "name": "A3",
          "midi": 57,
          "time": 232.18750000000006,
          "velocity": 0.7559055118110236,
          "duration": 0.2994791666666572
        },
        {
          "name": "A2",
          "midi": 45,
          "time": 232.50000000000003,
          "velocity": 0.8661417322834646,
          "duration": 0.8333333333333428
        },
        {
          "name": "E3",
          "midi": 52,
          "time": 232.81250000000003,
          "velocity": 0.7716535433070866,
          "duration": 0.4231770833333428
        },
        {
          "name": "C#4",
          "midi": 61,
          "time": 233.12500000000003,
          "velocity": 0.8661417322834646,
          "duration": 0.6510416666666572
        },
        {
          "name": "E4",
          "midi": 64,
          "time": 233.12500000000003,
          "velocity": 0.8976377952755905,
          "duration": 0.6640625
        },
        {
          "name": "A3",
          "midi": 57,
          "time": 233.12500000000003,
          "velocity": 0.8976377952755905,
          "duration": 0.6705729166666572
        },
        {
          "name": "E3",
          "midi": 52,
          "time": 233.43750000000003,
          "velocity": 0.6850393700787402,
          "duration": 0.10416666666665719
        },
        {
          "name": "E2",
          "midi": 40,
          "time": 233.75000000000003,
          "velocity": 0.8976377952755905,
          "duration": 1.1197916666666856
        },
        {
          "name": "E3",
          "midi": 52,
          "time": 234.06250000000003,
          "velocity": 0.7559055118110236,
          "duration": 0.5143229166666572
        },
        {
          "name": "G#3",
          "midi": 56,
          "time": 234.37500000000003,
          "velocity": 0.7795275590551181,
          "duration": 0.5013020833333428
        },
        {
          "name": "E4",
          "midi": 64,
          "time": 234.37500000000003,
          "velocity": 0.8661417322834646,
          "duration": 0.4947916666666856
        },
        {
          "name": "B3",
          "midi": 59,
          "time": 234.37500000000003,
          "velocity": 0.8976377952755905,
          "duration": 0.4817708333333428
        },
        {
          "name": "E3",
          "midi": 52,
          "time": 234.68750000000003,
          "velocity": 0.7559055118110236,
          "duration": 0.22135416666668561
        },
        {
          "name": "B2",
          "midi": 47,
          "time": 235.00000000000006,
          "velocity": 0.8976377952755905,
          "duration": 0.7877604166666572
        },
        {
          "name": "F#3",
          "midi": 54,
          "time": 235.31250000000006,
          "velocity": 0.7480314960629921,
          "duration": 0.41015625
        },
        {
          "name": "F#4",
          "midi": 66,
          "time": 235.62500000000006,
          "velocity": 0.8661417322834646,
          "duration": 0.6510416666666856
        },
        {
          "name": "D4",
          "midi": 62,
          "time": 235.62500000000006,
          "velocity": 0.9212598425196851,
          "duration": 0.6380208333333428
        },
        {
          "name": "B3",
          "midi": 59,
          "time": 235.62500000000006,
          "velocity": 0.84251968503937,
          "duration": 0.625
        },
        {
          "name": "F#3",
          "midi": 54,
          "time": 235.93750000000006,
          "velocity": 0.7165354330708661,
          "duration": 0.2734375
        },
        {
          "name": "D3",
          "midi": 50,
          "time": 236.25000000000006,
          "velocity": 0.84251968503937,
          "duration": 0.9375000000000284
        },
        {
          "name": "A3",
          "midi": 57,
          "time": 236.56250000000009,
          "velocity": 0.7322834645669292,
          "duration": 0.4427083333333428
        },
        {
          "name": "F#4",
          "midi": 66,
          "time": 236.87500000000009,
          "velocity": 0.9133858267716536,
          "duration": 0.60546875
        },
        {
          "name": "D4",
          "midi": 62,
          "time": 236.87500000000009,
          "velocity": 0.8661417322834646,
          "duration": 0.6184895833333144
        },
        {
          "name": "A3",
          "midi": 57,
          "time": 237.18750000000009,
          "velocity": 0.7559055118110236,
          "duration": 0.2994791666666572
        },
        {
          "name": "A2",
          "midi": 45,
          "time": 237.50000000000006,
          "velocity": 0.8661417322834646,
          "duration": 0.8333333333333428
        },
        {
          "name": "E3",
          "midi": 52,
          "time": 237.81250000000006,
          "velocity": 0.7716535433070866,
          "duration": 0.4231770833333428
        },
        {
          "name": "C#4",
          "midi": 61,
          "time": 238.12500000000006,
          "velocity": 0.8661417322834646,
          "duration": 0.6510416666666572
        },
        {
          "name": "E4",
          "midi": 64,
          "time": 238.12500000000006,
          "velocity": 0.8976377952755905,
          "duration": 0.6640625
        },
        {
          "name": "A3",
          "midi": 57,
          "time": 238.12500000000006,
          "velocity": 0.8976377952755905,
          "duration": 0.6705729166666572
        },
        {
          "name": "E3",
          "midi": 52,
          "time": 238.43750000000006,
          "velocity": 0.6850393700787402,
          "duration": 0.10416666666665719
        },
        {
          "name": "E2",
          "midi": 40,
          "time": 238.75000000000006,
          "velocity": 0.8976377952755905,
          "duration": 1.1197916666666856
        },
        {
          "name": "E3",
          "midi": 52,
          "time": 239.06250000000006,
          "velocity": 0.7559055118110236,
          "duration": 0.5143229166666572
        },
        {
          "name": "G#3",
          "midi": 56,
          "time": 239.37500000000006,
          "velocity": 0.7795275590551181,
          "duration": 0.5013020833333428
        },
        {
          "name": "E4",
          "midi": 64,
          "time": 239.37500000000006,
          "velocity": 0.8661417322834646,
          "duration": 0.4947916666666856
        },
        {
          "name": "B3",
          "midi": 59,
          "time": 239.37500000000006,
          "velocity": 0.8976377952755905,
          "duration": 0.4817708333333428
        },
        {
          "name": "E3",
          "midi": 52,
          "time": 239.68750000000006,
          "velocity": 0.7559055118110236,
          "duration": 0.22135416666668561
        },
        {
          "name": "B2",
          "midi": 47,
          "time": 240.00000000000009,
          "velocity": 0.8976377952755905,
          "duration": 0.7877604166666572
        },
        {
          "name": "F#3",
          "midi": 54,
          "time": 240.31250000000009,
          "velocity": 0.7480314960629921,
          "duration": 0.41015625
        },
        {
          "name": "F#4",
          "midi": 66,
          "time": 240.62500000000009,
          "velocity": 0.8661417322834646,
          "duration": 0.6510416666666856
        },
        {
          "name": "D4",
          "midi": 62,
          "time": 240.62500000000009,
          "velocity": 0.9212598425196851,
          "duration": 0.6380208333333428
        },
        {
          "name": "B3",
          "midi": 59,
          "time": 240.62500000000009,
          "velocity": 0.84251968503937,
          "duration": 0.625
        },
        {
          "name": "F#3",
          "midi": 54,
          "time": 240.93750000000009,
          "velocity": 0.7165354330708661,
          "duration": 0.2734375
        },
        {
          "name": "D3",
          "midi": 50,
          "time": 241.25000000000009,
          "velocity": 0.84251968503937,
          "duration": 0.9375000000000284
        },
        {
          "name": "A3",
          "midi": 57,
          "time": 241.5625000000001,
          "velocity": 0.7322834645669292,
          "duration": 0.4427083333333428
        },
        {
          "name": "F#4",
          "midi": 66,
          "time": 241.8750000000001,
          "velocity": 0.9133858267716536,
          "duration": 0.60546875
        },
        {
          "name": "D4",
          "midi": 62,
          "time": 241.8750000000001,
          "velocity": 0.8661417322834646,
          "duration": 0.6184895833333144
        },
        {
          "name": "A3",
          "midi": 57,
          "time": 242.1875000000001,
          "velocity": 0.7559055118110236,
          "duration": 0.2994791666666572
        },
        {
          "name": "A2",
          "midi": 45,
          "time": 242.50000000000009,
          "velocity": 0.8661417322834646,
          "duration": 0.8333333333333428
        },
        {
          "name": "E3",
          "midi": 52,
          "time": 242.81250000000009,
          "velocity": 0.7716535433070866,
          "duration": 0.4231770833333428
        },
        {
          "name": "C#4",
          "midi": 61,
          "time": 243.12500000000009,
          "velocity": 0.8661417322834646,
          "duration": 0.6510416666666572
        },
        {
          "name": "E4",
          "midi": 64,
          "time": 243.12500000000009,
          "velocity": 0.8976377952755905,
          "duration": 0.6640625
        },
        {
          "name": "A3",
          "midi": 57,
          "time": 243.12500000000009,
          "velocity": 0.8976377952755905,
          "duration": 0.6705729166666572
        },
        {
          "name": "E3",
          "midi": 52,
          "time": 243.43750000000009,
          "velocity": 0.6850393700787402,
          "duration": 0.10416666666665719
        },
        {
          "name": "E2",
          "midi": 40,
          "time": 243.75000000000009,
          "velocity": 0.8976377952755905,
          "duration": 1.1197916666666856
        },
        {
          "name": "E3",
          "midi": 52,
          "time": 244.06250000000009,
          "velocity": 0.7559055118110236,
          "duration": 0.5143229166666572
        },
        {
          "name": "G#3",
          "midi": 56,
          "time": 244.37500000000009,
          "velocity": 0.7795275590551181,
          "duration": 0.5013020833333428
        },
        {
          "name": "E4",
          "midi": 64,
          "time": 244.37500000000009,
          "velocity": 0.8661417322834646,
          "duration": 0.4947916666666856
        },
        {
          "name": "B3",
          "midi": 59,
          "time": 244.37500000000009,
          "velocity": 0.8976377952755905,
          "duration": 0.4817708333333428
        },
        {
          "name": "E3",
          "midi": 52,
          "time": 244.68750000000009,
          "velocity": 0.7559055118110236,
          "duration": 0.22135416666668561
        },
        {
          "name": "A2",
          "midi": 45,
          "time": 245.0000000000001,
          "velocity": 0.6692913385826772,
          "duration": 1.4062499999999716
        },
        {
          "name": "E3",
          "midi": 52,
          "time": 245.3125000000001,
          "velocity": 0.6062992125984252,
          "duration": 0.7552083333333144
        },
        {
          "name": "B3",
          "midi": 59,
          "time": 245.6250000000001,
          "velocity": 0.6692913385826772,
          "duration": 0.3385416666666572
        },
        {
          "name": "C4",
          "midi": 60,
          "time": 245.9375000000001,
          "velocity": 0.6692913385826772,
          "duration": 0.4687499999999716
        },
        {
          "name": "F2",
          "midi": 41,
          "time": 247.50000000000009,
          "velocity": 0.6062992125984252,
          "duration": 0.9505208333333428
        },
        {
          "name": "C3",
          "midi": 48,
          "time": 247.81250000000009,
          "velocity": 0.5826771653543307,
          "duration": 0.5924479166666572
        },
        {
          "name": "G3",
          "midi": 55,
          "time": 248.12500000000009,
          "velocity": 0.7086614173228346,
          "duration": 0.2799479166666572
        },
        {
          "name": "A3",
          "midi": 57,
          "time": 248.43750000000009,
          "velocity": 0.6692913385826772,
          "duration": 0.6315104166666856
        },
        {
          "name": "D3",
          "midi": 50,
          "time": 248.43750000000009,
          "velocity": 0.6929133858267716,
          "duration": 0.5989583333333428
        },
        {
          "name": "A2",
          "midi": 45,
          "time": 250.0000000000001,
          "velocity": 0.6692913385826772,
          "duration": 1.4062499999999716
        },
        {
          "name": "E3",
          "midi": 52,
          "time": 250.3125000000001,
          "velocity": 0.6062992125984252,
          "duration": 0.7552083333333144
        },
        {
          "name": "B3",
          "midi": 59,
          "time": 250.6250000000001,
          "velocity": 0.6692913385826772,
          "duration": 0.3385416666666572
        },
        {
          "name": "C4",
          "midi": 60,
          "time": 250.9375000000001,
          "velocity": 0.6692913385826772,
          "duration": 0.4687499999999716
        },
        {
          "name": "F2",
          "midi": 41,
          "time": 252.50000000000009,
          "velocity": 0.6062992125984252,
          "duration": 0.9505208333333428
        },
        {
          "name": "C3",
          "midi": 48,
          "time": 252.81250000000009,
          "velocity": 0.5826771653543307,
          "duration": 0.5924479166666572
        },
        {
          "name": "G3",
          "midi": 55,
          "time": 253.12500000000009,
          "velocity": 0.7086614173228346,
          "duration": 0.2799479166666572
        },
        {
          "name": "A3",
          "midi": 57,
          "time": 253.43750000000009,
          "velocity": 0.6692913385826772,
          "duration": 0.6315104166666856
        },
        {
          "name": "E3",
          "midi": 52,
          "time": 253.43750000000009,
          "velocity": 0.6929133858267716,
          "duration": 0.5989583333333428
        },
        {
          "name": "A2",
          "midi": 45,
          "time": 255.0000000000001,
          "velocity": 0.6692913385826772,
          "duration": 1.40625
        },
        {
          "name": "E3",
          "midi": 52,
          "time": 255.3125000000001,
          "velocity": 0.6062992125984252,
          "duration": 0.7552083333333144
        },
        {
          "name": "B3",
          "midi": 59,
          "time": 255.6250000000001,
          "velocity": 0.6692913385826772,
          "duration": 0.3385416666666572
        },
        {
          "name": "C4",
          "midi": 60,
          "time": 255.9375000000001,
          "velocity": 0.6692913385826772,
          "duration": 0.46875
        },
        {
          "name": "F2",
          "midi": 41,
          "time": 257.5000000000001,
          "velocity": 0.6062992125984252,
          "duration": 0.9505208333333144
        },
        {
          "name": "C3",
          "midi": 48,
          "time": 257.8125000000001,
          "velocity": 0.5826771653543307,
          "duration": 0.5924479166666856
        },
        {
          "name": "G3",
          "midi": 55,
          "time": 258.1250000000001,
          "velocity": 0.7086614173228346,
          "duration": 0.2799479166666856
        },
        {
          "name": "A3",
          "midi": 57,
          "time": 258.4375000000001,
          "velocity": 0.6692913385826772,
          "duration": 0.6315104166666288
        },
        {
          "name": "D3",
          "midi": 50,
          "time": 258.4375000000001,
          "velocity": 0.6929133858267716,
          "duration": 0.5989583333333144
        },
        {
          "name": "A2",
          "midi": 45,
          "time": 260.00000000000006,
          "velocity": 0.6692913385826772,
          "duration": 1.4062500000000568
        },
        {
          "name": "E3",
          "midi": 52,
          "time": 260.31250000000006,
          "velocity": 0.6062992125984252,
          "duration": 0.7552083333333712
        },
        {
          "name": "B3",
          "midi": 59,
          "time": 260.62500000000006,
          "velocity": 0.6692913385826772,
          "duration": 0.3385416666666856
        },
        {
          "name": "C4",
          "midi": 60,
          "time": 260.93750000000006,
          "velocity": 0.6692913385826772,
          "duration": 0.46875000000005684
        },
        {
          "name": "F2",
          "midi": 41,
          "time": 262.5000000000001,
          "velocity": 0.6062992125984252,
          "duration": 0.9505208333333144
        },
        {
          "name": "C3",
          "midi": 48,
          "time": 262.8125000000001,
          "velocity": 0.5826771653543307,
          "duration": 0.5924479166666856
        },
        {
          "name": "G3",
          "midi": 55,
          "time": 263.1250000000001,
          "velocity": 0.7086614173228346,
          "duration": 0.2799479166666856
        },
        {
          "name": "A3",
          "midi": 57,
          "time": 263.4375000000001,
          "velocity": 0.6692913385826772,
          "duration": 0.6315104166666288
        },
        {
          "name": "E3",
          "midi": 52,
          "time": 263.4375000000001,
          "velocity": 0.6929133858267716,
          "duration": 0.5989583333333144
        },
        {
          "name": "E3",
          "midi": 52,
          "time": 265.00000000000006,
          "velocity": 0.5826771653543307,
          "duration": 0.3059895833333144
        },
        {
          "name": "C3",
          "midi": 48,
          "time": 265.00000000000006,
          "velocity": 0.6456692913385826,
          "duration": 0.3059895833333144
        },
        {
          "name": "G3",
          "midi": 55,
          "time": 265.31250000000006,
          "velocity": 0.6062992125984252,
          "duration": 0.3059895833333144
        },
        {
          "name": "C4",
          "midi": 60,
          "time": 265.62500000000006,
          "velocity": 0.5275590551181102,
          "duration": 0.3059895833333144
        },
        {
          "name": "G3",
          "midi": 55,
          "time": 265.93750000000006,
          "velocity": 0.3700787401574803,
          "duration": 0.3059895833333144
        },
        {
          "name": "G2",
          "midi": 43,
          "time": 266.25000000000006,
          "velocity": 0.6456692913385826,
          "duration": 0.3059895833333144
        },
        {
          "name": "B2",
          "midi": 47,
          "time": 266.56250000000006,
          "velocity": 0.5826771653543307,
          "duration": 0.3059895833333144
        },
        {
          "name": "G3",
          "midi": 55,
          "time": 266.87500000000006,
          "velocity": 0.6929133858267716,
          "duration": 0.3059895833333144
        },
        {
          "name": "D4",
          "midi": 62,
          "time": 266.87500000000006,
          "velocity": 0.7086614173228346,
          "duration": 0.3059895833333144
        },
        {
          "name": "G3",
          "midi": 55,
          "time": 267.18750000000006,
          "velocity": 0.4566929133858268,
          "duration": 0.3059895833333144
        },
        {
          "name": "C3",
          "midi": 48,
          "time": 267.50000000000006,
          "velocity": 0.6692913385826772,
          "duration": 0.3059895833333144
        },
        {
          "name": "F3",
          "midi": 53,
          "time": 267.50000000000006,
          "velocity": 0.6692913385826772,
          "duration": 0.3059895833333144
        },
        {
          "name": "A3",
          "midi": 57,
          "time": 267.81250000000006,
          "velocity": 0.5590551181102362,
          "duration": 0.3059895833333144
        },
        {
          "name": "C4",
          "midi": 60,
          "time": 268.12500000000006,
          "velocity": 0.7322834645669292,
          "duration": 0.3059895833333144
        },
        {
          "name": "F4",
          "midi": 65,
          "time": 268.12500000000006,
          "velocity": 0.6692913385826772,
          "duration": 0.3059895833333144
        },
        {
          "name": "A3",
          "midi": 57,
          "time": 268.43750000000006,
          "velocity": 0.6141732283464567,
          "duration": 0.3059895833333144
        },
        {
          "name": "D3",
          "midi": 50,
          "time": 268.75000000000006,
          "velocity": 0.7086614173228346,
          "duration": 0.3059895833333144
        },
        {
          "name": "A3",
          "midi": 57,
          "time": 269.06250000000006,
          "velocity": 0.6062992125984252,
          "duration": 0.3059895833333144
        },
        {
          "name": "D4",
          "midi": 62,
          "time": 269.37500000000006,
          "velocity": 0.6692913385826772,
          "duration": 0.3059895833333144
        },
        {
          "name": "F4",
          "midi": 65,
          "time": 269.37500000000006,
          "velocity": 0.6141732283464567,
          "duration": 0.3059895833333144
        },
        {
          "name": "A2",
          "midi": 45,
          "time": 270.00000000000006,
          "velocity": 0.6692913385826772,
          "duration": 1.4062500000000568
        },
        {
          "name": "E3",
          "midi": 52,
          "time": 270.31250000000006,
          "velocity": 0.6062992125984252,
          "duration": 0.7552083333333712
        },
        {
          "name": "B3",
          "midi": 59,
          "time": 270.62500000000006,
          "velocity": 0.6692913385826772,
          "duration": 0.3385416666666856
        },
        {
          "name": "C4",
          "midi": 60,
          "time": 270.93750000000006,
          "velocity": 0.6692913385826772,
          "duration": 0.46875000000005684
        },
        {
          "name": "F2",
          "midi": 41,
          "time": 272.5000000000001,
          "velocity": 0.6062992125984252,
          "duration": 0.9505208333333144
        },
        {
          "name": "C3",
          "midi": 48,
          "time": 272.8125000000001,
          "velocity": 0.5826771653543307,
          "duration": 0.5924479166666856
        },
        {
          "name": "G3",
          "midi": 55,
          "time": 273.1250000000001,
          "velocity": 0.7086614173228346,
          "duration": 0.2799479166666856
        },
        {
          "name": "A3",
          "midi": 57,
          "time": 273.4375000000001,
          "velocity": 0.6692913385826772,
          "duration": 0.6315104166666288
        },
        {
          "name": "D3",
          "midi": 50,
          "time": 273.4375000000001,
          "velocity": 0.6929133858267716,
          "duration": 0.5989583333333144
        },
        {
          "name": "A2",
          "midi": 45,
          "time": 275.00000000000006,
          "velocity": 0.6692913385826772,
          "duration": 1.4062500000000568
        },
        {
          "name": "E3",
          "midi": 52,
          "time": 275.31250000000006,
          "velocity": 0.6062992125984252,
          "duration": 0.7552083333333712
        },
        {
          "name": "B3",
          "midi": 59,
          "time": 275.62500000000006,
          "velocity": 0.6692913385826772,
          "duration": 0.3385416666666856
        },
        {
          "name": "C4",
          "midi": 60,
          "time": 275.93750000000006,
          "velocity": 0.6692913385826772,
          "duration": 0.46875000000005684
        },
        {
          "name": "F2",
          "midi": 41,
          "time": 277.5000000000001,
          "velocity": 0.6062992125984252,
          "duration": 0.9505208333333144
        },
        {
          "name": "C3",
          "midi": 48,
          "time": 277.8125000000001,
          "velocity": 0.5826771653543307,
          "duration": 0.5924479166666856
        },
        {
          "name": "G3",
          "midi": 55,
          "time": 278.1250000000001,
          "velocity": 0.7086614173228346,
          "duration": 0.2799479166666856
        },
        {
          "name": "A3",
          "midi": 57,
          "time": 278.4375000000001,
          "velocity": 0.6692913385826772,
          "duration": 0.6315104166666288
        },
        {
          "name": "E3",
          "midi": 52,
          "time": 278.4375000000001,
          "velocity": 0.6929133858267716,
          "duration": 0.5989583333333144
        },
        {
          "name": "A2",
          "midi": 45,
          "time": 280.00000000000006,
          "velocity": 0.6692913385826772,
          "duration": 1.4062500000000568
        },
        {
          "name": "E3",
          "midi": 52,
          "time": 280.31250000000006,
          "velocity": 0.6062992125984252,
          "duration": 0.7552083333333712
        },
        {
          "name": "B3",
          "midi": 59,
          "time": 280.62500000000006,
          "velocity": 0.6692913385826772,
          "duration": 0.3385416666666856
        },
        {
          "name": "C4",
          "midi": 60,
          "time": 280.93750000000006,
          "velocity": 0.6692913385826772,
          "duration": 0.46875000000005684
        },
        {
          "name": "F2",
          "midi": 41,
          "time": 282.5000000000001,
          "velocity": 0.6062992125984252,
          "duration": 0.9505208333333144
        },
        {
          "name": "C3",
          "midi": 48,
          "time": 282.8125000000001,
          "velocity": 0.5826771653543307,
          "duration": 0.5924479166666856
        },
        {
          "name": "G3",
          "midi": 55,
          "time": 283.1250000000001,
          "velocity": 0.7086614173228346,
          "duration": 0.2799479166666856
        },
        {
          "name": "A3",
          "midi": 57,
          "time": 283.4375000000001,
          "velocity": 0.6692913385826772,
          "duration": 0.6315104166666288
        },
        {
          "name": "D3",
          "midi": 50,
          "time": 283.4375000000001,
          "velocity": 0.6929133858267716,
          "duration": 0.5989583333333144
        },
        {
          "name": "A2",
          "midi": 45,
          "time": 285.00000000000006,
          "velocity": 0.6692913385826772,
          "duration": 1.4062500000000568
        },
        {
          "name": "E3",
          "midi": 52,
          "time": 285.31250000000006,
          "velocity": 0.6062992125984252,
          "duration": 0.7552083333333712
        },
        {
          "name": "B3",
          "midi": 59,
          "time": 285.62500000000006,
          "velocity": 0.6692913385826772,
          "duration": 0.3385416666666856
        },
        {
          "name": "C4",
          "midi": 60,
          "time": 285.93750000000006,
          "velocity": 0.6692913385826772,
          "duration": 0.46875000000005684
        },
        {
          "name": "F2",
          "midi": 41,
          "time": 287.5000000000001,
          "velocity": 0.6062992125984252,
          "duration": 0.9505208333333144
        },
        {
          "name": "C3",
          "midi": 48,
          "time": 287.8125000000001,
          "velocity": 0.5826771653543307,
          "duration": 0.5924479166666856
        },
        {
          "name": "G3",
          "midi": 55,
          "time": 288.1250000000001,
          "velocity": 0.7086614173228346,
          "duration": 0.2799479166666856
        },
        {
          "name": "A3",
          "midi": 57,
          "time": 288.4375000000001,
          "velocity": 0.6692913385826772,
          "duration": 0.6315104166666288
        },
        {
          "name": "E3",
          "midi": 52,
          "time": 288.4375000000001,
          "velocity": 0.6929133858267716,
          "duration": 0.5989583333333144
        },
        {
          "name": "E3",
          "midi": 52,
          "time": 290.00000000000006,
          "velocity": 0.5826771653543307,
          "duration": 0.3059895833333144
        },
        {
          "name": "C3",
          "midi": 48,
          "time": 290.00000000000006,
          "velocity": 0.6456692913385826,
          "duration": 0.3059895833333144
        },
        {
          "name": "G3",
          "midi": 55,
          "time": 290.31250000000006,
          "velocity": 0.6062992125984252,
          "duration": 0.3059895833333144
        },
        {
          "name": "C4",
          "midi": 60,
          "time": 290.62500000000006,
          "velocity": 0.5275590551181102,
          "duration": 0.3059895833333144
        },
        {
          "name": "G3",
          "midi": 55,
          "time": 290.93750000000006,
          "velocity": 0.3700787401574803,
          "duration": 0.3059895833333144
        },
        {
          "name": "G2",
          "midi": 43,
          "time": 291.25000000000006,
          "velocity": 0.6456692913385826,
          "duration": 0.3059895833333144
        },
        {
          "name": "B2",
          "midi": 47,
          "time": 291.56250000000006,
          "velocity": 0.5826771653543307,
          "duration": 0.3059895833333144
        },
        {
          "name": "G3",
          "midi": 55,
          "time": 291.87500000000006,
          "velocity": 0.6929133858267716,
          "duration": 0.3059895833333144
        },
        {
          "name": "D4",
          "midi": 62,
          "time": 291.87500000000006,
          "velocity": 0.7086614173228346,
          "duration": 0.3059895833333144
        },
        {
          "name": "G3",
          "midi": 55,
          "time": 292.18750000000006,
          "velocity": 0.4566929133858268,
          "duration": 0.3059895833333144
        },
        {
          "name": "F3",
          "midi": 53,
          "time": 292.50000000000006,
          "velocity": 0.6692913385826772,
          "duration": 0.3059895833333144
        },
        {
          "name": "C3",
          "midi": 48,
          "time": 292.50000000000006,
          "velocity": 0.6692913385826772,
          "duration": 0.3059895833333144
        },
        {
          "name": "A3",
          "midi": 57,
          "time": 292.81250000000006,
          "velocity": 0.4881889763779528,
          "duration": 0.3059895833333144
        },
        {
          "name": "C4",
          "midi": 60,
          "time": 293.12500000000006,
          "velocity": 0.6377952755905512,
          "duration": 0.3059895833333144
        },
        {
          "name": "F4",
          "midi": 65,
          "time": 293.12500000000006,
          "velocity": 0.5826771653543307,
          "duration": 0.3059895833333144
        },
        {
          "name": "A3",
          "midi": 57,
          "time": 293.43750000000006,
          "velocity": 0.5354330708661418,
          "duration": 0.3059895833333144
        },
        {
          "name": "D3",
          "midi": 50,
          "time": 293.75000000000006,
          "velocity": 0.6220472440944882,
          "duration": 0.3059895833333144
        },
        {
          "name": "A3",
          "midi": 57,
          "time": 294.06250000000006,
          "velocity": 0.5275590551181102,
          "duration": 0.3059895833333144
        },
        {
          "name": "D4",
          "midi": 62,
          "time": 294.37500000000006,
          "velocity": 0.5826771653543307,
          "duration": 0.3059895833333144
        },
        {
          "name": "F4",
          "midi": 65,
          "time": 294.37500000000006,
          "velocity": 0.5354330708661418,
          "duration": 0.3059895833333144
        },
        {
          "name": "A2",
          "midi": 45,
          "time": 295.00000000000006,
          "velocity": 0.7874015748031497,
          "duration": 0.3059895833333144
        },
        {
          "name": "E3",
          "midi": 52,
          "time": 295.00000000000006,
          "velocity": 0.7874015748031497,
          "duration": 0.3059895833333144
        },
        {
          "name": "A3",
          "midi": 57,
          "time": 295.00000000000006,
          "velocity": 0.7874015748031497,
          "duration": 0.3059895833333144
        },
        {
          "name": "C4",
          "midi": 60,
          "time": 295.00000000000006,
          "velocity": 0.7874015748031497,
          "duration": 0.3059895833333144
        },
        {
          "name": "E4",
          "midi": 64,
          "time": 295.00000000000006,
          "velocity": 0.7874015748031497,
          "duration": 0.3059895833333144
        },
        {
          "name": "A4",
          "midi": 69,
          "time": 295.00000000000006,
          "velocity": 0.7874015748031497,
          "duration": 0.3059895833333144
        },
        {
          "name": "A4",
          "midi": 69,
          "time": 295.31250000000006,
          "velocity": 0.5511811023622047,
          "duration": 0.14973958333331439
        },
        {
          "name": "E4",
          "midi": 64,
          "time": 295.31250000000006,
          "velocity": 0.5511811023622047,
          "duration": 0.14973958333331439
        },
        {
          "name": "C4",
          "midi": 60,
          "time": 295.31250000000006,
          "velocity": 0.5511811023622047,
          "duration": 0.14973958333331439
        },
        {
          "name": "A3",
          "midi": 57,
          "time": 295.31250000000006,
          "velocity": 0.5511811023622047,
          "duration": 0.14973958333331439
        },
        {
          "name": "E3",
          "midi": 52,
          "time": 295.46875000000006,
          "velocity": 0.6299212598425197,
          "duration": 0.3059895833333144
        },
        {
          "name": "A3",
          "midi": 57,
          "time": 295.46875000000006,
          "velocity": 0.6299212598425197,
          "duration": 0.3059895833333144
        },
        {
          "name": "C4",
          "midi": 60,
          "time": 295.46875000000006,
          "velocity": 0.6299212598425197,
          "duration": 0.3059895833333144
        },
        {
          "name": "E4",
          "midi": 64,
          "time": 295.46875000000006,
          "velocity": 0.6299212598425197,
          "duration": 0.3059895833333144
        },
        {
          "name": "A4",
          "midi": 69,
          "time": 295.46875000000006,
          "velocity": 0.6299212598425197,
          "duration": 0.3059895833333144
        },
        {
          "name": "A2",
          "midi": 45,
          "time": 295.62500000000006,
          "velocity": 0.6299212598425197,
          "duration": 0.3059895833333144
        },
        {
          "name": "E3",
          "midi": 52,
          "time": 295.62500000000006,
          "velocity": 0.6299212598425197,
          "duration": 0.3059895833333144
        },
        {
          "name": "A3",
          "midi": 57,
          "time": 295.62500000000006,
          "velocity": 0.6299212598425197,
          "duration": 0.3059895833333144
        },
        {
          "name": "C4",
          "midi": 60,
          "time": 295.62500000000006,
          "velocity": 0.6299212598425197,
          "duration": 0.3059895833333144
        },
        {
          "name": "E4",
          "midi": 64,
          "time": 295.62500000000006,
          "velocity": 0.6299212598425197,
          "duration": 0.3059895833333144
        },
        {
          "name": "A4",
          "midi": 69,
          "time": 295.62500000000006,
          "velocity": 0.6299212598425197,
          "duration": 0.3059895833333144
        },
        {
          "name": "A2",
          "midi": 45,
          "time": 295.93750000000006,
          "velocity": 0.7874015748031497,
          "duration": 0.3059895833333144
        },
        {
          "name": "E3",
          "midi": 52,
          "time": 295.93750000000006,
          "velocity": 0.7874015748031497,
          "duration": 0.3059895833333144
        },
        {
          "name": "A3",
          "midi": 57,
          "time": 295.93750000000006,
          "velocity": 0.7874015748031497,
          "duration": 0.3059895833333144
        },
        {
          "name": "C4",
          "midi": 60,
          "time": 295.93750000000006,
          "velocity": 0.7874015748031497,
          "duration": 0.3059895833333144
        },
        {
          "name": "E4",
          "midi": 64,
          "time": 295.93750000000006,
          "velocity": 0.7874015748031497,
          "duration": 0.3059895833333144
        },
        {
          "name": "A4",
          "midi": 69,
          "time": 295.93750000000006,
          "velocity": 0.7874015748031497,
          "duration": 0.3059895833333144
        },
        {
          "name": "A4",
          "midi": 69,
          "time": 296.25000000000006,
          "velocity": 0.5511811023622047,
          "duration": 0.14973958333331439
        },
        {
          "name": "E4",
          "midi": 64,
          "time": 296.25000000000006,
          "velocity": 0.5511811023622047,
          "duration": 0.14973958333331439
        },
        {
          "name": "C4",
          "midi": 60,
          "time": 296.25000000000006,
          "velocity": 0.5511811023622047,
          "duration": 0.14973958333331439
        },
        {
          "name": "A3",
          "midi": 57,
          "time": 296.25000000000006,
          "velocity": 0.5511811023622047,
          "duration": 0.14973958333331439
        },
        {
          "name": "E3",
          "midi": 52,
          "time": 296.40625000000006,
          "velocity": 0.6299212598425197,
          "duration": 0.3059895833333144
        },
        {
          "name": "A3",
          "midi": 57,
          "time": 296.40625000000006,
          "velocity": 0.6299212598425197,
          "duration": 0.3059895833333144
        },
        {
          "name": "C4",
          "midi": 60,
          "time": 296.40625000000006,
          "velocity": 0.6299212598425197,
          "duration": 0.3059895833333144
        },
        {
          "name": "E4",
          "midi": 64,
          "time": 296.40625000000006,
          "velocity": 0.6299212598425197,
          "duration": 0.3059895833333144
        },
        {
          "name": "A4",
          "midi": 69,
          "time": 296.40625000000006,
          "velocity": 0.6299212598425197,
          "duration": 0.3059895833333144
        },
        {
          "name": "A2",
          "midi": 45,
          "time": 296.56250000000006,
          "velocity": 0.6299212598425197,
          "duration": 0.3059895833333144
        },
        {
          "name": "E3",
          "midi": 52,
          "time": 296.56250000000006,
          "velocity": 0.6299212598425197,
          "duration": 0.3059895833333144
        },
        {
          "name": "A3",
          "midi": 57,
          "time": 296.56250000000006,
          "velocity": 0.6299212598425197,
          "duration": 0.3059895833333144
        },
        {
          "name": "C4",
          "midi": 60,
          "time": 296.56250000000006,
          "velocity": 0.6299212598425197,
          "duration": 0.3059895833333144
        },
        {
          "name": "E4",
          "midi": 64,
          "time": 296.56250000000006,
          "velocity": 0.6299212598425197,
          "duration": 0.3059895833333144
        },
        {
          "name": "A4",
          "midi": 69,
          "time": 296.56250000000006,
          "velocity": 0.6299212598425197,
          "duration": 0.3059895833333144
        },
        {
          "name": "A2",
          "midi": 45,
          "time": 296.87500000000006,
          "velocity": 0.7874015748031497,
          "duration": 0.3059895833333144
        },
        {
          "name": "E3",
          "midi": 52,
          "time": 296.87500000000006,
          "velocity": 0.7874015748031497,
          "duration": 0.3059895833333144
        },
        {
          "name": "A3",
          "midi": 57,
          "time": 296.87500000000006,
          "velocity": 0.7874015748031497,
          "duration": 0.3059895833333144
        },
        {
          "name": "C4",
          "midi": 60,
          "time": 296.87500000000006,
          "velocity": 0.7874015748031497,
          "duration": 0.3059895833333144
        },
        {
          "name": "E4",
          "midi": 64,
          "time": 296.87500000000006,
          "velocity": 0.7874015748031497,
          "duration": 0.3059895833333144
        },
        {
          "name": "A4",
          "midi": 69,
          "time": 296.87500000000006,
          "velocity": 0.7874015748031497,
          "duration": 0.3059895833333144
        },
        {
          "name": "A4",
          "midi": 69,
          "time": 297.18750000000006,
          "velocity": 0.5511811023622047,
          "duration": 0.14973958333331439
        },
        {
          "name": "E4",
          "midi": 64,
          "time": 297.18750000000006,
          "velocity": 0.5511811023622047,
          "duration": 0.14973958333331439
        },
        {
          "name": "C4",
          "midi": 60,
          "time": 297.18750000000006,
          "velocity": 0.5511811023622047,
          "duration": 0.14973958333331439
        },
        {
          "name": "A4",
          "midi": 69,
          "time": 297.34375000000006,
          "velocity": 0.5511811023622047,
          "duration": 0.14973958333331439
        },
        {
          "name": "E4",
          "midi": 64,
          "time": 297.34375000000006,
          "velocity": 0.5511811023622047,
          "duration": 0.14973958333331439
        },
        {
          "name": "C4",
          "midi": 60,
          "time": 297.34375000000006,
          "velocity": 0.5511811023622047,
          "duration": 0.14973958333331439
        },
        {
          "name": "A3",
          "midi": 57,
          "time": 297.34375000000006,
          "velocity": 0.5511811023622047,
          "duration": 0.14973958333331439
        },
        {
          "name": "F2",
          "midi": 41,
          "time": 297.50000000000006,
          "velocity": 0.7874015748031497,
          "duration": 0.3059895833333144
        },
        {
          "name": "C3",
          "midi": 48,
          "time": 297.50000000000006,
          "velocity": 0.7874015748031497,
          "duration": 0.3059895833333144
        },
        {
          "name": "F3",
          "midi": 53,
          "time": 297.50000000000006,
          "velocity": 0.7874015748031497,
          "duration": 0.3059895833333144
        },
        {
          "name": "A3",
          "midi": 57,
          "time": 297.50000000000006,
          "velocity": 0.7874015748031497,
          "duration": 0.3059895833333144
        },
        {
          "name": "C4",
          "midi": 60,
          "time": 297.50000000000006,
          "velocity": 0.7874015748031497,
          "duration": 0.3059895833333144
        },
        {
          "name": "F4",
          "midi": 65,
          "time": 297.50000000000006,
          "velocity": 0.7874015748031497,
          "duration": 0.3059895833333144
        },
        {
          "name": "F4",
          "midi": 65,
          "time": 297.81250000000006,
          "velocity": 0.5511811023622047,
          "duration": 0.14973958333331439
        },
        {
          "name": "C4",
          "midi": 60,
          "time": 297.81250000000006,
          "velocity": 0.5511811023622047,
          "duration": 0.14973958333331439
        },
        {
          "name": "A3",
          "midi": 57,
          "time": 297.81250000000006,
          "velocity": 0.5511811023622047,
          "duration": 0.14973958333331439
        },
        {
          "name": "F3",
          "midi": 53,
          "time": 297.81250000000006,
          "velocity": 0.5511811023622047,
          "duration": 0.14973958333331439
        },
        {
          "name": "C3",
          "midi": 48,
          "time": 297.96875000000006,
          "velocity": 0.6299212598425197,
          "duration": 0.3059895833333144
        },
        {
          "name": "F3",
          "midi": 53,
          "time": 297.96875000000006,
          "velocity": 0.6299212598425197,
          "duration": 0.3059895833333144
        },
        {
          "name": "A3",
          "midi": 57,
          "time": 297.96875000000006,
          "velocity": 0.6299212598425197,
          "duration": 0.3059895833333144
        },
        {
          "name": "C4",
          "midi": 60,
          "time": 297.96875000000006,
          "velocity": 0.6299212598425197,
          "duration": 0.3059895833333144
        },
        {
          "name": "F4",
          "midi": 65,
          "time": 297.96875000000006,
          "velocity": 0.6299212598425197,
          "duration": 0.3059895833333144
        },
        {
          "name": "F2",
          "midi": 41,
          "time": 298.12500000000006,
          "velocity": 0.6299212598425197,
          "duration": 0.3059895833333144
        },
        {
          "name": "C3",
          "midi": 48,
          "time": 298.12500000000006,
          "velocity": 0.6299212598425197,
          "duration": 0.3059895833333144
        },
        {
          "name": "F3",
          "midi": 53,
          "time": 298.12500000000006,
          "velocity": 0.6299212598425197,
          "duration": 0.3059895833333144
        },
        {
          "name": "A3",
          "midi": 57,
          "time": 298.12500000000006,
          "velocity": 0.6299212598425197,
          "duration": 0.3059895833333144
        },
        {
          "name": "C4",
          "midi": 60,
          "time": 298.12500000000006,
          "velocity": 0.6299212598425197,
          "duration": 0.3059895833333144
        },
        {
          "name": "F4",
          "midi": 65,
          "time": 298.12500000000006,
          "velocity": 0.6299212598425197,
          "duration": 0.3059895833333144
        },
        {
          "name": "F2",
          "midi": 41,
          "time": 298.43750000000006,
          "velocity": 0.7874015748031497,
          "duration": 0.3059895833333144
        },
        {
          "name": "C3",
          "midi": 48,
          "time": 298.43750000000006,
          "velocity": 0.7874015748031497,
          "duration": 0.3059895833333144
        },
        {
          "name": "F3",
          "midi": 53,
          "time": 298.43750000000006,
          "velocity": 0.7874015748031497,
          "duration": 0.3059895833333144
        },
        {
          "name": "A3",
          "midi": 57,
          "time": 298.43750000000006,
          "velocity": 0.7874015748031497,
          "duration": 0.3059895833333144
        },
        {
          "name": "C4",
          "midi": 60,
          "time": 298.43750000000006,
          "velocity": 0.7874015748031497,
          "duration": 0.3059895833333144
        },
        {
          "name": "F4",
          "midi": 65,
          "time": 298.43750000000006,
          "velocity": 0.7874015748031497,
          "duration": 0.3059895833333144
        },
        {
          "name": "F4",
          "midi": 65,
          "time": 298.75000000000006,
          "velocity": 0.5511811023622047,
          "duration": 0.14973958333331439
        },
        {
          "name": "C4",
          "midi": 60,
          "time": 298.75000000000006,
          "velocity": 0.5511811023622047,
          "duration": 0.14973958333331439
        },
        {
          "name": "A3",
          "midi": 57,
          "time": 298.75000000000006,
          "velocity": 0.5511811023622047,
          "duration": 0.14973958333331439
        },
        {
          "name": "F3",
          "midi": 53,
          "time": 298.75000000000006,
          "velocity": 0.5511811023622047,
          "duration": 0.14973958333331439
        },
        {
          "name": "C3",
          "midi": 48,
          "time": 298.90625000000006,
          "velocity": 0.6299212598425197,
          "duration": 0.3059895833333144
        },
        {
          "name": "F3",
          "midi": 53,
          "time": 298.90625000000006,
          "velocity": 0.6299212598425197,
          "duration": 0.3059895833333144
        },
        {
          "name": "A3",
          "midi": 57,
          "time": 298.90625000000006,
          "velocity": 0.6299212598425197,
          "duration": 0.3059895833333144
        },
        {
          "name": "C4",
          "midi": 60,
          "time": 298.90625000000006,
          "velocity": 0.6299212598425197,
          "duration": 0.3059895833333144
        },
        {
          "name": "F4",
          "midi": 65,
          "time": 298.90625000000006,
          "velocity": 0.6299212598425197,
          "duration": 0.3059895833333144
        },
        {
          "name": "F2",
          "midi": 41,
          "time": 299.06250000000006,
          "velocity": 0.6299212598425197,
          "duration": 0.3059895833333144
        },
        {
          "name": "C3",
          "midi": 48,
          "time": 299.06250000000006,
          "velocity": 0.6299212598425197,
          "duration": 0.3059895833333144
        },
        {
          "name": "F3",
          "midi": 53,
          "time": 299.06250000000006,
          "velocity": 0.6299212598425197,
          "duration": 0.3059895833333144
        },
        {
          "name": "A3",
          "midi": 57,
          "time": 299.06250000000006,
          "velocity": 0.6299212598425197,
          "duration": 0.3059895833333144
        },
        {
          "name": "C4",
          "midi": 60,
          "time": 299.06250000000006,
          "velocity": 0.6299212598425197,
          "duration": 0.3059895833333144
        },
        {
          "name": "F4",
          "midi": 65,
          "time": 299.06250000000006,
          "velocity": 0.6299212598425197,
          "duration": 0.3059895833333144
        },
        {
          "name": "F2",
          "midi": 41,
          "time": 299.37500000000006,
          "velocity": 0.7874015748031497,
          "duration": 0.3059895833333144
        },
        {
          "name": "C3",
          "midi": 48,
          "time": 299.37500000000006,
          "velocity": 0.7874015748031497,
          "duration": 0.3059895833333144
        },
        {
          "name": "F3",
          "midi": 53,
          "time": 299.37500000000006,
          "velocity": 0.7874015748031497,
          "duration": 0.3059895833333144
        },
        {
          "name": "A3",
          "midi": 57,
          "time": 299.37500000000006,
          "velocity": 0.7874015748031497,
          "duration": 0.3059895833333144
        },
        {
          "name": "C4",
          "midi": 60,
          "time": 299.37500000000006,
          "velocity": 0.7874015748031497,
          "duration": 0.3059895833333144
        },
        {
          "name": "F4",
          "midi": 65,
          "time": 299.37500000000006,
          "velocity": 0.7874015748031497,
          "duration": 0.3059895833333144
        },
        {
          "name": "F3",
          "midi": 53,
          "time": 299.53125000000006,
          "velocity": 0.5039370078740157,
          "duration": 0.3059895833333144
        },
        {
          "name": "A3",
          "midi": 57,
          "time": 299.53125000000006,
          "velocity": 0.5039370078740157,
          "duration": 0.3059895833333144
        },
        {
          "name": "C4",
          "midi": 60,
          "time": 299.53125000000006,
          "velocity": 0.5039370078740157,
          "duration": 0.3059895833333144
        },
        {
          "name": "F4",
          "midi": 65,
          "time": 299.53125000000006,
          "velocity": 0.5039370078740157,
          "duration": 0.3059895833333144
        },
        {
          "name": "F4",
          "midi": 65,
          "time": 299.68750000000006,
          "velocity": 0.4409448818897638,
          "duration": 0.14973958333331439
        },
        {
          "name": "C4",
          "midi": 60,
          "time": 299.68750000000006,
          "velocity": 0.4409448818897638,
          "duration": 0.14973958333331439
        },
        {
          "name": "A3",
          "midi": 57,
          "time": 299.68750000000006,
          "velocity": 0.4409448818897638,
          "duration": 0.14973958333331439
        },
        {
          "name": "F4",
          "midi": 65,
          "time": 299.84375000000006,
          "velocity": 0.5511811023622047,
          "duration": 0.14973958333331439
        },
        {
          "name": "C4",
          "midi": 60,
          "time": 299.84375000000006,
          "velocity": 0.5511811023622047,
          "duration": 0.14973958333331439
        },
        {
          "name": "A3",
          "midi": 57,
          "time": 299.84375000000006,
          "velocity": 0.5511811023622047,
          "duration": 0.14973958333331439
        },
        {
          "name": "F3",
          "midi": 53,
          "time": 299.84375000000006,
          "velocity": 0.5511811023622047,
          "duration": 0.14973958333331439
        },
        {
          "name": "A2",
          "midi": 45,
          "time": 300.00000000000006,
          "velocity": 0.7874015748031497,
          "duration": 0.3059895833333144
        },
        {
          "name": "E3",
          "midi": 52,
          "time": 300.00000000000006,
          "velocity": 0.7874015748031497,
          "duration": 0.3059895833333144
        },
        {
          "name": "A3",
          "midi": 57,
          "time": 300.00000000000006,
          "velocity": 0.7874015748031497,
          "duration": 0.3059895833333144
        },
        {
          "name": "C4",
          "midi": 60,
          "time": 300.00000000000006,
          "velocity": 0.7874015748031497,
          "duration": 0.3059895833333144
        },
        {
          "name": "E4",
          "midi": 64,
          "time": 300.00000000000006,
          "velocity": 0.7874015748031497,
          "duration": 0.3059895833333144
        },
        {
          "name": "A4",
          "midi": 69,
          "time": 300.00000000000006,
          "velocity": 0.7874015748031497,
          "duration": 0.3059895833333144
        },
        {
          "name": "A4",
          "midi": 69,
          "time": 300.31250000000006,
          "velocity": 0.5511811023622047,
          "duration": 0.14973958333331439
        },
        {
          "name": "E4",
          "midi": 64,
          "time": 300.31250000000006,
          "velocity": 0.5511811023622047,
          "duration": 0.14973958333331439
        },
        {
          "name": "C4",
          "midi": 60,
          "time": 300.31250000000006,
          "velocity": 0.5511811023622047,
          "duration": 0.14973958333331439
        },
        {
          "name": "A3",
          "midi": 57,
          "time": 300.31250000000006,
          "velocity": 0.5511811023622047,
          "duration": 0.14973958333331439
        },
        {
          "name": "E3",
          "midi": 52,
          "time": 300.46875000000006,
          "velocity": 0.6299212598425197,
          "duration": 0.3059895833333144
        },
        {
          "name": "A3",
          "midi": 57,
          "time": 300.46875000000006,
          "velocity": 0.6299212598425197,
          "duration": 0.3059895833333144
        },
        {
          "name": "C4",
          "midi": 60,
          "time": 300.46875000000006,
          "velocity": 0.6299212598425197,
          "duration": 0.3059895833333144
        },
        {
          "name": "E4",
          "midi": 64,
          "time": 300.46875000000006,
          "velocity": 0.6299212598425197,
          "duration": 0.3059895833333144
        },
        {
          "name": "A4",
          "midi": 69,
          "time": 300.46875000000006,
          "velocity": 0.6299212598425197,
          "duration": 0.3059895833333144
        },
        {
          "name": "A2",
          "midi": 45,
          "time": 300.62500000000006,
          "velocity": 0.6299212598425197,
          "duration": 0.3059895833333144
        },
        {
          "name": "E3",
          "midi": 52,
          "time": 300.62500000000006,
          "velocity": 0.6299212598425197,
          "duration": 0.3059895833333144
        },
        {
          "name": "A3",
          "midi": 57,
          "time": 300.62500000000006,
          "velocity": 0.6299212598425197,
          "duration": 0.3059895833333144
        },
        {
          "name": "C4",
          "midi": 60,
          "time": 300.62500000000006,
          "velocity": 0.6299212598425197,
          "duration": 0.3059895833333144
        },
        {
          "name": "E4",
          "midi": 64,
          "time": 300.62500000000006,
          "velocity": 0.6299212598425197,
          "duration": 0.3059895833333144
        },
        {
          "name": "A4",
          "midi": 69,
          "time": 300.62500000000006,
          "velocity": 0.6299212598425197,
          "duration": 0.3059895833333144
        },
        {
          "name": "A2",
          "midi": 45,
          "time": 300.93750000000006,
          "velocity": 0.7874015748031497,
          "duration": 0.3059895833333144
        },
        {
          "name": "E3",
          "midi": 52,
          "time": 300.93750000000006,
          "velocity": 0.7874015748031497,
          "duration": 0.3059895833333144
        },
        {
          "name": "A3",
          "midi": 57,
          "time": 300.93750000000006,
          "velocity": 0.7874015748031497,
          "duration": 0.3059895833333144
        },
        {
          "name": "C4",
          "midi": 60,
          "time": 300.93750000000006,
          "velocity": 0.7874015748031497,
          "duration": 0.3059895833333144
        },
        {
          "name": "E4",
          "midi": 64,
          "time": 300.93750000000006,
          "velocity": 0.7874015748031497,
          "duration": 0.3059895833333144
        },
        {
          "name": "A4",
          "midi": 69,
          "time": 300.93750000000006,
          "velocity": 0.7874015748031497,
          "duration": 0.3059895833333144
        },
        {
          "name": "A4",
          "midi": 69,
          "time": 301.25000000000006,
          "velocity": 0.5511811023622047,
          "duration": 0.14973958333331439
        },
        {
          "name": "E4",
          "midi": 64,
          "time": 301.25000000000006,
          "velocity": 0.5511811023622047,
          "duration": 0.14973958333331439
        },
        {
          "name": "C4",
          "midi": 60,
          "time": 301.25000000000006,
          "velocity": 0.5511811023622047,
          "duration": 0.14973958333331439
        },
        {
          "name": "A3",
          "midi": 57,
          "time": 301.25000000000006,
          "velocity": 0.5511811023622047,
          "duration": 0.14973958333331439
        },
        {
          "name": "E3",
          "midi": 52,
          "time": 301.40625000000006,
          "velocity": 0.6299212598425197,
          "duration": 0.3059895833333144
        },
        {
          "name": "A3",
          "midi": 57,
          "time": 301.40625000000006,
          "velocity": 0.6299212598425197,
          "duration": 0.3059895833333144
        },
        {
          "name": "C4",
          "midi": 60,
          "time": 301.40625000000006,
          "velocity": 0.6299212598425197,
          "duration": 0.3059895833333144
        },
        {
          "name": "E4",
          "midi": 64,
          "time": 301.40625000000006,
          "velocity": 0.6299212598425197,
          "duration": 0.3059895833333144
        },
        {
          "name": "A4",
          "midi": 69,
          "time": 301.40625000000006,
          "velocity": 0.8188976377952756,
          "duration": 0.3059895833333144
        },
        {
          "name": "A2",
          "midi": 45,
          "time": 301.56250000000006,
          "velocity": 0.6299212598425197,
          "duration": 0.3059895833333144
        },
        {
          "name": "E3",
          "midi": 52,
          "time": 301.56250000000006,
          "velocity": 0.6299212598425197,
          "duration": 0.3059895833333144
        },
        {
          "name": "A3",
          "midi": 57,
          "time": 301.56250000000006,
          "velocity": 0.6299212598425197,
          "duration": 0.3059895833333144
        },
        {
          "name": "C4",
          "midi": 60,
          "time": 301.56250000000006,
          "velocity": 0.6299212598425197,
          "duration": 0.3059895833333144
        },
        {
          "name": "E4",
          "midi": 64,
          "time": 301.56250000000006,
          "velocity": 0.6299212598425197,
          "duration": 0.3059895833333144
        },
        {
          "name": "A4",
          "midi": 69,
          "time": 301.56250000000006,
          "velocity": 0.6299212598425197,
          "duration": 0.3059895833333144
        },
        {
          "name": "A2",
          "midi": 45,
          "time": 301.87500000000006,
          "velocity": 0.7874015748031497,
          "duration": 0.3059895833333144
        },
        {
          "name": "E3",
          "midi": 52,
          "time": 301.87500000000006,
          "velocity": 0.7874015748031497,
          "duration": 0.3059895833333144
        },
        {
          "name": "A3",
          "midi": 57,
          "time": 301.87500000000006,
          "velocity": 0.7874015748031497,
          "duration": 0.3059895833333144
        },
        {
          "name": "C4",
          "midi": 60,
          "time": 301.87500000000006,
          "velocity": 0.7874015748031497,
          "duration": 0.3059895833333144
        },
        {
          "name": "E4",
          "midi": 64,
          "time": 301.87500000000006,
          "velocity": 0.7874015748031497,
          "duration": 0.3059895833333144
        },
        {
          "name": "A4",
          "midi": 69,
          "time": 301.87500000000006,
          "velocity": 0.7874015748031497,
          "duration": 0.3059895833333144
        },
        {
          "name": "A4",
          "midi": 69,
          "time": 302.18750000000006,
          "velocity": 0.5511811023622047,
          "duration": 0.14973958333331439
        },
        {
          "name": "E4",
          "midi": 64,
          "time": 302.18750000000006,
          "velocity": 0.5511811023622047,
          "duration": 0.14973958333331439
        },
        {
          "name": "C4",
          "midi": 60,
          "time": 302.18750000000006,
          "velocity": 0.5511811023622047,
          "duration": 0.14973958333331439
        },
        {
          "name": "A4",
          "midi": 69,
          "time": 302.34375000000006,
          "velocity": 0.5511811023622047,
          "duration": 0.14973958333331439
        },
        {
          "name": "E4",
          "midi": 64,
          "time": 302.34375000000006,
          "velocity": 0.5511811023622047,
          "duration": 0.14973958333331439
        },
        {
          "name": "C4",
          "midi": 60,
          "time": 302.34375000000006,
          "velocity": 0.5511811023622047,
          "duration": 0.14973958333331439
        },
        {
          "name": "A3",
          "midi": 57,
          "time": 302.34375000000006,
          "velocity": 0.5511811023622047,
          "duration": 0.14973958333331439
        },
        {
          "name": "F2",
          "midi": 41,
          "time": 302.50000000000006,
          "velocity": 0.7874015748031497,
          "duration": 0.3059895833333144
        },
        {
          "name": "C3",
          "midi": 48,
          "time": 302.50000000000006,
          "velocity": 0.7874015748031497,
          "duration": 0.3059895833333144
        },
        {
          "name": "F3",
          "midi": 53,
          "time": 302.50000000000006,
          "velocity": 0.7874015748031497,
          "duration": 0.3059895833333144
        },
        {
          "name": "A3",
          "midi": 57,
          "time": 302.50000000000006,
          "velocity": 0.7874015748031497,
          "duration": 0.3059895833333144
        },
        {
          "name": "C4",
          "midi": 60,
          "time": 302.50000000000006,
          "velocity": 0.7874015748031497,
          "duration": 0.3059895833333144
        },
        {
          "name": "F4",
          "midi": 65,
          "time": 302.50000000000006,
          "velocity": 0.7874015748031497,
          "duration": 0.3059895833333144
        },
        {
          "name": "F4",
          "midi": 65,
          "time": 302.81250000000006,
          "velocity": 0.5511811023622047,
          "duration": 0.14973958333331439
        },
        {
          "name": "C4",
          "midi": 60,
          "time": 302.81250000000006,
          "velocity": 0.5511811023622047,
          "duration": 0.14973958333331439
        },
        {
          "name": "A3",
          "midi": 57,
          "time": 302.81250000000006,
          "velocity": 0.5511811023622047,
          "duration": 0.14973958333331439
        },
        {
          "name": "F3",
          "midi": 53,
          "time": 302.81250000000006,
          "velocity": 0.5511811023622047,
          "duration": 0.14973958333331439
        },
        {
          "name": "C3",
          "midi": 48,
          "time": 302.96875000000006,
          "velocity": 0.6299212598425197,
          "duration": 0.3059895833333144
        },
        {
          "name": "F3",
          "midi": 53,
          "time": 302.96875000000006,
          "velocity": 0.6299212598425197,
          "duration": 0.3059895833333144
        },
        {
          "name": "A3",
          "midi": 57,
          "time": 302.96875000000006,
          "velocity": 0.6299212598425197,
          "duration": 0.3059895833333144
        },
        {
          "name": "C4",
          "midi": 60,
          "time": 302.96875000000006,
          "velocity": 0.6299212598425197,
          "duration": 0.3059895833333144
        },
        {
          "name": "F4",
          "midi": 65,
          "time": 302.96875000000006,
          "velocity": 0.7401574803149606,
          "duration": 0.3059895833333144
        },
        {
          "name": "F2",
          "midi": 41,
          "time": 303.12500000000006,
          "velocity": 0.6614173228346457,
          "duration": 0.3059895833333144
        },
        {
          "name": "C3",
          "midi": 48,
          "time": 303.12500000000006,
          "velocity": 0.6299212598425197,
          "duration": 0.3059895833333144
        },
        {
          "name": "F3",
          "midi": 53,
          "time": 303.12500000000006,
          "velocity": 0.6299212598425197,
          "duration": 0.3059895833333144
        },
        {
          "name": "A3",
          "midi": 57,
          "time": 303.12500000000006,
          "velocity": 0.6299212598425197,
          "duration": 0.3059895833333144
        },
        {
          "name": "C4",
          "midi": 60,
          "time": 303.12500000000006,
          "velocity": 0.6299212598425197,
          "duration": 0.3059895833333144
        },
        {
          "name": "F4",
          "midi": 65,
          "time": 303.12500000000006,
          "velocity": 0.6771653543307087,
          "duration": 0.3059895833333144
        },
        {
          "name": "F2",
          "midi": 41,
          "time": 303.43750000000006,
          "velocity": 0.7874015748031497,
          "duration": 0.3059895833333144
        },
        {
          "name": "C3",
          "midi": 48,
          "time": 303.43750000000006,
          "velocity": 0.7874015748031497,
          "duration": 0.3059895833333144
        },
        {
          "name": "F3",
          "midi": 53,
          "time": 303.43750000000006,
          "velocity": 0.7874015748031497,
          "duration": 0.3059895833333144
        },
        {
          "name": "A3",
          "midi": 57,
          "time": 303.43750000000006,
          "velocity": 0.7874015748031497,
          "duration": 0.3059895833333144
        },
        {
          "name": "C4",
          "midi": 60,
          "time": 303.43750000000006,
          "velocity": 0.7874015748031497,
          "duration": 0.3059895833333144
        },
        {
          "name": "F4",
          "midi": 65,
          "time": 303.43750000000006,
          "velocity": 0.7874015748031497,
          "duration": 0.3059895833333144
        },
        {
          "name": "F4",
          "midi": 65,
          "time": 303.75000000000006,
          "velocity": 0.5511811023622047,
          "duration": 0.14973958333331439
        },
        {
          "name": "C4",
          "midi": 60,
          "time": 303.75000000000006,
          "velocity": 0.5511811023622047,
          "duration": 0.14973958333331439
        },
        {
          "name": "A3",
          "midi": 57,
          "time": 303.75000000000006,
          "velocity": 0.5511811023622047,
          "duration": 0.14973958333331439
        },
        {
          "name": "F3",
          "midi": 53,
          "time": 303.75000000000006,
          "velocity": 0.5511811023622047,
          "duration": 0.14973958333331439
        },
        {
          "name": "C3",
          "midi": 48,
          "time": 303.90625000000006,
          "velocity": 0.6299212598425197,
          "duration": 0.3059895833333144
        },
        {
          "name": "F3",
          "midi": 53,
          "time": 303.90625000000006,
          "velocity": 0.6299212598425197,
          "duration": 0.3059895833333144
        },
        {
          "name": "A3",
          "midi": 57,
          "time": 303.90625000000006,
          "velocity": 0.6299212598425197,
          "duration": 0.3059895833333144
        },
        {
          "name": "C4",
          "midi": 60,
          "time": 303.90625000000006,
          "velocity": 0.6299212598425197,
          "duration": 0.3059895833333144
        },
        {
          "name": "F4",
          "midi": 65,
          "time": 303.90625000000006,
          "velocity": 0.7637795275590551,
          "duration": 0.3059895833333144
        },
        {
          "name": "F2",
          "midi": 41,
          "time": 304.06250000000006,
          "velocity": 0.6299212598425197,
          "duration": 0.3059895833333144
        },
        {
          "name": "C3",
          "midi": 48,
          "time": 304.06250000000006,
          "velocity": 0.6299212598425197,
          "duration": 0.3059895833333144
        },
        {
          "name": "F3",
          "midi": 53,
          "time": 304.06250000000006,
          "velocity": 0.6299212598425197,
          "duration": 0.3059895833333144
        },
        {
          "name": "A3",
          "midi": 57,
          "time": 304.06250000000006,
          "velocity": 0.6299212598425197,
          "duration": 0.3059895833333144
        },
        {
          "name": "C4",
          "midi": 60,
          "time": 304.06250000000006,
          "velocity": 0.6299212598425197,
          "duration": 0.3059895833333144
        },
        {
          "name": "F4",
          "midi": 65,
          "time": 304.06250000000006,
          "velocity": 0.6299212598425197,
          "duration": 0.3059895833333144
        },
        {
          "name": "F2",
          "midi": 41,
          "time": 304.37500000000006,
          "velocity": 0.7874015748031497,
          "duration": 0.3059895833333144
        },
        {
          "name": "C3",
          "midi": 48,
          "time": 304.37500000000006,
          "velocity": 0.7874015748031497,
          "duration": 0.3059895833333144
        },
        {
          "name": "F3",
          "midi": 53,
          "time": 304.37500000000006,
          "velocity": 0.7874015748031497,
          "duration": 0.3059895833333144
        },
        {
          "name": "A3",
          "midi": 57,
          "time": 304.37500000000006,
          "velocity": 0.7874015748031497,
          "duration": 0.3059895833333144
        },
        {
          "name": "C4",
          "midi": 60,
          "time": 304.37500000000006,
          "velocity": 0.7874015748031497,
          "duration": 0.3059895833333144
        },
        {
          "name": "F4",
          "midi": 65,
          "time": 304.37500000000006,
          "velocity": 0.7874015748031497,
          "duration": 0.3059895833333144
        },
        {
          "name": "F3",
          "midi": 53,
          "time": 304.53125000000006,
          "velocity": 0.5039370078740157,
          "duration": 0.3059895833333144
        },
        {
          "name": "A3",
          "midi": 57,
          "time": 304.53125000000006,
          "velocity": 0.5039370078740157,
          "duration": 0.3059895833333144
        },
        {
          "name": "C4",
          "midi": 60,
          "time": 304.53125000000006,
          "velocity": 0.5039370078740157,
          "duration": 0.3059895833333144
        },
        {
          "name": "F4",
          "midi": 65,
          "time": 304.53125000000006,
          "velocity": 0.5039370078740157,
          "duration": 0.3059895833333144
        },
        {
          "name": "F4",
          "midi": 65,
          "time": 304.68750000000006,
          "velocity": 0.4409448818897638,
          "duration": 0.14973958333331439
        },
        {
          "name": "C4",
          "midi": 60,
          "time": 304.68750000000006,
          "velocity": 0.4409448818897638,
          "duration": 0.14973958333331439
        },
        {
          "name": "A3",
          "midi": 57,
          "time": 304.68750000000006,
          "velocity": 0.4409448818897638,
          "duration": 0.14973958333331439
        },
        {
          "name": "F4",
          "midi": 65,
          "time": 304.84375000000006,
          "velocity": 0.5511811023622047,
          "duration": 0.14973958333331439
        },
        {
          "name": "C4",
          "midi": 60,
          "time": 304.84375000000006,
          "velocity": 0.5511811023622047,
          "duration": 0.14973958333331439
        },
        {
          "name": "A3",
          "midi": 57,
          "time": 304.84375000000006,
          "velocity": 0.5511811023622047,
          "duration": 0.14973958333331439
        },
        {
          "name": "F3",
          "midi": 53,
          "time": 304.84375000000006,
          "velocity": 0.5511811023622047,
          "duration": 0.14973958333331439
        },
        {
          "name": "A2",
          "midi": 45,
          "time": 305.00000000000006,
          "velocity": 0.7874015748031497,
          "duration": 0.3059895833333144
        },
        {
          "name": "E3",
          "midi": 52,
          "time": 305.00000000000006,
          "velocity": 0.7874015748031497,
          "duration": 0.3059895833333144
        },
        {
          "name": "A3",
          "midi": 57,
          "time": 305.00000000000006,
          "velocity": 0.7874015748031497,
          "duration": 0.3059895833333144
        },
        {
          "name": "C4",
          "midi": 60,
          "time": 305.00000000000006,
          "velocity": 0.7874015748031497,
          "duration": 0.3059895833333144
        },
        {
          "name": "E4",
          "midi": 64,
          "time": 305.00000000000006,
          "velocity": 0.7874015748031497,
          "duration": 0.3059895833333144
        },
        {
          "name": "A4",
          "midi": 69,
          "time": 305.00000000000006,
          "velocity": 0.7874015748031497,
          "duration": 0.3059895833333144
        },
        {
          "name": "A4",
          "midi": 69,
          "time": 305.31250000000006,
          "velocity": 0.5511811023622047,
          "duration": 0.14973958333331439
        },
        {
          "name": "E4",
          "midi": 64,
          "time": 305.31250000000006,
          "velocity": 0.5511811023622047,
          "duration": 0.14973958333331439
        },
        {
          "name": "C4",
          "midi": 60,
          "time": 305.31250000000006,
          "velocity": 0.5511811023622047,
          "duration": 0.14973958333331439
        },
        {
          "name": "A3",
          "midi": 57,
          "time": 305.31250000000006,
          "velocity": 0.5511811023622047,
          "duration": 0.14973958333331439
        },
        {
          "name": "E3",
          "midi": 52,
          "time": 305.46875000000006,
          "velocity": 0.6299212598425197,
          "duration": 0.3059895833333144
        },
        {
          "name": "A3",
          "midi": 57,
          "time": 305.46875000000006,
          "velocity": 0.6299212598425197,
          "duration": 0.3059895833333144
        },
        {
          "name": "C4",
          "midi": 60,
          "time": 305.46875000000006,
          "velocity": 0.6299212598425197,
          "duration": 0.3059895833333144
        },
        {
          "name": "E4",
          "midi": 64,
          "time": 305.46875000000006,
          "velocity": 0.6299212598425197,
          "duration": 0.3059895833333144
        },
        {
          "name": "A4",
          "midi": 69,
          "time": 305.46875000000006,
          "velocity": 0.6299212598425197,
          "duration": 0.3059895833333144
        },
        {
          "name": "A2",
          "midi": 45,
          "time": 305.62500000000006,
          "velocity": 0.6299212598425197,
          "duration": 0.3059895833333144
        },
        {
          "name": "E3",
          "midi": 52,
          "time": 305.62500000000006,
          "velocity": 0.6299212598425197,
          "duration": 0.3059895833333144
        },
        {
          "name": "A3",
          "midi": 57,
          "time": 305.62500000000006,
          "velocity": 0.6299212598425197,
          "duration": 0.3059895833333144
        },
        {
          "name": "C4",
          "midi": 60,
          "time": 305.62500000000006,
          "velocity": 0.6299212598425197,
          "duration": 0.3059895833333144
        },
        {
          "name": "E4",
          "midi": 64,
          "time": 305.62500000000006,
          "velocity": 0.6299212598425197,
          "duration": 0.3059895833333144
        },
        {
          "name": "A4",
          "midi": 69,
          "time": 305.62500000000006,
          "velocity": 0.6299212598425197,
          "duration": 0.3059895833333144
        },
        {
          "name": "A2",
          "midi": 45,
          "time": 305.93750000000006,
          "velocity": 0.7874015748031497,
          "duration": 0.3059895833333144
        },
        {
          "name": "E3",
          "midi": 52,
          "time": 305.93750000000006,
          "velocity": 0.7874015748031497,
          "duration": 0.3059895833333144
        },
        {
          "name": "A3",
          "midi": 57,
          "time": 305.93750000000006,
          "velocity": 0.7874015748031497,
          "duration": 0.3059895833333144
        },
        {
          "name": "C4",
          "midi": 60,
          "time": 305.93750000000006,
          "velocity": 0.7874015748031497,
          "duration": 0.3059895833333144
        },
        {
          "name": "E4",
          "midi": 64,
          "time": 305.93750000000006,
          "velocity": 0.7874015748031497,
          "duration": 0.3059895833333144
        },
        {
          "name": "A4",
          "midi": 69,
          "time": 305.93750000000006,
          "velocity": 0.7874015748031497,
          "duration": 0.3059895833333144
        },
        {
          "name": "A4",
          "midi": 69,
          "time": 306.25000000000006,
          "velocity": 0.5511811023622047,
          "duration": 0.14973958333331439
        },
        {
          "name": "E4",
          "midi": 64,
          "time": 306.25000000000006,
          "velocity": 0.5511811023622047,
          "duration": 0.14973958333331439
        },
        {
          "name": "C4",
          "midi": 60,
          "time": 306.25000000000006,
          "velocity": 0.5511811023622047,
          "duration": 0.14973958333331439
        },
        {
          "name": "A3",
          "midi": 57,
          "time": 306.25000000000006,
          "velocity": 0.5511811023622047,
          "duration": 0.14973958333331439
        },
        {
          "name": "E3",
          "midi": 52,
          "time": 306.40625000000006,
          "velocity": 0.6299212598425197,
          "duration": 0.3059895833333144
        },
        {
          "name": "A3",
          "midi": 57,
          "time": 306.40625000000006,
          "velocity": 0.6299212598425197,
          "duration": 0.3059895833333144
        },
        {
          "name": "C4",
          "midi": 60,
          "time": 306.40625000000006,
          "velocity": 0.6299212598425197,
          "duration": 0.3059895833333144
        },
        {
          "name": "E4",
          "midi": 64,
          "time": 306.40625000000006,
          "velocity": 0.6299212598425197,
          "duration": 0.3059895833333144
        },
        {
          "name": "A4",
          "midi": 69,
          "time": 306.40625000000006,
          "velocity": 0.6299212598425197,
          "duration": 0.3059895833333144
        },
        {
          "name": "A2",
          "midi": 45,
          "time": 306.56250000000006,
          "velocity": 0.6299212598425197,
          "duration": 0.3059895833333144
        },
        {
          "name": "E3",
          "midi": 52,
          "time": 306.56250000000006,
          "velocity": 0.6299212598425197,
          "duration": 0.3059895833333144
        },
        {
          "name": "A3",
          "midi": 57,
          "time": 306.56250000000006,
          "velocity": 0.6299212598425197,
          "duration": 0.3059895833333144
        },
        {
          "name": "C4",
          "midi": 60,
          "time": 306.56250000000006,
          "velocity": 0.6299212598425197,
          "duration": 0.3059895833333144
        },
        {
          "name": "E4",
          "midi": 64,
          "time": 306.56250000000006,
          "velocity": 0.6299212598425197,
          "duration": 0.3059895833333144
        },
        {
          "name": "A4",
          "midi": 69,
          "time": 306.56250000000006,
          "velocity": 0.6299212598425197,
          "duration": 0.3059895833333144
        },
        {
          "name": "A2",
          "midi": 45,
          "time": 306.87500000000006,
          "velocity": 0.7874015748031497,
          "duration": 0.3059895833333144
        },
        {
          "name": "E3",
          "midi": 52,
          "time": 306.87500000000006,
          "velocity": 0.7874015748031497,
          "duration": 0.3059895833333144
        },
        {
          "name": "A3",
          "midi": 57,
          "time": 306.87500000000006,
          "velocity": 0.7874015748031497,
          "duration": 0.3059895833333144
        },
        {
          "name": "C4",
          "midi": 60,
          "time": 306.87500000000006,
          "velocity": 0.7874015748031497,
          "duration": 0.3059895833333144
        },
        {
          "name": "E4",
          "midi": 64,
          "time": 306.87500000000006,
          "velocity": 0.7874015748031497,
          "duration": 0.3059895833333144
        },
        {
          "name": "A4",
          "midi": 69,
          "time": 306.87500000000006,
          "velocity": 0.7874015748031497,
          "duration": 0.3059895833333144
        },
        {
          "name": "A4",
          "midi": 69,
          "time": 307.18750000000006,
          "velocity": 0.5511811023622047,
          "duration": 0.14973958333331439
        },
        {
          "name": "E4",
          "midi": 64,
          "time": 307.18750000000006,
          "velocity": 0.5511811023622047,
          "duration": 0.14973958333331439
        },
        {
          "name": "C4",
          "midi": 60,
          "time": 307.18750000000006,
          "velocity": 0.5511811023622047,
          "duration": 0.14973958333331439
        },
        {
          "name": "A4",
          "midi": 69,
          "time": 307.34375000000006,
          "velocity": 0.5511811023622047,
          "duration": 0.14973958333331439
        },
        {
          "name": "E4",
          "midi": 64,
          "time": 307.34375000000006,
          "velocity": 0.5511811023622047,
          "duration": 0.14973958333331439
        },
        {
          "name": "C4",
          "midi": 60,
          "time": 307.34375000000006,
          "velocity": 0.5511811023622047,
          "duration": 0.14973958333331439
        },
        {
          "name": "A3",
          "midi": 57,
          "time": 307.34375000000006,
          "velocity": 0.5511811023622047,
          "duration": 0.14973958333331439
        },
        {
          "name": "F2",
          "midi": 41,
          "time": 307.50000000000006,
          "velocity": 0.7874015748031497,
          "duration": 0.3059895833333144
        },
        {
          "name": "C3",
          "midi": 48,
          "time": 307.50000000000006,
          "velocity": 0.7874015748031497,
          "duration": 0.3059895833333144
        },
        {
          "name": "F3",
          "midi": 53,
          "time": 307.50000000000006,
          "velocity": 0.7874015748031497,
          "duration": 0.3059895833333144
        },
        {
          "name": "A3",
          "midi": 57,
          "time": 307.50000000000006,
          "velocity": 0.7874015748031497,
          "duration": 0.3059895833333144
        },
        {
          "name": "C4",
          "midi": 60,
          "time": 307.50000000000006,
          "velocity": 0.7874015748031497,
          "duration": 0.3059895833333144
        },
        {
          "name": "F4",
          "midi": 65,
          "time": 307.50000000000006,
          "velocity": 0.7874015748031497,
          "duration": 0.3059895833333144
        },
        {
          "name": "F4",
          "midi": 65,
          "time": 307.81250000000006,
          "velocity": 0.5511811023622047,
          "duration": 0.14973958333331439
        },
        {
          "name": "C4",
          "midi": 60,
          "time": 307.81250000000006,
          "velocity": 0.5511811023622047,
          "duration": 0.14973958333331439
        },
        {
          "name": "A3",
          "midi": 57,
          "time": 307.81250000000006,
          "velocity": 0.5511811023622047,
          "duration": 0.14973958333331439
        },
        {
          "name": "F3",
          "midi": 53,
          "time": 307.81250000000006,
          "velocity": 0.5511811023622047,
          "duration": 0.14973958333331439
        },
        {
          "name": "C3",
          "midi": 48,
          "time": 307.96875000000006,
          "velocity": 0.6299212598425197,
          "duration": 0.3059895833333144
        },
        {
          "name": "F3",
          "midi": 53,
          "time": 307.96875000000006,
          "velocity": 0.6299212598425197,
          "duration": 0.3059895833333144
        },
        {
          "name": "A3",
          "midi": 57,
          "time": 307.96875000000006,
          "velocity": 0.6299212598425197,
          "duration": 0.3059895833333144
        },
        {
          "name": "C4",
          "midi": 60,
          "time": 307.96875000000006,
          "velocity": 0.6299212598425197,
          "duration": 0.3059895833333144
        },
        {
          "name": "F4",
          "midi": 65,
          "time": 307.96875000000006,
          "velocity": 0.6299212598425197,
          "duration": 0.3059895833333144
        },
        {
          "name": "F2",
          "midi": 41,
          "time": 308.12500000000006,
          "velocity": 0.6299212598425197,
          "duration": 0.3059895833333144
        },
        {
          "name": "C3",
          "midi": 48,
          "time": 308.12500000000006,
          "velocity": 0.6299212598425197,
          "duration": 0.3059895833333144
        },
        {
          "name": "F3",
          "midi": 53,
          "time": 308.12500000000006,
          "velocity": 0.6299212598425197,
          "duration": 0.3059895833333144
        },
        {
          "name": "A3",
          "midi": 57,
          "time": 308.12500000000006,
          "velocity": 0.6299212598425197,
          "duration": 0.3059895833333144
        },
        {
          "name": "C4",
          "midi": 60,
          "time": 308.12500000000006,
          "velocity": 0.6299212598425197,
          "duration": 0.3059895833333144
        },
        {
          "name": "F4",
          "midi": 65,
          "time": 308.12500000000006,
          "velocity": 0.6299212598425197,
          "duration": 0.3059895833333144
        },
        {
          "name": "F2",
          "midi": 41,
          "time": 308.43750000000006,
          "velocity": 0.7874015748031497,
          "duration": 0.3059895833333144
        },
        {
          "name": "C3",
          "midi": 48,
          "time": 308.43750000000006,
          "velocity": 0.7874015748031497,
          "duration": 0.3059895833333144
        },
        {
          "name": "F3",
          "midi": 53,
          "time": 308.43750000000006,
          "velocity": 0.7874015748031497,
          "duration": 0.3059895833333144
        },
        {
          "name": "A3",
          "midi": 57,
          "time": 308.43750000000006,
          "velocity": 0.7874015748031497,
          "duration": 0.3059895833333144
        },
        {
          "name": "C4",
          "midi": 60,
          "time": 308.43750000000006,
          "velocity": 0.7874015748031497,
          "duration": 0.3059895833333144
        },
        {
          "name": "F4",
          "midi": 65,
          "time": 308.43750000000006,
          "velocity": 0.7874015748031497,
          "duration": 0.3059895833333144
        },
        {
          "name": "F4",
          "midi": 65,
          "time": 308.75000000000006,
          "velocity": 0.5511811023622047,
          "duration": 0.14973958333331439
        },
        {
          "name": "C4",
          "midi": 60,
          "time": 308.75000000000006,
          "velocity": 0.5511811023622047,
          "duration": 0.14973958333331439
        },
        {
          "name": "A3",
          "midi": 57,
          "time": 308.75000000000006,
          "velocity": 0.5511811023622047,
          "duration": 0.14973958333331439
        },
        {
          "name": "F3",
          "midi": 53,
          "time": 308.75000000000006,
          "velocity": 0.5511811023622047,
          "duration": 0.14973958333331439
        },
        {
          "name": "C3",
          "midi": 48,
          "time": 308.90625000000006,
          "velocity": 0.6299212598425197,
          "duration": 0.3059895833333144
        },
        {
          "name": "F3",
          "midi": 53,
          "time": 308.90625000000006,
          "velocity": 0.6299212598425197,
          "duration": 0.3059895833333144
        },
        {
          "name": "A3",
          "midi": 57,
          "time": 308.90625000000006,
          "velocity": 0.6299212598425197,
          "duration": 0.3059895833333144
        },
        {
          "name": "C4",
          "midi": 60,
          "time": 308.90625000000006,
          "velocity": 0.6299212598425197,
          "duration": 0.3059895833333144
        },
        {
          "name": "F4",
          "midi": 65,
          "time": 308.90625000000006,
          "velocity": 0.6299212598425197,
          "duration": 0.3059895833333144
        },
        {
          "name": "F2",
          "midi": 41,
          "time": 309.06250000000006,
          "velocity": 0.6299212598425197,
          "duration": 0.3059895833333144
        },
        {
          "name": "C3",
          "midi": 48,
          "time": 309.06250000000006,
          "velocity": 0.6299212598425197,
          "duration": 0.3059895833333144
        },
        {
          "name": "F3",
          "midi": 53,
          "time": 309.06250000000006,
          "velocity": 0.6299212598425197,
          "duration": 0.3059895833333144
        },
        {
          "name": "A3",
          "midi": 57,
          "time": 309.06250000000006,
          "velocity": 0.6299212598425197,
          "duration": 0.3059895833333144
        },
        {
          "name": "C4",
          "midi": 60,
          "time": 309.06250000000006,
          "velocity": 0.6299212598425197,
          "duration": 0.3059895833333144
        },
        {
          "name": "F4",
          "midi": 65,
          "time": 309.06250000000006,
          "velocity": 0.6299212598425197,
          "duration": 0.3059895833333144
        },
        {
          "name": "F2",
          "midi": 41,
          "time": 309.37500000000006,
          "velocity": 0.7874015748031497,
          "duration": 0.3059895833333144
        },
        {
          "name": "C3",
          "midi": 48,
          "time": 309.37500000000006,
          "velocity": 0.7874015748031497,
          "duration": 0.3059895833333144
        },
        {
          "name": "F3",
          "midi": 53,
          "time": 309.37500000000006,
          "velocity": 0.7874015748031497,
          "duration": 0.3059895833333144
        },
        {
          "name": "A3",
          "midi": 57,
          "time": 309.37500000000006,
          "velocity": 0.7874015748031497,
          "duration": 0.3059895833333144
        },
        {
          "name": "C4",
          "midi": 60,
          "time": 309.37500000000006,
          "velocity": 0.7874015748031497,
          "duration": 0.3059895833333144
        },
        {
          "name": "F4",
          "midi": 65,
          "time": 309.37500000000006,
          "velocity": 0.7874015748031497,
          "duration": 0.3059895833333144
        },
        {
          "name": "F3",
          "midi": 53,
          "time": 309.53125000000006,
          "velocity": 0.5039370078740157,
          "duration": 0.3059895833333144
        },
        {
          "name": "A3",
          "midi": 57,
          "time": 309.53125000000006,
          "velocity": 0.5039370078740157,
          "duration": 0.3059895833333144
        },
        {
          "name": "C4",
          "midi": 60,
          "time": 309.53125000000006,
          "velocity": 0.5039370078740157,
          "duration": 0.3059895833333144
        },
        {
          "name": "F4",
          "midi": 65,
          "time": 309.53125000000006,
          "velocity": 0.5039370078740157,
          "duration": 0.3059895833333144
        },
        {
          "name": "F4",
          "midi": 65,
          "time": 309.68750000000006,
          "velocity": 0.4409448818897638,
          "duration": 0.14973958333331439
        },
        {
          "name": "C4",
          "midi": 60,
          "time": 309.68750000000006,
          "velocity": 0.4409448818897638,
          "duration": 0.14973958333331439
        },
        {
          "name": "A3",
          "midi": 57,
          "time": 309.68750000000006,
          "velocity": 0.4409448818897638,
          "duration": 0.14973958333331439
        },
        {
          "name": "F4",
          "midi": 65,
          "time": 309.84375000000006,
          "velocity": 0.5511811023622047,
          "duration": 0.14973958333331439
        },
        {
          "name": "C4",
          "midi": 60,
          "time": 309.84375000000006,
          "velocity": 0.5511811023622047,
          "duration": 0.14973958333331439
        },
        {
          "name": "A3",
          "midi": 57,
          "time": 309.84375000000006,
          "velocity": 0.5511811023622047,
          "duration": 0.14973958333331439
        },
        {
          "name": "F3",
          "midi": 53,
          "time": 309.84375000000006,
          "velocity": 0.5511811023622047,
          "duration": 0.14973958333331439
        },
        {
          "name": "A2",
          "midi": 45,
          "time": 310.00000000000006,
          "velocity": 0.7874015748031497,
          "duration": 0.3059895833333144
        },
        {
          "name": "E3",
          "midi": 52,
          "time": 310.00000000000006,
          "velocity": 0.7874015748031497,
          "duration": 0.3059895833333144
        },
        {
          "name": "A3",
          "midi": 57,
          "time": 310.00000000000006,
          "velocity": 0.7874015748031497,
          "duration": 0.3059895833333144
        },
        {
          "name": "C4",
          "midi": 60,
          "time": 310.00000000000006,
          "velocity": 0.7874015748031497,
          "duration": 0.3059895833333144
        },
        {
          "name": "E4",
          "midi": 64,
          "time": 310.00000000000006,
          "velocity": 0.7874015748031497,
          "duration": 0.3059895833333144
        },
        {
          "name": "A4",
          "midi": 69,
          "time": 310.00000000000006,
          "velocity": 0.7874015748031497,
          "duration": 0.3059895833333144
        },
        {
          "name": "A4",
          "midi": 69,
          "time": 310.31250000000006,
          "velocity": 0.5511811023622047,
          "duration": 0.14973958333331439
        },
        {
          "name": "E4",
          "midi": 64,
          "time": 310.31250000000006,
          "velocity": 0.5511811023622047,
          "duration": 0.14973958333331439
        },
        {
          "name": "C4",
          "midi": 60,
          "time": 310.31250000000006,
          "velocity": 0.5511811023622047,
          "duration": 0.14973958333331439
        },
        {
          "name": "A3",
          "midi": 57,
          "time": 310.31250000000006,
          "velocity": 0.5511811023622047,
          "duration": 0.14973958333331439
        },
        {
          "name": "E3",
          "midi": 52,
          "time": 310.46875000000006,
          "velocity": 0.6299212598425197,
          "duration": 0.3059895833333144
        },
        {
          "name": "A3",
          "midi": 57,
          "time": 310.46875000000006,
          "velocity": 0.6299212598425197,
          "duration": 0.3059895833333144
        },
        {
          "name": "C4",
          "midi": 60,
          "time": 310.46875000000006,
          "velocity": 0.6299212598425197,
          "duration": 0.3059895833333144
        },
        {
          "name": "E4",
          "midi": 64,
          "time": 310.46875000000006,
          "velocity": 0.6299212598425197,
          "duration": 0.3059895833333144
        },
        {
          "name": "A4",
          "midi": 69,
          "time": 310.46875000000006,
          "velocity": 0.6299212598425197,
          "duration": 0.3059895833333144
        },
        {
          "name": "A2",
          "midi": 45,
          "time": 310.62500000000006,
          "velocity": 0.6299212598425197,
          "duration": 0.3059895833333144
        },
        {
          "name": "E3",
          "midi": 52,
          "time": 310.62500000000006,
          "velocity": 0.6299212598425197,
          "duration": 0.3059895833333144
        },
        {
          "name": "A3",
          "midi": 57,
          "time": 310.62500000000006,
          "velocity": 0.6299212598425197,
          "duration": 0.3059895833333144
        },
        {
          "name": "C4",
          "midi": 60,
          "time": 310.62500000000006,
          "velocity": 0.6299212598425197,
          "duration": 0.3059895833333144
        },
        {
          "name": "E4",
          "midi": 64,
          "time": 310.62500000000006,
          "velocity": 0.6299212598425197,
          "duration": 0.3059895833333144
        },
        {
          "name": "A4",
          "midi": 69,
          "time": 310.62500000000006,
          "velocity": 0.6299212598425197,
          "duration": 0.3059895833333144
        },
        {
          "name": "A2",
          "midi": 45,
          "time": 310.93750000000006,
          "velocity": 0.7874015748031497,
          "duration": 0.3059895833333144
        },
        {
          "name": "E3",
          "midi": 52,
          "time": 310.93750000000006,
          "velocity": 0.7874015748031497,
          "duration": 0.3059895833333144
        },
        {
          "name": "A3",
          "midi": 57,
          "time": 310.93750000000006,
          "velocity": 0.7874015748031497,
          "duration": 0.3059895833333144
        },
        {
          "name": "C4",
          "midi": 60,
          "time": 310.93750000000006,
          "velocity": 0.7874015748031497,
          "duration": 0.3059895833333144
        },
        {
          "name": "E4",
          "midi": 64,
          "time": 310.93750000000006,
          "velocity": 0.7874015748031497,
          "duration": 0.3059895833333144
        },
        {
          "name": "A4",
          "midi": 69,
          "time": 310.93750000000006,
          "velocity": 0.7874015748031497,
          "duration": 0.3059895833333144
        },
        {
          "name": "A4",
          "midi": 69,
          "time": 311.25000000000006,
          "velocity": 0.5511811023622047,
          "duration": 0.14973958333331439
        },
        {
          "name": "E4",
          "midi": 64,
          "time": 311.25000000000006,
          "velocity": 0.5511811023622047,
          "duration": 0.14973958333331439
        },
        {
          "name": "C4",
          "midi": 60,
          "time": 311.25000000000006,
          "velocity": 0.5511811023622047,
          "duration": 0.14973958333331439
        },
        {
          "name": "A3",
          "midi": 57,
          "time": 311.25000000000006,
          "velocity": 0.5511811023622047,
          "duration": 0.14973958333331439
        },
        {
          "name": "E3",
          "midi": 52,
          "time": 311.40625000000006,
          "velocity": 0.6299212598425197,
          "duration": 0.3059895833333144
        },
        {
          "name": "A3",
          "midi": 57,
          "time": 311.40625000000006,
          "velocity": 0.6299212598425197,
          "duration": 0.3059895833333144
        },
        {
          "name": "C4",
          "midi": 60,
          "time": 311.40625000000006,
          "velocity": 0.6299212598425197,
          "duration": 0.3059895833333144
        },
        {
          "name": "E4",
          "midi": 64,
          "time": 311.40625000000006,
          "velocity": 0.6299212598425197,
          "duration": 0.3059895833333144
        },
        {
          "name": "A4",
          "midi": 69,
          "time": 311.40625000000006,
          "velocity": 0.8188976377952756,
          "duration": 0.3059895833333144
        },
        {
          "name": "A2",
          "midi": 45,
          "time": 311.56250000000006,
          "velocity": 0.6299212598425197,
          "duration": 0.3059895833333144
        },
        {
          "name": "E3",
          "midi": 52,
          "time": 311.56250000000006,
          "velocity": 0.6299212598425197,
          "duration": 0.3059895833333144
        },
        {
          "name": "A3",
          "midi": 57,
          "time": 311.56250000000006,
          "velocity": 0.6299212598425197,
          "duration": 0.3059895833333144
        },
        {
          "name": "C4",
          "midi": 60,
          "time": 311.56250000000006,
          "velocity": 0.6299212598425197,
          "duration": 0.3059895833333144
        },
        {
          "name": "E4",
          "midi": 64,
          "time": 311.56250000000006,
          "velocity": 0.6299212598425197,
          "duration": 0.3059895833333144
        },
        {
          "name": "A4",
          "midi": 69,
          "time": 311.56250000000006,
          "velocity": 0.6299212598425197,
          "duration": 0.3059895833333144
        },
        {
          "name": "A2",
          "midi": 45,
          "time": 311.87500000000006,
          "velocity": 0.7874015748031497,
          "duration": 0.3059895833333144
        },
        {
          "name": "E3",
          "midi": 52,
          "time": 311.87500000000006,
          "velocity": 0.7874015748031497,
          "duration": 0.3059895833333144
        },
        {
          "name": "A3",
          "midi": 57,
          "time": 311.87500000000006,
          "velocity": 0.7874015748031497,
          "duration": 0.3059895833333144
        },
        {
          "name": "C4",
          "midi": 60,
          "time": 311.87500000000006,
          "velocity": 0.7874015748031497,
          "duration": 0.3059895833333144
        },
        {
          "name": "E4",
          "midi": 64,
          "time": 311.87500000000006,
          "velocity": 0.7874015748031497,
          "duration": 0.3059895833333144
        },
        {
          "name": "A4",
          "midi": 69,
          "time": 311.87500000000006,
          "velocity": 0.7874015748031497,
          "duration": 0.3059895833333144
        },
        {
          "name": "A4",
          "midi": 69,
          "time": 312.18750000000006,
          "velocity": 0.5511811023622047,
          "duration": 0.14973958333331439
        },
        {
          "name": "E4",
          "midi": 64,
          "time": 312.18750000000006,
          "velocity": 0.5511811023622047,
          "duration": 0.14973958333331439
        },
        {
          "name": "C4",
          "midi": 60,
          "time": 312.18750000000006,
          "velocity": 0.5511811023622047,
          "duration": 0.14973958333331439
        },
        {
          "name": "A4",
          "midi": 69,
          "time": 312.34375000000006,
          "velocity": 0.5511811023622047,
          "duration": 0.14973958333331439
        },
        {
          "name": "E4",
          "midi": 64,
          "time": 312.34375000000006,
          "velocity": 0.5511811023622047,
          "duration": 0.14973958333331439
        },
        {
          "name": "C4",
          "midi": 60,
          "time": 312.34375000000006,
          "velocity": 0.5511811023622047,
          "duration": 0.14973958333331439
        },
        {
          "name": "A3",
          "midi": 57,
          "time": 312.34375000000006,
          "velocity": 0.5511811023622047,
          "duration": 0.14973958333331439
        },
        {
          "name": "F2",
          "midi": 41,
          "time": 312.50000000000006,
          "velocity": 0.7874015748031497,
          "duration": 0.3059895833333144
        },
        {
          "name": "C3",
          "midi": 48,
          "time": 312.50000000000006,
          "velocity": 0.7874015748031497,
          "duration": 0.3059895833333144
        },
        {
          "name": "F3",
          "midi": 53,
          "time": 312.50000000000006,
          "velocity": 0.7874015748031497,
          "duration": 0.3059895833333144
        },
        {
          "name": "A3",
          "midi": 57,
          "time": 312.50000000000006,
          "velocity": 0.7874015748031497,
          "duration": 0.3059895833333144
        },
        {
          "name": "C4",
          "midi": 60,
          "time": 312.50000000000006,
          "velocity": 0.7874015748031497,
          "duration": 0.3059895833333144
        },
        {
          "name": "F4",
          "midi": 65,
          "time": 312.50000000000006,
          "velocity": 0.7874015748031497,
          "duration": 0.3059895833333144
        },
        {
          "name": "F4",
          "midi": 65,
          "time": 312.81250000000006,
          "velocity": 0.5511811023622047,
          "duration": 0.14973958333331439
        },
        {
          "name": "C4",
          "midi": 60,
          "time": 312.81250000000006,
          "velocity": 0.5511811023622047,
          "duration": 0.14973958333331439
        },
        {
          "name": "A3",
          "midi": 57,
          "time": 312.81250000000006,
          "velocity": 0.5511811023622047,
          "duration": 0.14973958333331439
        },
        {
          "name": "F3",
          "midi": 53,
          "time": 312.81250000000006,
          "velocity": 0.5511811023622047,
          "duration": 0.14973958333331439
        },
        {
          "name": "C3",
          "midi": 48,
          "time": 312.96875000000006,
          "velocity": 0.6299212598425197,
          "duration": 0.3059895833333144
        },
        {
          "name": "F3",
          "midi": 53,
          "time": 312.96875000000006,
          "velocity": 0.6299212598425197,
          "duration": 0.3059895833333144
        },
        {
          "name": "A3",
          "midi": 57,
          "time": 312.96875000000006,
          "velocity": 0.6299212598425197,
          "duration": 0.3059895833333144
        },
        {
          "name": "C4",
          "midi": 60,
          "time": 312.96875000000006,
          "velocity": 0.6299212598425197,
          "duration": 0.3059895833333144
        },
        {
          "name": "F4",
          "midi": 65,
          "time": 312.96875000000006,
          "velocity": 0.7401574803149606,
          "duration": 0.3059895833333144
        },
        {
          "name": "F2",
          "midi": 41,
          "time": 313.12500000000006,
          "velocity": 0.6614173228346457,
          "duration": 0.3059895833333144
        },
        {
          "name": "C3",
          "midi": 48,
          "time": 313.12500000000006,
          "velocity": 0.6299212598425197,
          "duration": 0.3059895833333144
        },
        {
          "name": "F3",
          "midi": 53,
          "time": 313.12500000000006,
          "velocity": 0.6299212598425197,
          "duration": 0.3059895833333144
        },
        {
          "name": "A3",
          "midi": 57,
          "time": 313.12500000000006,
          "velocity": 0.6299212598425197,
          "duration": 0.3059895833333144
        },
        {
          "name": "C4",
          "midi": 60,
          "time": 313.12500000000006,
          "velocity": 0.6299212598425197,
          "duration": 0.3059895833333144
        },
        {
          "name": "F4",
          "midi": 65,
          "time": 313.12500000000006,
          "velocity": 0.6771653543307087,
          "duration": 0.3059895833333144
        },
        {
          "name": "F2",
          "midi": 41,
          "time": 313.43750000000006,
          "velocity": 0.7874015748031497,
          "duration": 0.3059895833333144
        },
        {
          "name": "C3",
          "midi": 48,
          "time": 313.43750000000006,
          "velocity": 0.7874015748031497,
          "duration": 0.3059895833333144
        },
        {
          "name": "F3",
          "midi": 53,
          "time": 313.43750000000006,
          "velocity": 0.7874015748031497,
          "duration": 0.3059895833333144
        },
        {
          "name": "A3",
          "midi": 57,
          "time": 313.43750000000006,
          "velocity": 0.7874015748031497,
          "duration": 0.3059895833333144
        },
        {
          "name": "C4",
          "midi": 60,
          "time": 313.43750000000006,
          "velocity": 0.7874015748031497,
          "duration": 0.3059895833333144
        },
        {
          "name": "F4",
          "midi": 65,
          "time": 313.43750000000006,
          "velocity": 0.7874015748031497,
          "duration": 0.3059895833333144
        },
        {
          "name": "F4",
          "midi": 65,
          "time": 313.75000000000006,
          "velocity": 0.5511811023622047,
          "duration": 0.14973958333331439
        },
        {
          "name": "C4",
          "midi": 60,
          "time": 313.75000000000006,
          "velocity": 0.5511811023622047,
          "duration": 0.14973958333331439
        },
        {
          "name": "A3",
          "midi": 57,
          "time": 313.75000000000006,
          "velocity": 0.5511811023622047,
          "duration": 0.14973958333331439
        },
        {
          "name": "F3",
          "midi": 53,
          "time": 313.75000000000006,
          "velocity": 0.5511811023622047,
          "duration": 0.14973958333331439
        },
        {
          "name": "C3",
          "midi": 48,
          "time": 313.90625000000006,
          "velocity": 0.6299212598425197,
          "duration": 0.3059895833333144
        },
        {
          "name": "F3",
          "midi": 53,
          "time": 313.90625000000006,
          "velocity": 0.6299212598425197,
          "duration": 0.3059895833333144
        },
        {
          "name": "A3",
          "midi": 57,
          "time": 313.90625000000006,
          "velocity": 0.6299212598425197,
          "duration": 0.3059895833333144
        },
        {
          "name": "C4",
          "midi": 60,
          "time": 313.90625000000006,
          "velocity": 0.6299212598425197,
          "duration": 0.3059895833333144
        },
        {
          "name": "F4",
          "midi": 65,
          "time": 313.90625000000006,
          "velocity": 0.7637795275590551,
          "duration": 0.3059895833333144
        },
        {
          "name": "F2",
          "midi": 41,
          "time": 314.06250000000006,
          "velocity": 0.6299212598425197,
          "duration": 0.3059895833333144
        },
        {
          "name": "C3",
          "midi": 48,
          "time": 314.06250000000006,
          "velocity": 0.6299212598425197,
          "duration": 0.3059895833333144
        },
        {
          "name": "F3",
          "midi": 53,
          "time": 314.06250000000006,
          "velocity": 0.6299212598425197,
          "duration": 0.3059895833333144
        },
        {
          "name": "A3",
          "midi": 57,
          "time": 314.06250000000006,
          "velocity": 0.6299212598425197,
          "duration": 0.3059895833333144
        },
        {
          "name": "C4",
          "midi": 60,
          "time": 314.06250000000006,
          "velocity": 0.6299212598425197,
          "duration": 0.3059895833333144
        },
        {
          "name": "F4",
          "midi": 65,
          "time": 314.06250000000006,
          "velocity": 0.6299212598425197,
          "duration": 0.3059895833333144
        },
        {
          "name": "F2",
          "midi": 41,
          "time": 314.37500000000006,
          "velocity": 0.7874015748031497,
          "duration": 0.3059895833333144
        },
        {
          "name": "C3",
          "midi": 48,
          "time": 314.37500000000006,
          "velocity": 0.7874015748031497,
          "duration": 0.3059895833333144
        },
        {
          "name": "F3",
          "midi": 53,
          "time": 314.37500000000006,
          "velocity": 0.7874015748031497,
          "duration": 0.3059895833333144
        },
        {
          "name": "A3",
          "midi": 57,
          "time": 314.37500000000006,
          "velocity": 0.7874015748031497,
          "duration": 0.3059895833333144
        },
        {
          "name": "C4",
          "midi": 60,
          "time": 314.37500000000006,
          "velocity": 0.7874015748031497,
          "duration": 0.3059895833333144
        },
        {
          "name": "F4",
          "midi": 65,
          "time": 314.37500000000006,
          "velocity": 0.7874015748031497,
          "duration": 0.3059895833333144
        },
        {
          "name": "F3",
          "midi": 53,
          "time": 314.53125000000006,
          "velocity": 0.5039370078740157,
          "duration": 0.3059895833333144
        },
        {
          "name": "A3",
          "midi": 57,
          "time": 314.53125000000006,
          "velocity": 0.5039370078740157,
          "duration": 0.3059895833333144
        },
        {
          "name": "C4",
          "midi": 60,
          "time": 314.53125000000006,
          "velocity": 0.5039370078740157,
          "duration": 0.3059895833333144
        },
        {
          "name": "F4",
          "midi": 65,
          "time": 314.53125000000006,
          "velocity": 0.5039370078740157,
          "duration": 0.3059895833333144
        },
        {
          "name": "F4",
          "midi": 65,
          "time": 314.68750000000006,
          "velocity": 0.4409448818897638,
          "duration": 0.14973958333331439
        },
        {
          "name": "C4",
          "midi": 60,
          "time": 314.68750000000006,
          "velocity": 0.4409448818897638,
          "duration": 0.14973958333331439
        },
        {
          "name": "A3",
          "midi": 57,
          "time": 314.68750000000006,
          "velocity": 0.4409448818897638,
          "duration": 0.14973958333331439
        },
        {
          "name": "F4",
          "midi": 65,
          "time": 314.84375000000006,
          "velocity": 0.5511811023622047,
          "duration": 0.14973958333331439
        },
        {
          "name": "C4",
          "midi": 60,
          "time": 314.84375000000006,
          "velocity": 0.5511811023622047,
          "duration": 0.14973958333331439
        },
        {
          "name": "A3",
          "midi": 57,
          "time": 314.84375000000006,
          "velocity": 0.5511811023622047,
          "duration": 0.14973958333331439
        },
        {
          "name": "F3",
          "midi": 53,
          "time": 314.84375000000006,
          "velocity": 0.5511811023622047,
          "duration": 0.14973958333331439
        },
        {
          "name": "A2",
          "midi": 45,
          "time": 315.00000000000006,
          "velocity": 0.7874015748031497,
          "duration": 0.3059895833333144
        },
        {
          "name": "E3",
          "midi": 52,
          "time": 315.00000000000006,
          "velocity": 0.7874015748031497,
          "duration": 0.3059895833333144
        },
        {
          "name": "A3",
          "midi": 57,
          "time": 315.00000000000006,
          "velocity": 0.7874015748031497,
          "duration": 0.3059895833333144
        },
        {
          "name": "C4",
          "midi": 60,
          "time": 315.00000000000006,
          "velocity": 0.7874015748031497,
          "duration": 0.3059895833333144
        },
        {
          "name": "E4",
          "midi": 64,
          "time": 315.00000000000006,
          "velocity": 0.7874015748031497,
          "duration": 0.3059895833333144
        },
        {
          "name": "A4",
          "midi": 69,
          "time": 315.00000000000006,
          "velocity": 0.7874015748031497,
          "duration": 0.3059895833333144
        },
        {
          "name": "A4",
          "midi": 69,
          "time": 315.31250000000006,
          "velocity": 0.5511811023622047,
          "duration": 0.14973958333331439
        },
        {
          "name": "E4",
          "midi": 64,
          "time": 315.31250000000006,
          "velocity": 0.5511811023622047,
          "duration": 0.14973958333331439
        },
        {
          "name": "C4",
          "midi": 60,
          "time": 315.31250000000006,
          "velocity": 0.5511811023622047,
          "duration": 0.14973958333331439
        },
        {
          "name": "A3",
          "midi": 57,
          "time": 315.31250000000006,
          "velocity": 0.5511811023622047,
          "duration": 0.14973958333331439
        },
        {
          "name": "E3",
          "midi": 52,
          "time": 315.46875000000006,
          "velocity": 0.6299212598425197,
          "duration": 0.3059895833333144
        },
        {
          "name": "A3",
          "midi": 57,
          "time": 315.46875000000006,
          "velocity": 0.6299212598425197,
          "duration": 0.3059895833333144
        },
        {
          "name": "C4",
          "midi": 60,
          "time": 315.46875000000006,
          "velocity": 0.6299212598425197,
          "duration": 0.3059895833333144
        },
        {
          "name": "E4",
          "midi": 64,
          "time": 315.46875000000006,
          "velocity": 0.6299212598425197,
          "duration": 0.3059895833333144
        },
        {
          "name": "A4",
          "midi": 69,
          "time": 315.46875000000006,
          "velocity": 0.6299212598425197,
          "duration": 0.3059895833333144
        },
        {
          "name": "A2",
          "midi": 45,
          "time": 315.62500000000006,
          "velocity": 0.6299212598425197,
          "duration": 0.3059895833333144
        },
        {
          "name": "E3",
          "midi": 52,
          "time": 315.62500000000006,
          "velocity": 0.6299212598425197,
          "duration": 0.3059895833333144
        },
        {
          "name": "A3",
          "midi": 57,
          "time": 315.62500000000006,
          "velocity": 0.6299212598425197,
          "duration": 0.3059895833333144
        },
        {
          "name": "C4",
          "midi": 60,
          "time": 315.62500000000006,
          "velocity": 0.6299212598425197,
          "duration": 0.3059895833333144
        },
        {
          "name": "E4",
          "midi": 64,
          "time": 315.62500000000006,
          "velocity": 0.6299212598425197,
          "duration": 0.3059895833333144
        },
        {
          "name": "A4",
          "midi": 69,
          "time": 315.62500000000006,
          "velocity": 0.6299212598425197,
          "duration": 0.3059895833333144
        },
        {
          "name": "A2",
          "midi": 45,
          "time": 315.93750000000006,
          "velocity": 0.7874015748031497,
          "duration": 0.3059895833333144
        },
        {
          "name": "E3",
          "midi": 52,
          "time": 315.93750000000006,
          "velocity": 0.7874015748031497,
          "duration": 0.3059895833333144
        },
        {
          "name": "A3",
          "midi": 57,
          "time": 315.93750000000006,
          "velocity": 0.7874015748031497,
          "duration": 0.3059895833333144
        },
        {
          "name": "C4",
          "midi": 60,
          "time": 315.93750000000006,
          "velocity": 0.7874015748031497,
          "duration": 0.3059895833333144
        },
        {
          "name": "E4",
          "midi": 64,
          "time": 315.93750000000006,
          "velocity": 0.7874015748031497,
          "duration": 0.3059895833333144
        },
        {
          "name": "A4",
          "midi": 69,
          "time": 315.93750000000006,
          "velocity": 0.7874015748031497,
          "duration": 0.3059895833333144
        },
        {
          "name": "A4",
          "midi": 69,
          "time": 316.25000000000006,
          "velocity": 0.5511811023622047,
          "duration": 0.14973958333331439
        },
        {
          "name": "E4",
          "midi": 64,
          "time": 316.25000000000006,
          "velocity": 0.5511811023622047,
          "duration": 0.14973958333331439
        },
        {
          "name": "C4",
          "midi": 60,
          "time": 316.25000000000006,
          "velocity": 0.5511811023622047,
          "duration": 0.14973958333331439
        },
        {
          "name": "A3",
          "midi": 57,
          "time": 316.25000000000006,
          "velocity": 0.5511811023622047,
          "duration": 0.14973958333331439
        },
        {
          "name": "E3",
          "midi": 52,
          "time": 316.40625000000006,
          "velocity": 0.6299212598425197,
          "duration": 0.3059895833333144
        },
        {
          "name": "A3",
          "midi": 57,
          "time": 316.40625000000006,
          "velocity": 0.6299212598425197,
          "duration": 0.3059895833333144
        },
        {
          "name": "C4",
          "midi": 60,
          "time": 316.40625000000006,
          "velocity": 0.6299212598425197,
          "duration": 0.3059895833333144
        },
        {
          "name": "E4",
          "midi": 64,
          "time": 316.40625000000006,
          "velocity": 0.6299212598425197,
          "duration": 0.3059895833333144
        },
        {
          "name": "A4",
          "midi": 69,
          "time": 316.40625000000006,
          "velocity": 0.6299212598425197,
          "duration": 0.3059895833333144
        },
        {
          "name": "A2",
          "midi": 45,
          "time": 316.56250000000006,
          "velocity": 0.6299212598425197,
          "duration": 0.3059895833333144
        },
        {
          "name": "E3",
          "midi": 52,
          "time": 316.56250000000006,
          "velocity": 0.6299212598425197,
          "duration": 0.3059895833333144
        },
        {
          "name": "A3",
          "midi": 57,
          "time": 316.56250000000006,
          "velocity": 0.6299212598425197,
          "duration": 0.3059895833333144
        },
        {
          "name": "C4",
          "midi": 60,
          "time": 316.56250000000006,
          "velocity": 0.6299212598425197,
          "duration": 0.3059895833333144
        },
        {
          "name": "E4",
          "midi": 64,
          "time": 316.56250000000006,
          "velocity": 0.6299212598425197,
          "duration": 0.3059895833333144
        },
        {
          "name": "A4",
          "midi": 69,
          "time": 316.56250000000006,
          "velocity": 0.6299212598425197,
          "duration": 0.3059895833333144
        },
        {
          "name": "A2",
          "midi": 45,
          "time": 316.87500000000006,
          "velocity": 0.7874015748031497,
          "duration": 0.3059895833333144
        },
        {
          "name": "E3",
          "midi": 52,
          "time": 316.87500000000006,
          "velocity": 0.7874015748031497,
          "duration": 0.3059895833333144
        },
        {
          "name": "A3",
          "midi": 57,
          "time": 316.87500000000006,
          "velocity": 0.7874015748031497,
          "duration": 0.3059895833333144
        },
        {
          "name": "C4",
          "midi": 60,
          "time": 316.87500000000006,
          "velocity": 0.7874015748031497,
          "duration": 0.3059895833333144
        },
        {
          "name": "E4",
          "midi": 64,
          "time": 316.87500000000006,
          "velocity": 0.7874015748031497,
          "duration": 0.3059895833333144
        },
        {
          "name": "A4",
          "midi": 69,
          "time": 316.87500000000006,
          "velocity": 0.7874015748031497,
          "duration": 0.3059895833333144
        },
        {
          "name": "A4",
          "midi": 69,
          "time": 317.18750000000006,
          "velocity": 0.5511811023622047,
          "duration": 0.14973958333331439
        },
        {
          "name": "E4",
          "midi": 64,
          "time": 317.18750000000006,
          "velocity": 0.5511811023622047,
          "duration": 0.14973958333331439
        },
        {
          "name": "C4",
          "midi": 60,
          "time": 317.18750000000006,
          "velocity": 0.5511811023622047,
          "duration": 0.14973958333331439
        },
        {
          "name": "A4",
          "midi": 69,
          "time": 317.34375000000006,
          "velocity": 0.5511811023622047,
          "duration": 0.14973958333331439
        },
        {
          "name": "E4",
          "midi": 64,
          "time": 317.34375000000006,
          "velocity": 0.5511811023622047,
          "duration": 0.14973958333331439
        },
        {
          "name": "C4",
          "midi": 60,
          "time": 317.34375000000006,
          "velocity": 0.5511811023622047,
          "duration": 0.14973958333331439
        },
        {
          "name": "A3",
          "midi": 57,
          "time": 317.34375000000006,
          "velocity": 0.5511811023622047,
          "duration": 0.14973958333331439
        },
        {
          "name": "F2",
          "midi": 41,
          "time": 317.50000000000006,
          "velocity": 0.7874015748031497,
          "duration": 0.3059895833333144
        },
        {
          "name": "C3",
          "midi": 48,
          "time": 317.50000000000006,
          "velocity": 0.7874015748031497,
          "duration": 0.3059895833333144
        },
        {
          "name": "F3",
          "midi": 53,
          "time": 317.50000000000006,
          "velocity": 0.7874015748031497,
          "duration": 0.3059895833333144
        },
        {
          "name": "A3",
          "midi": 57,
          "time": 317.50000000000006,
          "velocity": 0.7874015748031497,
          "duration": 0.3059895833333144
        },
        {
          "name": "C4",
          "midi": 60,
          "time": 317.50000000000006,
          "velocity": 0.7874015748031497,
          "duration": 0.3059895833333144
        },
        {
          "name": "F4",
          "midi": 65,
          "time": 317.50000000000006,
          "velocity": 0.7874015748031497,
          "duration": 0.3059895833333144
        },
        {
          "name": "F4",
          "midi": 65,
          "time": 317.81250000000006,
          "velocity": 0.5511811023622047,
          "duration": 0.14973958333331439
        },
        {
          "name": "C4",
          "midi": 60,
          "time": 317.81250000000006,
          "velocity": 0.5511811023622047,
          "duration": 0.14973958333331439
        },
        {
          "name": "A3",
          "midi": 57,
          "time": 317.81250000000006,
          "velocity": 0.5511811023622047,
          "duration": 0.14973958333331439
        },
        {
          "name": "F3",
          "midi": 53,
          "time": 317.81250000000006,
          "velocity": 0.5511811023622047,
          "duration": 0.14973958333331439
        },
        {
          "name": "C3",
          "midi": 48,
          "time": 317.96875000000006,
          "velocity": 0.6299212598425197,
          "duration": 0.3059895833333144
        },
        {
          "name": "F3",
          "midi": 53,
          "time": 317.96875000000006,
          "velocity": 0.6299212598425197,
          "duration": 0.3059895833333144
        },
        {
          "name": "A3",
          "midi": 57,
          "time": 317.96875000000006,
          "velocity": 0.6299212598425197,
          "duration": 0.3059895833333144
        },
        {
          "name": "C4",
          "midi": 60,
          "time": 317.96875000000006,
          "velocity": 0.6299212598425197,
          "duration": 0.3059895833333144
        },
        {
          "name": "F4",
          "midi": 65,
          "time": 317.96875000000006,
          "velocity": 0.6299212598425197,
          "duration": 0.3059895833333144
        },
        {
          "name": "F2",
          "midi": 41,
          "time": 318.12500000000006,
          "velocity": 0.6299212598425197,
          "duration": 0.3059895833333144
        },
        {
          "name": "C3",
          "midi": 48,
          "time": 318.12500000000006,
          "velocity": 0.6299212598425197,
          "duration": 0.3059895833333144
        },
        {
          "name": "F3",
          "midi": 53,
          "time": 318.12500000000006,
          "velocity": 0.6299212598425197,
          "duration": 0.3059895833333144
        },
        {
          "name": "A3",
          "midi": 57,
          "time": 318.12500000000006,
          "velocity": 0.6299212598425197,
          "duration": 0.3059895833333144
        },
        {
          "name": "C4",
          "midi": 60,
          "time": 318.12500000000006,
          "velocity": 0.6299212598425197,
          "duration": 0.3059895833333144
        },
        {
          "name": "F4",
          "midi": 65,
          "time": 318.12500000000006,
          "velocity": 0.6299212598425197,
          "duration": 0.3059895833333144
        },
        {
          "name": "F2",
          "midi": 41,
          "time": 318.43750000000006,
          "velocity": 0.7874015748031497,
          "duration": 0.3059895833333144
        },
        {
          "name": "C3",
          "midi": 48,
          "time": 318.43750000000006,
          "velocity": 0.7874015748031497,
          "duration": 0.3059895833333144
        },
        {
          "name": "F3",
          "midi": 53,
          "time": 318.43750000000006,
          "velocity": 0.7874015748031497,
          "duration": 0.3059895833333144
        },
        {
          "name": "A3",
          "midi": 57,
          "time": 318.43750000000006,
          "velocity": 0.7874015748031497,
          "duration": 0.3059895833333144
        },
        {
          "name": "C4",
          "midi": 60,
          "time": 318.43750000000006,
          "velocity": 0.7874015748031497,
          "duration": 0.3059895833333144
        },
        {
          "name": "F4",
          "midi": 65,
          "time": 318.43750000000006,
          "velocity": 0.7874015748031497,
          "duration": 0.3059895833333144
        },
        {
          "name": "F4",
          "midi": 65,
          "time": 318.75000000000006,
          "velocity": 0.5511811023622047,
          "duration": 0.14973958333331439
        },
        {
          "name": "C4",
          "midi": 60,
          "time": 318.75000000000006,
          "velocity": 0.5511811023622047,
          "duration": 0.14973958333331439
        },
        {
          "name": "A3",
          "midi": 57,
          "time": 318.75000000000006,
          "velocity": 0.5511811023622047,
          "duration": 0.14973958333331439
        },
        {
          "name": "F3",
          "midi": 53,
          "time": 318.75000000000006,
          "velocity": 0.5511811023622047,
          "duration": 0.14973958333331439
        },
        {
          "name": "C3",
          "midi": 48,
          "time": 318.90625000000006,
          "velocity": 0.6299212598425197,
          "duration": 0.3059895833333144
        },
        {
          "name": "F3",
          "midi": 53,
          "time": 318.90625000000006,
          "velocity": 0.6299212598425197,
          "duration": 0.3059895833333144
        },
        {
          "name": "A3",
          "midi": 57,
          "time": 318.90625000000006,
          "velocity": 0.6299212598425197,
          "duration": 0.3059895833333144
        },
        {
          "name": "C4",
          "midi": 60,
          "time": 318.90625000000006,
          "velocity": 0.6299212598425197,
          "duration": 0.3059895833333144
        },
        {
          "name": "F4",
          "midi": 65,
          "time": 318.90625000000006,
          "velocity": 0.6299212598425197,
          "duration": 0.3059895833333144
        },
        {
          "name": "F2",
          "midi": 41,
          "time": 319.06250000000006,
          "velocity": 0.6299212598425197,
          "duration": 0.3059895833333144
        },
        {
          "name": "C3",
          "midi": 48,
          "time": 319.06250000000006,
          "velocity": 0.6299212598425197,
          "duration": 0.3059895833333144
        },
        {
          "name": "F3",
          "midi": 53,
          "time": 319.06250000000006,
          "velocity": 0.6299212598425197,
          "duration": 0.3059895833333144
        },
        {
          "name": "A3",
          "midi": 57,
          "time": 319.06250000000006,
          "velocity": 0.6299212598425197,
          "duration": 0.3059895833333144
        },
        {
          "name": "C4",
          "midi": 60,
          "time": 319.06250000000006,
          "velocity": 0.6299212598425197,
          "duration": 0.3059895833333144
        },
        {
          "name": "F4",
          "midi": 65,
          "time": 319.06250000000006,
          "velocity": 0.6299212598425197,
          "duration": 0.3059895833333144
        },
        {
          "name": "F2",
          "midi": 41,
          "time": 319.37500000000006,
          "velocity": 0.7874015748031497,
          "duration": 0.3059895833333144
        },
        {
          "name": "C3",
          "midi": 48,
          "time": 319.37500000000006,
          "velocity": 0.7874015748031497,
          "duration": 0.3059895833333144
        },
        {
          "name": "F3",
          "midi": 53,
          "time": 319.37500000000006,
          "velocity": 0.7874015748031497,
          "duration": 0.3059895833333144
        },
        {
          "name": "A3",
          "midi": 57,
          "time": 319.37500000000006,
          "velocity": 0.7874015748031497,
          "duration": 0.3059895833333144
        },
        {
          "name": "C4",
          "midi": 60,
          "time": 319.37500000000006,
          "velocity": 0.7874015748031497,
          "duration": 0.3059895833333144
        },
        {
          "name": "F4",
          "midi": 65,
          "time": 319.37500000000006,
          "velocity": 0.7874015748031497,
          "duration": 0.3059895833333144
        },
        {
          "name": "F3",
          "midi": 53,
          "time": 319.53125000000006,
          "velocity": 0.5039370078740157,
          "duration": 0.3059895833333144
        },
        {
          "name": "A3",
          "midi": 57,
          "time": 319.53125000000006,
          "velocity": 0.5039370078740157,
          "duration": 0.3059895833333144
        },
        {
          "name": "C4",
          "midi": 60,
          "time": 319.53125000000006,
          "velocity": 0.5039370078740157,
          "duration": 0.3059895833333144
        },
        {
          "name": "F4",
          "midi": 65,
          "time": 319.53125000000006,
          "velocity": 0.5039370078740157,
          "duration": 0.3059895833333144
        },
        {
          "name": "F4",
          "midi": 65,
          "time": 319.68750000000006,
          "velocity": 0.4409448818897638,
          "duration": 0.14973958333331439
        },
        {
          "name": "C4",
          "midi": 60,
          "time": 319.68750000000006,
          "velocity": 0.4409448818897638,
          "duration": 0.14973958333331439
        },
        {
          "name": "A3",
          "midi": 57,
          "time": 319.68750000000006,
          "velocity": 0.4409448818897638,
          "duration": 0.14973958333331439
        },
        {
          "name": "F4",
          "midi": 65,
          "time": 319.84375000000006,
          "velocity": 0.5511811023622047,
          "duration": 0.14973958333331439
        },
        {
          "name": "C4",
          "midi": 60,
          "time": 319.84375000000006,
          "velocity": 0.5511811023622047,
          "duration": 0.14973958333331439
        },
        {
          "name": "A3",
          "midi": 57,
          "time": 319.84375000000006,
          "velocity": 0.5511811023622047,
          "duration": 0.14973958333331439
        },
        {
          "name": "F3",
          "midi": 53,
          "time": 319.84375000000006,
          "velocity": 0.5511811023622047,
          "duration": 0.14973958333331439
        },
        {
          "name": "A2",
          "midi": 45,
          "time": 320.00000000000006,
          "velocity": 0.7874015748031497,
          "duration": 0.3059895833333144
        },
        {
          "name": "E3",
          "midi": 52,
          "time": 320.00000000000006,
          "velocity": 0.7874015748031497,
          "duration": 0.3059895833333144
        },
        {
          "name": "A3",
          "midi": 57,
          "time": 320.00000000000006,
          "velocity": 0.7874015748031497,
          "duration": 0.3059895833333144
        },
        {
          "name": "C4",
          "midi": 60,
          "time": 320.00000000000006,
          "velocity": 0.7874015748031497,
          "duration": 0.3059895833333144
        },
        {
          "name": "E4",
          "midi": 64,
          "time": 320.00000000000006,
          "velocity": 0.7874015748031497,
          "duration": 0.3059895833333144
        },
        {
          "name": "A4",
          "midi": 69,
          "time": 320.00000000000006,
          "velocity": 0.7874015748031497,
          "duration": 0.3059895833333144
        },
        {
          "name": "A4",
          "midi": 69,
          "time": 320.31250000000006,
          "velocity": 0.5511811023622047,
          "duration": 0.14973958333331439
        },
        {
          "name": "E4",
          "midi": 64,
          "time": 320.31250000000006,
          "velocity": 0.5511811023622047,
          "duration": 0.14973958333331439
        },
        {
          "name": "C4",
          "midi": 60,
          "time": 320.31250000000006,
          "velocity": 0.5511811023622047,
          "duration": 0.14973958333331439
        },
        {
          "name": "A3",
          "midi": 57,
          "time": 320.31250000000006,
          "velocity": 0.5511811023622047,
          "duration": 0.14973958333331439
        },
        {
          "name": "E3",
          "midi": 52,
          "time": 320.46875000000006,
          "velocity": 0.6299212598425197,
          "duration": 0.3059895833333144
        },
        {
          "name": "A3",
          "midi": 57,
          "time": 320.46875000000006,
          "velocity": 0.6299212598425197,
          "duration": 0.3059895833333144
        },
        {
          "name": "C4",
          "midi": 60,
          "time": 320.46875000000006,
          "velocity": 0.6299212598425197,
          "duration": 0.3059895833333144
        },
        {
          "name": "E4",
          "midi": 64,
          "time": 320.46875000000006,
          "velocity": 0.6299212598425197,
          "duration": 0.3059895833333144
        },
        {
          "name": "A4",
          "midi": 69,
          "time": 320.46875000000006,
          "velocity": 0.6299212598425197,
          "duration": 0.3059895833333144
        },
        {
          "name": "A2",
          "midi": 45,
          "time": 320.62500000000006,
          "velocity": 0.6299212598425197,
          "duration": 0.3059895833333144
        },
        {
          "name": "E3",
          "midi": 52,
          "time": 320.62500000000006,
          "velocity": 0.6299212598425197,
          "duration": 0.3059895833333144
        },
        {
          "name": "A3",
          "midi": 57,
          "time": 320.62500000000006,
          "velocity": 0.6299212598425197,
          "duration": 0.3059895833333144
        },
        {
          "name": "C4",
          "midi": 60,
          "time": 320.62500000000006,
          "velocity": 0.6299212598425197,
          "duration": 0.3059895833333144
        },
        {
          "name": "E4",
          "midi": 64,
          "time": 320.62500000000006,
          "velocity": 0.6299212598425197,
          "duration": 0.3059895833333144
        },
        {
          "name": "A4",
          "midi": 69,
          "time": 320.62500000000006,
          "velocity": 0.6299212598425197,
          "duration": 0.3059895833333144
        },
        {
          "name": "A2",
          "midi": 45,
          "time": 320.93750000000006,
          "velocity": 0.7874015748031497,
          "duration": 0.3059895833333144
        },
        {
          "name": "E3",
          "midi": 52,
          "time": 320.93750000000006,
          "velocity": 0.7874015748031497,
          "duration": 0.3059895833333144
        },
        {
          "name": "A3",
          "midi": 57,
          "time": 320.93750000000006,
          "velocity": 0.7874015748031497,
          "duration": 0.3059895833333144
        },
        {
          "name": "C4",
          "midi": 60,
          "time": 320.93750000000006,
          "velocity": 0.7874015748031497,
          "duration": 0.3059895833333144
        },
        {
          "name": "E4",
          "midi": 64,
          "time": 320.93750000000006,
          "velocity": 0.7874015748031497,
          "duration": 0.3059895833333144
        },
        {
          "name": "A4",
          "midi": 69,
          "time": 320.93750000000006,
          "velocity": 0.7874015748031497,
          "duration": 0.3059895833333144
        },
        {
          "name": "A4",
          "midi": 69,
          "time": 321.25000000000006,
          "velocity": 0.5511811023622047,
          "duration": 0.14973958333331439
        },
        {
          "name": "E4",
          "midi": 64,
          "time": 321.25000000000006,
          "velocity": 0.5511811023622047,
          "duration": 0.14973958333331439
        },
        {
          "name": "C4",
          "midi": 60,
          "time": 321.25000000000006,
          "velocity": 0.5511811023622047,
          "duration": 0.14973958333331439
        },
        {
          "name": "A3",
          "midi": 57,
          "time": 321.25000000000006,
          "velocity": 0.5511811023622047,
          "duration": 0.14973958333331439
        },
        {
          "name": "E3",
          "midi": 52,
          "time": 321.40625000000006,
          "velocity": 0.6299212598425197,
          "duration": 0.3059895833333144
        },
        {
          "name": "A3",
          "midi": 57,
          "time": 321.40625000000006,
          "velocity": 0.6299212598425197,
          "duration": 0.3059895833333144
        },
        {
          "name": "C4",
          "midi": 60,
          "time": 321.40625000000006,
          "velocity": 0.6299212598425197,
          "duration": 0.3059895833333144
        },
        {
          "name": "E4",
          "midi": 64,
          "time": 321.40625000000006,
          "velocity": 0.6299212598425197,
          "duration": 0.3059895833333144
        },
        {
          "name": "A4",
          "midi": 69,
          "time": 321.40625000000006,
          "velocity": 0.8188976377952756,
          "duration": 0.3059895833333144
        },
        {
          "name": "A2",
          "midi": 45,
          "time": 321.56250000000006,
          "velocity": 0.6299212598425197,
          "duration": 0.3059895833333144
        },
        {
          "name": "E3",
          "midi": 52,
          "time": 321.56250000000006,
          "velocity": 0.6299212598425197,
          "duration": 0.3059895833333144
        },
        {
          "name": "A3",
          "midi": 57,
          "time": 321.56250000000006,
          "velocity": 0.6299212598425197,
          "duration": 0.3059895833333144
        },
        {
          "name": "C4",
          "midi": 60,
          "time": 321.56250000000006,
          "velocity": 0.6299212598425197,
          "duration": 0.3059895833333144
        },
        {
          "name": "E4",
          "midi": 64,
          "time": 321.56250000000006,
          "velocity": 0.6299212598425197,
          "duration": 0.3059895833333144
        },
        {
          "name": "A4",
          "midi": 69,
          "time": 321.56250000000006,
          "velocity": 0.6299212598425197,
          "duration": 0.3059895833333144
        },
        {
          "name": "A2",
          "midi": 45,
          "time": 321.87500000000006,
          "velocity": 0.7874015748031497,
          "duration": 0.3059895833333144
        },
        {
          "name": "E3",
          "midi": 52,
          "time": 321.87500000000006,
          "velocity": 0.7874015748031497,
          "duration": 0.3059895833333144
        },
        {
          "name": "A3",
          "midi": 57,
          "time": 321.87500000000006,
          "velocity": 0.7874015748031497,
          "duration": 0.3059895833333144
        },
        {
          "name": "C4",
          "midi": 60,
          "time": 321.87500000000006,
          "velocity": 0.7874015748031497,
          "duration": 0.3059895833333144
        },
        {
          "name": "E4",
          "midi": 64,
          "time": 321.87500000000006,
          "velocity": 0.7874015748031497,
          "duration": 0.3059895833333144
        },
        {
          "name": "A4",
          "midi": 69,
          "time": 321.87500000000006,
          "velocity": 0.7874015748031497,
          "duration": 0.3059895833333144
        },
        {
          "name": "A4",
          "midi": 69,
          "time": 322.18750000000006,
          "velocity": 0.5511811023622047,
          "duration": 0.14973958333331439
        },
        {
          "name": "E4",
          "midi": 64,
          "time": 322.18750000000006,
          "velocity": 0.5511811023622047,
          "duration": 0.14973958333331439
        },
        {
          "name": "C4",
          "midi": 60,
          "time": 322.18750000000006,
          "velocity": 0.5511811023622047,
          "duration": 0.14973958333331439
        },
        {
          "name": "A4",
          "midi": 69,
          "time": 322.34375000000006,
          "velocity": 0.5511811023622047,
          "duration": 0.14973958333331439
        },
        {
          "name": "E4",
          "midi": 64,
          "time": 322.34375000000006,
          "velocity": 0.5511811023622047,
          "duration": 0.14973958333331439
        },
        {
          "name": "C4",
          "midi": 60,
          "time": 322.34375000000006,
          "velocity": 0.5511811023622047,
          "duration": 0.14973958333331439
        },
        {
          "name": "A3",
          "midi": 57,
          "time": 322.34375000000006,
          "velocity": 0.5511811023622047,
          "duration": 0.14973958333331439
        },
        {
          "name": "F2",
          "midi": 41,
          "time": 322.50000000000006,
          "velocity": 0.7874015748031497,
          "duration": 0.3059895833333144
        },
        {
          "name": "C3",
          "midi": 48,
          "time": 322.50000000000006,
          "velocity": 0.7874015748031497,
          "duration": 0.3059895833333144
        },
        {
          "name": "F3",
          "midi": 53,
          "time": 322.50000000000006,
          "velocity": 0.7874015748031497,
          "duration": 0.3059895833333144
        },
        {
          "name": "A3",
          "midi": 57,
          "time": 322.50000000000006,
          "velocity": 0.7874015748031497,
          "duration": 0.3059895833333144
        },
        {
          "name": "C4",
          "midi": 60,
          "time": 322.50000000000006,
          "velocity": 0.7874015748031497,
          "duration": 0.3059895833333144
        },
        {
          "name": "F4",
          "midi": 65,
          "time": 322.50000000000006,
          "velocity": 0.7874015748031497,
          "duration": 0.3059895833333144
        },
        {
          "name": "F4",
          "midi": 65,
          "time": 322.81250000000006,
          "velocity": 0.5511811023622047,
          "duration": 0.14973958333331439
        },
        {
          "name": "C4",
          "midi": 60,
          "time": 322.81250000000006,
          "velocity": 0.5511811023622047,
          "duration": 0.14973958333331439
        },
        {
          "name": "A3",
          "midi": 57,
          "time": 322.81250000000006,
          "velocity": 0.5511811023622047,
          "duration": 0.14973958333331439
        },
        {
          "name": "F3",
          "midi": 53,
          "time": 322.81250000000006,
          "velocity": 0.5511811023622047,
          "duration": 0.14973958333331439
        },
        {
          "name": "C3",
          "midi": 48,
          "time": 322.96875000000006,
          "velocity": 0.6299212598425197,
          "duration": 0.3059895833333144
        },
        {
          "name": "F3",
          "midi": 53,
          "time": 322.96875000000006,
          "velocity": 0.6299212598425197,
          "duration": 0.3059895833333144
        },
        {
          "name": "A3",
          "midi": 57,
          "time": 322.96875000000006,
          "velocity": 0.6299212598425197,
          "duration": 0.3059895833333144
        },
        {
          "name": "C4",
          "midi": 60,
          "time": 322.96875000000006,
          "velocity": 0.6299212598425197,
          "duration": 0.3059895833333144
        },
        {
          "name": "F4",
          "midi": 65,
          "time": 322.96875000000006,
          "velocity": 0.7401574803149606,
          "duration": 0.3059895833333144
        },
        {
          "name": "F2",
          "midi": 41,
          "time": 323.12500000000006,
          "velocity": 0.6614173228346457,
          "duration": 0.3059895833333144
        },
        {
          "name": "C3",
          "midi": 48,
          "time": 323.12500000000006,
          "velocity": 0.6299212598425197,
          "duration": 0.3059895833333144
        },
        {
          "name": "F3",
          "midi": 53,
          "time": 323.12500000000006,
          "velocity": 0.6299212598425197,
          "duration": 0.3059895833333144
        },
        {
          "name": "A3",
          "midi": 57,
          "time": 323.12500000000006,
          "velocity": 0.6299212598425197,
          "duration": 0.3059895833333144
        },
        {
          "name": "C4",
          "midi": 60,
          "time": 323.12500000000006,
          "velocity": 0.6299212598425197,
          "duration": 0.3059895833333144
        },
        {
          "name": "F4",
          "midi": 65,
          "time": 323.12500000000006,
          "velocity": 0.6771653543307087,
          "duration": 0.3059895833333144
        },
        {
          "name": "F2",
          "midi": 41,
          "time": 323.43750000000006,
          "velocity": 0.7874015748031497,
          "duration": 0.3059895833333144
        },
        {
          "name": "C3",
          "midi": 48,
          "time": 323.43750000000006,
          "velocity": 0.7874015748031497,
          "duration": 0.3059895833333144
        },
        {
          "name": "F3",
          "midi": 53,
          "time": 323.43750000000006,
          "velocity": 0.7874015748031497,
          "duration": 0.3059895833333144
        },
        {
          "name": "A3",
          "midi": 57,
          "time": 323.43750000000006,
          "velocity": 0.7874015748031497,
          "duration": 0.3059895833333144
        },
        {
          "name": "C4",
          "midi": 60,
          "time": 323.43750000000006,
          "velocity": 0.7874015748031497,
          "duration": 0.3059895833333144
        },
        {
          "name": "F4",
          "midi": 65,
          "time": 323.43750000000006,
          "velocity": 0.7874015748031497,
          "duration": 0.3059895833333144
        },
        {
          "name": "F4",
          "midi": 65,
          "time": 323.75000000000006,
          "velocity": 0.5511811023622047,
          "duration": 0.14973958333331439
        },
        {
          "name": "C4",
          "midi": 60,
          "time": 323.75000000000006,
          "velocity": 0.5511811023622047,
          "duration": 0.14973958333331439
        },
        {
          "name": "A3",
          "midi": 57,
          "time": 323.75000000000006,
          "velocity": 0.5511811023622047,
          "duration": 0.14973958333331439
        },
        {
          "name": "F3",
          "midi": 53,
          "time": 323.75000000000006,
          "velocity": 0.5511811023622047,
          "duration": 0.14973958333331439
        },
        {
          "name": "C3",
          "midi": 48,
          "time": 323.90625000000006,
          "velocity": 0.6299212598425197,
          "duration": 0.3059895833333144
        },
        {
          "name": "F3",
          "midi": 53,
          "time": 323.90625000000006,
          "velocity": 0.6299212598425197,
          "duration": 0.3059895833333144
        },
        {
          "name": "A3",
          "midi": 57,
          "time": 323.90625000000006,
          "velocity": 0.6299212598425197,
          "duration": 0.3059895833333144
        },
        {
          "name": "C4",
          "midi": 60,
          "time": 323.90625000000006,
          "velocity": 0.6299212598425197,
          "duration": 0.3059895833333144
        },
        {
          "name": "F4",
          "midi": 65,
          "time": 323.90625000000006,
          "velocity": 0.7637795275590551,
          "duration": 0.3059895833333144
        },
        {
          "name": "F2",
          "midi": 41,
          "time": 324.06250000000006,
          "velocity": 0.6299212598425197,
          "duration": 0.3059895833333144
        },
        {
          "name": "C3",
          "midi": 48,
          "time": 324.06250000000006,
          "velocity": 0.6299212598425197,
          "duration": 0.3059895833333144
        },
        {
          "name": "F3",
          "midi": 53,
          "time": 324.06250000000006,
          "velocity": 0.6299212598425197,
          "duration": 0.3059895833333144
        },
        {
          "name": "A3",
          "midi": 57,
          "time": 324.06250000000006,
          "velocity": 0.6299212598425197,
          "duration": 0.3059895833333144
        },
        {
          "name": "C4",
          "midi": 60,
          "time": 324.06250000000006,
          "velocity": 0.6299212598425197,
          "duration": 0.3059895833333144
        },
        {
          "name": "F4",
          "midi": 65,
          "time": 324.06250000000006,
          "velocity": 0.6299212598425197,
          "duration": 0.3059895833333144
        },
        {
          "name": "F2",
          "midi": 41,
          "time": 324.37500000000006,
          "velocity": 0.7874015748031497,
          "duration": 0.3059895833333144
        },
        {
          "name": "C3",
          "midi": 48,
          "time": 324.37500000000006,
          "velocity": 0.7874015748031497,
          "duration": 0.3059895833333144
        },
        {
          "name": "F3",
          "midi": 53,
          "time": 324.37500000000006,
          "velocity": 0.7874015748031497,
          "duration": 0.3059895833333144
        },
        {
          "name": "A3",
          "midi": 57,
          "time": 324.37500000000006,
          "velocity": 0.7874015748031497,
          "duration": 0.3059895833333144
        },
        {
          "name": "C4",
          "midi": 60,
          "time": 324.37500000000006,
          "velocity": 0.7874015748031497,
          "duration": 0.3059895833333144
        },
        {
          "name": "F4",
          "midi": 65,
          "time": 324.37500000000006,
          "velocity": 0.7874015748031497,
          "duration": 0.3059895833333144
        },
        {
          "name": "F3",
          "midi": 53,
          "time": 324.53125000000006,
          "velocity": 0.5039370078740157,
          "duration": 0.3059895833333144
        },
        {
          "name": "A3",
          "midi": 57,
          "time": 324.53125000000006,
          "velocity": 0.5039370078740157,
          "duration": 0.3059895833333144
        },
        {
          "name": "C4",
          "midi": 60,
          "time": 324.53125000000006,
          "velocity": 0.5039370078740157,
          "duration": 0.3059895833333144
        },
        {
          "name": "F4",
          "midi": 65,
          "time": 324.53125000000006,
          "velocity": 0.5039370078740157,
          "duration": 0.3059895833333144
        },
        {
          "name": "F4",
          "midi": 65,
          "time": 324.68750000000006,
          "velocity": 0.4409448818897638,
          "duration": 0.14973958333331439
        },
        {
          "name": "C4",
          "midi": 60,
          "time": 324.68750000000006,
          "velocity": 0.4409448818897638,
          "duration": 0.14973958333331439
        },
        {
          "name": "A3",
          "midi": 57,
          "time": 324.68750000000006,
          "velocity": 0.4409448818897638,
          "duration": 0.14973958333331439
        },
        {
          "name": "F4",
          "midi": 65,
          "time": 324.84375000000006,
          "velocity": 0.5511811023622047,
          "duration": 0.14973958333331439
        },
        {
          "name": "C4",
          "midi": 60,
          "time": 324.84375000000006,
          "velocity": 0.5511811023622047,
          "duration": 0.14973958333331439
        },
        {
          "name": "A3",
          "midi": 57,
          "time": 324.84375000000006,
          "velocity": 0.5511811023622047,
          "duration": 0.14973958333331439
        },
        {
          "name": "F3",
          "midi": 53,
          "time": 324.84375000000006,
          "velocity": 0.5511811023622047,
          "duration": 0.14973958333331439
        },
        {
          "name": "C3",
          "midi": 48,
          "time": 325.00000000000006,
          "velocity": 0.7874015748031497,
          "duration": 0.6184895833333144
        },
        {
          "name": "G3",
          "midi": 55,
          "time": 325.00000000000006,
          "velocity": 0.7874015748031497,
          "duration": 0.6184895833333144
        },
        {
          "name": "C4",
          "midi": 60,
          "time": 325.00000000000006,
          "velocity": 0.7874015748031497,
          "duration": 0.6184895833333144
        },
        {
          "name": "E4",
          "midi": 64,
          "time": 325.00000000000006,
          "velocity": 0.7874015748031497,
          "duration": 0.6184895833333144
        },
        {
          "name": "G4",
          "midi": 67,
          "time": 325.00000000000006,
          "velocity": 0.7874015748031497,
          "duration": 0.6184895833333144
        },
        {
          "name": "C3",
          "midi": 48,
          "time": 325.62500000000006,
          "velocity": 0.7874015748031497,
          "duration": 0.6184895833333144
        },
        {
          "name": "G3",
          "midi": 55,
          "time": 325.62500000000006,
          "velocity": 0.7874015748031497,
          "duration": 0.6184895833333144
        },
        {
          "name": "C4",
          "midi": 60,
          "time": 325.62500000000006,
          "velocity": 0.7874015748031497,
          "duration": 0.6184895833333144
        },
        {
          "name": "E4",
          "midi": 64,
          "time": 325.62500000000006,
          "velocity": 0.7874015748031497,
          "duration": 0.6184895833333144
        },
        {
          "name": "G4",
          "midi": 67,
          "time": 325.62500000000006,
          "velocity": 0.7874015748031497,
          "duration": 0.6184895833333144
        },
        {
          "name": "G2",
          "midi": 43,
          "time": 326.25000000000006,
          "velocity": 0.7874015748031497,
          "duration": 0.6184895833333144
        },
        {
          "name": "D3",
          "midi": 50,
          "time": 326.25000000000006,
          "velocity": 0.7874015748031497,
          "duration": 0.6184895833333144
        },
        {
          "name": "G3",
          "midi": 55,
          "time": 326.25000000000006,
          "velocity": 0.7874015748031497,
          "duration": 0.6184895833333144
        },
        {
          "name": "B3",
          "midi": 59,
          "time": 326.25000000000006,
          "velocity": 0.7874015748031497,
          "duration": 0.6184895833333144
        },
        {
          "name": "D4",
          "midi": 62,
          "time": 326.25000000000006,
          "velocity": 0.7874015748031497,
          "duration": 0.6184895833333144
        },
        {
          "name": "G4",
          "midi": 67,
          "time": 326.25000000000006,
          "velocity": 0.7874015748031497,
          "duration": 0.6184895833333144
        },
        {
          "name": "G2",
          "midi": 43,
          "time": 326.87500000000006,
          "velocity": 0.7874015748031497,
          "duration": 0.6184895833333144
        },
        {
          "name": "D3",
          "midi": 50,
          "time": 326.87500000000006,
          "velocity": 0.7874015748031497,
          "duration": 0.6184895833333144
        },
        {
          "name": "G3",
          "midi": 55,
          "time": 326.87500000000006,
          "velocity": 0.7874015748031497,
          "duration": 0.6184895833333144
        },
        {
          "name": "B3",
          "midi": 59,
          "time": 326.87500000000006,
          "velocity": 0.7874015748031497,
          "duration": 0.6184895833333144
        },
        {
          "name": "D4",
          "midi": 62,
          "time": 326.87500000000006,
          "velocity": 0.7874015748031497,
          "duration": 0.6184895833333144
        },
        {
          "name": "G4",
          "midi": 67,
          "time": 326.87500000000006,
          "velocity": 0.7874015748031497,
          "duration": 0.6184895833333144
        },
        {
          "name": "D3",
          "midi": 50,
          "time": 327.50000000000006,
          "velocity": 0.7874015748031497,
          "duration": 0.6184895833333144
        },
        {
          "name": "A3",
          "midi": 57,
          "time": 327.50000000000006,
          "velocity": 0.7874015748031497,
          "duration": 0.6184895833333144
        },
        {
          "name": "D4",
          "midi": 62,
          "time": 327.50000000000006,
          "velocity": 0.7874015748031497,
          "duration": 0.6184895833333144
        },
        {
          "name": "F4",
          "midi": 65,
          "time": 327.50000000000006,
          "velocity": 0.7874015748031497,
          "duration": 0.6184895833333144
        },
        {
          "name": "A4",
          "midi": 69,
          "time": 327.50000000000006,
          "velocity": 0.7874015748031497,
          "duration": 0.6184895833333144
        },
        {
          "name": "D3",
          "midi": 50,
          "time": 328.12500000000006,
          "velocity": 0.7874015748031497,
          "duration": 0.6184895833333144
        },
        {
          "name": "A3",
          "midi": 57,
          "time": 328.12500000000006,
          "velocity": 0.7874015748031497,
          "duration": 0.6184895833333144
        },
        {
          "name": "D4",
          "midi": 62,
          "time": 328.12500000000006,
          "velocity": 0.7874015748031497,
          "duration": 0.6184895833333144
        },
        {
          "name": "F4",
          "midi": 65,
          "time": 328.12500000000006,
          "velocity": 0.7874015748031497,
          "duration": 0.6184895833333144
        },
        {
          "name": "A4",
          "midi": 69,
          "time": 328.12500000000006,
          "velocity": 0.7874015748031497,
          "duration": 0.6184895833333144
        },
        {
          "name": "A2",
          "midi": 45,
          "time": 328.75000000000006,
          "velocity": 0.7874015748031497,
          "duration": 0.6184895833333144
        },
        {
          "name": "E3",
          "midi": 52,
          "time": 328.75000000000006,
          "velocity": 0.7874015748031497,
          "duration": 0.6184895833333144
        },
        {
          "name": "A3",
          "midi": 57,
          "time": 328.75000000000006,
          "velocity": 0.7874015748031497,
          "duration": 0.6184895833333144
        },
        {
          "name": "C4",
          "midi": 60,
          "time": 328.75000000000006,
          "velocity": 0.7874015748031497,
          "duration": 0.6184895833333144
        },
        {
          "name": "E4",
          "midi": 64,
          "time": 328.75000000000006,
          "velocity": 0.7874015748031497,
          "duration": 0.6184895833333144
        },
        {
          "name": "A4",
          "midi": 69,
          "time": 328.75000000000006,
          "velocity": 0.7874015748031497,
          "duration": 0.6184895833333144
        },
        {
          "name": "A2",
          "midi": 45,
          "time": 329.37500000000006,
          "velocity": 0.7874015748031497,
          "duration": 0.3059895833333144
        },
        {
          "name": "E3",
          "midi": 52,
          "time": 329.37500000000006,
          "velocity": 0.7874015748031497,
          "duration": 0.3059895833333144
        },
        {
          "name": "A3",
          "midi": 57,
          "time": 329.37500000000006,
          "velocity": 0.7874015748031497,
          "duration": 0.3059895833333144
        },
        {
          "name": "C4",
          "midi": 60,
          "time": 329.37500000000006,
          "velocity": 0.7874015748031497,
          "duration": 0.3059895833333144
        },
        {
          "name": "E4",
          "midi": 64,
          "time": 329.37500000000006,
          "velocity": 0.7874015748031497,
          "duration": 0.3059895833333144
        },
        {
          "name": "A4",
          "midi": 69,
          "time": 329.37500000000006,
          "velocity": 0.7874015748031497,
          "duration": 0.3059895833333144
        },
        {
          "name": "C3",
          "midi": 48,
          "time": 330.00000000000006,
          "velocity": 0.7874015748031497,
          "duration": 0.6184895833333144
        },
        {
          "name": "G3",
          "midi": 55,
          "time": 330.00000000000006,
          "velocity": 0.7874015748031497,
          "duration": 0.6184895833333144
        },
        {
          "name": "C4",
          "midi": 60,
          "time": 330.00000000000006,
          "velocity": 0.7874015748031497,
          "duration": 0.6184895833333144
        },
        {
          "name": "E4",
          "midi": 64,
          "time": 330.00000000000006,
          "velocity": 0.7874015748031497,
          "duration": 0.6184895833333144
        },
        {
          "name": "G4",
          "midi": 67,
          "time": 330.00000000000006,
          "velocity": 0.7874015748031497,
          "duration": 0.6184895833333144
        },
        {
          "name": "C3",
          "midi": 48,
          "time": 330.62500000000006,
          "velocity": 0.7874015748031497,
          "duration": 0.6184895833333144
        },
        {
          "name": "G3",
          "midi": 55,
          "time": 330.62500000000006,
          "velocity": 0.7874015748031497,
          "duration": 0.6184895833333144
        },
        {
          "name": "C4",
          "midi": 60,
          "time": 330.62500000000006,
          "velocity": 0.7874015748031497,
          "duration": 0.6184895833333144
        },
        {
          "name": "E4",
          "midi": 64,
          "time": 330.62500000000006,
          "velocity": 0.7874015748031497,
          "duration": 0.6184895833333144
        },
        {
          "name": "G4",
          "midi": 67,
          "time": 330.62500000000006,
          "velocity": 0.7874015748031497,
          "duration": 0.6184895833333144
        },
        {
          "name": "D3",
          "midi": 50,
          "time": 331.87500000000006,
          "velocity": 0.7874015748031497,
          "duration": 0.6184895833333144
        },
        {
          "name": "A3",
          "midi": 57,
          "time": 331.87500000000006,
          "velocity": 0.7874015748031497,
          "duration": 0.6184895833333144
        },
        {
          "name": "D4",
          "midi": 62,
          "time": 331.87500000000006,
          "velocity": 0.7874015748031497,
          "duration": 0.6184895833333144
        },
        {
          "name": "F4",
          "midi": 65,
          "time": 331.87500000000006,
          "velocity": 0.7874015748031497,
          "duration": 0.6184895833333144
        },
        {
          "name": "A4",
          "midi": 69,
          "time": 331.87500000000006,
          "velocity": 0.7874015748031497,
          "duration": 0.6184895833333144
        },
        {
          "name": "D3",
          "midi": 50,
          "time": 332.50000000000006,
          "velocity": 0.7874015748031497,
          "duration": 0.6184895833333144
        },
        {
          "name": "A3",
          "midi": 57,
          "time": 332.50000000000006,
          "velocity": 0.7874015748031497,
          "duration": 0.6184895833333144
        },
        {
          "name": "D4",
          "midi": 62,
          "time": 332.50000000000006,
          "velocity": 0.7874015748031497,
          "duration": 0.6184895833333144
        },
        {
          "name": "F4",
          "midi": 65,
          "time": 332.50000000000006,
          "velocity": 0.7874015748031497,
          "duration": 0.6184895833333144
        },
        {
          "name": "A4",
          "midi": 69,
          "time": 332.50000000000006,
          "velocity": 0.7874015748031497,
          "duration": 0.6184895833333144
        },
        {
          "name": "D3",
          "midi": 50,
          "time": 333.12500000000006,
          "velocity": 0.7874015748031497,
          "duration": 0.6184895833333144
        },
        {
          "name": "A3",
          "midi": 57,
          "time": 333.12500000000006,
          "velocity": 0.7874015748031497,
          "duration": 0.6184895833333144
        },
        {
          "name": "D4",
          "midi": 62,
          "time": 333.12500000000006,
          "velocity": 0.7874015748031497,
          "duration": 0.6184895833333144
        },
        {
          "name": "F4",
          "midi": 65,
          "time": 333.12500000000006,
          "velocity": 0.7874015748031497,
          "duration": 0.6184895833333144
        },
        {
          "name": "A4",
          "midi": 69,
          "time": 333.12500000000006,
          "velocity": 0.7874015748031497,
          "duration": 0.6184895833333144
        },
        {
          "name": "D3",
          "midi": 50,
          "time": 333.75000000000006,
          "velocity": 0.7874015748031497,
          "duration": 0.6184895833333144
        },
        {
          "name": "A3",
          "midi": 57,
          "time": 333.75000000000006,
          "velocity": 0.7874015748031497,
          "duration": 0.6184895833333144
        },
        {
          "name": "D4",
          "midi": 62,
          "time": 333.75000000000006,
          "velocity": 0.7874015748031497,
          "duration": 0.6184895833333144
        },
        {
          "name": "F4",
          "midi": 65,
          "time": 333.75000000000006,
          "velocity": 0.7874015748031497,
          "duration": 0.6184895833333144
        },
        {
          "name": "A4",
          "midi": 69,
          "time": 333.75000000000006,
          "velocity": 0.7874015748031497,
          "duration": 0.6184895833333144
        },
        {
          "name": "D3",
          "midi": 50,
          "time": 334.37500000000006,
          "velocity": 0.7874015748031497,
          "duration": 0.6184895833333144
        },
        {
          "name": "A3",
          "midi": 57,
          "time": 334.37500000000006,
          "velocity": 0.7874015748031497,
          "duration": 0.6184895833333144
        },
        {
          "name": "D4",
          "midi": 62,
          "time": 334.37500000000006,
          "velocity": 0.7874015748031497,
          "duration": 0.6184895833333144
        },
        {
          "name": "F4",
          "midi": 65,
          "time": 334.37500000000006,
          "velocity": 0.7874015748031497,
          "duration": 0.6184895833333144
        },
        {
          "name": "A4",
          "midi": 69,
          "time": 334.37500000000006,
          "velocity": 0.7874015748031497,
          "duration": 0.6184895833333144
        },
        {
          "name": "C3",
          "midi": 48,
          "time": 335.00000000000006,
          "velocity": 0.7874015748031497,
          "duration": 0.6184895833333144
        },
        {
          "name": "G3",
          "midi": 55,
          "time": 335.00000000000006,
          "velocity": 0.7874015748031497,
          "duration": 0.6184895833333144
        },
        {
          "name": "C4",
          "midi": 60,
          "time": 335.00000000000006,
          "velocity": 0.7874015748031497,
          "duration": 0.6184895833333144
        },
        {
          "name": "E4",
          "midi": 64,
          "time": 335.00000000000006,
          "velocity": 0.7874015748031497,
          "duration": 0.6184895833333144
        },
        {
          "name": "G4",
          "midi": 67,
          "time": 335.00000000000006,
          "velocity": 0.7874015748031497,
          "duration": 0.6184895833333144
        },
        {
          "name": "C3",
          "midi": 48,
          "time": 335.62500000000006,
          "velocity": 0.7874015748031497,
          "duration": 0.6184895833333144
        },
        {
          "name": "G3",
          "midi": 55,
          "time": 335.62500000000006,
          "velocity": 0.7874015748031497,
          "duration": 0.6184895833333144
        },
        {
          "name": "C4",
          "midi": 60,
          "time": 335.62500000000006,
          "velocity": 0.7874015748031497,
          "duration": 0.6184895833333144
        },
        {
          "name": "E4",
          "midi": 64,
          "time": 335.62500000000006,
          "velocity": 0.7874015748031497,
          "duration": 0.6184895833333144
        },
        {
          "name": "G4",
          "midi": 67,
          "time": 335.62500000000006,
          "velocity": 0.7874015748031497,
          "duration": 0.6184895833333144
        },
        {
          "name": "G2",
          "midi": 43,
          "time": 336.25000000000006,
          "velocity": 0.7874015748031497,
          "duration": 0.6184895833333144
        },
        {
          "name": "D3",
          "midi": 50,
          "time": 336.25000000000006,
          "velocity": 0.7874015748031497,
          "duration": 0.6184895833333144
        },
        {
          "name": "G3",
          "midi": 55,
          "time": 336.25000000000006,
          "velocity": 0.7874015748031497,
          "duration": 0.6184895833333144
        },
        {
          "name": "B3",
          "midi": 59,
          "time": 336.25000000000006,
          "velocity": 0.7874015748031497,
          "duration": 0.6184895833333144
        },
        {
          "name": "D4",
          "midi": 62,
          "time": 336.25000000000006,
          "velocity": 0.7874015748031497,
          "duration": 0.6184895833333144
        },
        {
          "name": "G4",
          "midi": 67,
          "time": 336.25000000000006,
          "velocity": 0.7874015748031497,
          "duration": 0.6184895833333144
        },
        {
          "name": "G2",
          "midi": 43,
          "time": 336.87500000000006,
          "velocity": 0.7874015748031497,
          "duration": 0.6184895833333144
        },
        {
          "name": "D3",
          "midi": 50,
          "time": 336.87500000000006,
          "velocity": 0.7874015748031497,
          "duration": 0.6184895833333144
        },
        {
          "name": "G3",
          "midi": 55,
          "time": 336.87500000000006,
          "velocity": 0.7874015748031497,
          "duration": 0.6184895833333144
        },
        {
          "name": "B3",
          "midi": 59,
          "time": 336.87500000000006,
          "velocity": 0.7874015748031497,
          "duration": 0.6184895833333144
        },
        {
          "name": "D4",
          "midi": 62,
          "time": 336.87500000000006,
          "velocity": 0.7874015748031497,
          "duration": 0.6184895833333144
        },
        {
          "name": "G4",
          "midi": 67,
          "time": 336.87500000000006,
          "velocity": 0.7874015748031497,
          "duration": 0.6184895833333144
        },
        {
          "name": "D3",
          "midi": 50,
          "time": 337.50000000000006,
          "velocity": 0.7874015748031497,
          "duration": 0.6184895833333144
        },
        {
          "name": "A3",
          "midi": 57,
          "time": 337.50000000000006,
          "velocity": 0.7874015748031497,
          "duration": 0.6184895833333144
        },
        {
          "name": "D4",
          "midi": 62,
          "time": 337.50000000000006,
          "velocity": 0.7874015748031497,
          "duration": 0.6184895833333144
        },
        {
          "name": "F4",
          "midi": 65,
          "time": 337.50000000000006,
          "velocity": 0.7874015748031497,
          "duration": 0.6184895833333144
        },
        {
          "name": "A4",
          "midi": 69,
          "time": 337.50000000000006,
          "velocity": 0.7874015748031497,
          "duration": 0.6184895833333144
        },
        {
          "name": "D3",
          "midi": 50,
          "time": 338.12500000000006,
          "velocity": 0.7874015748031497,
          "duration": 0.6184895833333144
        },
        {
          "name": "A3",
          "midi": 57,
          "time": 338.12500000000006,
          "velocity": 0.7874015748031497,
          "duration": 0.6184895833333144
        },
        {
          "name": "D4",
          "midi": 62,
          "time": 338.12500000000006,
          "velocity": 0.7874015748031497,
          "duration": 0.6184895833333144
        },
        {
          "name": "F4",
          "midi": 65,
          "time": 338.12500000000006,
          "velocity": 0.7874015748031497,
          "duration": 0.6184895833333144
        },
        {
          "name": "A4",
          "midi": 69,
          "time": 338.12500000000006,
          "velocity": 0.7874015748031497,
          "duration": 0.6184895833333144
        },
        {
          "name": "A2",
          "midi": 45,
          "time": 338.75000000000006,
          "velocity": 0.7874015748031497,
          "duration": 0.6184895833333144
        },
        {
          "name": "E3",
          "midi": 52,
          "time": 338.75000000000006,
          "velocity": 0.7874015748031497,
          "duration": 0.6184895833333144
        },
        {
          "name": "A3",
          "midi": 57,
          "time": 338.75000000000006,
          "velocity": 0.7874015748031497,
          "duration": 0.6184895833333144
        },
        {
          "name": "C4",
          "midi": 60,
          "time": 338.75000000000006,
          "velocity": 0.7874015748031497,
          "duration": 0.6184895833333144
        },
        {
          "name": "E4",
          "midi": 64,
          "time": 338.75000000000006,
          "velocity": 0.7874015748031497,
          "duration": 0.6184895833333144
        },
        {
          "name": "A4",
          "midi": 69,
          "time": 338.75000000000006,
          "velocity": 0.7874015748031497,
          "duration": 0.6184895833333144
        },
        {
          "name": "A2",
          "midi": 45,
          "time": 339.37500000000006,
          "velocity": 0.7874015748031497,
          "duration": 0.3059895833333144
        },
        {
          "name": "E3",
          "midi": 52,
          "time": 339.37500000000006,
          "velocity": 0.7874015748031497,
          "duration": 0.3059895833333144
        },
        {
          "name": "A3",
          "midi": 57,
          "time": 339.37500000000006,
          "velocity": 0.7874015748031497,
          "duration": 0.3059895833333144
        },
        {
          "name": "C4",
          "midi": 60,
          "time": 339.37500000000006,
          "velocity": 0.7874015748031497,
          "duration": 0.3059895833333144
        },
        {
          "name": "E4",
          "midi": 64,
          "time": 339.37500000000006,
          "velocity": 0.7874015748031497,
          "duration": 0.3059895833333144
        },
        {
          "name": "A4",
          "midi": 69,
          "time": 339.37500000000006,
          "velocity": 0.7874015748031497,
          "duration": 0.3059895833333144
        },
        {
          "name": "C3",
          "midi": 48,
          "time": 340.00000000000006,
          "velocity": 0.7007874015748031,
          "duration": 0.5729166666666856
        },
        {
          "name": "C4",
          "midi": 60,
          "time": 340.00000000000006,
          "velocity": 0.6850393700787402,
          "duration": 0.5859375
        },
        {
          "name": "G3",
          "midi": 55,
          "time": 340.00000000000006,
          "velocity": 0.7952755905511811,
          "duration": 0.546875
        },
        {
          "name": "E4",
          "midi": 64,
          "time": 340.00000000000006,
          "velocity": 0.8976377952755905,
          "duration": 0.5729166666666856
        },
        {
          "name": "G4",
          "midi": 67,
          "time": 340.00000000000006,
          "velocity": 0.8976377952755905,
          "duration": 0.5533854166666856
        },
        {
          "name": "G3",
          "midi": 55,
          "time": 340.62500000000006,
          "velocity": 0.7716535433070866,
          "duration": 1.8684895833333712
        },
        {
          "name": "C3",
          "midi": 48,
          "time": 340.62500000000006,
          "velocity": 0.7716535433070866,
          "duration": 1.8684895833333712
        },
        {
          "name": "C4",
          "midi": 60,
          "time": 340.62500000000006,
          "velocity": 0.6692913385826772,
          "duration": 1.8619791666666856
        },
        {
          "name": "G4",
          "midi": 67,
          "time": 340.62500000000006,
          "velocity": 0.84251968503937,
          "duration": 1.85546875
        },
        {
          "name": "E4",
          "midi": 64,
          "time": 340.62500000000006,
          "velocity": 0.8661417322834646,
          "duration": 1.8489583333333144
        },
        {
          "name": "A3",
          "midi": 57,
          "time": 342.18098958333337,
          "velocity": 0.6141732283464567,
          "duration": 2.832031250000057
        },
        {
          "name": "D3",
          "midi": 50,
          "time": 342.18098958333337,
          "velocity": 0.7952755905511811,
          "duration": 2.7278645833333712
        },
        {
          "name": "D4",
          "midi": 62,
          "time": 342.22005208333337,
          "velocity": 0.7716535433070866,
          "duration": 2.734375000000057
        },
        {
          "name": "F4",
          "midi": 65,
          "time": 342.26562500000006,
          "velocity": 0.5826771653543307,
          "duration": 2.6627604166666856
        }
      ];
